<svg width="400" height="236" viewBox="0 0 400 236" fill="none" xmlns="http://www.w3.org/2000/svg">
<rect width="400" height="236" fill="#34394C"/>
<path d="M14.3379 19.6035V27H13.0664V19.6035H14.3379ZM12.9707 17.6416C12.9707 17.4365 13.0322 17.2633 13.1553 17.1221C13.2829 16.9808 13.4697 16.9102 13.7158 16.9102C13.9574 16.9102 14.1419 16.9808 14.2695 17.1221C14.4017 17.2633 14.4678 17.4365 14.4678 17.6416C14.4678 17.8376 14.4017 18.0062 14.2695 18.1475C14.1419 18.2842 13.9574 18.3525 13.7158 18.3525C13.4697 18.3525 13.2829 18.2842 13.1553 18.1475C13.0322 18.0062 12.9707 17.8376 12.9707 17.6416ZM17.6328 21.1826V27H16.3682V19.6035H17.5645L17.6328 21.1826ZM17.332 23.0215L16.8057 23.001C16.8102 22.4951 16.8854 22.028 17.0312 21.5996C17.1771 21.1667 17.3822 20.7907 17.6465 20.4717C17.9108 20.1527 18.2253 19.9066 18.5898 19.7334C18.959 19.5557 19.3669 19.4668 19.8135 19.4668C20.1781 19.4668 20.5062 19.5169 20.7979 19.6172C21.0895 19.7129 21.3379 19.8678 21.543 20.082C21.7526 20.2962 21.9121 20.5742 22.0215 20.916C22.1309 21.2533 22.1855 21.6657 22.1855 22.1533V27H20.9141V22.1396C20.9141 21.7523 20.8571 21.4424 20.7432 21.21C20.6292 20.973 20.4629 20.8021 20.2441 20.6973C20.0254 20.5879 19.7565 20.5332 19.4375 20.5332C19.123 20.5332 18.8359 20.5993 18.5762 20.7314C18.321 20.8636 18.0999 21.0459 17.9131 21.2783C17.7308 21.5107 17.5872 21.7773 17.4824 22.0781C17.3822 22.3743 17.332 22.6888 17.332 23.0215ZM26.3555 25.8584L28.3789 19.6035H29.6709L27.0117 27H26.1641L26.3555 25.8584ZM24.667 19.6035L26.752 25.8926L26.8955 27H26.0479L23.3682 19.6035H24.667ZM33.8613 27.1367C33.3464 27.1367 32.8792 27.0501 32.46 26.877C32.0452 26.6992 31.6875 26.4508 31.3867 26.1318C31.0905 25.8128 30.8626 25.4346 30.7031 24.9971C30.5436 24.5596 30.4639 24.0811 30.4639 23.5615V23.2744C30.4639 22.6729 30.5527 22.1374 30.7305 21.668C30.9082 21.194 31.1497 20.793 31.4551 20.4648C31.7604 20.1367 32.1068 19.8883 32.4941 19.7197C32.8815 19.5511 33.2826 19.4668 33.6973 19.4668C34.2259 19.4668 34.6816 19.5579 35.0645 19.7402C35.4518 19.9225 35.7686 20.1777 36.0146 20.5059C36.2607 20.8294 36.443 21.2122 36.5615 21.6543C36.68 22.0918 36.7393 22.5703 36.7393 23.0898V23.6572H31.2158V22.625H35.4746V22.5293C35.4564 22.2012 35.388 21.8822 35.2695 21.5723C35.1556 21.2624 34.9733 21.0072 34.7227 20.8066C34.472 20.6061 34.1302 20.5059 33.6973 20.5059C33.4102 20.5059 33.1458 20.5674 32.9043 20.6904C32.6628 20.8089 32.4554 20.9867 32.2822 21.2236C32.109 21.4606 31.9746 21.75 31.8789 22.0918C31.7832 22.4336 31.7354 22.8278 31.7354 23.2744V23.5615C31.7354 23.9124 31.7832 24.2428 31.8789 24.5527C31.9792 24.8581 32.1227 25.127 32.3096 25.3594C32.501 25.5918 32.7311 25.7741 33 25.9062C33.2734 26.0384 33.5833 26.1045 33.9297 26.1045C34.3763 26.1045 34.7546 26.0133 35.0645 25.8311C35.3743 25.6488 35.6455 25.4049 35.8779 25.0996L36.6436 25.708C36.484 25.9495 36.2812 26.1797 36.0352 26.3984C35.7891 26.6172 35.486 26.7949 35.126 26.9316C34.7705 27.0684 34.349 27.1367 33.8613 27.1367ZM39.4805 20.7656V27H38.2158V19.6035H39.4463L39.4805 20.7656ZM41.791 19.5625L41.7842 20.7383C41.6794 20.7155 41.5791 20.7018 41.4834 20.6973C41.3923 20.6882 41.2874 20.6836 41.1689 20.6836C40.8773 20.6836 40.6198 20.7292 40.3965 20.8203C40.1732 20.9115 39.984 21.0391 39.8291 21.2031C39.6742 21.3672 39.5511 21.5632 39.46 21.791C39.3734 22.0143 39.3164 22.2604 39.2891 22.5293L38.9336 22.7344C38.9336 22.2878 38.9769 21.8685 39.0635 21.4766C39.1546 21.0846 39.2936 20.7383 39.4805 20.4375C39.6673 20.1322 39.9043 19.8952 40.1914 19.7266C40.4831 19.5534 40.8294 19.4668 41.2305 19.4668C41.3216 19.4668 41.4264 19.4782 41.5449 19.501C41.6634 19.5192 41.7454 19.5397 41.791 19.5625ZM46.3984 19.6035V20.5742H42.3994V19.6035H46.3984ZM43.7529 17.8057H45.0176V25.168C45.0176 25.4186 45.0563 25.6077 45.1338 25.7354C45.2113 25.863 45.3115 25.9473 45.4346 25.9883C45.5576 26.0293 45.6898 26.0498 45.8311 26.0498C45.9359 26.0498 46.0452 26.0407 46.1592 26.0225C46.2777 25.9997 46.3665 25.9814 46.4258 25.9678L46.4326 27C46.3324 27.0319 46.2002 27.0615 46.0361 27.0889C45.8766 27.1208 45.6829 27.1367 45.4551 27.1367C45.1452 27.1367 44.8604 27.0752 44.6006 26.9521C44.3408 26.8291 44.1335 26.624 43.9785 26.3369C43.8281 26.0452 43.7529 25.6533 43.7529 25.1611V17.8057ZM50.9512 27.1367C50.4362 27.1367 49.9691 27.0501 49.5498 26.877C49.1351 26.6992 48.7773 26.4508 48.4766 26.1318C48.1803 25.8128 47.9525 25.4346 47.793 24.9971C47.6335 24.5596 47.5537 24.0811 47.5537 23.5615V23.2744C47.5537 22.6729 47.6426 22.1374 47.8203 21.668C47.998 21.194 48.2396 20.793 48.5449 20.4648C48.8503 20.1367 49.1966 19.8883 49.584 19.7197C49.9714 19.5511 50.3724 19.4668 50.7871 19.4668C51.3158 19.4668 51.7715 19.5579 52.1543 19.7402C52.5417 19.9225 52.8584 20.1777 53.1045 20.5059C53.3506 20.8294 53.5329 21.2122 53.6514 21.6543C53.7699 22.0918 53.8291 22.5703 53.8291 23.0898V23.6572H48.3057V22.625H52.5645V22.5293C52.5462 22.2012 52.4779 21.8822 52.3594 21.5723C52.2454 21.2624 52.0632 21.0072 51.8125 20.8066C51.5618 20.6061 51.2201 20.5059 50.7871 20.5059C50.5 20.5059 50.2357 20.5674 49.9941 20.6904C49.7526 20.8089 49.5452 20.9867 49.3721 21.2236C49.1989 21.4606 49.0645 21.75 48.9688 22.0918C48.873 22.4336 48.8252 22.8278 48.8252 23.2744V23.5615C48.8252 23.9124 48.873 24.2428 48.9688 24.5527C49.069 24.8581 49.2126 25.127 49.3994 25.3594C49.5908 25.5918 49.821 25.7741 50.0898 25.9062C50.3633 26.0384 50.6732 26.1045 51.0195 26.1045C51.4661 26.1045 51.8444 26.0133 52.1543 25.8311C52.4642 25.6488 52.7354 25.4049 52.9678 25.0996L53.7334 25.708C53.5739 25.9495 53.3711 26.1797 53.125 26.3984C52.8789 26.6172 52.5758 26.7949 52.2158 26.9316C51.8604 27.0684 51.4388 27.1367 50.9512 27.1367ZM59.9678 25.5645V16.5H61.2393V27H60.0771L59.9678 25.5645ZM54.9912 23.3838V23.2402C54.9912 22.6751 55.0596 22.1624 55.1963 21.7021C55.3376 21.2373 55.5358 20.8385 55.791 20.5059C56.0508 20.1732 56.3584 19.918 56.7139 19.7402C57.0739 19.5579 57.4749 19.4668 57.917 19.4668C58.3818 19.4668 58.7874 19.5488 59.1338 19.7129C59.4847 19.8724 59.7809 20.1071 60.0225 20.417C60.2686 20.7223 60.4622 21.0915 60.6035 21.5244C60.7448 21.9574 60.8428 22.4473 60.8975 22.9941V23.623C60.8473 24.1654 60.7493 24.653 60.6035 25.0859C60.4622 25.5189 60.2686 25.888 60.0225 26.1934C59.7809 26.4987 59.4847 26.7334 59.1338 26.8975C58.7829 27.057 58.3727 27.1367 57.9033 27.1367C57.4704 27.1367 57.0739 27.0433 56.7139 26.8564C56.3584 26.6696 56.0508 26.4076 55.791 26.0703C55.5358 25.7331 55.3376 25.3366 55.1963 24.8809C55.0596 24.4206 54.9912 23.9215 54.9912 23.3838ZM56.2627 23.2402V23.3838C56.2627 23.7529 56.2992 24.0993 56.3721 24.4229C56.4495 24.7464 56.568 25.0312 56.7275 25.2773C56.887 25.5234 57.0898 25.7171 57.3359 25.8584C57.582 25.9951 57.876 26.0635 58.2178 26.0635C58.637 26.0635 58.9811 25.9746 59.25 25.7969C59.5234 25.6191 59.7422 25.3844 59.9062 25.0928C60.0703 24.8011 60.1979 24.4844 60.2891 24.1426V22.4951C60.2344 22.2445 60.1546 22.0029 60.0498 21.7705C59.9495 21.5335 59.8174 21.3239 59.6533 21.1416C59.4938 20.9548 59.2956 20.8066 59.0586 20.6973C58.8262 20.5879 58.5505 20.5332 58.2314 20.5332C57.8851 20.5332 57.5866 20.6061 57.3359 20.752C57.0898 20.8932 56.887 21.0892 56.7275 21.3398C56.568 21.5859 56.4495 21.873 56.3721 22.2012C56.2992 22.5247 56.2627 22.8711 56.2627 23.2402ZM66.6738 16.5H67.9453V25.5645L67.8359 27H66.6738V16.5ZM72.9424 23.2402V23.3838C72.9424 23.9215 72.8786 24.4206 72.751 24.8809C72.6234 25.3366 72.4365 25.7331 72.1904 26.0703C71.9443 26.4076 71.6436 26.6696 71.2881 26.8564C70.9326 27.0433 70.5247 27.1367 70.0645 27.1367C69.5951 27.1367 69.1826 27.057 68.8271 26.8975C68.4762 26.7334 68.18 26.4987 67.9385 26.1934C67.6969 25.888 67.5033 25.5189 67.3574 25.0859C67.2161 24.653 67.1182 24.1654 67.0635 23.623V22.9941C67.1182 22.4473 67.2161 21.9574 67.3574 21.5244C67.5033 21.0915 67.6969 20.7223 67.9385 20.417C68.18 20.1071 68.4762 19.8724 68.8271 19.7129C69.1781 19.5488 69.5859 19.4668 70.0508 19.4668C70.5156 19.4668 70.9281 19.5579 71.2881 19.7402C71.6481 19.918 71.9489 20.1732 72.1904 20.5059C72.4365 20.8385 72.6234 21.2373 72.751 21.7021C72.8786 22.1624 72.9424 22.6751 72.9424 23.2402ZM71.6709 23.3838V23.2402C71.6709 22.8711 71.6367 22.5247 71.5684 22.2012C71.5 21.873 71.3906 21.5859 71.2402 21.3398C71.0898 21.0892 70.8916 20.8932 70.6455 20.752C70.3994 20.6061 70.0964 20.5332 69.7363 20.5332C69.4173 20.5332 69.1393 20.5879 68.9023 20.6973C68.6699 20.8066 68.4717 20.9548 68.3076 21.1416C68.1436 21.3239 68.0091 21.5335 67.9043 21.7705C67.804 22.0029 67.7288 22.2445 67.6787 22.4951V24.1426C67.7516 24.4616 67.8701 24.7692 68.0342 25.0654C68.2028 25.3571 68.4261 25.5964 68.7041 25.7832C68.9867 25.9701 69.3353 26.0635 69.75 26.0635C70.0918 26.0635 70.3835 25.9951 70.625 25.8584C70.8711 25.7171 71.0693 25.5234 71.2197 25.2773C71.3747 25.0312 71.4886 24.7464 71.5615 24.4229C71.6344 24.0993 71.6709 23.7529 71.6709 23.3838ZM78.9033 25.7354V21.9277C78.9033 21.6361 78.8441 21.3831 78.7256 21.1689C78.6117 20.9502 78.4385 20.7816 78.2061 20.6631C77.9736 20.5446 77.6865 20.4854 77.3447 20.4854C77.0257 20.4854 76.7454 20.54 76.5039 20.6494C76.2669 20.7588 76.0801 20.9023 75.9434 21.0801C75.8112 21.2578 75.7451 21.4492 75.7451 21.6543H74.4805C74.4805 21.39 74.5488 21.1279 74.6855 20.8682C74.8223 20.6084 75.0182 20.3737 75.2734 20.1641C75.5332 19.9499 75.8431 19.7812 76.2031 19.6582C76.5677 19.5306 76.9733 19.4668 77.4199 19.4668C77.9577 19.4668 78.4316 19.5579 78.8418 19.7402C79.2565 19.9225 79.5801 20.1982 79.8125 20.5674C80.0495 20.932 80.168 21.39 80.168 21.9414V25.3867C80.168 25.6328 80.1885 25.8949 80.2295 26.1729C80.2751 26.4508 80.3411 26.6901 80.4277 26.8906V27H79.1084C79.0446 26.8542 78.9945 26.6605 78.958 26.4189C78.9215 26.1729 78.9033 25.945 78.9033 25.7354ZM79.1221 22.5156L79.1357 23.4043H77.8574C77.4974 23.4043 77.1761 23.4339 76.8936 23.4932C76.611 23.5479 76.374 23.6322 76.1826 23.7461C75.9912 23.86 75.8454 24.0036 75.7451 24.1768C75.6449 24.3454 75.5947 24.5436 75.5947 24.7715C75.5947 25.0039 75.6471 25.2158 75.752 25.4072C75.8568 25.5986 76.014 25.7513 76.2236 25.8652C76.4378 25.9746 76.6999 26.0293 77.0098 26.0293C77.3971 26.0293 77.7389 25.9473 78.0352 25.7832C78.3314 25.6191 78.5661 25.4186 78.7393 25.1816C78.917 24.9447 79.0127 24.7145 79.0264 24.4912L79.5664 25.0996C79.5345 25.291 79.4479 25.5029 79.3066 25.7354C79.1654 25.9678 78.9762 26.1911 78.7393 26.4053C78.5068 26.6149 78.2288 26.7904 77.9053 26.9316C77.5863 27.0684 77.2262 27.1367 76.8252 27.1367C76.3239 27.1367 75.8841 27.0387 75.5059 26.8428C75.1322 26.6468 74.8405 26.3848 74.6309 26.0566C74.4258 25.724 74.3232 25.3525 74.3232 24.9424C74.3232 24.5459 74.4007 24.1973 74.5557 23.8965C74.7106 23.5911 74.9339 23.3382 75.2256 23.1377C75.5173 22.9326 75.8682 22.7777 76.2783 22.6729C76.6885 22.568 77.1465 22.5156 77.6523 22.5156H79.1221ZM85.1172 26.0977C85.418 26.0977 85.696 26.0361 85.9512 25.9131C86.2064 25.79 86.416 25.6214 86.5801 25.4072C86.7441 25.1885 86.8376 24.9401 86.8604 24.6621H88.0635C88.0407 25.0996 87.8926 25.5075 87.6191 25.8857C87.3503 26.2594 86.9971 26.5625 86.5596 26.7949C86.1221 27.0228 85.6413 27.1367 85.1172 27.1367C84.5612 27.1367 84.0758 27.0387 83.6611 26.8428C83.251 26.6468 82.9092 26.3779 82.6357 26.0361C82.3669 25.6943 82.1641 25.3024 82.0273 24.8604C81.8952 24.4137 81.8291 23.9421 81.8291 23.4453V23.1582C81.8291 22.6615 81.8952 22.1921 82.0273 21.75C82.1641 21.3034 82.3669 20.9092 82.6357 20.5674C82.9092 20.2256 83.251 19.9567 83.6611 19.7607C84.0758 19.5648 84.5612 19.4668 85.1172 19.4668C85.696 19.4668 86.2018 19.5853 86.6348 19.8223C87.0677 20.0547 87.4072 20.3737 87.6533 20.7793C87.904 21.1803 88.0407 21.6361 88.0635 22.1465H86.8604C86.8376 21.8411 86.751 21.5654 86.6006 21.3193C86.4548 21.0732 86.2542 20.8773 85.999 20.7314C85.7484 20.5811 85.4544 20.5059 85.1172 20.5059C84.7298 20.5059 84.404 20.5833 84.1396 20.7383C83.8799 20.8887 83.6725 21.0938 83.5176 21.3535C83.3672 21.6087 83.2578 21.8936 83.1895 22.208C83.1257 22.5179 83.0938 22.8346 83.0938 23.1582V23.4453C83.0938 23.7689 83.1257 24.0879 83.1895 24.4023C83.2533 24.7168 83.3604 25.0016 83.5107 25.2568C83.6657 25.512 83.873 25.7171 84.1328 25.8721C84.3971 26.0225 84.7253 26.0977 85.1172 26.0977ZM90.7568 16.5V27H89.4854V16.5H90.7568ZM95.2754 19.6035L92.0488 23.0557L90.2441 24.9287L90.1416 23.582L91.4336 22.0371L93.7305 19.6035H95.2754ZM94.1201 27L91.4814 23.4727L92.1377 22.3447L95.6104 27H94.1201ZM101.236 19.6035H102.385V26.8428C102.385 27.4945 102.253 28.0505 101.988 28.5107C101.724 28.971 101.355 29.3197 100.881 29.5566C100.411 29.7982 99.8691 29.9189 99.2539 29.9189C98.9987 29.9189 98.6979 29.8779 98.3516 29.7959C98.0098 29.7184 97.6725 29.584 97.3398 29.3926C97.0117 29.2057 96.736 28.9528 96.5127 28.6338L97.1758 27.8818C97.4857 28.2555 97.8092 28.5153 98.1465 28.6611C98.4883 28.807 98.8255 28.8799 99.1582 28.8799C99.5592 28.8799 99.9056 28.8047 100.197 28.6543C100.489 28.5039 100.715 28.2806 100.874 27.9844C101.038 27.6927 101.12 27.3327 101.12 26.9043V21.2305L101.236 19.6035ZM96.1436 23.3838V23.2402C96.1436 22.6751 96.2096 22.1624 96.3418 21.7021C96.4785 21.2373 96.6722 20.8385 96.9229 20.5059C97.1781 20.1732 97.4857 19.918 97.8457 19.7402C98.2057 19.5579 98.6113 19.4668 99.0625 19.4668C99.5273 19.4668 99.9329 19.5488 100.279 19.7129C100.63 19.8724 100.926 20.1071 101.168 20.417C101.414 20.7223 101.608 21.0915 101.749 21.5244C101.89 21.9574 101.988 22.4473 102.043 22.9941V23.623C101.993 24.1654 101.895 24.653 101.749 25.0859C101.608 25.5189 101.414 25.888 101.168 26.1934C100.926 26.4987 100.63 26.7334 100.279 26.8975C99.9284 27.057 99.5182 27.1367 99.0488 27.1367C98.6068 27.1367 98.2057 27.0433 97.8457 26.8564C97.4902 26.6696 97.1849 26.4076 96.9297 26.0703C96.6745 25.7331 96.4785 25.3366 96.3418 24.8809C96.2096 24.4206 96.1436 23.9215 96.1436 23.3838ZM97.4082 23.2402V23.3838C97.4082 23.7529 97.4447 24.0993 97.5176 24.4229C97.5951 24.7464 97.7113 25.0312 97.8662 25.2773C98.0257 25.5234 98.2285 25.7171 98.4746 25.8584C98.7207 25.9951 99.0146 26.0635 99.3564 26.0635C99.7757 26.0635 100.122 25.9746 100.396 25.7969C100.669 25.6191 100.885 25.3844 101.045 25.0928C101.209 24.8011 101.337 24.4844 101.428 24.1426V22.4951C101.378 22.2445 101.3 22.0029 101.195 21.7705C101.095 21.5335 100.963 21.3239 100.799 21.1416C100.639 20.9548 100.441 20.8066 100.204 20.6973C99.9671 20.5879 99.6891 20.5332 99.3701 20.5332C99.0238 20.5332 98.7253 20.6061 98.4746 20.752C98.2285 20.8932 98.0257 21.0892 97.8662 21.3398C97.7113 21.5859 97.5951 21.873 97.5176 22.2012C97.4447 22.5247 97.4082 22.8711 97.4082 23.2402ZM105.57 20.7656V27H104.306V19.6035H105.536L105.57 20.7656ZM107.881 19.5625L107.874 20.7383C107.769 20.7155 107.669 20.7018 107.573 20.6973C107.482 20.6882 107.377 20.6836 107.259 20.6836C106.967 20.6836 106.71 20.7292 106.486 20.8203C106.263 20.9115 106.074 21.0391 105.919 21.2031C105.764 21.3672 105.641 21.5632 105.55 21.791C105.463 22.0143 105.406 22.2604 105.379 22.5293L105.023 22.7344C105.023 22.2878 105.067 21.8685 105.153 21.4766C105.244 21.0846 105.383 20.7383 105.57 20.4375C105.757 20.1322 105.994 19.8952 106.281 19.7266C106.573 19.5534 106.919 19.4668 107.32 19.4668C107.411 19.4668 107.516 19.4782 107.635 19.501C107.753 19.5192 107.835 19.5397 107.881 19.5625ZM108.578 23.3838V23.2266C108.578 22.6934 108.656 22.1989 108.811 21.7432C108.965 21.2829 109.189 20.8841 109.48 20.5469C109.772 20.2051 110.125 19.9408 110.54 19.7539C110.955 19.5625 111.42 19.4668 111.935 19.4668C112.454 19.4668 112.921 19.5625 113.336 19.7539C113.755 19.9408 114.111 20.2051 114.402 20.5469C114.699 20.8841 114.924 21.2829 115.079 21.7432C115.234 22.1989 115.312 22.6934 115.312 23.2266V23.3838C115.312 23.917 115.234 24.4115 115.079 24.8672C114.924 25.3229 114.699 25.7217 114.402 26.0635C114.111 26.4007 113.757 26.665 113.343 26.8564C112.933 27.0433 112.468 27.1367 111.948 27.1367C111.429 27.1367 110.962 27.0433 110.547 26.8564C110.132 26.665 109.777 26.4007 109.48 26.0635C109.189 25.7217 108.965 25.3229 108.811 24.8672C108.656 24.4115 108.578 23.917 108.578 23.3838ZM109.843 23.2266V23.3838C109.843 23.7529 109.886 24.1016 109.973 24.4297C110.059 24.7533 110.189 25.0404 110.362 25.291C110.54 25.5417 110.761 25.7399 111.025 25.8857C111.29 26.027 111.597 26.0977 111.948 26.0977C112.295 26.0977 112.598 26.027 112.857 25.8857C113.122 25.7399 113.34 25.5417 113.514 25.291C113.687 25.0404 113.817 24.7533 113.903 24.4297C113.994 24.1016 114.04 23.7529 114.04 23.3838V23.2266C114.04 22.862 113.994 22.5179 113.903 22.1943C113.817 21.8662 113.685 21.5768 113.507 21.3262C113.334 21.071 113.115 20.8704 112.851 20.7246C112.591 20.5788 112.285 20.5059 111.935 20.5059C111.588 20.5059 111.283 20.5788 111.019 20.7246C110.759 20.8704 110.54 21.071 110.362 21.3262C110.189 21.5768 110.059 21.8662 109.973 22.1943C109.886 22.5179 109.843 22.862 109.843 23.2266ZM121.423 25.291V19.6035H122.694V27H121.484L121.423 25.291ZM121.662 23.7324L122.188 23.7188C122.188 24.2109 122.136 24.6667 122.031 25.0859C121.931 25.5007 121.767 25.8607 121.539 26.166C121.311 26.4714 121.013 26.7106 120.644 26.8838C120.274 27.0524 119.826 27.1367 119.297 27.1367C118.937 27.1367 118.606 27.0843 118.306 26.9795C118.009 26.8747 117.754 26.7129 117.54 26.4941C117.326 26.2754 117.16 25.9906 117.041 25.6396C116.927 25.2887 116.87 24.8672 116.87 24.375V19.6035H118.135V24.3887C118.135 24.7214 118.171 24.9971 118.244 25.2158C118.322 25.43 118.424 25.6009 118.552 25.7285C118.684 25.8516 118.83 25.9382 118.989 25.9883C119.153 26.0384 119.322 26.0635 119.495 26.0635C120.033 26.0635 120.459 25.9609 120.773 25.7559C121.088 25.5462 121.313 25.266 121.45 24.915C121.591 24.5596 121.662 24.1654 121.662 23.7324ZM125.887 21.1826V27H124.622V19.6035H125.818L125.887 21.1826ZM125.586 23.0215L125.06 23.001C125.064 22.4951 125.139 22.028 125.285 21.5996C125.431 21.1667 125.636 20.7907 125.9 20.4717C126.165 20.1527 126.479 19.9066 126.844 19.7334C127.213 19.5557 127.621 19.4668 128.067 19.4668C128.432 19.4668 128.76 19.5169 129.052 19.6172C129.343 19.7129 129.592 19.8678 129.797 20.082C130.007 20.2962 130.166 20.5742 130.275 20.916C130.385 21.2533 130.439 21.6657 130.439 22.1533V27H129.168V22.1396C129.168 21.7523 129.111 21.4424 128.997 21.21C128.883 20.973 128.717 20.8021 128.498 20.6973C128.279 20.5879 128.01 20.5332 127.691 20.5332C127.377 20.5332 127.09 20.5993 126.83 20.7314C126.575 20.8636 126.354 21.0459 126.167 21.2783C125.985 21.5107 125.841 21.7773 125.736 22.0781C125.636 22.3743 125.586 22.6888 125.586 23.0215ZM137.022 25.5645V16.5H138.294V27H137.132L137.022 25.5645ZM132.046 23.3838V23.2402C132.046 22.6751 132.114 22.1624 132.251 21.7021C132.392 21.2373 132.59 20.8385 132.846 20.5059C133.105 20.1732 133.413 19.918 133.769 19.7402C134.129 19.5579 134.53 19.4668 134.972 19.4668C135.437 19.4668 135.842 19.5488 136.188 19.7129C136.539 19.8724 136.836 20.1071 137.077 20.417C137.323 20.7223 137.517 21.0915 137.658 21.5244C137.799 21.9574 137.897 22.4473 137.952 22.9941V23.623C137.902 24.1654 137.804 24.653 137.658 25.0859C137.517 25.5189 137.323 25.888 137.077 26.1934C136.836 26.4987 136.539 26.7334 136.188 26.8975C135.838 27.057 135.427 27.1367 134.958 27.1367C134.525 27.1367 134.129 27.0433 133.769 26.8564C133.413 26.6696 133.105 26.4076 132.846 26.0703C132.59 25.7331 132.392 25.3366 132.251 24.8809C132.114 24.4206 132.046 23.9215 132.046 23.3838ZM133.317 23.2402V23.3838C133.317 23.7529 133.354 24.0993 133.427 24.4229C133.504 24.7464 133.623 25.0312 133.782 25.2773C133.942 25.5234 134.145 25.7171 134.391 25.8584C134.637 25.9951 134.931 26.0635 135.272 26.0635C135.692 26.0635 136.036 25.9746 136.305 25.7969C136.578 25.6191 136.797 25.3844 136.961 25.0928C137.125 24.8011 137.253 24.4844 137.344 24.1426V22.4951C137.289 22.2445 137.209 22.0029 137.104 21.7705C137.004 21.5335 136.872 21.3239 136.708 21.1416C136.549 20.9548 136.35 20.8066 136.113 20.6973C135.881 20.5879 135.605 20.5332 135.286 20.5332C134.94 20.5332 134.641 20.6061 134.391 20.752C134.145 20.8932 133.942 21.0892 133.782 21.3398C133.623 21.5859 133.504 21.873 133.427 22.2012C133.354 22.5247 133.317 22.8711 133.317 23.2402ZM144.569 25.0381C144.569 24.8558 144.528 24.6872 144.446 24.5322C144.369 24.3727 144.207 24.2292 143.961 24.1016C143.719 23.9694 143.355 23.8555 142.867 23.7598C142.457 23.6732 142.086 23.5706 141.753 23.4521C141.425 23.3337 141.145 23.1901 140.912 23.0215C140.684 22.8529 140.509 22.6546 140.386 22.4268C140.263 22.1989 140.201 21.9323 140.201 21.627C140.201 21.3353 140.265 21.0596 140.393 20.7998C140.525 20.54 140.709 20.3099 140.946 20.1094C141.188 19.9089 141.477 19.7516 141.814 19.6377C142.152 19.5238 142.528 19.4668 142.942 19.4668C143.535 19.4668 144.041 19.5716 144.46 19.7812C144.879 19.9909 145.201 20.2712 145.424 20.6221C145.647 20.9684 145.759 21.3535 145.759 21.7773H144.494C144.494 21.5723 144.433 21.374 144.31 21.1826C144.191 20.9867 144.016 20.8249 143.783 20.6973C143.555 20.5697 143.275 20.5059 142.942 20.5059C142.591 20.5059 142.307 20.5605 142.088 20.6699C141.874 20.7747 141.716 20.9092 141.616 21.0732C141.521 21.2373 141.473 21.4105 141.473 21.5928C141.473 21.7295 141.495 21.8525 141.541 21.9619C141.591 22.0667 141.678 22.1647 141.801 22.2559C141.924 22.3424 142.097 22.4245 142.32 22.502C142.544 22.5794 142.828 22.6569 143.175 22.7344C143.781 22.8711 144.28 23.0352 144.672 23.2266C145.064 23.418 145.355 23.6527 145.547 23.9307C145.738 24.2087 145.834 24.5459 145.834 24.9424C145.834 25.266 145.766 25.5622 145.629 25.8311C145.497 26.0999 145.303 26.3324 145.048 26.5283C144.797 26.7197 144.496 26.8701 144.146 26.9795C143.799 27.0843 143.41 27.1367 142.977 27.1367C142.325 27.1367 141.773 27.0205 141.322 26.7881C140.871 26.5557 140.529 26.2549 140.297 25.8857C140.064 25.5166 139.948 25.127 139.948 24.7168H141.22C141.238 25.0632 141.338 25.3389 141.521 25.5439C141.703 25.7445 141.926 25.888 142.19 25.9746C142.455 26.0566 142.717 26.0977 142.977 26.0977C143.323 26.0977 143.612 26.0521 143.845 25.9609C144.082 25.8698 144.262 25.7445 144.385 25.585C144.508 25.4255 144.569 25.2432 144.569 25.0381Z" fill="white"/>
<rect x="12.5" y="36.5" width="93" height="93" fill="#34394C" stroke="#262B3B"/>
<rect x="106" y="36" width="94" height="94" fill="#262B3B"/>
<rect x="200" y="36" width="94" height="94" fill="#004277"/>
<rect x="294" y="36" width="94" height="94" fill="#005AA3"/>
<rect x="12" y="130" width="94" height="94" fill="#2C7A4C"/>
<rect x="106" y="130" width="94" height="94" fill="#C43939"/>
<rect x="200" y="130" width="94" height="94" fill="#005AA3"/>
<rect x="294" y="130" width="94" height="94" fill="#8C630A"/>
</svg>
