<svg width="376" height="222" viewBox="0 0 376 222" fill="none" xmlns="http://www.w3.org/2000/svg">
<path d="M0.957031 4.5H2.22852V13.5645L2.11914 15H0.957031V4.5ZM7.22559 11.2402V11.3838C7.22559 11.9215 7.16178 12.4206 7.03418 12.8809C6.90658 13.3366 6.71973 13.7331 6.47363 14.0703C6.22754 14.4076 5.92676 14.6696 5.57129 14.8564C5.21582 15.0433 4.80794 15.1367 4.34766 15.1367C3.87826 15.1367 3.46582 15.057 3.11035 14.8975C2.75944 14.7334 2.46322 14.4987 2.22168 14.1934C1.98014 13.888 1.78646 13.5189 1.64062 13.0859C1.49935 12.653 1.40137 12.1654 1.34668 11.623V10.9941C1.40137 10.4473 1.49935 9.95736 1.64062 9.52441C1.78646 9.09147 1.98014 8.72233 2.22168 8.41699C2.46322 8.1071 2.75944 7.8724 3.11035 7.71289C3.46126 7.54883 3.86914 7.4668 4.33398 7.4668C4.79883 7.4668 5.21126 7.55794 5.57129 7.74023C5.93132 7.91797 6.2321 8.17318 6.47363 8.50586C6.71973 8.83854 6.90658 9.2373 7.03418 9.70215C7.16178 10.1624 7.22559 10.6751 7.22559 11.2402ZM5.9541 11.3838V11.2402C5.9541 10.8711 5.91992 10.5247 5.85156 10.2012C5.7832 9.87305 5.67383 9.58594 5.52344 9.33984C5.37305 9.08919 5.1748 8.89323 4.92871 8.75195C4.68262 8.60612 4.37956 8.5332 4.01953 8.5332C3.70052 8.5332 3.42253 8.58789 3.18555 8.69727C2.95312 8.80664 2.75488 8.95475 2.59082 9.1416C2.42676 9.32389 2.29232 9.53353 2.1875 9.77051C2.08724 10.0029 2.01204 10.2445 1.96191 10.4951V12.1426C2.03483 12.4616 2.15332 12.7692 2.31738 13.0654C2.486 13.3571 2.70931 13.5964 2.9873 13.7832C3.26986 13.9701 3.61849 14.0635 4.0332 14.0635C4.375 14.0635 4.66667 13.9951 4.9082 13.8584C5.1543 13.7171 5.35254 13.5234 5.50293 13.2773C5.65788 13.0312 5.77181 12.7464 5.84473 12.4229C5.91764 12.0993 5.9541 11.7529 5.9541 11.3838ZM13.1865 13.7354V9.92773C13.1865 9.63607 13.1273 9.38314 13.0088 9.16895C12.8949 8.9502 12.7217 8.78158 12.4893 8.66309C12.2568 8.5446 11.9697 8.48535 11.6279 8.48535C11.3089 8.48535 11.0286 8.54004 10.7871 8.64941C10.5501 8.75879 10.3633 8.90234 10.2266 9.08008C10.0944 9.25781 10.0283 9.44922 10.0283 9.6543H8.76367C8.76367 9.38997 8.83203 9.12793 8.96875 8.86816C9.10547 8.6084 9.30143 8.3737 9.55664 8.16406C9.81641 7.94987 10.1263 7.78125 10.4863 7.6582C10.8509 7.5306 11.2565 7.4668 11.7031 7.4668C12.2409 7.4668 12.7148 7.55794 13.125 7.74023C13.5397 7.92253 13.8633 8.19824 14.0957 8.56738C14.3327 8.93197 14.4512 9.38997 14.4512 9.94141V13.3867C14.4512 13.6328 14.4717 13.8949 14.5127 14.1729C14.5583 14.4508 14.6243 14.6901 14.7109 14.8906V15H13.3916C13.3278 14.8542 13.2777 14.6605 13.2412 14.4189C13.2048 14.1729 13.1865 13.945 13.1865 13.7354ZM13.4053 10.5156L13.4189 11.4043H12.1406C11.7806 11.4043 11.4593 11.4339 11.1768 11.4932C10.8942 11.5479 10.6572 11.6322 10.4658 11.7461C10.2744 11.86 10.1286 12.0036 10.0283 12.1768C9.92806 12.3454 9.87793 12.5436 9.87793 12.7715C9.87793 13.0039 9.93034 13.2158 10.0352 13.4072C10.14 13.5986 10.2972 13.7513 10.5068 13.8652C10.721 13.9746 10.9831 14.0293 11.293 14.0293C11.6803 14.0293 12.0221 13.9473 12.3184 13.7832C12.6146 13.6191 12.8493 13.4186 13.0225 13.1816C13.2002 12.9447 13.2959 12.7145 13.3096 12.4912L13.8496 13.0996C13.8177 13.291 13.7311 13.5029 13.5898 13.7354C13.4486 13.9678 13.2594 14.1911 13.0225 14.4053C12.79 14.6149 12.512 14.7904 12.1885 14.9316C11.8695 15.0684 11.5094 15.1367 11.1084 15.1367C10.6071 15.1367 10.1673 15.0387 9.78906 14.8428C9.41536 14.6468 9.1237 14.3848 8.91406 14.0566C8.70898 13.724 8.60645 13.3525 8.60645 12.9424C8.60645 12.5459 8.68392 12.1973 8.83887 11.8965C8.99382 11.5911 9.21712 11.3382 9.50879 11.1377C9.80046 10.9326 10.1514 10.7777 10.5615 10.6729C10.9717 10.568 11.4297 10.5156 11.9355 10.5156H13.4053ZM19.4004 14.0977C19.7012 14.0977 19.9792 14.0361 20.2344 13.9131C20.4896 13.79 20.6992 13.6214 20.8633 13.4072C21.0273 13.1885 21.1208 12.9401 21.1436 12.6621H22.3467C22.3239 13.0996 22.1758 13.5075 21.9023 13.8857C21.6335 14.2594 21.2803 14.5625 20.8428 14.7949C20.4053 15.0228 19.9245 15.1367 19.4004 15.1367C18.8444 15.1367 18.359 15.0387 17.9443 14.8428C17.5342 14.6468 17.1924 14.3779 16.9189 14.0361C16.6501 13.6943 16.4473 13.3024 16.3105 12.8604C16.1784 12.4137 16.1123 11.9421 16.1123 11.4453V11.1582C16.1123 10.6615 16.1784 10.1921 16.3105 9.75C16.4473 9.30339 16.6501 8.90918 16.9189 8.56738C17.1924 8.22559 17.5342 7.95671 17.9443 7.76074C18.359 7.56478 18.8444 7.4668 19.4004 7.4668C19.9792 7.4668 20.485 7.58529 20.918 7.82227C21.3509 8.05469 21.6904 8.3737 21.9365 8.7793C22.1872 9.18034 22.3239 9.63607 22.3467 10.1465H21.1436C21.1208 9.84115 21.0342 9.56543 20.8838 9.31934C20.738 9.07324 20.5374 8.87728 20.2822 8.73145C20.0316 8.58105 19.7376 8.50586 19.4004 8.50586C19.013 8.50586 18.6872 8.58333 18.4229 8.73828C18.1631 8.88867 17.9557 9.09375 17.8008 9.35352C17.6504 9.60872 17.541 9.89355 17.4727 10.208C17.4089 10.5179 17.377 10.8346 17.377 11.1582V11.4453C17.377 11.7689 17.4089 12.0879 17.4727 12.4023C17.5365 12.7168 17.6436 13.0016 17.7939 13.2568C17.9489 13.512 18.1562 13.7171 18.416 13.8721C18.6803 14.0225 19.0085 14.0977 19.4004 14.0977ZM25.04 4.5V15H23.7686V4.5H25.04ZM29.5586 7.60352L26.332 11.0557L24.5273 12.9287L24.4248 11.582L25.7168 10.0371L28.0137 7.60352H29.5586ZM28.4033 15L25.7646 11.4727L26.4209 10.3447L29.8936 15H28.4033ZM35.5195 7.60352H36.668V14.8428C36.668 15.4945 36.5358 16.0505 36.2715 16.5107C36.0072 16.971 35.638 17.3197 35.1641 17.5566C34.6947 17.7982 34.1523 17.9189 33.5371 17.9189C33.2819 17.9189 32.9811 17.8779 32.6348 17.7959C32.293 17.7184 31.9557 17.584 31.623 17.3926C31.2949 17.2057 31.0192 16.9528 30.7959 16.6338L31.459 15.8818C31.7689 16.2555 32.0924 16.5153 32.4297 16.6611C32.7715 16.807 33.1087 16.8799 33.4414 16.8799C33.8424 16.8799 34.1888 16.8047 34.4805 16.6543C34.7721 16.5039 34.9977 16.2806 35.1572 15.9844C35.3213 15.6927 35.4033 15.3327 35.4033 14.9043V9.23047L35.5195 7.60352ZM30.4268 11.3838V11.2402C30.4268 10.6751 30.4928 10.1624 30.625 9.70215C30.7617 9.2373 30.9554 8.83854 31.2061 8.50586C31.4613 8.17318 31.7689 7.91797 32.1289 7.74023C32.4889 7.55794 32.8945 7.4668 33.3457 7.4668C33.8105 7.4668 34.2161 7.54883 34.5625 7.71289C34.9134 7.8724 35.2096 8.1071 35.4512 8.41699C35.6973 8.72233 35.891 9.09147 36.0322 9.52441C36.1735 9.95736 36.2715 10.4473 36.3262 10.9941V11.623C36.276 12.1654 36.1781 12.653 36.0322 13.0859C35.891 13.5189 35.6973 13.888 35.4512 14.1934C35.2096 14.4987 34.9134 14.7334 34.5625 14.8975C34.2116 15.057 33.8014 15.1367 33.332 15.1367C32.89 15.1367 32.4889 15.0433 32.1289 14.8564C31.7734 14.6696 31.4681 14.4076 31.2129 14.0703C30.9577 13.7331 30.7617 13.3366 30.625 12.8809C30.4928 12.4206 30.4268 11.9215 30.4268 11.3838ZM31.6914 11.2402V11.3838C31.6914 11.7529 31.7279 12.0993 31.8008 12.4229C31.8783 12.7464 31.9945 13.0312 32.1494 13.2773C32.3089 13.5234 32.5117 13.7171 32.7578 13.8584C33.0039 13.9951 33.2979 14.0635 33.6396 14.0635C34.0589 14.0635 34.4053 13.9746 34.6787 13.7969C34.9521 13.6191 35.1686 13.3844 35.3281 13.0928C35.4922 12.8011 35.6198 12.4844 35.7109 12.1426V10.4951C35.6608 10.2445 35.5833 10.0029 35.4785 9.77051C35.3783 9.53353 35.2461 9.32389 35.082 9.1416C34.9225 8.95475 34.7243 8.80664 34.4873 8.69727C34.2503 8.58789 33.9723 8.5332 33.6533 8.5332C33.307 8.5332 33.0085 8.60612 32.7578 8.75195C32.5117 8.89323 32.3089 9.08919 32.1494 9.33984C31.9945 9.58594 31.8783 9.87305 31.8008 10.2012C31.7279 10.5247 31.6914 10.8711 31.6914 11.2402ZM39.8535 8.76562V15H38.5889V7.60352H39.8193L39.8535 8.76562ZM42.1641 7.5625L42.1572 8.73828C42.0524 8.71549 41.9521 8.70182 41.8564 8.69727C41.7653 8.68815 41.6605 8.68359 41.542 8.68359C41.2503 8.68359 40.9928 8.72917 40.7695 8.82031C40.5462 8.91146 40.3571 9.03906 40.2021 9.20312C40.0472 9.36719 39.9242 9.56315 39.833 9.79102C39.7464 10.0143 39.6895 10.2604 39.6621 10.5293L39.3066 10.7344C39.3066 10.2878 39.3499 9.86849 39.4365 9.47656C39.5277 9.08464 39.6667 8.73828 39.8535 8.4375C40.0404 8.13216 40.2773 7.89518 40.5645 7.72656C40.8561 7.55339 41.2025 7.4668 41.6035 7.4668C41.6947 7.4668 41.7995 7.47819 41.918 7.50098C42.0365 7.51921 42.1185 7.53971 42.1641 7.5625ZM42.8613 11.3838V11.2266C42.8613 10.6934 42.9388 10.1989 43.0938 9.74316C43.2487 9.28288 43.472 8.88411 43.7637 8.54688C44.0553 8.20508 44.4085 7.94076 44.8232 7.75391C45.238 7.5625 45.7028 7.4668 46.2178 7.4668C46.7373 7.4668 47.2044 7.5625 47.6191 7.75391C48.0384 7.94076 48.3939 8.20508 48.6855 8.54688C48.9818 8.88411 49.2074 9.28288 49.3623 9.74316C49.5173 10.1989 49.5947 10.6934 49.5947 11.2266V11.3838C49.5947 11.917 49.5173 12.4115 49.3623 12.8672C49.2074 13.3229 48.9818 13.7217 48.6855 14.0635C48.3939 14.4007 48.0407 14.665 47.626 14.8564C47.2158 15.0433 46.751 15.1367 46.2314 15.1367C45.7119 15.1367 45.2448 15.0433 44.8301 14.8564C44.4154 14.665 44.0599 14.4007 43.7637 14.0635C43.472 13.7217 43.2487 13.3229 43.0938 12.8672C42.9388 12.4115 42.8613 11.917 42.8613 11.3838ZM44.126 11.2266V11.3838C44.126 11.7529 44.1693 12.1016 44.2559 12.4297C44.3424 12.7533 44.4723 13.0404 44.6455 13.291C44.8232 13.5417 45.0443 13.7399 45.3086 13.8857C45.5729 14.027 45.8805 14.0977 46.2314 14.0977C46.5778 14.0977 46.8809 14.027 47.1406 13.8857C47.4049 13.7399 47.6237 13.5417 47.7969 13.291C47.9701 13.0404 48.0999 12.7533 48.1865 12.4297C48.2777 12.1016 48.3232 11.7529 48.3232 11.3838V11.2266C48.3232 10.862 48.2777 10.5179 48.1865 10.1943C48.0999 9.86621 47.9678 9.57682 47.79 9.32617C47.6169 9.07096 47.3981 8.87044 47.1338 8.72461C46.874 8.57878 46.5687 8.50586 46.2178 8.50586C45.8714 8.50586 45.5661 8.57878 45.3018 8.72461C45.042 8.87044 44.8232 9.07096 44.6455 9.32617C44.4723 9.57682 44.3424 9.86621 44.2559 10.1943C44.1693 10.5179 44.126 10.862 44.126 11.2266ZM55.7061 13.291V7.60352H56.9775V15H55.7676L55.7061 13.291ZM55.9453 11.7324L56.4717 11.7188C56.4717 12.2109 56.4193 12.6667 56.3145 13.0859C56.2142 13.5007 56.0501 13.8607 55.8223 14.166C55.5944 14.4714 55.2959 14.7106 54.9268 14.8838C54.5576 15.0524 54.1087 15.1367 53.5801 15.1367C53.2201 15.1367 52.8896 15.0843 52.5889 14.9795C52.2926 14.8747 52.0374 14.7129 51.8232 14.4941C51.609 14.2754 51.4427 13.9906 51.3242 13.6396C51.2103 13.2887 51.1533 12.8672 51.1533 12.375V7.60352H52.418V12.3887C52.418 12.7214 52.4544 12.9971 52.5273 13.2158C52.6048 13.43 52.7074 13.6009 52.835 13.7285C52.9671 13.8516 53.113 13.9382 53.2725 13.9883C53.4365 14.0384 53.6051 14.0635 53.7783 14.0635C54.3161 14.0635 54.7422 13.9609 55.0566 13.7559C55.3711 13.5462 55.5967 13.266 55.7334 12.915C55.8747 12.5596 55.9453 12.1654 55.9453 11.7324ZM60.1699 9.18262V15H58.9053V7.60352H60.1016L60.1699 9.18262ZM59.8691 11.0215L59.3428 11.001C59.3473 10.4951 59.4225 10.028 59.5684 9.59961C59.7142 9.16667 59.9193 8.79069 60.1836 8.47168C60.4479 8.15267 60.7624 7.90658 61.127 7.7334C61.4961 7.55566 61.904 7.4668 62.3506 7.4668C62.7152 7.4668 63.0433 7.51693 63.335 7.61719C63.6266 7.71289 63.875 7.86784 64.0801 8.08203C64.2897 8.29622 64.4492 8.57422 64.5586 8.91602C64.668 9.25326 64.7227 9.66569 64.7227 10.1533V15H63.4512V10.1396C63.4512 9.75228 63.3942 9.44238 63.2803 9.20996C63.1663 8.97298 63 8.80208 62.7812 8.69727C62.5625 8.58789 62.2936 8.5332 61.9746 8.5332C61.6602 8.5332 61.373 8.59928 61.1133 8.73145C60.8581 8.86361 60.637 9.0459 60.4502 9.27832C60.2679 9.51074 60.1243 9.77734 60.0195 10.0781C59.9193 10.3743 59.8691 10.6888 59.8691 11.0215ZM71.3057 13.5645V4.5H72.5771V15H71.415L71.3057 13.5645ZM66.3291 11.3838V11.2402C66.3291 10.6751 66.3975 10.1624 66.5342 9.70215C66.6755 9.2373 66.8737 8.83854 67.1289 8.50586C67.3887 8.17318 67.6963 7.91797 68.0518 7.74023C68.4118 7.55794 68.8128 7.4668 69.2549 7.4668C69.7197 7.4668 70.1253 7.54883 70.4717 7.71289C70.8226 7.8724 71.1188 8.1071 71.3604 8.41699C71.6064 8.72233 71.8001 9.09147 71.9414 9.52441C72.0827 9.95736 72.1807 10.4473 72.2354 10.9941V11.623C72.1852 12.1654 72.0872 12.653 71.9414 13.0859C71.8001 13.5189 71.6064 13.888 71.3604 14.1934C71.1188 14.4987 70.8226 14.7334 70.4717 14.8975C70.1208 15.057 69.7106 15.1367 69.2412 15.1367C68.8083 15.1367 68.4118 15.0433 68.0518 14.8564C67.6963 14.6696 67.3887 14.4076 67.1289 14.0703C66.8737 13.7331 66.6755 13.3366 66.5342 12.8809C66.3975 12.4206 66.3291 11.9215 66.3291 11.3838ZM67.6006 11.2402V11.3838C67.6006 11.7529 67.637 12.0993 67.71 12.4229C67.7874 12.7464 67.9059 13.0312 68.0654 13.2773C68.2249 13.5234 68.4277 13.7171 68.6738 13.8584C68.9199 13.9951 69.2139 14.0635 69.5557 14.0635C69.9749 14.0635 70.319 13.9746 70.5879 13.7969C70.8613 13.6191 71.0801 13.3844 71.2441 13.0928C71.4082 12.8011 71.5358 12.4844 71.627 12.1426V10.4951C71.5723 10.2445 71.4925 10.0029 71.3877 9.77051C71.2874 9.53353 71.1553 9.32389 70.9912 9.1416C70.8317 8.95475 70.6335 8.80664 70.3965 8.69727C70.1641 8.58789 69.8883 8.5332 69.5693 8.5332C69.223 8.5332 68.9245 8.60612 68.6738 8.75195C68.4277 8.89323 68.2249 9.08919 68.0654 9.33984C67.9059 9.58594 67.7874 9.87305 67.71 10.2012C67.637 10.5247 67.6006 10.8711 67.6006 11.2402ZM78.8525 13.0381C78.8525 12.8558 78.8115 12.6872 78.7295 12.5322C78.652 12.3727 78.4902 12.2292 78.2441 12.1016C78.0026 11.9694 77.638 11.8555 77.1504 11.7598C76.7402 11.6732 76.3688 11.5706 76.0361 11.4521C75.708 11.3337 75.4277 11.1901 75.1953 11.0215C74.9674 10.8529 74.792 10.6546 74.6689 10.4268C74.5459 10.1989 74.4844 9.93229 74.4844 9.62695C74.4844 9.33529 74.5482 9.05957 74.6758 8.7998C74.8079 8.54004 74.9925 8.3099 75.2295 8.10938C75.471 7.90885 75.7604 7.75163 76.0977 7.6377C76.4349 7.52376 76.8109 7.4668 77.2256 7.4668C77.818 7.4668 78.3239 7.57161 78.7432 7.78125C79.1624 7.99089 79.4837 8.27116 79.707 8.62207C79.9303 8.96842 80.042 9.35352 80.042 9.77734H78.7773C78.7773 9.57227 78.7158 9.37402 78.5928 9.18262C78.4743 8.98665 78.2988 8.82487 78.0664 8.69727C77.8385 8.56966 77.5583 8.50586 77.2256 8.50586C76.8747 8.50586 76.5898 8.56055 76.3711 8.66992C76.1569 8.77474 75.9997 8.90918 75.8994 9.07324C75.8037 9.2373 75.7559 9.41048 75.7559 9.59277C75.7559 9.72949 75.7786 9.85254 75.8242 9.96191C75.8743 10.0667 75.9609 10.1647 76.084 10.2559C76.207 10.3424 76.3802 10.4245 76.6035 10.502C76.8268 10.5794 77.1117 10.6569 77.458 10.7344C78.0641 10.8711 78.5632 11.0352 78.9551 11.2266C79.347 11.418 79.6387 11.6527 79.8301 11.9307C80.0215 12.2087 80.1172 12.5459 80.1172 12.9424C80.1172 13.266 80.0488 13.5622 79.9121 13.8311C79.7799 14.0999 79.5863 14.3324 79.3311 14.5283C79.0804 14.7197 78.7796 14.8701 78.4287 14.9795C78.0824 15.0843 77.6927 15.1367 77.2598 15.1367C76.6081 15.1367 76.0566 15.0205 75.6055 14.7881C75.1543 14.5557 74.8125 14.2549 74.5801 13.8857C74.3477 13.5166 74.2314 13.127 74.2314 12.7168H75.5029C75.5212 13.0632 75.6214 13.3389 75.8037 13.5439C75.986 13.7445 76.2093 13.888 76.4736 13.9746C76.738 14.0566 77 14.0977 77.2598 14.0977C77.6061 14.0977 77.8955 14.0521 78.1279 13.9609C78.3649 13.8698 78.5449 13.7445 78.668 13.585C78.791 13.4255 78.8525 13.2432 78.8525 13.0381Z" fill="#4D4F5D"/>
<rect x="0.5" y="34.5" width="93" height="93" fill="white" stroke="#E1E2E5"/>
<rect x="94" y="34" width="94" height="94" fill="#F9F9F9"/>
<rect x="188" y="34" width="94" height="94" fill="#F0F0F2"/>
<rect x="282" y="34" width="94" height="94" fill="#E7F0F6"/>
<rect y="128" width="94" height="94" fill="#ECF4EF"/>
<rect x="94" y="128" width="94" height="94" fill="#FCEEEE"/>
<rect x="188" y="128" width="94" height="94" fill="#E7F0F6"/>
<rect x="282" y="128" width="94" height="94" fill="#FFF1D3"/>
</svg>
