<svg width="376" height="222" viewBox="0 0 376 222" fill="none" xmlns="http://www.w3.org/2000/svg">
<path d="M4.06055 7.60352V8.57422H0.0615234V7.60352H4.06055ZM1.41504 5.80566H2.67969V13.168C2.67969 13.4186 2.71842 13.6077 2.7959 13.7354C2.87337 13.863 2.97363 13.9473 3.09668 13.9883C3.21973 14.0293 3.35189 14.0498 3.49316 14.0498C3.59798 14.0498 3.70736 14.0407 3.82129 14.0225C3.93978 13.9997 4.02865 13.9814 4.08789 13.9678L4.09473 15C3.99447 15.0319 3.8623 15.0615 3.69824 15.0889C3.53874 15.1208 3.34505 15.1367 3.11719 15.1367C2.80729 15.1367 2.52246 15.0752 2.2627 14.9521C2.00293 14.8291 1.79557 14.624 1.64062 14.3369C1.49023 14.0452 1.41504 13.6533 1.41504 13.1611V5.80566ZM8.61328 15.1367C8.09831 15.1367 7.63118 15.0501 7.21191 14.877C6.7972 14.6992 6.43945 14.4508 6.13867 14.1318C5.84245 13.8128 5.61458 13.4346 5.45508 12.9971C5.29557 12.5596 5.21582 12.0811 5.21582 11.5615V11.2744C5.21582 10.6729 5.30469 10.1374 5.48242 9.66797C5.66016 9.19401 5.90169 8.79297 6.20703 8.46484C6.51237 8.13672 6.85872 7.88835 7.24609 7.71973C7.63346 7.55111 8.03451 7.4668 8.44922 7.4668C8.97786 7.4668 9.43359 7.55794 9.81641 7.74023C10.2038 7.92253 10.5205 8.17773 10.7666 8.50586C11.0127 8.82943 11.195 9.21224 11.3135 9.6543C11.432 10.0918 11.4912 10.5703 11.4912 11.0898V11.6572H5.96777V10.625H10.2266V10.5293C10.2083 10.2012 10.14 9.88216 10.0215 9.57227C9.90755 9.26237 9.72526 9.00716 9.47461 8.80664C9.22396 8.60612 8.88216 8.50586 8.44922 8.50586C8.16211 8.50586 7.89779 8.56738 7.65625 8.69043C7.41471 8.80892 7.20736 8.98665 7.03418 9.22363C6.861 9.46061 6.72656 9.75 6.63086 10.0918C6.53516 10.4336 6.4873 10.8278 6.4873 11.2744V11.5615C6.4873 11.9124 6.53516 12.2428 6.63086 12.5527C6.73112 12.8581 6.87467 13.127 7.06152 13.3594C7.25293 13.5918 7.48307 13.7741 7.75195 13.9062C8.02539 14.0384 8.33529 14.1045 8.68164 14.1045C9.12826 14.1045 9.50651 14.0133 9.81641 13.8311C10.1263 13.6488 10.3975 13.4049 10.6299 13.0996L11.3955 13.708C11.236 13.9495 11.0332 14.1797 10.7871 14.3984C10.541 14.6172 10.238 14.7949 9.87793 14.9316C9.52246 15.0684 9.10091 15.1367 8.61328 15.1367ZM13.8223 7.60352L15.4424 10.2969L17.083 7.60352H18.5664L16.1465 11.2539L18.6416 15H17.1787L15.4697 12.2246L13.7607 15H12.291L14.7793 11.2539L12.3662 7.60352H13.8223ZM23.0098 7.60352V8.57422H19.0107V7.60352H23.0098ZM20.3643 5.80566H21.6289V13.168C21.6289 13.4186 21.6676 13.6077 21.7451 13.7354C21.8226 13.863 21.9229 13.9473 22.0459 13.9883C22.1689 14.0293 22.3011 14.0498 22.4424 14.0498C22.5472 14.0498 22.6566 14.0407 22.7705 14.0225C22.889 13.9997 22.9779 13.9814 23.0371 13.9678L23.0439 15C22.9437 15.0319 22.8115 15.0615 22.6475 15.0889C22.488 15.1208 22.2943 15.1367 22.0664 15.1367C21.7565 15.1367 21.4717 15.0752 21.2119 14.9521C20.9521 14.8291 20.7448 14.624 20.5898 14.3369C20.4395 14.0452 20.3643 13.6533 20.3643 13.1611V5.80566ZM27.918 11.0215V10.9531C27.918 9.95964 28.0296 9.06185 28.2529 8.25977C28.4762 7.45312 28.7611 6.74674 29.1074 6.14062C29.4538 5.53451 29.8184 5.0332 30.2012 4.63672C30.584 4.23568 30.9372 3.94629 31.2607 3.76855L31.5273 4.60254C31.2585 4.80762 30.985 5.09017 30.707 5.4502C30.4336 5.81022 30.1807 6.25228 29.9482 6.77637C29.7204 7.30046 29.5358 7.90885 29.3945 8.60156C29.2533 9.29427 29.1826 10.0736 29.1826 10.9395V11.0352C29.1826 11.901 29.2533 12.6826 29.3945 13.3799C29.5358 14.0726 29.7204 14.6833 29.9482 15.2119C30.1807 15.7406 30.4336 16.1895 30.707 16.5586C30.985 16.9323 31.2585 17.2285 31.5273 17.4473L31.2607 18.2129C30.9372 18.0352 30.584 17.7458 30.2012 17.3447C29.8184 16.9482 29.4538 16.4469 29.1074 15.8408C28.7611 15.2393 28.4762 14.5352 28.2529 13.7285C28.0296 12.9219 27.918 12.0195 27.918 11.0215ZM34.6514 15H33.3867V6.82422C33.3867 6.29102 33.4824 5.84212 33.6738 5.47754C33.8698 5.1084 34.1501 4.8304 34.5146 4.64355C34.8792 4.45215 35.3122 4.35645 35.8135 4.35645C35.9593 4.35645 36.1051 4.36556 36.251 4.38379C36.4014 4.40202 36.5472 4.42936 36.6885 4.46582L36.6201 5.49805C36.5244 5.47526 36.415 5.45931 36.292 5.4502C36.1735 5.44108 36.055 5.43652 35.9365 5.43652C35.6676 5.43652 35.4352 5.49121 35.2393 5.60059C35.0479 5.7054 34.902 5.86035 34.8018 6.06543C34.7015 6.27051 34.6514 6.52344 34.6514 6.82422V15ZM36.2236 7.60352V8.57422H32.2178V7.60352H36.2236ZM37.2969 11.3838V11.2266C37.2969 10.6934 37.3743 10.1989 37.5293 9.74316C37.6842 9.28288 37.9076 8.88411 38.1992 8.54688C38.4909 8.20508 38.8441 7.94076 39.2588 7.75391C39.6735 7.5625 40.1383 7.4668 40.6533 7.4668C41.1729 7.4668 41.64 7.5625 42.0547 7.75391C42.474 7.94076 42.8294 8.20508 43.1211 8.54688C43.4173 8.88411 43.6429 9.28288 43.7979 9.74316C43.9528 10.1989 44.0303 10.6934 44.0303 11.2266V11.3838C44.0303 11.917 43.9528 12.4115 43.7979 12.8672C43.6429 13.3229 43.4173 13.7217 43.1211 14.0635C42.8294 14.4007 42.4762 14.665 42.0615 14.8564C41.6514 15.0433 41.1865 15.1367 40.667 15.1367C40.1475 15.1367 39.6803 15.0433 39.2656 14.8564C38.8509 14.665 38.4954 14.4007 38.1992 14.0635C37.9076 13.7217 37.6842 13.3229 37.5293 12.8672C37.3743 12.4115 37.2969 11.917 37.2969 11.3838ZM38.5615 11.2266V11.3838C38.5615 11.7529 38.6048 12.1016 38.6914 12.4297C38.778 12.7533 38.9079 13.0404 39.0811 13.291C39.2588 13.5417 39.4798 13.7399 39.7441 13.8857C40.0085 14.027 40.3161 14.0977 40.667 14.0977C41.0133 14.0977 41.3164 14.027 41.5762 13.8857C41.8405 13.7399 42.0592 13.5417 42.2324 13.291C42.4056 13.0404 42.5355 12.7533 42.6221 12.4297C42.7132 12.1016 42.7588 11.7529 42.7588 11.3838V11.2266C42.7588 10.862 42.7132 10.5179 42.6221 10.1943C42.5355 9.86621 42.4033 9.57682 42.2256 9.32617C42.0524 9.07096 41.8337 8.87044 41.5693 8.72461C41.3096 8.57878 41.0042 8.50586 40.6533 8.50586C40.307 8.50586 40.0016 8.57878 39.7373 8.72461C39.4775 8.87044 39.2588 9.07096 39.0811 9.32617C38.9079 9.57682 38.778 9.86621 38.6914 10.1943C38.6048 10.5179 38.5615 10.862 38.5615 11.2266ZM46.8809 8.76562V15H45.6162V7.60352H46.8467L46.8809 8.76562ZM49.1914 7.5625L49.1846 8.73828C49.0798 8.71549 48.9795 8.70182 48.8838 8.69727C48.7926 8.68815 48.6878 8.68359 48.5693 8.68359C48.2777 8.68359 48.0202 8.72917 47.7969 8.82031C47.5736 8.91146 47.3844 9.03906 47.2295 9.20312C47.0745 9.36719 46.9515 9.56315 46.8604 9.79102C46.7738 10.0143 46.7168 10.2604 46.6895 10.5293L46.334 10.7344C46.334 10.2878 46.3773 9.86849 46.4639 9.47656C46.555 9.08464 46.694 8.73828 46.8809 8.4375C47.0677 8.13216 47.3047 7.89518 47.5918 7.72656C47.8835 7.55339 48.2298 7.4668 48.6309 7.4668C48.722 7.4668 48.8268 7.47819 48.9453 7.50098C49.0638 7.51921 49.1458 7.53971 49.1914 7.5625ZM53.293 15.1367C52.778 15.1367 52.3109 15.0501 51.8916 14.877C51.4769 14.6992 51.1191 14.4508 50.8184 14.1318C50.5221 13.8128 50.2943 13.4346 50.1348 12.9971C49.9753 12.5596 49.8955 12.0811 49.8955 11.5615V11.2744C49.8955 10.6729 49.9844 10.1374 50.1621 9.66797C50.3398 9.19401 50.5814 8.79297 50.8867 8.46484C51.1921 8.13672 51.5384 7.88835 51.9258 7.71973C52.3132 7.55111 52.7142 7.4668 53.1289 7.4668C53.6576 7.4668 54.1133 7.55794 54.4961 7.74023C54.8835 7.92253 55.2002 8.17773 55.4463 8.50586C55.6924 8.82943 55.8747 9.21224 55.9932 9.6543C56.1117 10.0918 56.1709 10.5703 56.1709 11.0898V11.6572H50.6475V10.625H54.9062V10.5293C54.888 10.2012 54.8197 9.88216 54.7012 9.57227C54.5872 9.26237 54.4049 9.00716 54.1543 8.80664C53.9036 8.60612 53.5618 8.50586 53.1289 8.50586C52.8418 8.50586 52.5775 8.56738 52.3359 8.69043C52.0944 8.80892 51.887 8.98665 51.7139 9.22363C51.5407 9.46061 51.4062 9.75 51.3105 10.0918C51.2148 10.4336 51.167 10.8278 51.167 11.2744V11.5615C51.167 11.9124 51.2148 12.2428 51.3105 12.5527C51.4108 12.8581 51.5544 13.127 51.7412 13.3594C51.9326 13.5918 52.1628 13.7741 52.4316 13.9062C52.7051 14.0384 53.015 14.1045 53.3613 14.1045C53.8079 14.1045 54.1862 14.0133 54.4961 13.8311C54.806 13.6488 55.0771 13.4049 55.3096 13.0996L56.0752 13.708C55.9157 13.9495 55.7129 14.1797 55.4668 14.3984C55.2207 14.6172 54.9176 14.7949 54.5576 14.9316C54.2021 15.0684 53.7806 15.1367 53.293 15.1367ZM62.4395 7.60352H63.5879V14.8428C63.5879 15.4945 63.4557 16.0505 63.1914 16.5107C62.9271 16.971 62.5579 17.3197 62.084 17.5566C61.6146 17.7982 61.0723 17.9189 60.457 17.9189C60.2018 17.9189 59.901 17.8779 59.5547 17.7959C59.2129 17.7184 58.8757 17.584 58.543 17.3926C58.2148 17.2057 57.9391 16.9528 57.7158 16.6338L58.3789 15.8818C58.6888 16.2555 59.0124 16.5153 59.3496 16.6611C59.6914 16.807 60.0286 16.8799 60.3613 16.8799C60.7624 16.8799 61.1087 16.8047 61.4004 16.6543C61.6921 16.5039 61.9176 16.2806 62.0771 15.9844C62.2412 15.6927 62.3232 15.3327 62.3232 14.9043V9.23047L62.4395 7.60352ZM57.3467 11.3838V11.2402C57.3467 10.6751 57.4128 10.1624 57.5449 9.70215C57.6816 9.2373 57.8753 8.83854 58.126 8.50586C58.3812 8.17318 58.6888 7.91797 59.0488 7.74023C59.4089 7.55794 59.8145 7.4668 60.2656 7.4668C60.7305 7.4668 61.1361 7.54883 61.4824 7.71289C61.8333 7.8724 62.1296 8.1071 62.3711 8.41699C62.6172 8.72233 62.8109 9.09147 62.9521 9.52441C63.0934 9.95736 63.1914 10.4473 63.2461 10.9941V11.623C63.196 12.1654 63.098 12.653 62.9521 13.0859C62.8109 13.5189 62.6172 13.888 62.3711 14.1934C62.1296 14.4987 61.8333 14.7334 61.4824 14.8975C61.1315 15.057 60.7214 15.1367 60.252 15.1367C59.8099 15.1367 59.4089 15.0433 59.0488 14.8564C58.6934 14.6696 58.388 14.4076 58.1328 14.0703C57.8776 13.7331 57.6816 13.3366 57.5449 12.8809C57.4128 12.4206 57.3467 11.9215 57.3467 11.3838ZM58.6113 11.2402V11.3838C58.6113 11.7529 58.6478 12.0993 58.7207 12.4229C58.7982 12.7464 58.9144 13.0312 59.0693 13.2773C59.2288 13.5234 59.4316 13.7171 59.6777 13.8584C59.9238 13.9951 60.2178 14.0635 60.5596 14.0635C60.9788 14.0635 61.3252 13.9746 61.5986 13.7969C61.8721 13.6191 62.0885 13.3844 62.248 13.0928C62.4121 12.8011 62.5397 12.4844 62.6309 12.1426V10.4951C62.5807 10.2445 62.5033 10.0029 62.3984 9.77051C62.2982 9.53353 62.166 9.32389 62.002 9.1416C61.8424 8.95475 61.6442 8.80664 61.4072 8.69727C61.1702 8.58789 60.8923 8.5332 60.5732 8.5332C60.2269 8.5332 59.9284 8.60612 59.6777 8.75195C59.4316 8.89323 59.2288 9.08919 59.0693 9.33984C58.9144 9.58594 58.7982 9.87305 58.7207 10.2012C58.6478 10.5247 58.6113 10.8711 58.6113 11.2402ZM66.7734 8.76562V15H65.5088V7.60352H66.7393L66.7734 8.76562ZM69.084 7.5625L69.0771 8.73828C68.9723 8.71549 68.8721 8.70182 68.7764 8.69727C68.6852 8.68815 68.5804 8.68359 68.4619 8.68359C68.1702 8.68359 67.9128 8.72917 67.6895 8.82031C67.4661 8.91146 67.277 9.03906 67.1221 9.20312C66.9671 9.36719 66.8441 9.56315 66.7529 9.79102C66.6663 10.0143 66.6094 10.2604 66.582 10.5293L66.2266 10.7344C66.2266 10.2878 66.2699 9.86849 66.3564 9.47656C66.4476 9.08464 66.5866 8.73828 66.7734 8.4375C66.9603 8.13216 67.1973 7.89518 67.4844 7.72656C67.776 7.55339 68.1224 7.4668 68.5234 7.4668C68.6146 7.4668 68.7194 7.47819 68.8379 7.50098C68.9564 7.51921 69.0384 7.53971 69.084 7.5625ZM69.7812 11.3838V11.2266C69.7812 10.6934 69.8587 10.1989 70.0137 9.74316C70.1686 9.28288 70.3919 8.88411 70.6836 8.54688C70.9753 8.20508 71.3285 7.94076 71.7432 7.75391C72.1579 7.5625 72.6227 7.4668 73.1377 7.4668C73.6572 7.4668 74.1243 7.5625 74.5391 7.75391C74.9583 7.94076 75.3138 8.20508 75.6055 8.54688C75.9017 8.88411 76.1273 9.28288 76.2822 9.74316C76.4372 10.1989 76.5146 10.6934 76.5146 11.2266V11.3838C76.5146 11.917 76.4372 12.4115 76.2822 12.8672C76.1273 13.3229 75.9017 13.7217 75.6055 14.0635C75.3138 14.4007 74.9606 14.665 74.5459 14.8564C74.1357 15.0433 73.6709 15.1367 73.1514 15.1367C72.6318 15.1367 72.1647 15.0433 71.75 14.8564C71.3353 14.665 70.9798 14.4007 70.6836 14.0635C70.3919 13.7217 70.1686 13.3229 70.0137 12.8672C69.8587 12.4115 69.7812 11.917 69.7812 11.3838ZM71.0459 11.2266V11.3838C71.0459 11.7529 71.0892 12.1016 71.1758 12.4297C71.2624 12.7533 71.3923 13.0404 71.5654 13.291C71.7432 13.5417 71.9642 13.7399 72.2285 13.8857C72.4928 14.027 72.8005 14.0977 73.1514 14.0977C73.4977 14.0977 73.8008 14.027 74.0605 13.8857C74.3249 13.7399 74.5436 13.5417 74.7168 13.291C74.89 13.0404 75.0199 12.7533 75.1064 12.4297C75.1976 12.1016 75.2432 11.7529 75.2432 11.3838V11.2266C75.2432 10.862 75.1976 10.5179 75.1064 10.1943C75.0199 9.86621 74.8877 9.57682 74.71 9.32617C74.5368 9.07096 74.318 8.87044 74.0537 8.72461C73.7939 8.57878 73.4886 8.50586 73.1377 8.50586C72.7913 8.50586 72.486 8.57878 72.2217 8.72461C71.9619 8.87044 71.7432 9.07096 71.5654 9.32617C71.3923 9.57682 71.2624 9.86621 71.1758 10.1943C71.0892 10.5179 71.0459 10.862 71.0459 11.2266ZM82.626 13.291V7.60352H83.8975V15H82.6875L82.626 13.291ZM82.8652 11.7324L83.3916 11.7188C83.3916 12.2109 83.3392 12.6667 83.2344 13.0859C83.1341 13.5007 82.9701 13.8607 82.7422 14.166C82.5143 14.4714 82.2158 14.7106 81.8467 14.8838C81.4775 15.0524 81.0286 15.1367 80.5 15.1367C80.14 15.1367 79.8096 15.0843 79.5088 14.9795C79.2126 14.8747 78.9574 14.7129 78.7432 14.4941C78.529 14.2754 78.3626 13.9906 78.2441 13.6396C78.1302 13.2887 78.0732 12.8672 78.0732 12.375V7.60352H79.3379V12.3887C79.3379 12.7214 79.3743 12.9971 79.4473 13.2158C79.5247 13.43 79.6273 13.6009 79.7549 13.7285C79.887 13.8516 80.0329 13.9382 80.1924 13.9883C80.3564 14.0384 80.5251 14.0635 80.6982 14.0635C81.236 14.0635 81.6621 13.9609 81.9766 13.7559C82.291 13.5462 82.5166 13.266 82.6533 12.915C82.7946 12.5596 82.8652 12.1654 82.8652 11.7324ZM87.0898 9.18262V15H85.8252V7.60352H87.0215L87.0898 9.18262ZM86.7891 11.0215L86.2627 11.001C86.2673 10.4951 86.3424 10.028 86.4883 9.59961C86.6341 9.16667 86.8392 8.79069 87.1035 8.47168C87.3678 8.15267 87.6823 7.90658 88.0469 7.7334C88.416 7.55566 88.8239 7.4668 89.2705 7.4668C89.6351 7.4668 89.9632 7.51693 90.2549 7.61719C90.5465 7.71289 90.7949 7.86784 91 8.08203C91.2096 8.29622 91.3691 8.57422 91.4785 8.91602C91.5879 9.25326 91.6426 9.66569 91.6426 10.1533V15H90.3711V10.1396C90.3711 9.75228 90.3141 9.44238 90.2002 9.20996C90.0863 8.97298 89.9199 8.80208 89.7012 8.69727C89.4824 8.58789 89.2135 8.5332 88.8945 8.5332C88.5801 8.5332 88.293 8.59928 88.0332 8.73145C87.778 8.86361 87.557 9.0459 87.3701 9.27832C87.1878 9.51074 87.0443 9.77734 86.9395 10.0781C86.8392 10.3743 86.7891 10.6888 86.7891 11.0215ZM98.2256 13.5645V4.5H99.4971V15H98.335L98.2256 13.5645ZM93.249 11.3838V11.2402C93.249 10.6751 93.3174 10.1624 93.4541 9.70215C93.5954 9.2373 93.7936 8.83854 94.0488 8.50586C94.3086 8.17318 94.6162 7.91797 94.9717 7.74023C95.3317 7.55794 95.7327 7.4668 96.1748 7.4668C96.6396 7.4668 97.0452 7.54883 97.3916 7.71289C97.7425 7.8724 98.0387 8.1071 98.2803 8.41699C98.5264 8.72233 98.7201 9.09147 98.8613 9.52441C99.0026 9.95736 99.1006 10.4473 99.1553 10.9941V11.623C99.1051 12.1654 99.0072 12.653 98.8613 13.0859C98.7201 13.5189 98.5264 13.888 98.2803 14.1934C98.0387 14.4987 97.7425 14.7334 97.3916 14.8975C97.0407 15.057 96.6305 15.1367 96.1611 15.1367C95.7282 15.1367 95.3317 15.0433 94.9717 14.8564C94.6162 14.6696 94.3086 14.4076 94.0488 14.0703C93.7936 13.7331 93.5954 13.3366 93.4541 12.8809C93.3174 12.4206 93.249 11.9215 93.249 11.3838ZM94.5205 11.2402V11.3838C94.5205 11.7529 94.557 12.0993 94.6299 12.4229C94.7074 12.7464 94.8258 13.0312 94.9854 13.2773C95.1449 13.5234 95.3477 13.7171 95.5938 13.8584C95.8398 13.9951 96.1338 14.0635 96.4756 14.0635C96.8949 14.0635 97.2389 13.9746 97.5078 13.7969C97.7812 13.6191 98 13.3844 98.1641 13.0928C98.3281 12.8011 98.4557 12.4844 98.5469 12.1426V10.4951C98.4922 10.2445 98.4124 10.0029 98.3076 9.77051C98.2074 9.53353 98.0752 9.32389 97.9111 9.1416C97.7516 8.95475 97.5534 8.80664 97.3164 8.69727C97.084 8.58789 96.8083 8.5332 96.4893 8.5332C96.1429 8.5332 95.8444 8.60612 95.5938 8.75195C95.3477 8.89323 95.1449 9.08919 94.9854 9.33984C94.8258 9.58594 94.7074 9.87305 94.6299 10.2012C94.557 10.5247 94.5205 10.8711 94.5205 11.2402ZM105.772 13.0381C105.772 12.8558 105.731 12.6872 105.649 12.5322C105.572 12.3727 105.41 12.2292 105.164 12.1016C104.923 11.9694 104.558 11.8555 104.07 11.7598C103.66 11.6732 103.289 11.5706 102.956 11.4521C102.628 11.3337 102.348 11.1901 102.115 11.0215C101.887 10.8529 101.712 10.6546 101.589 10.4268C101.466 10.1989 101.404 9.93229 101.404 9.62695C101.404 9.33529 101.468 9.05957 101.596 8.7998C101.728 8.54004 101.912 8.3099 102.149 8.10938C102.391 7.90885 102.68 7.75163 103.018 7.6377C103.355 7.52376 103.731 7.4668 104.146 7.4668C104.738 7.4668 105.244 7.57161 105.663 7.78125C106.082 7.99089 106.404 8.27116 106.627 8.62207C106.85 8.96842 106.962 9.35352 106.962 9.77734H105.697C105.697 9.57227 105.636 9.37402 105.513 9.18262C105.394 8.98665 105.219 8.82487 104.986 8.69727C104.758 8.56966 104.478 8.50586 104.146 8.50586C103.795 8.50586 103.51 8.56055 103.291 8.66992C103.077 8.77474 102.92 8.90918 102.819 9.07324C102.724 9.2373 102.676 9.41048 102.676 9.59277C102.676 9.72949 102.699 9.85254 102.744 9.96191C102.794 10.0667 102.881 10.1647 103.004 10.2559C103.127 10.3424 103.3 10.4245 103.523 10.502C103.747 10.5794 104.032 10.6569 104.378 10.7344C104.984 10.8711 105.483 11.0352 105.875 11.2266C106.267 11.418 106.559 11.6527 106.75 11.9307C106.941 12.2087 107.037 12.5459 107.037 12.9424C107.037 13.266 106.969 13.5622 106.832 13.8311C106.7 14.0999 106.506 14.3324 106.251 14.5283C106 14.7197 105.7 14.8701 105.349 14.9795C105.002 15.0843 104.613 15.1367 104.18 15.1367C103.528 15.1367 102.977 15.0205 102.525 14.7881C102.074 14.5557 101.732 14.2549 101.5 13.8857C101.268 13.5166 101.151 13.127 101.151 12.7168H102.423C102.441 13.0632 102.541 13.3389 102.724 13.5439C102.906 13.7445 103.129 13.888 103.394 13.9746C103.658 14.0566 103.92 14.0977 104.18 14.0977C104.526 14.0977 104.815 14.0521 105.048 13.9609C105.285 13.8698 105.465 13.7445 105.588 13.585C105.711 13.4255 105.772 13.2432 105.772 13.0381ZM111.61 10.9531V11.0215C111.61 12.0195 111.499 12.9219 111.275 13.7285C111.052 14.5352 110.767 15.2393 110.421 15.8408C110.075 16.4469 109.71 16.9482 109.327 17.3447C108.944 17.7458 108.591 18.0352 108.268 18.2129L108.001 17.4473C108.27 17.2422 108.541 16.9551 108.814 16.5859C109.088 16.2214 109.341 15.7702 109.573 15.2324C109.806 14.6992 109.993 14.084 110.134 13.3867C110.275 12.6849 110.346 11.901 110.346 11.0352V10.9395C110.346 10.0736 110.271 9.29199 110.12 8.59473C109.97 7.8929 109.774 7.27539 109.532 6.74219C109.295 6.20898 109.04 5.76009 108.767 5.39551C108.498 5.02637 108.243 4.74154 108.001 4.54102L108.268 3.76855C108.591 3.94629 108.944 4.23568 109.327 4.63672C109.71 5.0332 110.075 5.53451 110.421 6.14062C110.767 6.74674 111.052 7.45312 111.275 8.25977C111.499 9.06185 111.61 9.95964 111.61 10.9531Z" fill="#4D4F5D"/>
<path d="M29.9336 60.8164L18.1465 99H5.62891L23.3926 50.6562H31.3281L29.9336 60.8164ZM39.6953 99L27.875 60.8164L26.3477 50.6562H34.3828L52.2461 99H39.6953ZM39.2305 80.9707V89.9688H14.4277V80.9707H39.2305ZM73.9277 89.9688V75.1602C73.9277 74.1419 73.7839 73.2676 73.4961 72.5371C73.2083 71.8066 72.7546 71.2422 72.1348 70.8438C71.515 70.4232 70.6849 70.2129 69.6445 70.2129C68.8034 70.2129 68.084 70.3568 67.4863 70.6445C66.8887 70.9323 66.4349 71.3639 66.125 71.9395C65.8151 72.515 65.6602 73.2454 65.6602 74.1309H54.4707C54.4707 72.4707 54.8359 70.9323 55.5664 69.5156C56.319 68.0768 57.3815 66.8262 58.7539 65.7637C60.1484 64.7012 61.8086 63.8822 63.7344 63.3066C65.6823 62.709 67.8516 62.4102 70.2422 62.4102C73.0977 62.4102 75.6432 62.8861 77.8789 63.8379C80.1367 64.7897 81.9186 66.2174 83.2246 68.1211C84.5306 70.0026 85.1836 72.3711 85.1836 75.2266V89.9355C85.1836 92.2819 85.3164 94.0638 85.582 95.2812C85.8477 96.4766 86.224 97.528 86.7109 98.4355V99H75.4883C74.957 97.8932 74.5586 96.543 74.293 94.9492C74.0495 93.3333 73.9277 91.6732 73.9277 89.9688ZM75.2891 77.0527L75.3555 83.0293H70.4082C69.3678 83.0293 68.4824 83.1732 67.752 83.4609C67.0436 83.7487 66.4681 84.1471 66.0254 84.6562C65.6048 85.1432 65.2949 85.6966 65.0957 86.3164C64.9186 86.9362 64.8301 87.5892 64.8301 88.2754C64.8301 88.9395 64.985 89.5371 65.2949 90.0684C65.627 90.5775 66.0697 90.9759 66.623 91.2637C67.1764 91.5514 67.7962 91.6953 68.4824 91.6953C69.722 91.6953 70.7734 91.4629 71.6367 90.998C72.5221 90.5111 73.1973 89.9245 73.6621 89.2383C74.127 88.5521 74.3594 87.9102 74.3594 87.3125L76.8164 91.8945C76.3737 92.7799 75.8646 93.6764 75.2891 94.584C74.7357 95.4915 74.0384 96.3327 73.1973 97.1074C72.3783 97.86 71.3711 98.4798 70.1758 98.9668C68.9805 99.4316 67.5306 99.6641 65.8262 99.6641C63.6126 99.6641 61.5762 99.2103 59.7168 98.3027C57.8796 97.3952 56.4076 96.1335 55.3008 94.5176C54.194 92.8796 53.6406 90.998 53.6406 88.873C53.6406 87.0137 53.9727 85.3535 54.6367 83.8926C55.3229 82.4316 56.3522 81.1921 57.7246 80.1738C59.097 79.1556 60.8457 78.3809 62.9707 77.8496C65.0957 77.3184 67.597 77.0527 70.4746 77.0527H75.2891Z" fill="#1F1F1F"/>
<rect y="104" width="94" height="24" fill="#1F1F1F"/>
<path d="M123.934 60.8164L112.146 99H99.6289L117.393 50.6562H125.328L123.934 60.8164ZM133.695 99L121.875 60.8164L120.348 50.6562H128.383L146.246 99H133.695ZM133.23 80.9707V89.9688H108.428V80.9707H133.23ZM167.928 89.9688V75.1602C167.928 74.1419 167.784 73.2676 167.496 72.5371C167.208 71.8066 166.755 71.2422 166.135 70.8438C165.515 70.4232 164.685 70.2129 163.645 70.2129C162.803 70.2129 162.084 70.3568 161.486 70.6445C160.889 70.9323 160.435 71.3639 160.125 71.9395C159.815 72.515 159.66 73.2454 159.66 74.1309H148.471C148.471 72.4707 148.836 70.9323 149.566 69.5156C150.319 68.0768 151.382 66.8262 152.754 65.7637C154.148 64.7012 155.809 63.8822 157.734 63.3066C159.682 62.709 161.852 62.4102 164.242 62.4102C167.098 62.4102 169.643 62.8861 171.879 63.8379C174.137 64.7897 175.919 66.2174 177.225 68.1211C178.531 70.0026 179.184 72.3711 179.184 75.2266V89.9355C179.184 92.2819 179.316 94.0638 179.582 95.2812C179.848 96.4766 180.224 97.528 180.711 98.4355V99H169.488C168.957 97.8932 168.559 96.543 168.293 94.9492C168.049 93.3333 167.928 91.6732 167.928 89.9688ZM169.289 77.0527L169.355 83.0293H164.408C163.368 83.0293 162.482 83.1732 161.752 83.4609C161.044 83.7487 160.468 84.1471 160.025 84.6562C159.605 85.1432 159.295 85.6966 159.096 86.3164C158.919 86.9362 158.83 87.5892 158.83 88.2754C158.83 88.9395 158.985 89.5371 159.295 90.0684C159.627 90.5775 160.07 90.9759 160.623 91.2637C161.176 91.5514 161.796 91.6953 162.482 91.6953C163.722 91.6953 164.773 91.4629 165.637 90.998C166.522 90.5111 167.197 89.9245 167.662 89.2383C168.127 88.5521 168.359 87.9102 168.359 87.3125L170.816 91.8945C170.374 92.7799 169.865 93.6764 169.289 94.584C168.736 95.4915 168.038 96.3327 167.197 97.1074C166.378 97.86 165.371 98.4798 164.176 98.9668C162.98 99.4316 161.531 99.6641 159.826 99.6641C157.613 99.6641 155.576 99.2103 153.717 98.3027C151.88 97.3952 150.408 96.1335 149.301 94.5176C148.194 92.8796 147.641 90.998 147.641 88.873C147.641 87.0137 147.973 85.3535 148.637 83.8926C149.323 82.4316 150.352 81.1921 151.725 80.1738C153.097 79.1556 154.846 78.3809 156.971 77.8496C159.096 77.3184 161.597 77.0527 164.475 77.0527H169.289Z" fill="#4D4F5D"/>
<rect x="94" y="104" width="94" height="24" fill="#4D4F5D"/>
<path d="M217.934 60.8164L206.146 99H193.629L211.393 50.6562H219.328L217.934 60.8164ZM227.695 99L215.875 60.8164L214.348 50.6562H222.383L240.246 99H227.695ZM227.23 80.9707V89.9688H202.428V80.9707H227.23ZM261.928 89.9688V75.1602C261.928 74.1419 261.784 73.2676 261.496 72.5371C261.208 71.8066 260.755 71.2422 260.135 70.8438C259.515 70.4232 258.685 70.2129 257.645 70.2129C256.803 70.2129 256.084 70.3568 255.486 70.6445C254.889 70.9323 254.435 71.3639 254.125 71.9395C253.815 72.515 253.66 73.2454 253.66 74.1309H242.471C242.471 72.4707 242.836 70.9323 243.566 69.5156C244.319 68.0768 245.382 66.8262 246.754 65.7637C248.148 64.7012 249.809 63.8822 251.734 63.3066C253.682 62.709 255.852 62.4102 258.242 62.4102C261.098 62.4102 263.643 62.8861 265.879 63.8379C268.137 64.7897 269.919 66.2174 271.225 68.1211C272.531 70.0026 273.184 72.3711 273.184 75.2266V89.9355C273.184 92.2819 273.316 94.0638 273.582 95.2812C273.848 96.4766 274.224 97.528 274.711 98.4355V99H263.488C262.957 97.8932 262.559 96.543 262.293 94.9492C262.049 93.3333 261.928 91.6732 261.928 89.9688ZM263.289 77.0527L263.355 83.0293H258.408C257.368 83.0293 256.482 83.1732 255.752 83.4609C255.044 83.7487 254.468 84.1471 254.025 84.6562C253.605 85.1432 253.295 85.6966 253.096 86.3164C252.919 86.9362 252.83 87.5892 252.83 88.2754C252.83 88.9395 252.985 89.5371 253.295 90.0684C253.627 90.5775 254.07 90.9759 254.623 91.2637C255.176 91.5514 255.796 91.6953 256.482 91.6953C257.722 91.6953 258.773 91.4629 259.637 90.998C260.522 90.5111 261.197 89.9245 261.662 89.2383C262.127 88.5521 262.359 87.9102 262.359 87.3125L264.816 91.8945C264.374 92.7799 263.865 93.6764 263.289 94.584C262.736 95.4915 262.038 96.3327 261.197 97.1074C260.378 97.86 259.371 98.4798 258.176 98.9668C256.98 99.4316 255.531 99.6641 253.826 99.6641C251.613 99.6641 249.576 99.2103 247.717 98.3027C245.88 97.3952 244.408 96.1335 243.301 94.5176C242.194 92.8796 241.641 90.998 241.641 88.873C241.641 87.0137 241.973 85.3535 242.637 83.8926C243.323 82.4316 244.352 81.1921 245.725 80.1738C247.097 79.1556 248.846 78.3809 250.971 77.8496C253.096 77.3184 255.597 77.0527 258.475 77.0527H263.289Z" fill="#5D6071"/>
<rect x="188" y="104" width="94" height="24" fill="#5D6071"/>
<path d="M311.934 60.8164L300.146 99H287.629L305.393 50.6562H313.328L311.934 60.8164ZM321.695 99L309.875 60.8164L308.348 50.6562H316.383L334.246 99H321.695ZM321.23 80.9707V89.9688H296.428V80.9707H321.23ZM355.928 89.9688V75.1602C355.928 74.1419 355.784 73.2676 355.496 72.5371C355.208 71.8066 354.755 71.2422 354.135 70.8438C353.515 70.4232 352.685 70.2129 351.645 70.2129C350.803 70.2129 350.084 70.3568 349.486 70.6445C348.889 70.9323 348.435 71.3639 348.125 71.9395C347.815 72.515 347.66 73.2454 347.66 74.1309H336.471C336.471 72.4707 336.836 70.9323 337.566 69.5156C338.319 68.0768 339.382 66.8262 340.754 65.7637C342.148 64.7012 343.809 63.8822 345.734 63.3066C347.682 62.709 349.852 62.4102 352.242 62.4102C355.098 62.4102 357.643 62.8861 359.879 63.8379C362.137 64.7897 363.919 66.2174 365.225 68.1211C366.531 70.0026 367.184 72.3711 367.184 75.2266V89.9355C367.184 92.2819 367.316 94.0638 367.582 95.2812C367.848 96.4766 368.224 97.528 368.711 98.4355V99H357.488C356.957 97.8932 356.559 96.543 356.293 94.9492C356.049 93.3333 355.928 91.6732 355.928 89.9688ZM357.289 77.0527L357.355 83.0293H352.408C351.368 83.0293 350.482 83.1732 349.752 83.4609C349.044 83.7487 348.468 84.1471 348.025 84.6562C347.605 85.1432 347.295 85.6966 347.096 86.3164C346.919 86.9362 346.83 87.5892 346.83 88.2754C346.83 88.9395 346.985 89.5371 347.295 90.0684C347.627 90.5775 348.07 90.9759 348.623 91.2637C349.176 91.5514 349.796 91.6953 350.482 91.6953C351.722 91.6953 352.773 91.4629 353.637 90.998C354.522 90.5111 355.197 89.9245 355.662 89.2383C356.127 88.5521 356.359 87.9102 356.359 87.3125L358.816 91.8945C358.374 92.7799 357.865 93.6764 357.289 94.584C356.736 95.4915 356.038 96.3327 355.197 97.1074C354.378 97.86 353.371 98.4798 352.176 98.9668C350.98 99.4316 349.531 99.6641 347.826 99.6641C345.613 99.6641 343.576 99.2103 341.717 98.3027C339.88 97.3952 338.408 96.1335 337.301 94.5176C336.194 92.8796 335.641 90.998 335.641 88.873C335.641 87.0137 335.973 85.3535 336.637 83.8926C337.323 82.4316 338.352 81.1921 339.725 80.1738C341.097 79.1556 342.846 78.3809 344.971 77.8496C347.096 77.3184 349.597 77.0527 352.475 77.0527H357.289Z" fill="#005AA3"/>
<rect x="282" y="104" width="94" height="24" fill="#005AA3"/>
<path d="M29.9336 154.816L18.1465 193H5.62891L23.3926 144.656H31.3281L29.9336 154.816ZM39.6953 193L27.875 154.816L26.3477 144.656H34.3828L52.2461 193H39.6953ZM39.2305 174.971V183.969H14.4277V174.971H39.2305ZM73.9277 183.969V169.16C73.9277 168.142 73.7839 167.268 73.4961 166.537C73.2083 165.807 72.7546 165.242 72.1348 164.844C71.515 164.423 70.6849 164.213 69.6445 164.213C68.8034 164.213 68.084 164.357 67.4863 164.645C66.8887 164.932 66.4349 165.364 66.125 165.939C65.8151 166.515 65.6602 167.245 65.6602 168.131H54.4707C54.4707 166.471 54.8359 164.932 55.5664 163.516C56.319 162.077 57.3815 160.826 58.7539 159.764C60.1484 158.701 61.8086 157.882 63.7344 157.307C65.6823 156.709 67.8516 156.41 70.2422 156.41C73.0977 156.41 75.6432 156.886 77.8789 157.838C80.1367 158.79 81.9186 160.217 83.2246 162.121C84.5306 164.003 85.1836 166.371 85.1836 169.227V183.936C85.1836 186.282 85.3164 188.064 85.582 189.281C85.8477 190.477 86.224 191.528 86.7109 192.436V193H75.4883C74.957 191.893 74.5586 190.543 74.293 188.949C74.0495 187.333 73.9277 185.673 73.9277 183.969ZM75.2891 171.053L75.3555 177.029H70.4082C69.3678 177.029 68.4824 177.173 67.752 177.461C67.0436 177.749 66.4681 178.147 66.0254 178.656C65.6048 179.143 65.2949 179.697 65.0957 180.316C64.9186 180.936 64.8301 181.589 64.8301 182.275C64.8301 182.939 64.985 183.537 65.2949 184.068C65.627 184.577 66.0697 184.976 66.623 185.264C67.1764 185.551 67.7962 185.695 68.4824 185.695C69.722 185.695 70.7734 185.463 71.6367 184.998C72.5221 184.511 73.1973 183.924 73.6621 183.238C74.127 182.552 74.3594 181.91 74.3594 181.312L76.8164 185.895C76.3737 186.78 75.8646 187.676 75.2891 188.584C74.7357 189.492 74.0384 190.333 73.1973 191.107C72.3783 191.86 71.3711 192.48 70.1758 192.967C68.9805 193.432 67.5306 193.664 65.8262 193.664C63.6126 193.664 61.5762 193.21 59.7168 192.303C57.8796 191.395 56.4076 190.133 55.3008 188.518C54.194 186.88 53.6406 184.998 53.6406 182.873C53.6406 181.014 53.9727 179.354 54.6367 177.893C55.3229 176.432 56.3522 175.192 57.7246 174.174C59.097 173.156 60.8457 172.381 62.9707 171.85C65.0957 171.318 67.597 171.053 70.4746 171.053H75.2891Z" fill="#2C7A4C"/>
<rect y="198" width="94" height="24" fill="#2C7A4C"/>
<path d="M123.934 154.816L112.146 193H99.6289L117.393 144.656H125.328L123.934 154.816ZM133.695 193L121.875 154.816L120.348 144.656H128.383L146.246 193H133.695ZM133.23 174.971V183.969H108.428V174.971H133.23ZM167.928 183.969V169.16C167.928 168.142 167.784 167.268 167.496 166.537C167.208 165.807 166.755 165.242 166.135 164.844C165.515 164.423 164.685 164.213 163.645 164.213C162.803 164.213 162.084 164.357 161.486 164.645C160.889 164.932 160.435 165.364 160.125 165.939C159.815 166.515 159.66 167.245 159.66 168.131H148.471C148.471 166.471 148.836 164.932 149.566 163.516C150.319 162.077 151.382 160.826 152.754 159.764C154.148 158.701 155.809 157.882 157.734 157.307C159.682 156.709 161.852 156.41 164.242 156.41C167.098 156.41 169.643 156.886 171.879 157.838C174.137 158.79 175.919 160.217 177.225 162.121C178.531 164.003 179.184 166.371 179.184 169.227V183.936C179.184 186.282 179.316 188.064 179.582 189.281C179.848 190.477 180.224 191.528 180.711 192.436V193H169.488C168.957 191.893 168.559 190.543 168.293 188.949C168.049 187.333 167.928 185.673 167.928 183.969ZM169.289 171.053L169.355 177.029H164.408C163.368 177.029 162.482 177.173 161.752 177.461C161.044 177.749 160.468 178.147 160.025 178.656C159.605 179.143 159.295 179.697 159.096 180.316C158.919 180.936 158.83 181.589 158.83 182.275C158.83 182.939 158.985 183.537 159.295 184.068C159.627 184.577 160.07 184.976 160.623 185.264C161.176 185.551 161.796 185.695 162.482 185.695C163.722 185.695 164.773 185.463 165.637 184.998C166.522 184.511 167.197 183.924 167.662 183.238C168.127 182.552 168.359 181.91 168.359 181.312L170.816 185.895C170.374 186.78 169.865 187.676 169.289 188.584C168.736 189.492 168.038 190.333 167.197 191.107C166.378 191.86 165.371 192.48 164.176 192.967C162.98 193.432 161.531 193.664 159.826 193.664C157.613 193.664 155.576 193.21 153.717 192.303C151.88 191.395 150.408 190.133 149.301 188.518C148.194 186.88 147.641 184.998 147.641 182.873C147.641 181.014 147.973 179.354 148.637 177.893C149.323 176.432 150.352 175.192 151.725 174.174C153.097 173.156 154.846 172.381 156.971 171.85C159.096 171.318 161.597 171.053 164.475 171.053H169.289Z" fill="#C43939"/>
<rect x="94" y="198" width="94" height="24" fill="#C43939"/>
<path d="M217.934 154.816L206.146 193H193.629L211.393 144.656H219.328L217.934 154.816ZM227.695 193L215.875 154.816L214.348 144.656H222.383L240.246 193H227.695ZM227.23 174.971V183.969H202.428V174.971H227.23ZM261.928 183.969V169.16C261.928 168.142 261.784 167.268 261.496 166.537C261.208 165.807 260.755 165.242 260.135 164.844C259.515 164.423 258.685 164.213 257.645 164.213C256.803 164.213 256.084 164.357 255.486 164.645C254.889 164.932 254.435 165.364 254.125 165.939C253.815 166.515 253.66 167.245 253.66 168.131H242.471C242.471 166.471 242.836 164.932 243.566 163.516C244.319 162.077 245.382 160.826 246.754 159.764C248.148 158.701 249.809 157.882 251.734 157.307C253.682 156.709 255.852 156.41 258.242 156.41C261.098 156.41 263.643 156.886 265.879 157.838C268.137 158.79 269.919 160.217 271.225 162.121C272.531 164.003 273.184 166.371 273.184 169.227V183.936C273.184 186.282 273.316 188.064 273.582 189.281C273.848 190.477 274.224 191.528 274.711 192.436V193H263.488C262.957 191.893 262.559 190.543 262.293 188.949C262.049 187.333 261.928 185.673 261.928 183.969ZM263.289 171.053L263.355 177.029H258.408C257.368 177.029 256.482 177.173 255.752 177.461C255.044 177.749 254.468 178.147 254.025 178.656C253.605 179.143 253.295 179.697 253.096 180.316C252.919 180.936 252.83 181.589 252.83 182.275C252.83 182.939 252.985 183.537 253.295 184.068C253.627 184.577 254.07 184.976 254.623 185.264C255.176 185.551 255.796 185.695 256.482 185.695C257.722 185.695 258.773 185.463 259.637 184.998C260.522 184.511 261.197 183.924 261.662 183.238C262.127 182.552 262.359 181.91 262.359 181.312L264.816 185.895C264.374 186.78 263.865 187.676 263.289 188.584C262.736 189.492 262.038 190.333 261.197 191.107C260.378 191.86 259.371 192.48 258.176 192.967C256.98 193.432 255.531 193.664 253.826 193.664C251.613 193.664 249.576 193.21 247.717 192.303C245.88 191.395 244.408 190.133 243.301 188.518C242.194 186.88 241.641 184.998 241.641 182.873C241.641 181.014 241.973 179.354 242.637 177.893C243.323 176.432 244.352 175.192 245.725 174.174C247.097 173.156 248.846 172.381 250.971 171.85C253.096 171.318 255.597 171.053 258.475 171.053H263.289Z" fill="#005AA3"/>
<rect x="188" y="198" width="94" height="24" fill="#005AA3"/>
<path d="M311.934 154.816L300.146 193H287.629L305.393 144.656H313.328L311.934 154.816ZM321.695 193L309.875 154.816L308.348 144.656H316.383L334.246 193H321.695ZM321.23 174.971V183.969H296.428V174.971H321.23ZM355.928 183.969V169.16C355.928 168.142 355.784 167.268 355.496 166.537C355.208 165.807 354.755 165.242 354.135 164.844C353.515 164.423 352.685 164.213 351.645 164.213C350.803 164.213 350.084 164.357 349.486 164.645C348.889 164.932 348.435 165.364 348.125 165.939C347.815 166.515 347.66 167.245 347.66 168.131H336.471C336.471 166.471 336.836 164.932 337.566 163.516C338.319 162.077 339.382 160.826 340.754 159.764C342.148 158.701 343.809 157.882 345.734 157.307C347.682 156.709 349.852 156.41 352.242 156.41C355.098 156.41 357.643 156.886 359.879 157.838C362.137 158.79 363.919 160.217 365.225 162.121C366.531 164.003 367.184 166.371 367.184 169.227V183.936C367.184 186.282 367.316 188.064 367.582 189.281C367.848 190.477 368.224 191.528 368.711 192.436V193H357.488C356.957 191.893 356.559 190.543 356.293 188.949C356.049 187.333 355.928 185.673 355.928 183.969ZM357.289 171.053L357.355 177.029H352.408C351.368 177.029 350.482 177.173 349.752 177.461C349.044 177.749 348.468 178.147 348.025 178.656C347.605 179.143 347.295 179.697 347.096 180.316C346.919 180.936 346.83 181.589 346.83 182.275C346.83 182.939 346.985 183.537 347.295 184.068C347.627 184.577 348.07 184.976 348.623 185.264C349.176 185.551 349.796 185.695 350.482 185.695C351.722 185.695 352.773 185.463 353.637 184.998C354.522 184.511 355.197 183.924 355.662 183.238C356.127 182.552 356.359 181.91 356.359 181.312L358.816 185.895C358.374 186.78 357.865 187.676 357.289 188.584C356.736 189.492 356.038 190.333 355.197 191.107C354.378 191.86 353.371 192.48 352.176 192.967C350.98 193.432 349.531 193.664 347.826 193.664C345.613 193.664 343.576 193.21 341.717 192.303C339.88 191.395 338.408 190.133 337.301 188.518C336.194 186.88 335.641 184.998 335.641 182.873C335.641 181.014 335.973 179.354 336.637 177.893C337.323 176.432 338.352 175.192 339.725 174.174C341.097 173.156 342.846 172.381 344.971 171.85C347.096 171.318 349.597 171.053 352.475 171.053H357.289Z" fill="#8C630A"/>
<rect x="282" y="198" width="94" height="24" fill="#8C630A"/>
</svg>
