<svg width="514" height="392" viewBox="0 0 514 392" fill="none" xmlns="http://www.w3.org/2000/svg">
<g filter="url(#filter0_d_19923_7676)">
<rect width="504" height="382" transform="translate(5 4)" fill="white"/>
<rect x="5" y="4" width="34.6667" height="382" fill="#7B61FF" fill-opacity="0.15"/>
<rect x="47.6665" y="4" width="34.6667" height="382" fill="#7B61FF" fill-opacity="0.15"/>
<rect x="90.3335" y="4" width="34.6667" height="382" fill="#7B61FF" fill-opacity="0.15"/>
<rect x="133" y="4" width="34.6667" height="382" fill="#7B61FF" fill-opacity="0.15"/>
<rect x="175.667" y="4" width="34.6667" height="382" fill="#7B61FF" fill-opacity="0.15"/>
<rect x="218.333" y="4" width="34.6667" height="382" fill="#7B61FF" fill-opacity="0.15"/>
<rect x="261" y="4" width="34.6667" height="382" fill="#7B61FF" fill-opacity="0.15"/>
<rect x="303.667" y="4" width="34.6667" height="382" fill="#7B61FF" fill-opacity="0.15"/>
<rect x="346.333" y="4" width="34.6667" height="382" fill="#7B61FF" fill-opacity="0.15"/>
<rect x="389" y="4" width="34.6667" height="382" fill="#7B61FF" fill-opacity="0.15"/>
<rect x="431.667" y="4" width="34.6667" height="382" fill="#7B61FF" fill-opacity="0.15"/>
<rect x="474.333" y="4" width="34.6667" height="382" fill="#7B61FF" fill-opacity="0.15"/>
</g>
<rect x="5" y="283" width="376" height="47" fill="#7B61FF"/>
<rect x="48" y="341" width="418" height="46" fill="#7B61FF"/>
<rect x="48" y="61" width="205" height="47" fill="#7B61FF"/>
<rect x="261" y="61" width="248" height="47" fill="#7B61FF"/>
<rect x="5" y="4" width="504" height="46" fill="#7B61FF"/>
<rect x="176" y="119" width="334" height="153" fill="#7B61FF"/>
<defs>
<filter id="filter0_d_19923_7676" x="0" y="0" width="514" height="392" filterUnits="userSpaceOnUse" color-interpolation-filters="sRGB">
<feFlood flood-opacity="0" result="BackgroundImageFix"/>
<feColorMatrix in="SourceAlpha" type="matrix" values="0 0 0 0 0 0 0 0 0 0 0 0 0 0 0 0 0 0 127 0" result="hardAlpha"/>
<feOffset dy="1"/>
<feGaussianBlur stdDeviation="2.5"/>
<feColorMatrix type="matrix" values="0 0 0 0 0 0 0 0 0 0 0 0 0 0 0 0 0 0 0.2 0"/>
<feBlend mode="normal" in2="BackgroundImageFix" result="effect1_dropShadow_19923_7676"/>
<feBlend mode="normal" in="SourceGraphic" in2="effect1_dropShadow_19923_7676" result="shape"/>
</filter>
</defs>
</svg>
