<svg width="375" height="286" viewBox="0 0 375 286" fill="none" xmlns="http://www.w3.org/2000/svg">
<rect width="374.303" height="286" fill="#F9F9F9"/>
<path d="M60.1662 115H61.2102V105.832H60.8022L57.5142 107.44V108.448H57.7422L60.1662 107.272V115ZM66.6583 105.976C64.4383 105.976 63.0703 107.392 63.0703 110.44V111.928C63.0703 114.004 64.5943 115.168 66.4423 115.168C68.1943 115.168 69.8383 114.064 69.8383 112.072C69.8383 110.452 68.2783 109.276 66.7423 109.276C65.6503 109.276 64.9063 109.54 64.1023 110.332C64.1743 108.268 64.7143 107.008 66.6583 106.96C67.7503 106.912 68.4583 107.32 69.2383 108.196H69.5143V107.176C69.1423 106.636 68.1103 105.976 66.6583 105.976ZM64.1263 111.7C64.4383 110.944 65.3263 110.248 66.4783 110.248C67.5223 110.248 68.7463 110.86 68.7463 112.24C68.7463 113.404 67.6903 114.208 66.4783 114.208C65.1703 114.208 64.1383 113.464 64.1383 112.072C64.1383 111.964 64.1383 111.832 64.1263 111.7ZM71.1632 117.64H72.1592V114.112H72.3152C72.5672 114.772 73.4432 115.096 74.1272 115.096C75.8312 115.096 77.2232 113.788 77.2232 111.76C77.2232 109.876 76.0232 108.628 74.1632 108.628C73.3352 108.628 72.6152 108.988 72.2912 109.504H72.1712V108.76H71.1632V117.64ZM72.1592 112.924V111.232C72.1592 110.212 73.0832 109.468 74.0192 109.468C75.2312 109.468 76.2032 110.32 76.2032 111.808C76.2032 113.452 75.1472 114.256 73.9592 114.256C73.0352 114.256 72.1592 113.752 72.1592 112.924ZM77.6531 114.724V115H78.5891L80.5571 112.504L82.5371 115H83.5451V114.724L81.2051 111.832L83.5211 109.036V108.76H82.6091L80.6291 111.304L78.6491 108.76H77.6651V109.036L80.0051 111.928L77.6531 114.724Z" fill="#7B61FF"/>
<path d="M87.7881 103H95.7881L103.788 103" stroke="#7B61FF"/>
<path d="M95.7881 119V103" stroke="#7B61FF"/>
<path d="M87.7881 119H95.7881L103.788 119" stroke="#7B61FF"/>
<path d="M107.788 103H209.788L311.788 103" stroke="#7B61FF" stroke-linecap="round" stroke-linejoin="round" stroke-dasharray="0.1 3"/>
<path d="M107.788 119H209.788L311.788 119" stroke="#7B61FF" stroke-linecap="round" stroke-linejoin="round" stroke-dasharray="0.1 3"/>
<path d="M56.4369 159H62.4129V158.112H57.7929L61.2849 154.644C62.2809 153.672 62.4249 152.928 62.4249 152.316C62.4249 150.996 61.2849 149.964 59.5089 149.964C58.2009 149.964 57.0729 150.672 56.6289 151.296V152.28H56.8809C57.6129 151.464 58.2849 150.948 59.5449 150.948C60.6249 150.948 61.3329 151.62 61.3329 152.412C61.3329 153.204 60.5889 153.828 60.1689 154.32L56.4369 158.16V159ZM62.7714 156.708H67.5594V159H68.5194V156.708H70.0794V155.82H68.5194V150.12H66.9714L62.7834 155.892L62.7714 156.708ZM63.8994 155.82L67.1154 151.344L67.5834 150.624L67.5594 151.524V155.82H63.8994ZM71.1632 161.64H72.1592V158.112H72.3152C72.5672 158.772 73.4432 159.096 74.1272 159.096C75.8312 159.096 77.2232 157.788 77.2232 155.76C77.2232 153.876 76.0232 152.628 74.1632 152.628C73.3352 152.628 72.6152 152.988 72.2912 153.504H72.1712V152.76H71.1632V161.64ZM72.1592 156.924V155.232C72.1592 154.212 73.0832 153.468 74.0192 153.468C75.2312 153.468 76.2032 154.32 76.2032 155.808C76.2032 157.452 75.1472 158.256 73.9592 158.256C73.0352 158.256 72.1592 157.752 72.1592 156.924ZM77.6531 158.724V159H78.5891L80.5571 156.504L82.5371 159H83.5451V158.724L81.2051 155.832L83.5211 153.036V152.76H82.6091L80.6291 155.304L78.6491 152.76H77.6651V153.036L80.0051 155.928L77.6531 158.724Z" fill="#7B61FF"/>
<path d="M87.7881 143H95.7881L103.788 143" stroke="#7B61FF"/>
<path d="M95.7881 167V143" stroke="#7B61FF"/>
<path d="M87.7881 167H95.7881L103.788 167" stroke="#7B61FF"/>
<path d="M107.788 143H209.788L311.788 143" stroke="#7B61FF" stroke-linecap="round" stroke-linejoin="round" stroke-dasharray="0.1 3"/>
<path d="M107.788 167H209.788L311.788 167" stroke="#7B61FF" stroke-linecap="round" stroke-linejoin="round" stroke-dasharray="0.1 3"/>
<path d="M57.971 205.576V206.44H58.367C60.383 206.44 61.343 206.92 61.343 208.192C61.343 209.404 60.611 210.184 59.075 210.184C57.995 210.184 57.011 209.632 56.195 208.78H55.895V209.764C56.687 210.82 58.259 211.156 59.015 211.156C61.151 211.156 62.447 209.92 62.447 208.252C62.447 206.272 60.887 205.72 59.411 205.624C60.347 205.012 61.559 204.016 62.387 203.404V202.12H56.171V203.008H61.379C60.251 203.956 59.051 204.892 57.971 205.576ZM63.6205 211H69.5965V210.112H64.9765L68.4685 206.644C69.4645 205.672 69.6085 204.928 69.6085 204.316C69.6085 202.996 68.4685 201.964 66.6925 201.964C65.3845 201.964 64.2565 202.672 63.8125 203.296V204.28H64.0645C64.7965 203.464 65.4685 202.948 66.7285 202.948C67.8085 202.948 68.5165 203.62 68.5165 204.412C68.5165 205.204 67.7725 205.828 67.3525 206.32L63.6205 210.16V211ZM71.1632 213.64H72.1592V210.112H72.3152C72.5672 210.772 73.4432 211.096 74.1272 211.096C75.8312 211.096 77.2232 209.788 77.2232 207.76C77.2232 205.876 76.0232 204.628 74.1632 204.628C73.3352 204.628 72.6152 204.988 72.2912 205.504H72.1712V204.76H71.1632V213.64ZM72.1592 208.924V207.232C72.1592 206.212 73.0832 205.468 74.0192 205.468C75.2312 205.468 76.2032 206.32 76.2032 207.808C76.2032 209.452 75.1472 210.256 73.9592 210.256C73.0352 210.256 72.1592 209.752 72.1592 208.924ZM77.6531 210.724V211H78.5891L80.5571 208.504L82.5371 211H83.5451V210.724L81.2051 207.832L83.5211 205.036V204.76H82.6091L80.6291 207.304L78.6491 204.76H77.6651V205.036L80.0051 207.928L77.6531 210.724Z" fill="#7B61FF"/>
<path d="M87.7881 191H95.7881L103.788 191" stroke="#7B61FF"/>
<path d="M95.7881 223V191" stroke="#7B61FF"/>
<path d="M87.7881 223H95.7881L103.788 223" stroke="#7B61FF"/>
<path d="M107.788 191H209.788L311.788 191" stroke="#7B61FF" stroke-linecap="round" stroke-linejoin="round" stroke-dasharray="0.1 3"/>
<path d="M107.788 223H209.788L311.788 223" stroke="#7B61FF" stroke-linecap="round" stroke-linejoin="round" stroke-dasharray="0.1 3"/>
<path d="M129.043 59H130.087V49.832H129.679L126.391 51.44V52.448H126.619L129.043 51.272V59ZM135.535 49.976C133.315 49.976 131.947 51.392 131.947 54.44V55.928C131.947 58.004 133.471 59.168 135.319 59.168C137.071 59.168 138.715 58.064 138.715 56.072C138.715 54.452 137.155 53.276 135.619 53.276C134.527 53.276 133.783 53.54 132.979 54.332C133.051 52.268 133.591 51.008 135.535 50.96C136.627 50.912 137.335 51.32 138.115 52.196H138.391V51.176C138.019 50.636 136.987 49.976 135.535 49.976ZM133.003 55.7C133.315 54.944 134.203 54.248 135.355 54.248C136.399 54.248 137.623 54.86 137.623 56.24C137.623 57.404 136.567 58.208 135.355 58.208C134.047 58.208 133.015 57.464 133.015 56.072C133.015 55.964 133.015 55.832 133.003 55.7ZM140.04 61.64H141.036V58.112H141.192C141.444 58.772 142.32 59.096 143.004 59.096C144.708 59.096 146.1 57.788 146.1 55.76C146.1 53.876 144.9 52.628 143.04 52.628C142.212 52.628 141.492 52.988 141.168 53.504H141.048V52.76H140.04V61.64ZM141.036 56.924V55.232C141.036 54.212 141.96 53.468 142.896 53.468C144.108 53.468 145.08 54.32 145.08 55.808C145.08 57.452 144.024 58.256 142.836 58.256C141.912 58.256 141.036 57.752 141.036 56.924ZM146.53 58.724V59H147.466L149.434 56.504L151.414 59H152.422V58.724L150.082 55.832L152.398 53.036V52.76H151.486L149.506 55.304L147.526 52.76H146.542V53.036L148.882 55.928L146.53 58.724Z" fill="#7B61FF"/>
<path d="M147.788 65V73L147.788 81" stroke="#7B61FF"/>
<path d="M131.788 73H147.788" stroke="#7B61FF"/>
<path d="M131.788 65V73L131.788 81" stroke="#7B61FF"/>
<path d="M147.788 85L147.788 162.5L147.788 240" stroke="#7B61FF" stroke-linecap="round" stroke-linejoin="round" stroke-dasharray="0.1 3"/>
<path d="M131.788 85L131.788 162.5L131.788 240" stroke="#7B61FF" stroke-linecap="round" stroke-linejoin="round" stroke-dasharray="0.1 3"/>
<path d="M184.37 59H190.346V58.112H185.726L189.218 54.644C190.214 53.672 190.358 52.928 190.358 52.316C190.358 50.996 189.218 49.964 187.442 49.964C186.134 49.964 185.006 50.672 184.562 51.296V52.28H184.814C185.546 51.464 186.218 50.948 187.478 50.948C188.558 50.948 189.266 51.62 189.266 52.412C189.266 53.204 188.522 53.828 188.102 54.32L184.37 58.16V59ZM190.705 56.708H195.493V59H196.453V56.708H198.013V55.82H196.453V50.12H194.905L190.717 55.892L190.705 56.708ZM191.833 55.82L195.049 51.344L195.517 50.624L195.493 51.524V55.82H191.833ZM199.097 61.64H200.093V58.112H200.249C200.501 58.772 201.377 59.096 202.061 59.096C203.765 59.096 205.157 57.788 205.157 55.76C205.157 53.876 203.957 52.628 202.097 52.628C201.269 52.628 200.549 52.988 200.225 53.504H200.105V52.76H199.097V61.64ZM200.093 56.924V55.232C200.093 54.212 201.017 53.468 201.953 53.468C203.165 53.468 204.137 54.32 204.137 55.808C204.137 57.452 203.081 58.256 201.893 58.256C200.969 58.256 200.093 57.752 200.093 56.924ZM205.587 58.724V59H206.523L208.491 56.504L210.471 59H211.479V58.724L209.139 55.832L211.455 53.036V52.76H210.543L208.563 55.304L206.583 52.76H205.599V53.036L207.939 55.928L205.587 58.724Z" fill="#7B61FF"/>
<path d="M210.788 65V73L210.788 81" stroke="#7B61FF"/>
<path d="M186.788 73H210.788" stroke="#7B61FF"/>
<path d="M186.788 65V73L186.788 81" stroke="#7B61FF"/>
<path d="M210.788 85L210.788 162.5L210.788 240" stroke="#7B61FF" stroke-linecap="round" stroke-linejoin="round" stroke-dasharray="0.1 3"/>
<path d="M186.788 85L186.788 162.5L186.788 240" stroke="#7B61FF" stroke-linecap="round" stroke-linejoin="round" stroke-dasharray="0.1 3"/>
<path d="M250.616 53.576V54.44H251.012C253.028 54.44 253.988 54.92 253.988 56.192C253.988 57.404 253.256 58.184 251.72 58.184C250.64 58.184 249.656 57.632 248.84 56.78H248.54V57.764C249.332 58.82 250.904 59.156 251.66 59.156C253.796 59.156 255.092 57.92 255.092 56.252C255.092 54.272 253.532 53.72 252.056 53.624C252.992 53.012 254.204 52.016 255.032 51.404V50.12H248.816V51.008H254.024C252.896 51.956 251.696 52.892 250.616 53.576ZM256.265 59H262.241V58.112H257.621L261.113 54.644C262.109 53.672 262.253 52.928 262.253 52.316C262.253 50.996 261.113 49.964 259.337 49.964C258.029 49.964 256.901 50.672 256.457 51.296V52.28H256.709C257.441 51.464 258.113 50.948 259.373 50.948C260.453 50.948 261.161 51.62 261.161 52.412C261.161 53.204 260.417 53.828 259.997 54.32L256.265 58.16V59ZM263.808 61.64H264.804V58.112H264.96C265.212 58.772 266.088 59.096 266.772 59.096C268.476 59.096 269.868 57.788 269.868 55.76C269.868 53.876 268.668 52.628 266.808 52.628C265.98 52.628 265.26 52.988 264.936 53.504H264.816V52.76H263.808V61.64ZM264.804 56.924V55.232C264.804 54.212 265.728 53.468 266.664 53.468C267.876 53.468 268.848 54.32 268.848 55.808C268.848 57.452 267.792 58.256 266.604 58.256C265.68 58.256 264.804 57.752 264.804 56.924ZM270.298 58.724V59H271.234L273.202 56.504L275.182 59H276.19V58.724L273.85 55.832L276.166 53.036V52.76H275.254L273.274 55.304L271.294 52.76H270.31V53.036L272.65 55.928L270.298 58.724Z" fill="#7B61FF"/>
<path d="M276.788 65V73L276.788 81" stroke="#7B61FF"/>
<path d="M248.788 73L276.788 73" stroke="#7B61FF"/>
<path d="M248.788 65V73L248.788 81" stroke="#7B61FF"/>
<path d="M276.788 85L276.788 162.5L276.788 240" stroke="#7B61FF" stroke-linecap="round" stroke-linejoin="round" stroke-dasharray="0.1 3"/>
<path d="M248.788 85L248.788 162.5L248.788 240" stroke="#7B61FF" stroke-linecap="round" stroke-linejoin="round" stroke-dasharray="0.1 3"/>
</svg>
