<svg width="75" height="88" viewBox="0 0 75 88" fill="none" xmlns="http://www.w3.org/2000/svg">
<path opacity="0.75" fill-rule="evenodd" clip-rule="evenodd" d="M58.5674 19.0361C60.2338 20.6103 61.5776 22.5 62.5895 24.7088C64.4362 28.7431 64.8369 32.9533 63.6435 37.2537C63.3957 38.1481 63.0351 39.0129 62.6745 39.8777C62.5155 40.261 62.3551 40.6435 62.2064 41.0274C62.0528 41.4227 61.827 41.4472 61.4606 41.2409C60.0525 40.4422 58.6406 39.6502 57.2273 38.8574C55.3214 37.7873 53.4148 36.7185 51.516 35.6329C48.9867 34.1886 47.6904 30.7782 48.5871 27.9897C48.7647 27.4357 49.0046 26.8909 49.2878 26.3818C50.4806 24.2358 51.6834 22.0939 52.8876 19.9527C53.3784 19.0812 53.8685 18.2075 54.3579 17.3353C54.3695 17.3152 54.381 17.2952 54.3912 17.2744C54.3778 17.2577 54.3664 17.2405 54.3529 17.2238C51.0967 21.9704 46.6461 24.7996 40.9082 25.5795C36.5969 26.1652 32.1482 24.9527 29.7565 23.3654C29.8353 23.2259 29.9096 23.0819 29.9844 22.94C30.1452 22.6307 30.306 22.3214 30.5085 22.0415C34.2001 16.9413 39.1795 14.2003 45.4734 13.9852C48.3039 13.888 51.0167 14.4755 53.5912 15.6844C53.0434 13.7221 53.8493 11.5592 55.6845 10.4692C57.8783 9.16456 60.7148 9.88581 62.0174 12.081C63.3207 14.2748 62.5984 17.1123 60.4032 18.4162C59.8214 18.7618 59.1956 18.9646 58.5653 19.0366L58.5674 19.0361Z" fill="white"/>
<path opacity="0.75" fill-rule="evenodd" clip-rule="evenodd" d="M21.2247 56.9498C20.3786 54.1167 20.0963 51.1392 20.3905 48.0192C20.9294 42.3218 23.197 37.3605 27.3036 33.3265C28.1571 32.4873 29.1177 31.7538 30.0782 31.0203C30.503 30.6947 30.9288 30.3709 31.3426 30.038C31.769 29.6954 32.037 29.8136 32.3134 30.2804C33.3711 32.0807 34.4375 33.876 35.5048 35.673C36.9436 38.0975 38.3842 40.521 39.805 42.9582C41.6989 46.2027 40.9475 50.8483 38.1475 53.3848C37.5918 53.8891 36.9725 54.343 36.3277 54.729C33.6114 56.3569 30.8864 57.9738 28.1604 59.5889C27.0502 60.246 25.9393 60.9057 24.83 61.5645C24.8042 61.5794 24.7784 61.5943 24.7536 61.6109C24.7579 61.6383 24.7595 61.6649 24.7638 61.6922C31.4622 58.4901 38.2583 58.2001 45.1707 61.0293C50.3643 63.1555 54.5517 67.3791 56.1996 70.6945C56.0216 70.7996 55.8458 70.9125 55.6707 71.0228C55.2916 71.2646 54.9125 71.5064 54.5058 71.6884C47.093 75.0048 39.763 74.8552 32.5938 71.0365C29.3693 69.3195 26.718 66.9137 24.6218 63.903C23.9682 66.4482 21.6731 68.3445 18.9202 68.3786C15.6282 68.4211 12.9249 65.7861 12.8855 62.494C12.8445 59.2028 15.4813 56.4991 18.7743 56.4583C19.6472 56.4476 20.4769 56.6246 21.2275 56.9506L21.2247 56.9498Z" fill="white"/>
<path opacity="0.75" fill-rule="evenodd" clip-rule="evenodd" d="M9.98621 24.2164C8.53639 23.8718 7.16567 23.2447 5.87806 22.3301C3.52711 20.6591 1.93311 18.4192 1.2072 15.6102C1.05601 15.0262 0.977912 14.4221 0.899814 13.8181C0.86477 13.5506 0.830726 13.2831 0.789676 13.0187C0.747623 12.7462 0.866771 12.659 1.14011 12.656C2.19244 12.648 3.24475 12.635 4.29808 12.622C5.71886 12.6049 7.13964 12.5869 8.56142 12.5809C10.4548 12.5719 12.2931 14.0705 12.6946 15.9318C12.7747 16.3015 12.8168 16.6861 12.8228 17.0648C12.8488 18.6606 12.8678 20.2574 12.8858 21.8543C12.8929 22.5044 12.9009 23.1555 12.9089 23.8057C12.9089 23.8207 12.9089 23.8358 12.9099 23.8508C12.9229 23.8558 12.9349 23.8618 12.9479 23.8668C13.2383 20.1362 14.8243 17.0969 17.801 14.7928C20.0378 13.0617 22.9365 12.2984 24.7988 12.4146C24.7998 12.5188 24.8048 12.624 24.8088 12.7282C24.8188 12.9546 24.8288 13.181 24.8058 13.4043C24.3853 17.4755 22.4729 20.6371 18.9995 22.8039C17.4376 23.7786 15.7194 24.3296 13.8771 24.4859C14.8233 25.4125 15.0726 26.8921 14.3937 28.1023C13.5827 29.5498 11.7514 30.0657 10.3046 29.2533C8.85779 28.4419 8.34215 26.6096 9.15416 25.1621C9.36943 24.7784 9.65579 24.4609 9.98721 24.2154L9.98621 24.2164Z" fill="white"/>
</svg>
