<svg width="161" height="60" viewBox="0 0 161 60" fill="none" xmlns="http://www.w3.org/2000/svg">
<g clip-path="url(#clip0)">
<path d="M62.1268 14.6706H70.6909V11.1338H49.8159V14.6706H58.38V37.8271H62.1268V14.6706ZM75.2592 37.8208H94.7152V34.3218H78.9687V26.1196H92.8978V22.6206H78.9687V14.6328H94.5347V11.1338H75.2592V37.8208ZM117.296 37.8208H121.005V11.1338H117.296V22.6206H103.398V11.1338H99.6881V37.8208H103.398V26.189H117.296V37.8208ZM127.646 37.8208H131.355V11.1338H127.646V37.8208ZM149.28 22.8854L160.651 11.1401H155.772L141.706 25.9557V11.1401H137.996V37.8271H141.706V30.6399L146.691 25.5207L156.332 37.8271H161L149.28 22.8854Z" fill="white"/>
<path d="M145.882 59.6596C146.168 59.4326 146.312 59.1237 146.312 58.7328C146.312 58.5626 146.281 58.4176 146.225 58.2978C146.169 58.178 146.075 58.0709 145.951 57.9826C145.826 57.888 145.671 57.8124 145.478 57.7367C145.285 57.6674 145.054 57.5917 144.781 57.5224C144.637 57.4845 144.513 57.453 144.413 57.4215C144.314 57.39 144.233 57.3521 144.177 57.3206C144.115 57.2828 144.071 57.245 144.046 57.2008C144.021 57.1567 144.003 57.0937 144.003 57.0243C144.003 56.8667 144.059 56.7532 144.177 56.6776C144.289 56.6082 144.438 56.5704 144.606 56.5704C144.793 56.5704 144.98 56.6082 145.166 56.6776C145.353 56.7469 145.552 56.8604 145.751 57.0117L146.162 56.3939C145.944 56.1984 145.708 56.0597 145.447 55.9715C145.185 55.8832 144.911 55.8391 144.613 55.8391C144.388 55.8391 144.183 55.8706 143.996 55.9336C143.81 55.9967 143.642 56.0849 143.498 56.1984C143.355 56.3119 143.249 56.4506 143.169 56.6145C143.088 56.7784 143.05 56.9613 143.05 57.163C143.05 57.3143 143.075 57.4467 143.125 57.5602C143.175 57.6674 143.256 57.7682 143.368 57.8502C143.48 57.9322 143.623 58.0078 143.803 58.0772C143.984 58.1402 144.202 58.2096 144.457 58.2852C144.762 58.3735 144.986 58.4491 145.123 58.5122C145.26 58.5815 145.328 58.6824 145.328 58.8274C145.328 58.9724 145.272 59.0796 145.154 59.1552C145.036 59.2309 144.88 59.2687 144.681 59.2687C144.457 59.2687 144.227 59.2246 143.996 59.1363C143.766 59.0481 143.53 58.9157 143.293 58.7454L142.913 59.3885C143.137 59.5902 143.411 59.7416 143.729 59.8487C144.046 59.9559 144.37 60.0127 144.706 60.0127C145.21 60 145.596 59.8866 145.882 59.6596ZM140.436 59.7983C140.71 59.6596 140.94 59.4516 141.115 59.1805L141.14 59.502C141.158 59.6533 141.227 59.7668 141.339 59.8487C141.451 59.9307 141.6 59.9748 141.781 59.9748C141.837 59.9748 141.899 59.9748 141.967 59.9685C142.036 59.9622 142.117 59.9496 142.223 59.9307V59.0607C142.135 59.0544 142.073 59.0291 142.036 58.985C141.998 58.9409 141.98 58.8652 141.98 58.7581V55.921H140.965V58.405C140.847 58.6509 140.698 58.8337 140.517 58.9535C140.337 59.0733 140.144 59.1363 139.945 59.1363C139.509 59.1363 139.291 58.8274 139.291 58.2096V55.921H138.283V58.4302C138.283 58.9472 138.389 59.3444 138.6 59.6092C138.812 59.874 139.123 60.0063 139.528 60.0063C139.857 60 140.156 59.9307 140.436 59.7983ZM137.654 59.9244L136.08 57.6232L137.548 55.9273H136.472L134.885 57.7304V54.3449H133.87V59.9244H134.885V58.7328L135.426 58.1907L136.571 59.9244H137.654ZM132.538 59.6596C132.824 59.4326 132.968 59.1237 132.968 58.7328C132.968 58.5626 132.936 58.4176 132.88 58.2978C132.824 58.178 132.731 58.0709 132.607 57.9826C132.482 57.888 132.327 57.8124 132.134 57.7367C131.941 57.6674 131.704 57.5917 131.437 57.5224C131.287 57.4845 131.169 57.453 131.069 57.4215C130.97 57.39 130.889 57.3521 130.833 57.3206C130.771 57.2828 130.727 57.245 130.702 57.2008C130.671 57.1567 130.659 57.0937 130.659 57.0243C130.659 56.8667 130.715 56.7532 130.833 56.6776C130.951 56.6082 131.094 56.5704 131.262 56.5704C131.449 56.5704 131.636 56.6082 131.822 56.6776C132.009 56.7469 132.208 56.8604 132.407 57.0117L132.818 56.3939C132.6 56.1984 132.364 56.0597 132.102 55.9715C131.841 55.8832 131.567 55.8391 131.268 55.8391C131.044 55.8391 130.845 55.8706 130.652 55.9336C130.466 55.9967 130.298 56.0849 130.161 56.1984C130.017 56.3119 129.912 56.4506 129.831 56.6145C129.75 56.7784 129.712 56.9613 129.712 57.163C129.712 57.3143 129.737 57.4467 129.787 57.5602C129.837 57.6674 129.918 57.7682 130.03 57.8502C130.142 57.9322 130.285 58.0078 130.466 58.0772C130.646 58.1402 130.864 58.2096 131.119 58.2852C131.424 58.3735 131.648 58.4491 131.785 58.5122C131.922 58.5815 131.99 58.6824 131.99 58.8274C131.99 58.9724 131.934 59.0796 131.816 59.1552C131.698 59.2309 131.542 59.2687 131.343 59.2687C131.119 59.2687 130.889 59.2246 130.659 59.1363C130.428 59.0481 130.192 58.9157 129.955 58.7454L129.576 59.3885C129.8 59.5902 130.073 59.7416 130.391 59.8487C130.708 59.9559 131.032 60.0127 131.362 60.0127C131.866 60 132.252 59.8866 132.538 59.6596ZM125.928 57.5854C125.941 57.4404 125.972 57.3017 126.028 57.1819C126.084 57.0621 126.159 56.955 126.252 56.8667C126.345 56.7784 126.445 56.7154 126.563 56.665C126.681 56.6145 126.806 56.5956 126.943 56.5956C127.217 56.5956 127.453 56.6839 127.646 56.8667C127.839 57.0495 127.951 57.2891 127.976 57.5917H125.928V57.5854ZM128.101 59.71C128.418 59.5146 128.654 59.2624 128.798 58.9598L127.932 58.7139C127.864 58.8778 127.746 59.0102 127.565 59.1048C127.385 59.1994 127.198 59.2561 126.993 59.2561C126.862 59.2561 126.737 59.2309 126.613 59.1868C126.495 59.1426 126.383 59.0733 126.289 58.985C126.196 58.8968 126.115 58.7959 126.053 58.6698C125.991 58.55 125.953 58.405 125.941 58.2474H128.997C129.009 58.2033 129.015 58.1528 129.015 58.0961C129.015 58.033 129.022 57.97 129.022 57.9069C129.022 57.6359 128.978 57.3774 128.885 57.1252C128.791 56.873 128.654 56.6587 128.48 56.4695C128.3 56.2804 128.082 56.1291 127.833 56.0156C127.578 55.9021 127.291 55.8454 126.968 55.8454C126.644 55.8454 126.358 55.9021 126.096 56.0156C125.835 56.1291 125.617 56.2804 125.437 56.4695C125.256 56.6587 125.119 56.8793 125.02 57.1315C124.926 57.3837 124.877 57.6548 124.877 57.9385C124.877 58.2159 124.926 58.4744 125.026 58.7265C125.125 58.9787 125.262 59.1931 125.443 59.3822C125.623 59.5713 125.841 59.7163 126.103 59.8298C126.364 59.9433 126.644 59.9937 126.962 59.9937C127.397 60 127.777 59.9055 128.101 59.71ZM121.173 59.9244V58.3041L121.858 57.5791L123.526 59.9244H124.696L122.511 56.9045L124.565 54.4962H123.42L121.173 57.0811V54.5025H120.134V59.9244H121.173ZM114.358 57.5854C114.371 57.4404 114.402 57.3017 114.458 57.1819C114.514 57.0621 114.588 56.955 114.682 56.8667C114.775 56.7784 114.875 56.7154 114.993 56.665C115.111 56.6145 115.236 56.5956 115.373 56.5956C115.646 56.5956 115.883 56.6839 116.076 56.8667C116.269 57.0495 116.381 57.2891 116.406 57.5917H114.358V57.5854ZM116.53 59.71C116.848 59.5146 117.084 59.2624 117.227 58.9598L116.362 58.7139C116.294 58.8778 116.175 59.0102 115.995 59.1048C115.815 59.1994 115.628 59.2561 115.422 59.2561C115.292 59.2561 115.167 59.2309 115.043 59.1868C114.924 59.1426 114.812 59.0733 114.719 58.985C114.626 58.8968 114.545 58.7959 114.483 58.6698C114.42 58.55 114.383 58.405 114.371 58.2474H117.426C117.439 58.2033 117.445 58.1528 117.445 58.0961C117.451 58.033 117.451 57.97 117.451 57.9069C117.451 57.6359 117.408 57.3774 117.314 57.1252C117.221 56.873 117.084 56.6587 116.904 56.4695C116.723 56.2804 116.512 56.1291 116.256 56.0156C116.001 55.9021 115.715 55.8454 115.391 55.8454C115.068 55.8454 114.781 55.9021 114.52 56.0156C114.259 56.1291 114.041 56.2804 113.86 56.4695C113.68 56.6587 113.543 56.8793 113.443 57.1315C113.35 57.3837 113.3 57.6548 113.3 57.9385C113.3 58.2159 113.35 58.4744 113.449 58.7265C113.549 58.9787 113.686 59.1931 113.866 59.3822C114.047 59.5713 114.265 59.7163 114.526 59.8298C114.788 59.9433 115.068 59.9937 115.385 59.9937C115.827 60 116.213 59.9055 116.53 59.71ZM109.927 59.0418C109.796 58.9787 109.678 58.8968 109.584 58.7896C109.491 58.6824 109.41 58.5563 109.36 58.4176C109.304 58.2726 109.279 58.1213 109.279 57.9511C109.279 57.7935 109.304 57.6422 109.354 57.4908C109.404 57.3458 109.472 57.2134 109.566 57.1C109.659 56.9865 109.765 56.8919 109.896 56.8289C110.026 56.7595 110.163 56.728 110.313 56.728C110.412 56.728 110.518 56.7469 110.618 56.791C110.723 56.8352 110.817 56.8856 110.91 56.955C111.003 57.0243 111.084 57.1063 111.159 57.2008C111.234 57.2954 111.29 57.3963 111.327 57.5098V58.468C111.29 58.5626 111.24 58.6572 111.171 58.7328C111.103 58.8148 111.028 58.8841 110.941 58.9472C110.854 59.0102 110.761 59.0544 110.661 59.0859C110.562 59.1174 110.462 59.1363 110.369 59.1363C110.207 59.13 110.057 59.0985 109.927 59.0418ZM110.885 59.8046C111.134 59.6722 111.333 59.4831 111.476 59.2246L111.501 59.4768C111.514 59.6218 111.582 59.7416 111.694 59.8361C111.813 59.9307 111.962 59.9748 112.142 59.9748C112.254 59.9748 112.398 59.9559 112.572 59.9244V59.0544C112.485 59.0481 112.429 59.0228 112.391 58.9787C112.354 58.9346 112.342 58.8589 112.342 58.7518V54.3449H111.327V56.6208C111.196 56.3939 111.016 56.2047 110.779 56.0597C110.543 55.9147 110.281 55.8454 109.989 55.8454C109.734 55.8454 109.497 55.8958 109.279 56.003C109.062 56.1102 108.875 56.2552 108.719 56.4443C108.564 56.6334 108.439 56.8541 108.352 57.1C108.265 57.3521 108.221 57.6232 108.221 57.9133C108.221 58.2033 108.265 58.4744 108.358 58.7265C108.452 58.9787 108.582 59.1994 108.744 59.3885C108.912 59.5776 109.111 59.7226 109.342 59.8298C109.572 59.937 109.827 59.9937 110.095 59.9937C110.362 59.9937 110.636 59.937 110.885 59.8046ZM107.282 54.3449H106.267V55.3599H107.282V54.3449ZM107.282 55.921H106.267V59.9244H107.282V55.921ZM105.141 57.4278C105.141 57.2324 105.122 57.0432 105.091 56.8541C105.06 56.665 104.997 56.4947 104.91 56.3497C104.823 56.2047 104.705 56.0849 104.549 55.9904C104.394 55.8958 104.194 55.8517 103.952 55.8517C103.634 55.8517 103.354 55.921 103.105 56.0723C102.856 56.2173 102.657 56.4254 102.495 56.7028C102.446 56.4632 102.327 56.2615 102.147 56.0976C101.966 55.9336 101.711 55.8517 101.375 55.8517C101.045 55.8517 100.759 55.921 100.504 56.0597C100.249 56.1984 100.049 56.4002 99.9062 56.6587V55.921H98.9913V59.9244H99.9996V57.5854C100.074 57.3332 100.205 57.1315 100.379 56.9802C100.56 56.8289 100.746 56.7532 100.939 56.7532C101.132 56.7532 101.282 56.8289 101.387 56.9739C101.493 57.1189 101.549 57.3585 101.549 57.68V59.9244H102.564V57.5917C102.638 57.3395 102.763 57.1378 102.943 56.9865C103.118 56.8289 103.311 56.7532 103.51 56.7532C103.703 56.7532 103.852 56.8289 103.958 56.9739C104.064 57.1189 104.12 57.3585 104.12 57.68V59.9244H105.134V57.4278H105.141ZM95.0267 57.5854C95.0391 57.4404 95.0702 57.3017 95.1262 57.1819C95.1823 57.0621 95.2569 56.955 95.3503 56.8667C95.4437 56.7784 95.5432 56.7154 95.6615 56.665C95.7798 56.6145 95.9042 56.5956 96.0412 56.5956C96.315 56.5956 96.5515 56.6839 96.7445 56.8667C96.9374 57.0495 97.0494 57.2891 97.0743 57.5917H95.0267V57.5854ZM97.1926 59.71C97.51 59.5146 97.7465 59.2624 97.8897 58.9598L97.0183 58.7139C96.9561 58.8778 96.8316 59.0102 96.6511 59.1048C96.4706 59.1994 96.2839 59.2561 96.0785 59.2561C95.9478 59.2561 95.8233 59.2309 95.6988 59.1868C95.5806 59.1426 95.4686 59.0733 95.3752 58.985C95.2818 58.8968 95.2009 58.7959 95.1387 58.6698C95.0765 58.55 95.0391 58.405 95.0267 58.2474H98.0826C98.095 58.2033 98.1013 58.1528 98.1013 58.0961C98.1013 58.033 98.1075 57.97 98.1075 57.9069C98.1075 57.6359 98.0639 57.3774 97.9706 57.1252C97.8772 56.873 97.7403 56.6587 97.566 56.4695C97.3855 56.2804 97.1739 56.1291 96.9187 56.0156C96.6636 55.9021 96.3773 55.8454 96.0536 55.8454C95.73 55.8454 95.4437 55.9021 95.1823 56.0156C94.9209 56.1291 94.703 56.2804 94.5225 56.4695C94.342 56.6587 94.2051 56.8793 94.1055 57.1315C94.0122 57.3837 93.9624 57.6548 93.9624 57.9385C93.9624 58.2159 94.0122 58.4744 94.1118 58.7265C94.2113 58.9787 94.3483 59.1931 94.5288 59.3822C94.7092 59.5713 94.9271 59.7163 95.1823 59.8298C95.4374 59.9433 95.7237 59.9937 96.0412 59.9937C96.4955 60 96.8752 59.9055 97.1926 59.71ZM90.2218 57.5854C90.2343 57.4404 90.2654 57.3017 90.3214 57.1819C90.3774 57.0621 90.4521 56.955 90.5454 56.8667C90.6388 56.7784 90.7384 56.7154 90.8566 56.665C90.9749 56.6145 91.0994 56.5956 91.2363 56.5956C91.5102 56.5956 91.7467 56.6839 91.9396 56.8667C92.1325 57.0495 92.2446 57.2891 92.2695 57.5917H90.2218V57.5854ZM92.3877 59.71C92.7051 59.5146 92.9417 59.2624 93.0848 58.9598L92.2197 58.7139C92.1574 58.8778 92.033 59.0102 91.8525 59.1048C91.672 59.2057 91.4853 59.2561 91.2799 59.2561C91.1492 59.2561 91.0247 59.2309 90.9002 59.1868C90.782 59.1426 90.6699 59.0733 90.5766 58.985C90.4832 58.8968 90.4023 58.7959 90.3401 58.6698C90.2778 58.5437 90.2405 58.405 90.228 58.2474H93.284C93.2964 58.2033 93.3026 58.1528 93.3026 58.0961C93.3026 58.033 93.3089 57.97 93.3089 57.9069C93.3089 57.6359 93.2653 57.3774 93.1719 57.1252C93.0786 56.873 92.9417 56.6587 92.7612 56.4695C92.5807 56.2804 92.3628 56.1291 92.1139 56.0156C91.8587 55.9021 91.5724 55.8454 91.2488 55.8454C90.9251 55.8454 90.6388 55.9021 90.3774 56.0156C90.116 56.1291 89.8982 56.2804 89.7177 56.4695C89.5372 56.6587 89.4002 56.8793 89.3007 57.1315C89.2073 57.3837 89.1575 57.6548 89.1575 57.9385C89.1575 58.2159 89.2073 58.4744 89.3069 58.7265C89.4065 58.9787 89.5434 59.1931 89.7239 59.3822C89.9044 59.5713 90.1222 59.7163 90.3836 59.8298C90.6388 59.937 90.9251 59.9937 91.2425 59.9937C91.6907 60 92.0703 59.9055 92.3877 59.71ZM88.5102 58.9094C88.448 58.9346 88.3671 58.9661 88.2675 58.9976C88.1679 59.0355 88.0621 59.0481 87.9563 59.0481C87.8505 59.0481 87.7634 59.0165 87.6887 58.9598C87.614 58.9031 87.5767 58.8022 87.5767 58.6572V56.7028H88.4044V55.921H87.5767V54.6223H86.5622V55.921H86.0393V56.7091H86.5622V59.0102C86.5622 59.1868 86.5871 59.3381 86.6431 59.4642C86.6991 59.5902 86.7738 59.6911 86.8671 59.7668C86.9605 59.8424 87.0663 59.9055 87.1908 59.937C87.3152 59.9748 87.4459 59.9874 87.5891 59.9874C87.8069 59.9874 88.0123 59.9559 88.2053 59.8929C88.4044 59.8298 88.5663 59.7731 88.7032 59.71L88.5102 58.9094ZM85.0373 59.6596C85.3236 59.4326 85.4667 59.1237 85.4667 58.7328C85.4667 58.5626 85.4356 58.4176 85.3796 58.2978C85.3236 58.178 85.2302 58.0709 85.1058 57.9826C84.9813 57.888 84.8257 57.8124 84.6327 57.7367C84.4398 57.6674 84.2033 57.5917 83.9357 57.5224C83.7925 57.4845 83.668 57.453 83.5685 57.4215C83.4689 57.39 83.388 57.3521 83.3319 57.3206C83.2697 57.2828 83.2261 57.245 83.2012 57.2008C83.1701 57.1567 83.1577 57.0937 83.1577 57.0243C83.1577 56.8667 83.2137 56.7532 83.3319 56.6776C83.4502 56.6082 83.5933 56.5704 83.7614 56.5704C83.9481 56.5704 84.1348 56.6082 84.3215 56.6776C84.5083 56.7469 84.7074 56.8604 84.9066 57.0117L85.3174 56.3939C85.0995 56.1984 84.863 56.0597 84.6016 55.9715C84.3402 55.8832 84.0664 55.8391 83.7676 55.8391C83.5436 55.8391 83.3444 55.8706 83.1515 55.9336C82.9647 55.9967 82.7967 56.0849 82.6598 56.1984C82.5166 56.3119 82.4108 56.4506 82.3299 56.6145C82.249 56.7784 82.2116 56.9613 82.2116 57.163C82.2116 57.3143 82.2365 57.4467 82.2863 57.5602C82.3361 57.6674 82.417 57.7682 82.5291 57.8502C82.6411 57.9322 82.7842 58.0078 82.9647 58.0772C83.1452 58.1402 83.3631 58.2096 83.6182 58.2852C83.9232 58.3735 84.1473 58.4491 84.2842 58.5122C84.4211 58.5815 84.4896 58.6824 84.4896 58.8274C84.4896 58.9724 84.4336 59.0796 84.3153 59.1552C84.1971 59.2309 84.0415 59.2687 83.8423 59.2687C83.6182 59.2687 83.388 59.2246 83.1577 59.1363C82.9274 59.0481 82.6909 58.9157 82.4544 58.7454L82.0747 59.3885C82.2988 59.5902 82.5726 59.7416 82.89 59.8487C83.2075 59.9559 83.5311 60.0127 83.861 60.0127C84.3589 60 84.751 59.8866 85.0373 59.6596ZM79.5852 59.7983C79.859 59.6596 80.0893 59.4516 80.2636 59.1805L80.2885 59.502C80.3071 59.6533 80.3756 59.7668 80.4876 59.8487C80.5997 59.9307 80.749 59.9748 80.9295 59.9748C80.9855 59.9748 81.0478 59.9748 81.1162 59.9685C81.1847 59.9622 81.2656 59.9496 81.3714 59.9307V59.0607C81.2843 59.0544 81.222 59.0291 81.1847 58.985C81.1474 58.9409 81.1287 58.8652 81.1287 58.7581V55.921H80.1204V58.405C80.0022 58.6509 79.8528 58.8337 79.6723 58.9535C79.4918 59.0733 79.2989 59.1363 79.1059 59.1363C78.6702 59.1363 78.4462 58.8274 78.4462 58.2096V55.921H77.4317V58.4302C77.4317 58.9472 77.5375 59.3444 77.7491 59.6092C77.9607 59.874 78.2719 60.0063 78.6765 60.0063C79.0063 60 79.3113 59.9307 79.5852 59.7983ZM80.4192 54.4016H79.5789V55.3095H80.4192V54.4016ZM78.969 54.4016H78.1288V55.3095H78.969V54.4016ZM76.1433 59.6596C76.4296 59.4326 76.5728 59.1237 76.5728 58.7328C76.5728 58.5626 76.5417 58.4176 76.4856 58.2978C76.4296 58.178 76.3363 58.0709 76.2118 57.9826C76.0873 57.888 75.9317 57.8124 75.7388 57.7367C75.5458 57.6674 75.3093 57.5917 75.0417 57.5224C74.8986 57.4845 74.7741 57.453 74.6745 57.4215C74.5749 57.39 74.494 57.3521 74.438 57.3206C74.3757 57.2828 74.3322 57.245 74.3073 57.2008C74.2762 57.1567 74.2637 57.0937 74.2637 57.0243C74.2637 56.8667 74.3197 56.7532 74.438 56.6776C74.5562 56.6082 74.6994 56.5704 74.8674 56.5704C75.0542 56.5704 75.2409 56.6082 75.4276 56.6776C75.6143 56.7469 75.8135 56.8604 76.0126 57.0117L76.4234 56.3939C76.2056 56.1984 75.9691 56.0597 75.7077 55.9715C75.4463 55.8832 75.1724 55.8391 74.8737 55.8391C74.6496 55.8391 74.4504 55.8706 74.2575 55.9336C74.0708 55.9967 73.9027 56.0849 73.7658 56.1984C73.6227 56.3119 73.5168 56.4506 73.4359 56.6145C73.355 56.7784 73.3177 56.9613 73.3177 57.163C73.3177 57.3143 73.3426 57.4467 73.3924 57.5602C73.4422 57.6674 73.5231 57.7682 73.6351 57.8502C73.7471 57.9322 73.8903 58.0078 74.0708 58.0772C74.2513 58.1402 74.4691 58.2096 74.7243 58.2852C75.0293 58.3735 75.2533 58.4491 75.3902 58.5122C75.5272 58.5815 75.5956 58.6824 75.5956 58.8274C75.5956 58.9724 75.5396 59.0796 75.4214 59.1552C75.3031 59.2309 75.1475 59.2687 74.9483 59.2687C74.7243 59.2687 74.494 59.2246 74.2637 59.1363C74.0334 59.0481 73.7969 58.9157 73.5604 58.7454L73.1808 59.3885C73.4048 59.5902 73.6787 59.7416 73.9961 59.8487C74.3135 59.9559 74.6371 60.0127 74.9732 60.0127C75.4649 60 75.857 59.8866 76.1433 59.6596ZM69.5709 57.4467C69.6207 57.3017 69.6954 57.1693 69.7887 57.0621C69.8821 56.955 69.9941 56.873 70.1186 56.81C70.2431 56.7469 70.38 56.7154 70.5231 56.7154C70.6663 56.7154 70.8032 56.7469 70.9339 56.8037C71.0584 56.8604 71.1704 56.9487 71.2638 57.0495C71.3572 57.1567 71.4318 57.2828 71.4816 57.4341C71.5314 57.5791 71.5625 57.743 71.5625 57.9133C71.5625 58.0898 71.5376 58.2537 71.4816 58.405C71.4256 58.55 71.3572 58.6824 71.2638 58.7896C71.1704 58.8968 71.0646 58.9787 70.9339 59.0355C70.8094 59.0922 70.6725 59.1237 70.5231 59.1237C70.38 59.1237 70.2431 59.0922 70.1186 59.0355C69.9941 58.9787 69.8821 58.8968 69.7887 58.7896C69.6954 58.6824 69.6207 58.5563 69.5709 58.4113C69.5149 58.2663 69.49 58.1024 69.49 57.9259C69.49 57.7556 69.5149 57.598 69.5709 57.4467ZM71.3945 59.8361C71.6497 59.7226 71.8675 59.5713 72.0418 59.3822C72.216 59.1931 72.353 58.9724 72.4526 58.7202C72.5459 58.468 72.5957 58.2096 72.5957 57.9322C72.5957 57.6485 72.5459 57.39 72.4526 57.1378C72.3592 56.8856 72.2223 56.665 72.0418 56.4758C71.8613 56.2867 71.6434 56.1354 71.3945 56.0219C71.1393 55.9084 70.853 55.8517 70.5294 55.8517C70.2057 55.8517 69.9194 55.9084 69.6642 56.0219C69.4091 56.1354 69.1912 56.2867 69.0107 56.4758C68.8302 56.665 68.6933 56.8856 68.6 57.1378C68.5066 57.39 68.4568 57.6548 68.4568 57.9322C68.4568 58.2096 68.5066 58.468 68.6 58.7202C68.6933 58.9724 68.8302 59.1868 69.0107 59.3822C69.1912 59.5713 69.4091 59.7226 69.6642 59.8361C69.9194 59.9496 70.212 60.0063 70.5294 60.0063C70.8468 60 71.1393 59.9433 71.3945 59.8361ZM66.9382 59.9244V56.9108H67.9029V56.1291H66.9382V55.8454C66.9382 55.3662 67.1124 55.1267 67.4672 55.1267C67.5543 55.1267 67.6477 55.1393 67.7473 55.1708C67.8531 55.196 67.9402 55.2338 68.0149 55.2717L68.2203 54.5025C67.8904 54.3449 67.5668 54.2629 67.2494 54.2629C66.8386 54.2629 66.5212 54.4079 66.2847 54.698C66.0482 54.988 65.9299 55.3851 65.9299 55.8832V56.1291H65.4071V56.9108H65.9299V59.9244H66.9382ZM64.5855 57.4278C64.5855 57.2324 64.5669 57.0432 64.5358 56.8541C64.5046 56.665 64.4424 56.4947 64.3553 56.3497C64.2681 56.2047 64.1499 56.0849 63.9943 55.9904C63.8387 55.8958 63.6333 55.8517 63.3906 55.8517C63.042 55.8517 62.7308 55.921 62.457 56.066C62.1769 56.211 61.9715 56.4065 61.8221 56.665V55.921H60.9072V59.9244H61.9217V57.5854C61.9591 57.4656 62.0151 57.3521 62.0898 57.2513C62.1644 57.1504 62.2516 57.0621 62.3449 56.9865C62.4383 56.9108 62.5379 56.8541 62.6437 56.8163C62.7495 56.7784 62.8491 56.7532 62.9549 56.7532C63.154 56.7532 63.3034 56.8289 63.4154 56.9739C63.5275 57.1189 63.5835 57.3585 63.5835 57.68V59.9244H64.5918V57.4278H64.5855ZM59.6375 54.4962H58.5981V59.9244H59.6375V54.4962Z" fill="white"/>
<path d="M121.179 50.6252C121.453 50.4865 121.683 50.2785 121.858 50.0074L121.882 50.3289C121.901 50.4739 121.97 50.5937 122.082 50.6757C122.194 50.7576 122.343 50.8018 122.524 50.8018C122.58 50.8018 122.642 50.8018 122.71 50.7955C122.779 50.7892 122.86 50.7765 122.965 50.7576V49.8876C122.878 49.8813 122.816 49.8561 122.779 49.812C122.741 49.7678 122.723 49.6922 122.723 49.585V46.7543H121.708V49.2382C121.59 49.4841 121.441 49.6669 121.26 49.7867C121.08 49.9065 120.887 49.9696 120.694 49.9696C120.258 49.9696 120.034 49.6606 120.034 49.0428V46.7543H119.019V49.2635C119.019 49.7804 119.125 50.1776 119.337 50.4424C119.548 50.7072 119.86 50.8396 120.264 50.8396C120.594 50.827 120.899 50.7576 121.179 50.6252ZM116.455 49.8246C116.455 50.1398 116.542 50.3857 116.717 50.5559C116.891 50.7261 117.134 50.8144 117.451 50.8144C117.594 50.8144 117.762 50.7955 117.943 50.7576C118.123 50.7198 118.285 50.6694 118.416 50.6063L118.279 49.8246C118.217 49.8561 118.142 49.8813 118.073 49.9002C117.999 49.9191 117.936 49.9317 117.874 49.9317C117.744 49.9317 117.644 49.8876 117.576 49.812C117.507 49.73 117.47 49.6165 117.47 49.4652V45.1655H116.461V49.8246H116.455ZM112.522 48.2737C112.578 48.1286 112.646 47.9963 112.74 47.8891C112.833 47.7819 112.939 47.6999 113.069 47.6369C113.194 47.5738 113.331 47.5423 113.48 47.5423C113.63 47.5423 113.76 47.5739 113.891 47.6306C114.015 47.6873 114.127 47.7693 114.221 47.8765C114.314 47.9836 114.389 48.1097 114.439 48.261C114.495 48.406 114.52 48.57 114.52 48.7402C114.52 48.9167 114.495 49.0806 114.439 49.2319C114.389 49.3832 114.314 49.5093 114.221 49.6165C114.127 49.7237 114.015 49.8056 113.891 49.8624C113.766 49.9191 113.63 49.9507 113.48 49.9507C113.331 49.9507 113.2 49.9191 113.069 49.8624C112.939 49.8056 112.833 49.7174 112.74 49.6165C112.646 49.5093 112.571 49.3832 112.522 49.2382C112.472 49.0932 112.441 48.9293 112.441 48.7528C112.447 48.5826 112.472 48.425 112.522 48.2737ZM114.345 50.6631C114.6 50.5496 114.818 50.3983 114.993 50.2091C115.167 50.02 115.304 49.7993 115.403 49.5472C115.497 49.295 115.547 49.0365 115.547 48.7591C115.547 48.4817 115.497 48.2169 115.403 47.9647C115.31 47.7126 115.173 47.4982 114.993 47.3028C114.812 47.1136 114.6 46.9623 114.345 46.8488C114.09 46.7353 113.804 46.6786 113.48 46.6786C113.157 46.6786 112.87 46.7353 112.615 46.8488C112.36 46.9623 112.142 47.1136 111.962 47.3028C111.781 47.4919 111.644 47.7126 111.551 47.9647C111.457 48.2169 111.408 48.4817 111.408 48.7591C111.408 49.0365 111.457 49.295 111.551 49.5472C111.644 49.7993 111.781 50.02 111.962 50.2091C112.142 50.3983 112.36 50.5496 112.615 50.6631C112.87 50.7765 113.163 50.8333 113.48 50.8333C113.798 50.8333 114.09 50.7702 114.345 50.6631ZM107.984 49.9065C107.854 49.793 107.792 49.648 107.792 49.4778C107.792 49.295 107.872 49.1437 108.04 49.0239C108.209 48.9041 108.42 48.8411 108.682 48.8411C108.812 48.8411 108.949 48.8537 109.092 48.8852C109.235 48.9167 109.366 48.9482 109.484 48.9987V49.4589C109.484 49.5661 109.428 49.6606 109.316 49.7489C109.229 49.8498 109.111 49.9317 108.955 49.9948C108.8 50.0578 108.638 50.0893 108.47 50.0893C108.277 50.0767 108.115 50.02 107.984 49.9065ZM108.987 50.6441C109.235 50.5244 109.453 50.3415 109.628 50.1083L109.652 50.3289C109.677 50.4739 109.74 50.5874 109.845 50.6757C109.951 50.7639 110.094 50.8081 110.287 50.8081C110.412 50.8081 110.561 50.7892 110.729 50.7576V49.8876C110.642 49.8813 110.58 49.8561 110.542 49.812C110.505 49.7678 110.486 49.6922 110.486 49.585V48.3367C110.486 47.8008 110.331 47.391 110.013 47.1073C109.696 46.8236 109.26 46.6849 108.688 46.6849C108.097 46.6849 107.549 46.8551 107.045 47.1956L107.356 47.8449C107.567 47.6999 107.773 47.5865 107.972 47.5108C108.171 47.4352 108.383 47.3973 108.588 47.3973C108.881 47.3973 109.099 47.4667 109.248 47.6117C109.397 47.7567 109.472 47.9584 109.472 48.2232V48.4502C109.341 48.3934 109.192 48.3493 109.024 48.3178C108.856 48.2863 108.682 48.2737 108.507 48.2737C108.258 48.2737 108.034 48.3052 107.829 48.3682C107.623 48.4313 107.443 48.5195 107.3 48.633C107.15 48.7465 107.038 48.8789 106.951 49.0428C106.87 49.2067 106.827 49.3769 106.827 49.5661C106.827 49.7489 106.864 49.9191 106.926 50.0704C106.995 50.2217 107.088 50.3541 107.206 50.4739C107.325 50.5937 107.468 50.6757 107.636 50.7387C107.804 50.8018 107.978 50.8333 108.171 50.8333C108.47 50.827 108.738 50.7702 108.987 50.6441ZM103.124 48.4124C103.136 48.261 103.167 48.1286 103.223 48.0089C103.279 47.8891 103.354 47.7819 103.447 47.6936C103.541 47.6054 103.64 47.5423 103.758 47.4919C103.877 47.4415 104.001 47.4162 104.138 47.4162C104.418 47.4162 104.648 47.5045 104.841 47.6873C105.034 47.8702 105.146 48.1097 105.171 48.4124H103.124ZM105.29 50.537C105.607 50.3415 105.843 50.0894 105.987 49.7867L105.121 49.5409C105.053 49.7048 104.935 49.8372 104.754 49.938C104.574 50.0389 104.387 50.0893 104.182 50.0893C104.051 50.0893 103.926 50.0641 103.802 50.02C103.678 49.9759 103.572 49.9065 103.478 49.8183C103.385 49.73 103.304 49.6291 103.242 49.503C103.18 49.3832 103.142 49.2382 103.13 49.0806H106.186C106.198 49.0365 106.204 48.9861 106.204 48.9293C106.204 48.8663 106.211 48.8032 106.211 48.7402C106.211 48.4691 106.167 48.2106 106.074 47.9584C105.98 47.7062 105.843 47.4919 105.669 47.3028C105.489 47.1136 105.271 46.9623 105.022 46.8551C104.767 46.7417 104.48 46.6849 104.157 46.6849C103.833 46.6849 103.547 46.7417 103.285 46.8551C103.024 46.9686 102.806 47.1199 102.626 47.3091C102.445 47.4982 102.308 47.7189 102.209 47.9773C102.115 48.2295 102.066 48.5006 102.066 48.7843C102.066 49.0617 102.115 49.3202 102.215 49.5724C102.314 49.8246 102.451 50.0389 102.632 50.228C102.812 50.4172 103.03 50.5685 103.285 50.6757C103.541 50.7828 103.827 50.8396 104.144 50.8396C104.592 50.827 104.972 50.7324 105.29 50.537ZM99.993 45.3231V47.5171H97.5656V45.3231H96.5263V50.7513H97.5656V48.4376H99.993V50.7513H101.026V45.3231H99.993ZM91.0119 49.9065C90.8812 49.793 90.8189 49.648 90.8189 49.4778C90.8189 49.295 90.8999 49.1437 91.0679 49.0239C91.2359 48.9041 91.4476 48.8411 91.709 48.8411C91.8397 48.8411 91.9766 48.8537 92.1135 48.8852C92.2567 48.9167 92.3874 48.9482 92.5056 48.9987V49.4589C92.5056 49.5661 92.4496 49.6606 92.3376 49.7489C92.2504 49.8498 92.1322 49.9317 91.9828 49.9948C91.8272 50.0578 91.6654 50.0893 91.4973 50.0893C91.3044 50.0767 91.1426 50.02 91.0119 49.9065ZM92.0139 50.6441C92.2629 50.5244 92.4807 50.3415 92.655 50.1083L92.6799 50.3289C92.7048 50.4739 92.767 50.5874 92.8728 50.6757C92.9786 50.7639 93.1218 50.8081 93.3147 50.8081C93.4392 50.8081 93.5886 50.7892 93.7628 50.7576V49.8876C93.6757 49.8813 93.6135 49.8561 93.5761 49.812C93.5388 49.7678 93.5201 49.6922 93.5201 49.585V48.3367C93.5201 47.8008 93.3645 47.391 93.0471 47.1073C92.7297 46.8236 92.294 46.6849 91.7214 46.6849C91.1301 46.6849 90.5824 46.8551 90.0783 47.1956L90.3895 47.8449C90.6011 47.6999 90.8065 47.5865 91.0057 47.5108C91.2048 47.4352 91.4164 47.3973 91.6218 47.3973C91.9143 47.3973 92.1322 47.4667 92.2816 47.6117C92.4309 47.7567 92.5056 47.9584 92.5056 48.2232V48.4502C92.3749 48.3934 92.2255 48.3493 92.0575 48.3178C91.8895 48.2863 91.7152 48.2737 91.5409 48.2737C91.292 48.2737 91.0679 48.3052 90.8625 48.3682C90.6571 48.4313 90.4766 48.5195 90.3335 48.633C90.1841 48.7465 90.0721 48.8789 89.9849 49.0428C89.904 49.2067 89.8605 49.3769 89.8605 49.5661C89.8605 49.7489 89.8978 49.9191 89.96 50.0704C90.0285 50.2217 90.1219 50.3541 90.2401 50.4739C90.3584 50.5937 90.5015 50.6757 90.6696 50.7387C90.8376 50.8018 91.0119 50.8333 91.2048 50.8333C91.4973 50.827 91.765 50.7702 92.0139 50.6441ZM88.9518 45.1718H87.9373V46.1869H88.9518V45.1718ZM88.1178 52.1446C88.2858 52.0753 88.4352 51.9744 88.5534 51.842C88.6779 51.7096 88.7713 51.5583 88.846 51.3755C88.9206 51.1926 88.9518 50.9972 88.9518 50.7828V46.748H87.9373V50.8585C87.9373 51.0035 87.8875 51.1296 87.7941 51.2242C87.7008 51.3187 87.5825 51.3629 87.4518 51.3629C87.3709 51.3629 87.29 51.3503 87.2091 51.3187C87.1282 51.2935 87.0597 51.2494 87.0037 51.1926L86.568 51.8861C86.7049 52.0059 86.8605 52.1005 87.0286 52.1572C87.2028 52.214 87.3833 52.2455 87.5701 52.2455C87.7568 52.2455 87.9497 52.214 88.1178 52.1446ZM82.2299 48.4124C82.2424 48.261 82.2735 48.1286 82.3295 48.0089C82.3855 47.8891 82.4602 47.7819 82.5536 47.6936C82.6469 47.6054 82.7465 47.5423 82.8648 47.4919C82.983 47.4415 83.1075 47.4162 83.2444 47.4162C83.5245 47.4162 83.7548 47.5045 83.9477 47.6873C84.1407 47.8702 84.2527 48.1097 84.2776 48.4124H82.2299ZM84.3959 50.537C84.7133 50.3415 84.9498 50.0894 85.0929 49.7867L84.2278 49.5409C84.1656 49.7048 84.0411 49.8372 83.8606 49.938C83.6801 50.0389 83.4934 50.0893 83.288 50.0893C83.1573 50.0893 83.0328 50.0641 82.9084 50.02C82.7839 49.9759 82.6781 49.9065 82.5847 49.8183C82.4914 49.73 82.4104 49.6291 82.3482 49.503C82.286 49.3769 82.2486 49.2382 82.2362 49.0806H85.2921C85.3046 49.0365 85.3108 48.9861 85.3108 48.9293C85.3108 48.8663 85.317 48.8032 85.317 48.7402C85.317 48.4691 85.2672 48.2106 85.1801 47.9584C85.0867 47.7062 84.9498 47.4919 84.7693 47.3028C84.5888 47.1136 84.371 46.9623 84.122 46.8551C83.8668 46.7417 83.5805 46.6849 83.2569 46.6849C82.9333 46.6849 82.6469 46.7417 82.3855 46.8551C82.1241 46.9686 81.9063 47.1199 81.7258 47.3091C81.5453 47.4982 81.4084 47.7189 81.3088 47.9773C81.2154 48.2295 81.1657 48.5006 81.1657 48.7843C81.1657 49.0617 81.2154 49.3202 81.315 49.5724C81.4146 49.8246 81.5515 50.0389 81.732 50.228C81.9125 50.4172 82.1304 50.5685 82.3855 50.6757C82.6407 50.7828 82.927 50.8396 83.2444 50.8396C83.6988 50.827 84.0784 50.7324 84.3959 50.537ZM80.0889 50.4865C80.3752 50.2596 80.5184 49.9507 80.5184 49.5598C80.5184 49.3896 80.4872 49.2509 80.4312 49.1311C80.3752 49.0113 80.2819 48.9041 80.1574 48.8158C80.0329 48.7213 79.8773 48.6456 79.6844 48.57C79.4914 48.5006 79.2611 48.425 78.9873 48.3556C78.8379 48.3178 78.7197 48.2863 78.6201 48.2547C78.5205 48.2232 78.4396 48.1854 78.3836 48.1539C78.3213 48.116 78.2778 48.0782 78.2529 48.0341C78.2218 47.99 78.2093 47.9269 78.2093 47.8576C78.2093 47.6999 78.2653 47.5865 78.3836 47.5171C78.5018 47.4478 78.645 47.4099 78.813 47.4099C78.9997 47.4099 79.1865 47.4478 79.3732 47.5171C79.5599 47.5865 79.7591 47.6999 79.9582 47.8513L80.369 47.2334C80.1512 47.038 79.9147 46.8993 79.6533 46.811C79.3918 46.7227 79.118 46.6786 78.8192 46.6786C78.6014 46.6786 78.396 46.7101 78.2031 46.7732C78.0164 46.8362 77.8483 46.9245 77.7114 47.038C77.5682 47.1514 77.4624 47.2901 77.3815 47.4541C77.3006 47.618 77.2633 47.8008 77.2633 48.0026C77.2633 48.1539 77.2882 48.2863 77.338 48.3934C77.3877 48.5006 77.4687 48.6015 77.5807 48.6834C77.6927 48.7654 77.8359 48.8411 78.0164 48.9104C78.1969 48.9798 78.4147 49.0428 78.6699 49.1185C78.9748 49.2067 79.1989 49.2824 79.3358 49.3454C79.4728 49.4085 79.5412 49.5156 79.5412 49.6606C79.5412 49.8056 79.4852 49.9128 79.3669 49.9885C79.2487 50.0641 79.0931 50.102 78.8939 50.102C78.6699 50.102 78.4396 50.0578 78.2093 49.9696C77.979 49.8813 77.7487 49.7489 77.506 49.5787L77.1263 50.2217C77.3504 50.4235 77.6243 50.5748 77.9417 50.682C78.2591 50.7892 78.5827 50.8396 78.9126 50.8396C79.4105 50.827 79.8026 50.7135 80.0889 50.4865ZM76.2674 45.1718H75.2529V46.1869H76.2674V45.1718ZM76.2674 46.748H75.2529V50.7513H76.2674V46.748ZM73.0559 50.7513L74.5123 46.748H73.56L72.5455 49.9191L71.5435 46.748H70.5041L71.9605 50.7513H73.0559ZM69.9502 46.7038C69.9253 46.6975 69.9004 46.6975 69.8693 46.6975H69.7448C69.639 46.6975 69.527 46.7227 69.4149 46.7606C69.3029 46.8047 69.1909 46.8677 69.0788 46.9497C68.9668 47.0317 68.8672 47.1262 68.7676 47.2334C68.6743 47.3406 68.5871 47.4667 68.5187 47.6054V46.748H67.5913V50.7513H68.6058V48.3304C68.7116 48.1034 68.8859 47.9269 69.1286 47.8134C69.3714 47.6999 69.6452 47.6369 69.9502 47.6306V46.7038ZM63.6267 48.4124C63.6391 48.261 63.6703 48.1286 63.7263 48.0089C63.7823 47.8891 63.857 47.7819 63.9503 47.6936C64.0437 47.6054 64.1433 47.5423 64.2615 47.4919C64.3798 47.4415 64.5043 47.4162 64.6412 47.4162C64.915 47.4162 65.1515 47.5045 65.3445 47.6873C65.5374 47.8702 65.6495 48.1097 65.6744 48.4124H63.6267ZM65.7988 50.537C66.1163 50.3415 66.3528 50.0894 66.4959 49.7867L65.6308 49.5409C65.5685 49.7048 65.4441 49.8372 65.2636 49.938C65.0831 50.0389 64.8964 50.0893 64.691 50.0893C64.5603 50.0893 64.4358 50.0641 64.3113 50.02C64.1868 49.9759 64.081 49.9065 63.9877 49.8183C63.8943 49.73 63.8134 49.6291 63.7512 49.503C63.6889 49.3832 63.6516 49.2382 63.6391 49.0806H66.6951C66.7075 49.0365 66.7137 48.9861 66.7137 48.9293C66.7137 48.8663 66.72 48.8032 66.72 48.7402C66.72 48.4691 66.6702 48.2106 66.583 47.9584C66.4897 47.7062 66.3528 47.4919 66.1723 47.3028C65.9918 47.1136 65.7739 46.9623 65.525 46.8551C65.2698 46.7417 64.9835 46.6849 64.6599 46.6849C64.3362 46.6849 64.0499 46.7417 63.7885 46.8551C63.5271 46.9686 63.3093 47.1199 63.1288 47.3091C62.9483 47.4982 62.8114 47.7189 62.7118 47.9773C62.6184 48.2295 62.5686 48.5006 62.5686 48.7843C62.5686 49.0617 62.6184 49.3202 62.718 49.5724C62.8176 49.8246 62.9545 50.0389 63.135 50.228C63.3155 50.4172 63.5333 50.5685 63.7885 50.6757C64.0437 50.7828 64.33 50.8396 64.6474 50.8396C65.0955 50.827 65.4752 50.7324 65.7988 50.537ZM62.5997 45.3231H58.1372V46.2499H59.8488V50.7513H60.8819V46.2499H62.5935V45.3231H62.5997Z" fill="white"/>
<path d="M26.3896 31.6487L23.7817 29.0071L38.1714 14.431C38.8125 13.7817 38.8125 12.7351 38.1714 12.0858L31.3998 5.21386L34.0076 2.57227L40.7855 9.44418C42.858 11.5436 42.858 14.9669 40.7855 17.0663L26.3896 31.6487Z" fill="#9C78FF"/>
<path d="M18.8211 34.5487L1.53113 17.0285C0.535309 16.0261 -0.00617084 14.6769 5.30618e-05 13.2395C0.00627697 11.8021 0.560205 10.4529 1.56225 9.44418L8.34631 2.57227L10.9541 5.21385L4.17007 12.0795C3.85887 12.3947 3.69083 12.8108 3.68461 13.2584C3.68461 13.6934 3.8402 14.0969 4.13273 14.3932L21.429 31.9134L18.8211 34.5487Z" fill="#FF5C57"/>
<path d="M21.1738 15.7045L8.27783 2.64159L10.8856 0L21.1738 10.4277L31.4619 0L34.0697 2.64159L21.1738 15.7045Z" fill="#009EB0"/>
<path d="M21.1675 58.2726L8.02881 44.9638L16.0452 36.8436L18.653 39.4789L13.2382 44.9638L21.1675 52.9957L29.0967 44.9638L18.7713 34.5046L21.3791 31.863L34.3061 44.9638L21.1675 58.2726Z" fill="white"/>
</g>
<defs>
<clipPath id="clip0">
<rect width="161" height="60" fill="white"/>
</clipPath>
</defs>
</svg>
