<svg width="786" height="128" viewBox="0 0 786 128" fill="none" xmlns="http://www.w3.org/2000/svg">
<path d="M5.62598 13.5645V4.5H6.89746V15H5.73535L5.62598 13.5645ZM0.649414 11.3838V11.2402C0.649414 10.6751 0.717773 10.1624 0.854492 9.70215C0.995768 9.2373 1.19401 8.83854 1.44922 8.50586C1.70898 8.17318 2.0166 7.91797 2.37207 7.74023C2.7321 7.55794 3.13314 7.4668 3.5752 7.4668C4.04004 7.4668 4.44564 7.54883 4.79199 7.71289C5.1429 7.8724 5.43913 8.1071 5.68066 8.41699C5.92676 8.72233 6.12044 9.09147 6.26172 9.52441C6.40299 9.95736 6.50098 10.4473 6.55566 10.9941V11.623C6.50553 12.1654 6.40755 12.653 6.26172 13.0859C6.12044 13.5189 5.92676 13.888 5.68066 14.1934C5.43913 14.4987 5.1429 14.7334 4.79199 14.8975C4.44108 15.057 4.03092 15.1367 3.56152 15.1367C3.12858 15.1367 2.7321 15.0433 2.37207 14.8564C2.0166 14.6696 1.70898 14.4076 1.44922 14.0703C1.19401 13.7331 0.995768 13.3366 0.854492 12.8809C0.717773 12.4206 0.649414 11.9215 0.649414 11.3838ZM1.9209 11.2402V11.3838C1.9209 11.7529 1.95736 12.0993 2.03027 12.4229C2.10775 12.7464 2.22624 13.0312 2.38574 13.2773C2.54525 13.5234 2.74805 13.7171 2.99414 13.8584C3.24023 13.9951 3.53418 14.0635 3.87598 14.0635C4.29525 14.0635 4.63932 13.9746 4.9082 13.7969C5.18164 13.6191 5.40039 13.3844 5.56445 13.0928C5.72852 12.8011 5.85612 12.4844 5.94727 12.1426V10.4951C5.89258 10.2445 5.81283 10.0029 5.70801 9.77051C5.60775 9.53353 5.47559 9.32389 5.31152 9.1416C5.15202 8.95475 4.95378 8.80664 4.7168 8.69727C4.48438 8.58789 4.20866 8.5332 3.88965 8.5332C3.54329 8.5332 3.24479 8.60612 2.99414 8.75195C2.74805 8.89323 2.54525 9.08919 2.38574 9.33984C2.22624 9.58594 2.10775 9.87305 2.03027 10.2012C1.95736 10.5247 1.9209 10.8711 1.9209 11.2402ZM10.2402 7.60352V15H8.96875V7.60352H10.2402ZM8.87305 5.6416C8.87305 5.43652 8.93457 5.26335 9.05762 5.12207C9.18522 4.98079 9.37207 4.91016 9.61816 4.91016C9.8597 4.91016 10.0443 4.98079 10.1719 5.12207C10.304 5.26335 10.3701 5.43652 10.3701 5.6416C10.3701 5.83757 10.304 6.00618 10.1719 6.14746C10.0443 6.28418 9.8597 6.35254 9.61816 6.35254C9.37207 6.35254 9.18522 6.28418 9.05762 6.14746C8.93457 6.00618 8.87305 5.83757 8.87305 5.6416ZM16.5771 13.0381C16.5771 12.8558 16.5361 12.6872 16.4541 12.5322C16.3766 12.3727 16.2148 12.2292 15.9688 12.1016C15.7272 11.9694 15.3626 11.8555 14.875 11.7598C14.4648 11.6732 14.0934 11.5706 13.7607 11.4521C13.4326 11.3337 13.1523 11.1901 12.9199 11.0215C12.6921 10.8529 12.5166 10.6546 12.3936 10.4268C12.2705 10.1989 12.209 9.93229 12.209 9.62695C12.209 9.33529 12.2728 9.05957 12.4004 8.7998C12.5326 8.54004 12.7171 8.3099 12.9541 8.10938C13.1956 7.90885 13.485 7.75163 13.8223 7.6377C14.1595 7.52376 14.5355 7.4668 14.9502 7.4668C15.5426 7.4668 16.0485 7.57161 16.4678 7.78125C16.887 7.99089 17.2083 8.27116 17.4316 8.62207C17.6549 8.96842 17.7666 9.35352 17.7666 9.77734H16.502C16.502 9.57227 16.4404 9.37402 16.3174 9.18262C16.1989 8.98665 16.0234 8.82487 15.791 8.69727C15.5632 8.56966 15.2829 8.50586 14.9502 8.50586C14.5993 8.50586 14.3145 8.56055 14.0957 8.66992C13.8815 8.77474 13.7243 8.90918 13.624 9.07324C13.5283 9.2373 13.4805 9.41048 13.4805 9.59277C13.4805 9.72949 13.5033 9.85254 13.5488 9.96191C13.599 10.0667 13.6855 10.1647 13.8086 10.2559C13.9316 10.3424 14.1048 10.4245 14.3281 10.502C14.5514 10.5794 14.8363 10.6569 15.1826 10.7344C15.7887 10.8711 16.2878 11.0352 16.6797 11.2266C17.0716 11.418 17.3633 11.6527 17.5547 11.9307C17.7461 12.2087 17.8418 12.5459 17.8418 12.9424C17.8418 13.266 17.7734 13.5622 17.6367 13.8311C17.5046 14.0999 17.3109 14.3324 17.0557 14.5283C16.805 14.7197 16.5042 14.8701 16.1533 14.9795C15.807 15.0843 15.4173 15.1367 14.9844 15.1367C14.3327 15.1367 13.7812 15.0205 13.3301 14.7881C12.8789 14.5557 12.5371 14.2549 12.3047 13.8857C12.0723 13.5166 11.9561 13.127 11.9561 12.7168H13.2275C13.2458 13.0632 13.346 13.3389 13.5283 13.5439C13.7106 13.7445 13.9339 13.888 14.1982 13.9746C14.4626 14.0566 14.7246 14.0977 14.9844 14.0977C15.3307 14.0977 15.6201 14.0521 15.8525 13.9609C16.0895 13.8698 16.2695 13.7445 16.3926 13.585C16.5156 13.4255 16.5771 13.2432 16.5771 13.0381ZM23.8643 13.7354V9.92773C23.8643 9.63607 23.805 9.38314 23.6865 9.16895C23.5726 8.9502 23.3994 8.78158 23.167 8.66309C22.9346 8.5446 22.6475 8.48535 22.3057 8.48535C21.9867 8.48535 21.7064 8.54004 21.4648 8.64941C21.2279 8.75879 21.041 8.90234 20.9043 9.08008C20.7721 9.25781 20.7061 9.44922 20.7061 9.6543H19.4414C19.4414 9.38997 19.5098 9.12793 19.6465 8.86816C19.7832 8.6084 19.9792 8.3737 20.2344 8.16406C20.4941 7.94987 20.804 7.78125 21.1641 7.6582C21.5286 7.5306 21.9342 7.4668 22.3809 7.4668C22.9186 7.4668 23.3926 7.55794 23.8027 7.74023C24.2174 7.92253 24.541 8.19824 24.7734 8.56738C25.0104 8.93197 25.1289 9.38997 25.1289 9.94141V13.3867C25.1289 13.6328 25.1494 13.8949 25.1904 14.1729C25.236 14.4508 25.3021 14.6901 25.3887 14.8906V15H24.0693C24.0055 14.8542 23.9554 14.6605 23.9189 14.4189C23.8825 14.1729 23.8643 13.945 23.8643 13.7354ZM24.083 10.5156L24.0967 11.4043H22.8184C22.4583 11.4043 22.137 11.4339 21.8545 11.4932C21.5719 11.5479 21.335 11.6322 21.1436 11.7461C20.9521 11.86 20.8063 12.0036 20.7061 12.1768C20.6058 12.3454 20.5557 12.5436 20.5557 12.7715C20.5557 13.0039 20.6081 13.2158 20.7129 13.4072C20.8177 13.5986 20.9749 13.7513 21.1846 13.8652C21.3988 13.9746 21.6608 14.0293 21.9707 14.0293C22.3581 14.0293 22.6999 13.9473 22.9961 13.7832C23.2923 13.6191 23.527 13.4186 23.7002 13.1816C23.8779 12.9447 23.9736 12.7145 23.9873 12.4912L24.5273 13.0996C24.4954 13.291 24.4089 13.5029 24.2676 13.7354C24.1263 13.9678 23.9372 14.1911 23.7002 14.4053C23.4678 14.6149 23.1898 14.7904 22.8662 14.9316C22.5472 15.0684 22.1872 15.1367 21.7861 15.1367C21.2848 15.1367 20.8451 15.0387 20.4668 14.8428C20.0931 14.6468 19.8014 14.3848 19.5918 14.0566C19.3867 13.724 19.2842 13.3525 19.2842 12.9424C19.2842 12.5459 19.3617 12.1973 19.5166 11.8965C19.6715 11.5911 19.8949 11.3382 20.1865 11.1377C20.4782 10.9326 20.8291 10.7777 21.2393 10.6729C21.6494 10.568 22.1074 10.5156 22.6133 10.5156H24.083ZM27.1113 4.5H28.3828V13.5645L28.2734 15H27.1113V4.5ZM33.3799 11.2402V11.3838C33.3799 11.9215 33.3161 12.4206 33.1885 12.8809C33.0609 13.3366 32.874 13.7331 32.6279 14.0703C32.3818 14.4076 32.0811 14.6696 31.7256 14.8564C31.3701 15.0433 30.9622 15.1367 30.502 15.1367C30.0326 15.1367 29.6201 15.057 29.2646 14.8975C28.9137 14.7334 28.6175 14.4987 28.376 14.1934C28.1344 13.888 27.9408 13.5189 27.7949 13.0859C27.6536 12.653 27.5557 12.1654 27.501 11.623V10.9941C27.5557 10.4473 27.6536 9.95736 27.7949 9.52441C27.9408 9.09147 28.1344 8.72233 28.376 8.41699C28.6175 8.1071 28.9137 7.8724 29.2646 7.71289C29.6156 7.54883 30.0234 7.4668 30.4883 7.4668C30.9531 7.4668 31.3656 7.55794 31.7256 7.74023C32.0856 7.91797 32.3864 8.17318 32.6279 8.50586C32.874 8.83854 33.0609 9.2373 33.1885 9.70215C33.3161 10.1624 33.3799 10.6751 33.3799 11.2402ZM32.1084 11.3838V11.2402C32.1084 10.8711 32.0742 10.5247 32.0059 10.2012C31.9375 9.87305 31.8281 9.58594 31.6777 9.33984C31.5273 9.08919 31.3291 8.89323 31.083 8.75195C30.8369 8.60612 30.5339 8.5332 30.1738 8.5332C29.8548 8.5332 29.5768 8.58789 29.3398 8.69727C29.1074 8.80664 28.9092 8.95475 28.7451 9.1416C28.5811 9.32389 28.4466 9.53353 28.3418 9.77051C28.2415 10.0029 28.1663 10.2445 28.1162 10.4951V12.1426C28.1891 12.4616 28.3076 12.7692 28.4717 13.0654C28.6403 13.3571 28.8636 13.5964 29.1416 13.7832C29.4242 13.9701 29.7728 14.0635 30.1875 14.0635C30.5293 14.0635 30.821 13.9951 31.0625 13.8584C31.3086 13.7171 31.5068 13.5234 31.6572 13.2773C31.8122 13.0312 31.9261 12.7464 31.999 12.4229C32.0719 12.0993 32.1084 11.7529 32.1084 11.3838ZM36.3535 4.5V15H35.082V4.5H36.3535ZM41.4531 15.1367C40.9382 15.1367 40.471 15.0501 40.0518 14.877C39.637 14.6992 39.2793 14.4508 38.9785 14.1318C38.6823 13.8128 38.4544 13.4346 38.2949 12.9971C38.1354 12.5596 38.0557 12.0811 38.0557 11.5615V11.2744C38.0557 10.6729 38.1445 10.1374 38.3223 9.66797C38.5 9.19401 38.7415 8.79297 39.0469 8.46484C39.3522 8.13672 39.6986 7.88835 40.0859 7.71973C40.4733 7.55111 40.8743 7.4668 41.2891 7.4668C41.8177 7.4668 42.2734 7.55794 42.6562 7.74023C43.0436 7.92253 43.3604 8.17773 43.6064 8.50586C43.8525 8.82943 44.0348 9.21224 44.1533 9.6543C44.2718 10.0918 44.3311 10.5703 44.3311 11.0898V11.6572H38.8076V10.625H43.0664V10.5293C43.0482 10.2012 42.9798 9.88216 42.8613 9.57227C42.7474 9.26237 42.5651 9.00716 42.3145 8.80664C42.0638 8.60612 41.722 8.50586 41.2891 8.50586C41.002 8.50586 40.7376 8.56738 40.4961 8.69043C40.2546 8.80892 40.0472 8.98665 39.874 9.22363C39.7008 9.46061 39.5664 9.75 39.4707 10.0918C39.375 10.4336 39.3271 10.8278 39.3271 11.2744V11.5615C39.3271 11.9124 39.375 12.2428 39.4707 12.5527C39.571 12.8581 39.7145 13.127 39.9014 13.3594C40.0928 13.5918 40.3229 13.7741 40.5918 13.9062C40.8652 14.0384 41.1751 14.1045 41.5215 14.1045C41.9681 14.1045 42.3464 14.0133 42.6562 13.8311C42.9661 13.6488 43.2373 13.4049 43.4697 13.0996L44.2354 13.708C44.0758 13.9495 43.873 14.1797 43.627 14.3984C43.3809 14.6172 43.0778 14.7949 42.7178 14.9316C42.3623 15.0684 41.9408 15.1367 41.4531 15.1367ZM50.4697 13.5645V4.5H51.7412V15H50.5791L50.4697 13.5645ZM45.4932 11.3838V11.2402C45.4932 10.6751 45.5615 10.1624 45.6982 9.70215C45.8395 9.2373 46.0378 8.83854 46.293 8.50586C46.5527 8.17318 46.8604 7.91797 47.2158 7.74023C47.5758 7.55794 47.9769 7.4668 48.4189 7.4668C48.8838 7.4668 49.2894 7.54883 49.6357 7.71289C49.9867 7.8724 50.2829 8.1071 50.5244 8.41699C50.7705 8.72233 50.9642 9.09147 51.1055 9.52441C51.2467 9.95736 51.3447 10.4473 51.3994 10.9941V11.623C51.3493 12.1654 51.2513 12.653 51.1055 13.0859C50.9642 13.5189 50.7705 13.888 50.5244 14.1934C50.2829 14.4987 49.9867 14.7334 49.6357 14.8975C49.2848 15.057 48.8747 15.1367 48.4053 15.1367C47.9723 15.1367 47.5758 15.0433 47.2158 14.8564C46.8604 14.6696 46.5527 14.4076 46.293 14.0703C46.0378 13.7331 45.8395 13.3366 45.6982 12.8809C45.5615 12.4206 45.4932 11.9215 45.4932 11.3838ZM46.7646 11.2402V11.3838C46.7646 11.7529 46.8011 12.0993 46.874 12.4229C46.9515 12.7464 47.07 13.0312 47.2295 13.2773C47.389 13.5234 47.5918 13.7171 47.8379 13.8584C48.084 13.9951 48.3779 14.0635 48.7197 14.0635C49.139 14.0635 49.4831 13.9746 49.752 13.7969C50.0254 13.6191 50.2441 13.3844 50.4082 13.0928C50.5723 12.8011 50.6999 12.4844 50.791 12.1426V10.4951C50.7363 10.2445 50.6566 10.0029 50.5518 9.77051C50.4515 9.53353 50.3193 9.32389 50.1553 9.1416C49.9958 8.95475 49.7975 8.80664 49.5605 8.69727C49.3281 8.58789 49.0524 8.5332 48.7334 8.5332C48.387 8.5332 48.0885 8.60612 47.8379 8.75195C47.5918 8.89323 47.389 9.08919 47.2295 9.33984C47.07 9.58594 46.9515 9.87305 46.874 10.2012C46.8011 10.5247 46.7646 10.8711 46.7646 11.2402ZM60.2793 7.60352V8.57422H56.2803V7.60352H60.2793ZM57.6338 5.80566H58.8984V13.168C58.8984 13.4186 58.9372 13.6077 59.0146 13.7354C59.0921 13.863 59.1924 13.9473 59.3154 13.9883C59.4385 14.0293 59.5706 14.0498 59.7119 14.0498C59.8167 14.0498 59.9261 14.0407 60.04 14.0225C60.1585 13.9997 60.2474 13.9814 60.3066 13.9678L60.3135 15C60.2132 15.0319 60.0811 15.0615 59.917 15.0889C59.7575 15.1208 59.5638 15.1367 59.3359 15.1367C59.026 15.1367 58.7412 15.0752 58.4814 14.9521C58.2217 14.8291 58.0143 14.624 57.8594 14.3369C57.709 14.0452 57.6338 13.6533 57.6338 13.1611V5.80566ZM64.832 15.1367C64.3171 15.1367 63.8499 15.0501 63.4307 14.877C63.016 14.6992 62.6582 14.4508 62.3574 14.1318C62.0612 13.8128 61.8333 13.4346 61.6738 12.9971C61.5143 12.5596 61.4346 12.0811 61.4346 11.5615V11.2744C61.4346 10.6729 61.5234 10.1374 61.7012 9.66797C61.8789 9.19401 62.1204 8.79297 62.4258 8.46484C62.7311 8.13672 63.0775 7.88835 63.4648 7.71973C63.8522 7.55111 64.2533 7.4668 64.668 7.4668C65.1966 7.4668 65.6523 7.55794 66.0352 7.74023C66.4225 7.92253 66.7393 8.17773 66.9854 8.50586C67.2314 8.82943 67.4137 9.21224 67.5322 9.6543C67.6507 10.0918 67.71 10.5703 67.71 11.0898V11.6572H62.1865V10.625H66.4453V10.5293C66.4271 10.2012 66.3587 9.88216 66.2402 9.57227C66.1263 9.26237 65.944 9.00716 65.6934 8.80664C65.4427 8.60612 65.1009 8.50586 64.668 8.50586C64.3809 8.50586 64.1165 8.56738 63.875 8.69043C63.6335 8.80892 63.4261 8.98665 63.2529 9.22363C63.0798 9.46061 62.9453 9.75 62.8496 10.0918C62.7539 10.4336 62.7061 10.8278 62.7061 11.2744V11.5615C62.7061 11.9124 62.7539 12.2428 62.8496 12.5527C62.9499 12.8581 63.0934 13.127 63.2803 13.3594C63.4717 13.5918 63.7018 13.7741 63.9707 13.9062C64.2441 14.0384 64.554 14.1045 64.9004 14.1045C65.347 14.1045 65.7253 14.0133 66.0352 13.8311C66.3451 13.6488 66.6162 13.4049 66.8486 13.0996L67.6143 13.708C67.4548 13.9495 67.252 14.1797 67.0059 14.3984C66.7598 14.6172 66.4567 14.7949 66.0967 14.9316C65.7412 15.0684 65.3197 15.1367 64.832 15.1367ZM70.041 7.60352L71.6611 10.2969L73.3018 7.60352H74.7852L72.3652 11.2539L74.8604 15H73.3975L71.6885 12.2246L69.9795 15H68.5098L70.998 11.2539L68.585 7.60352H70.041ZM79.2285 7.60352V8.57422H75.2295V7.60352H79.2285ZM76.583 5.80566H77.8477V13.168C77.8477 13.4186 77.8864 13.6077 77.9639 13.7354C78.0413 13.863 78.1416 13.9473 78.2646 13.9883C78.3877 14.0293 78.5199 14.0498 78.6611 14.0498C78.766 14.0498 78.8753 14.0407 78.9893 14.0225C79.1077 13.9997 79.1966 13.9814 79.2559 13.9678L79.2627 15C79.1624 15.0319 79.0303 15.0615 78.8662 15.0889C78.7067 15.1208 78.513 15.1367 78.2852 15.1367C77.9753 15.1367 77.6904 15.0752 77.4307 14.9521C77.1709 14.8291 76.9635 14.624 76.8086 14.3369C76.6582 14.0452 76.583 13.6533 76.583 13.1611V5.80566ZM84.1367 11.0215V10.9531C84.1367 9.95964 84.2484 9.06185 84.4717 8.25977C84.695 7.45312 84.9798 6.74674 85.3262 6.14062C85.6725 5.53451 86.0371 5.0332 86.4199 4.63672C86.8027 4.23568 87.1559 3.94629 87.4795 3.76855L87.7461 4.60254C87.4772 4.80762 87.2038 5.09017 86.9258 5.4502C86.6523 5.81022 86.3994 6.25228 86.167 6.77637C85.9391 7.30046 85.7546 7.90885 85.6133 8.60156C85.472 9.29427 85.4014 10.0736 85.4014 10.9395V11.0352C85.4014 11.901 85.472 12.6826 85.6133 13.3799C85.7546 14.0726 85.9391 14.6833 86.167 15.2119C86.3994 15.7406 86.6523 16.1895 86.9258 16.5586C87.2038 16.9323 87.4772 17.2285 87.7461 17.4473L87.4795 18.2129C87.1559 18.0352 86.8027 17.7458 86.4199 17.3447C86.0371 16.9482 85.6725 16.4469 85.3262 15.8408C84.9798 15.2393 84.695 14.5352 84.4717 13.7285C84.2484 12.9219 84.1367 12.0195 84.1367 11.0215ZM90.8701 15H89.6055V6.82422C89.6055 6.29102 89.7012 5.84212 89.8926 5.47754C90.0885 5.1084 90.3688 4.8304 90.7334 4.64355C91.098 4.45215 91.5309 4.35645 92.0322 4.35645C92.1781 4.35645 92.3239 4.36556 92.4697 4.38379C92.6201 4.40202 92.766 4.42936 92.9072 4.46582L92.8389 5.49805C92.7432 5.47526 92.6338 5.45931 92.5107 5.4502C92.3923 5.44108 92.2738 5.43652 92.1553 5.43652C91.8864 5.43652 91.654 5.49121 91.458 5.60059C91.2666 5.7054 91.1208 5.86035 91.0205 6.06543C90.9202 6.27051 90.8701 6.52344 90.8701 6.82422V15ZM92.4424 7.60352V8.57422H88.4365V7.60352H92.4424ZM93.5156 11.3838V11.2266C93.5156 10.6934 93.5931 10.1989 93.748 9.74316C93.903 9.28288 94.1263 8.88411 94.418 8.54688C94.7096 8.20508 95.0628 7.94076 95.4775 7.75391C95.8923 7.5625 96.3571 7.4668 96.8721 7.4668C97.3916 7.4668 97.8587 7.5625 98.2734 7.75391C98.6927 7.94076 99.0482 8.20508 99.3398 8.54688C99.6361 8.88411 99.8617 9.28288 100.017 9.74316C100.172 10.1989 100.249 10.6934 100.249 11.2266V11.3838C100.249 11.917 100.172 12.4115 100.017 12.8672C99.8617 13.3229 99.6361 13.7217 99.3398 14.0635C99.0482 14.4007 98.695 14.665 98.2803 14.8564C97.8701 15.0433 97.4053 15.1367 96.8857 15.1367C96.3662 15.1367 95.8991 15.0433 95.4844 14.8564C95.0697 14.665 94.7142 14.4007 94.418 14.0635C94.1263 13.7217 93.903 13.3229 93.748 12.8672C93.5931 12.4115 93.5156 11.917 93.5156 11.3838ZM94.7803 11.2266V11.3838C94.7803 11.7529 94.8236 12.1016 94.9102 12.4297C94.9967 12.7533 95.1266 13.0404 95.2998 13.291C95.4775 13.5417 95.6986 13.7399 95.9629 13.8857C96.2272 14.027 96.5348 14.0977 96.8857 14.0977C97.2321 14.0977 97.5352 14.027 97.7949 13.8857C98.0592 13.7399 98.278 13.5417 98.4512 13.291C98.6243 13.0404 98.7542 12.7533 98.8408 12.4297C98.932 12.1016 98.9775 11.7529 98.9775 11.3838V11.2266C98.9775 10.862 98.932 10.5179 98.8408 10.1943C98.7542 9.86621 98.6221 9.57682 98.4443 9.32617C98.2712 9.07096 98.0524 8.87044 97.7881 8.72461C97.5283 8.57878 97.223 8.50586 96.8721 8.50586C96.5257 8.50586 96.2204 8.57878 95.9561 8.72461C95.6963 8.87044 95.4775 9.07096 95.2998 9.32617C95.1266 9.57682 94.9967 9.86621 94.9102 10.1943C94.8236 10.5179 94.7803 10.862 94.7803 11.2266ZM103.1 8.76562V15H101.835V7.60352H103.065L103.1 8.76562ZM105.41 7.5625L105.403 8.73828C105.299 8.71549 105.198 8.70182 105.103 8.69727C105.011 8.68815 104.907 8.68359 104.788 8.68359C104.496 8.68359 104.239 8.72917 104.016 8.82031C103.792 8.91146 103.603 9.03906 103.448 9.20312C103.293 9.36719 103.17 9.56315 103.079 9.79102C102.993 10.0143 102.936 10.2604 102.908 10.5293L102.553 10.7344C102.553 10.2878 102.596 9.86849 102.683 9.47656C102.774 9.08464 102.913 8.73828 103.1 8.4375C103.286 8.13216 103.523 7.89518 103.811 7.72656C104.102 7.55339 104.449 7.4668 104.85 7.4668C104.941 7.4668 105.046 7.47819 105.164 7.50098C105.283 7.51921 105.365 7.53971 105.41 7.5625ZM109.512 15.1367C108.997 15.1367 108.53 15.0501 108.11 14.877C107.696 14.6992 107.338 14.4508 107.037 14.1318C106.741 13.8128 106.513 13.4346 106.354 12.9971C106.194 12.5596 106.114 12.0811 106.114 11.5615V11.2744C106.114 10.6729 106.203 10.1374 106.381 9.66797C106.559 9.19401 106.8 8.79297 107.105 8.46484C107.411 8.13672 107.757 7.88835 108.145 7.71973C108.532 7.55111 108.933 7.4668 109.348 7.4668C109.876 7.4668 110.332 7.55794 110.715 7.74023C111.102 7.92253 111.419 8.17773 111.665 8.50586C111.911 8.82943 112.093 9.21224 112.212 9.6543C112.33 10.0918 112.39 10.5703 112.39 11.0898V11.6572H106.866V10.625H111.125V10.5293C111.107 10.2012 111.038 9.88216 110.92 9.57227C110.806 9.26237 110.624 9.00716 110.373 8.80664C110.122 8.60612 109.781 8.50586 109.348 8.50586C109.061 8.50586 108.796 8.56738 108.555 8.69043C108.313 8.80892 108.106 8.98665 107.933 9.22363C107.759 9.46061 107.625 9.75 107.529 10.0918C107.434 10.4336 107.386 10.8278 107.386 11.2744V11.5615C107.386 11.9124 107.434 12.2428 107.529 12.5527C107.63 12.8581 107.773 13.127 107.96 13.3594C108.151 13.5918 108.382 13.7741 108.65 13.9062C108.924 14.0384 109.234 14.1045 109.58 14.1045C110.027 14.1045 110.405 14.0133 110.715 13.8311C111.025 13.6488 111.296 13.4049 111.528 13.0996L112.294 13.708C112.134 13.9495 111.932 14.1797 111.686 14.3984C111.439 14.6172 111.136 14.7949 110.776 14.9316C110.421 15.0684 109.999 15.1367 109.512 15.1367ZM118.658 7.60352H119.807V14.8428C119.807 15.4945 119.674 16.0505 119.41 16.5107C119.146 16.971 118.777 17.3197 118.303 17.5566C117.833 17.7982 117.291 17.9189 116.676 17.9189C116.421 17.9189 116.12 17.8779 115.773 17.7959C115.432 17.7184 115.094 17.584 114.762 17.3926C114.434 17.2057 114.158 16.9528 113.935 16.6338L114.598 15.8818C114.908 16.2555 115.231 16.5153 115.568 16.6611C115.91 16.807 116.247 16.8799 116.58 16.8799C116.981 16.8799 117.327 16.8047 117.619 16.6543C117.911 16.5039 118.136 16.2806 118.296 15.9844C118.46 15.6927 118.542 15.3327 118.542 14.9043V9.23047L118.658 7.60352ZM113.565 11.3838V11.2402C113.565 10.6751 113.632 10.1624 113.764 9.70215C113.9 9.2373 114.094 8.83854 114.345 8.50586C114.6 8.17318 114.908 7.91797 115.268 7.74023C115.628 7.55794 116.033 7.4668 116.484 7.4668C116.949 7.4668 117.355 7.54883 117.701 7.71289C118.052 7.8724 118.348 8.1071 118.59 8.41699C118.836 8.72233 119.03 9.09147 119.171 9.52441C119.312 9.95736 119.41 10.4473 119.465 10.9941V11.623C119.415 12.1654 119.317 12.653 119.171 13.0859C119.03 13.5189 118.836 13.888 118.59 14.1934C118.348 14.4987 118.052 14.7334 117.701 14.8975C117.35 15.057 116.94 15.1367 116.471 15.1367C116.029 15.1367 115.628 15.0433 115.268 14.8564C114.912 14.6696 114.607 14.4076 114.352 14.0703C114.096 13.7331 113.9 13.3366 113.764 12.8809C113.632 12.4206 113.565 11.9215 113.565 11.3838ZM114.83 11.2402V11.3838C114.83 11.7529 114.867 12.0993 114.939 12.4229C115.017 12.7464 115.133 13.0312 115.288 13.2773C115.448 13.5234 115.65 13.7171 115.896 13.8584C116.143 13.9951 116.437 14.0635 116.778 14.0635C117.198 14.0635 117.544 13.9746 117.817 13.7969C118.091 13.6191 118.307 13.3844 118.467 13.0928C118.631 12.8011 118.758 12.4844 118.85 12.1426V10.4951C118.799 10.2445 118.722 10.0029 118.617 9.77051C118.517 9.53353 118.385 9.32389 118.221 9.1416C118.061 8.95475 117.863 8.80664 117.626 8.69727C117.389 8.58789 117.111 8.5332 116.792 8.5332C116.446 8.5332 116.147 8.60612 115.896 8.75195C115.65 8.89323 115.448 9.08919 115.288 9.33984C115.133 9.58594 115.017 9.87305 114.939 10.2012C114.867 10.5247 114.83 10.8711 114.83 11.2402ZM122.992 8.76562V15H121.728V7.60352H122.958L122.992 8.76562ZM125.303 7.5625L125.296 8.73828C125.191 8.71549 125.091 8.70182 124.995 8.69727C124.904 8.68815 124.799 8.68359 124.681 8.68359C124.389 8.68359 124.132 8.72917 123.908 8.82031C123.685 8.91146 123.496 9.03906 123.341 9.20312C123.186 9.36719 123.063 9.56315 122.972 9.79102C122.885 10.0143 122.828 10.2604 122.801 10.5293L122.445 10.7344C122.445 10.2878 122.489 9.86849 122.575 9.47656C122.666 9.08464 122.805 8.73828 122.992 8.4375C123.179 8.13216 123.416 7.89518 123.703 7.72656C123.995 7.55339 124.341 7.4668 124.742 7.4668C124.833 7.4668 124.938 7.47819 125.057 7.50098C125.175 7.51921 125.257 7.53971 125.303 7.5625ZM126 11.3838V11.2266C126 10.6934 126.077 10.1989 126.232 9.74316C126.387 9.28288 126.611 8.88411 126.902 8.54688C127.194 8.20508 127.547 7.94076 127.962 7.75391C128.377 7.5625 128.841 7.4668 129.356 7.4668C129.876 7.4668 130.343 7.5625 130.758 7.75391C131.177 7.94076 131.533 8.20508 131.824 8.54688C132.12 8.88411 132.346 9.28288 132.501 9.74316C132.656 10.1989 132.733 10.6934 132.733 11.2266V11.3838C132.733 11.917 132.656 12.4115 132.501 12.8672C132.346 13.3229 132.12 13.7217 131.824 14.0635C131.533 14.4007 131.179 14.665 130.765 14.8564C130.354 15.0433 129.89 15.1367 129.37 15.1367C128.851 15.1367 128.383 15.0433 127.969 14.8564C127.554 14.665 127.199 14.4007 126.902 14.0635C126.611 13.7217 126.387 13.3229 126.232 12.8672C126.077 12.4115 126 11.917 126 11.3838ZM127.265 11.2266V11.3838C127.265 11.7529 127.308 12.1016 127.395 12.4297C127.481 12.7533 127.611 13.0404 127.784 13.291C127.962 13.5417 128.183 13.7399 128.447 13.8857C128.712 14.027 129.019 14.0977 129.37 14.0977C129.716 14.0977 130.02 14.027 130.279 13.8857C130.544 13.7399 130.762 13.5417 130.936 13.291C131.109 13.0404 131.239 12.7533 131.325 12.4297C131.416 12.1016 131.462 11.7529 131.462 11.3838V11.2266C131.462 10.862 131.416 10.5179 131.325 10.1943C131.239 9.86621 131.106 9.57682 130.929 9.32617C130.756 9.07096 130.537 8.87044 130.272 8.72461C130.013 8.57878 129.707 8.50586 129.356 8.50586C129.01 8.50586 128.705 8.57878 128.44 8.72461C128.181 8.87044 127.962 9.07096 127.784 9.32617C127.611 9.57682 127.481 9.86621 127.395 10.1943C127.308 10.5179 127.265 10.862 127.265 11.2266ZM138.845 13.291V7.60352H140.116V15H138.906L138.845 13.291ZM139.084 11.7324L139.61 11.7188C139.61 12.2109 139.558 12.6667 139.453 13.0859C139.353 13.5007 139.189 13.8607 138.961 14.166C138.733 14.4714 138.435 14.7106 138.065 14.8838C137.696 15.0524 137.247 15.1367 136.719 15.1367C136.359 15.1367 136.028 15.0843 135.728 14.9795C135.431 14.8747 135.176 14.7129 134.962 14.4941C134.748 14.2754 134.581 13.9906 134.463 13.6396C134.349 13.2887 134.292 12.8672 134.292 12.375V7.60352H135.557V12.3887C135.557 12.7214 135.593 12.9971 135.666 13.2158C135.743 13.43 135.846 13.6009 135.974 13.7285C136.106 13.8516 136.252 13.9382 136.411 13.9883C136.575 14.0384 136.744 14.0635 136.917 14.0635C137.455 14.0635 137.881 13.9609 138.195 13.7559C138.51 13.5462 138.735 13.266 138.872 12.915C139.013 12.5596 139.084 12.1654 139.084 11.7324ZM143.309 9.18262V15H142.044V7.60352H143.24L143.309 9.18262ZM143.008 11.0215L142.481 11.001C142.486 10.4951 142.561 10.028 142.707 9.59961C142.853 9.16667 143.058 8.79069 143.322 8.47168C143.587 8.15267 143.901 7.90658 144.266 7.7334C144.635 7.55566 145.043 7.4668 145.489 7.4668C145.854 7.4668 146.182 7.51693 146.474 7.61719C146.765 7.71289 147.014 7.86784 147.219 8.08203C147.428 8.29622 147.588 8.57422 147.697 8.91602C147.807 9.25326 147.861 9.66569 147.861 10.1533V15H146.59V10.1396C146.59 9.75228 146.533 9.44238 146.419 9.20996C146.305 8.97298 146.139 8.80208 145.92 8.69727C145.701 8.58789 145.432 8.5332 145.113 8.5332C144.799 8.5332 144.512 8.59928 144.252 8.73145C143.997 8.86361 143.776 9.0459 143.589 9.27832C143.407 9.51074 143.263 9.77734 143.158 10.0781C143.058 10.3743 143.008 10.6888 143.008 11.0215ZM154.444 13.5645V4.5H155.716V15H154.554L154.444 13.5645ZM149.468 11.3838V11.2402C149.468 10.6751 149.536 10.1624 149.673 9.70215C149.814 9.2373 150.012 8.83854 150.268 8.50586C150.527 8.17318 150.835 7.91797 151.19 7.74023C151.55 7.55794 151.951 7.4668 152.394 7.4668C152.858 7.4668 153.264 7.54883 153.61 7.71289C153.961 7.8724 154.257 8.1071 154.499 8.41699C154.745 8.72233 154.939 9.09147 155.08 9.52441C155.221 9.95736 155.319 10.4473 155.374 10.9941V11.623C155.324 12.1654 155.226 12.653 155.08 13.0859C154.939 13.5189 154.745 13.888 154.499 14.1934C154.257 14.4987 153.961 14.7334 153.61 14.8975C153.259 15.057 152.849 15.1367 152.38 15.1367C151.947 15.1367 151.55 15.0433 151.19 14.8564C150.835 14.6696 150.527 14.4076 150.268 14.0703C150.012 13.7331 149.814 13.3366 149.673 12.8809C149.536 12.4206 149.468 11.9215 149.468 11.3838ZM150.739 11.2402V11.3838C150.739 11.7529 150.776 12.0993 150.849 12.4229C150.926 12.7464 151.045 13.0312 151.204 13.2773C151.364 13.5234 151.566 13.7171 151.812 13.8584C152.059 13.9951 152.353 14.0635 152.694 14.0635C153.114 14.0635 153.458 13.9746 153.727 13.7969C154 13.6191 154.219 13.3844 154.383 13.0928C154.547 12.8011 154.674 12.4844 154.766 12.1426V10.4951C154.711 10.2445 154.631 10.0029 154.526 9.77051C154.426 9.53353 154.294 9.32389 154.13 9.1416C153.97 8.95475 153.772 8.80664 153.535 8.69727C153.303 8.58789 153.027 8.5332 152.708 8.5332C152.362 8.5332 152.063 8.60612 151.812 8.75195C151.566 8.89323 151.364 9.08919 151.204 9.33984C151.045 9.58594 150.926 9.87305 150.849 10.2012C150.776 10.5247 150.739 10.8711 150.739 11.2402ZM161.991 13.0381C161.991 12.8558 161.95 12.6872 161.868 12.5322C161.791 12.3727 161.629 12.2292 161.383 12.1016C161.141 11.9694 160.777 11.8555 160.289 11.7598C159.879 11.6732 159.507 11.5706 159.175 11.4521C158.847 11.3337 158.566 11.1901 158.334 11.0215C158.106 10.8529 157.931 10.6546 157.808 10.4268C157.685 10.1989 157.623 9.93229 157.623 9.62695C157.623 9.33529 157.687 9.05957 157.814 8.7998C157.947 8.54004 158.131 8.3099 158.368 8.10938C158.61 7.90885 158.899 7.75163 159.236 7.6377C159.574 7.52376 159.95 7.4668 160.364 7.4668C160.957 7.4668 161.463 7.57161 161.882 7.78125C162.301 7.99089 162.622 8.27116 162.846 8.62207C163.069 8.96842 163.181 9.35352 163.181 9.77734H161.916C161.916 9.57227 161.854 9.37402 161.731 9.18262C161.613 8.98665 161.438 8.82487 161.205 8.69727C160.977 8.56966 160.697 8.50586 160.364 8.50586C160.013 8.50586 159.729 8.56055 159.51 8.66992C159.296 8.77474 159.138 8.90918 159.038 9.07324C158.942 9.2373 158.895 9.41048 158.895 9.59277C158.895 9.72949 158.917 9.85254 158.963 9.96191C159.013 10.0667 159.1 10.1647 159.223 10.2559C159.346 10.3424 159.519 10.4245 159.742 10.502C159.965 10.5794 160.25 10.6569 160.597 10.7344C161.203 10.8711 161.702 11.0352 162.094 11.2266C162.486 11.418 162.777 11.6527 162.969 11.9307C163.16 12.2087 163.256 12.5459 163.256 12.9424C163.256 13.266 163.188 13.5622 163.051 13.8311C162.919 14.0999 162.725 14.3324 162.47 14.5283C162.219 14.7197 161.918 14.8701 161.567 14.9795C161.221 15.0843 160.831 15.1367 160.398 15.1367C159.747 15.1367 159.195 15.0205 158.744 14.7881C158.293 14.5557 157.951 14.2549 157.719 13.8857C157.486 13.5166 157.37 13.127 157.37 12.7168H158.642C158.66 13.0632 158.76 13.3389 158.942 13.5439C159.125 13.7445 159.348 13.888 159.612 13.9746C159.877 14.0566 160.139 14.0977 160.398 14.0977C160.745 14.0977 161.034 14.0521 161.267 13.9609C161.504 13.8698 161.684 13.7445 161.807 13.585C161.93 13.4255 161.991 13.2432 161.991 13.0381ZM167.829 10.9531V11.0215C167.829 12.0195 167.717 12.9219 167.494 13.7285C167.271 14.5352 166.986 15.2393 166.64 15.8408C166.293 16.4469 165.929 16.9482 165.546 17.3447C165.163 17.7458 164.81 18.0352 164.486 18.2129L164.22 17.4473C164.489 17.2422 164.76 16.9551 165.033 16.5859C165.307 16.2214 165.56 15.7702 165.792 15.2324C166.024 14.6992 166.211 14.084 166.353 13.3867C166.494 12.6849 166.564 11.901 166.564 11.0352V10.9395C166.564 10.0736 166.489 9.29199 166.339 8.59473C166.188 7.8929 165.993 7.27539 165.751 6.74219C165.514 6.20898 165.259 5.76009 164.985 5.39551C164.716 5.02637 164.461 4.74154 164.22 4.54102L164.486 3.76855C164.81 3.94629 165.163 4.23568 165.546 4.63672C165.929 5.0332 166.293 5.53451 166.64 6.14062C166.986 6.74674 167.271 7.45312 167.494 8.25977C167.717 9.06185 167.829 9.95964 167.829 10.9531Z" fill="#4D4F5D"/>
<path d="M61.8281 60.8164L50.041 99H37.5234L55.2871 50.6562H63.2227L61.8281 60.8164ZM71.5898 99L59.7695 60.8164L58.2422 50.6562H66.2773L84.1406 99H71.5898ZM71.125 80.9707V89.9688H46.3223V80.9707H71.125ZM105.822 89.9688V75.1602C105.822 74.1419 105.678 73.2676 105.391 72.5371C105.103 71.8066 104.649 71.2422 104.029 70.8438C103.41 70.4232 102.579 70.2129 101.539 70.2129C100.698 70.2129 99.9785 70.3568 99.3809 70.6445C98.7832 70.9323 98.3294 71.3639 98.0195 71.9395C97.7096 72.515 97.5547 73.2454 97.5547 74.1309H86.3652C86.3652 72.4707 86.7305 70.9323 87.4609 69.5156C88.2135 68.0768 89.276 66.8262 90.6484 65.7637C92.043 64.7012 93.7031 63.8822 95.6289 63.3066C97.5768 62.709 99.7461 62.4102 102.137 62.4102C104.992 62.4102 107.538 62.8861 109.773 63.8379C112.031 64.7897 113.813 66.2174 115.119 68.1211C116.425 70.0026 117.078 72.3711 117.078 75.2266V89.9355C117.078 92.2819 117.211 94.0638 117.477 95.2812C117.742 96.4766 118.118 97.528 118.605 98.4355V99H107.383C106.852 97.8932 106.453 96.543 106.188 94.9492C105.944 93.3333 105.822 91.6732 105.822 89.9688ZM107.184 77.0527L107.25 83.0293H102.303C101.262 83.0293 100.377 83.1732 99.6465 83.4609C98.9382 83.7487 98.3626 84.1471 97.9199 84.6562C97.4993 85.1432 97.1895 85.6966 96.9902 86.3164C96.8132 86.9362 96.7246 87.5892 96.7246 88.2754C96.7246 88.9395 96.8796 89.5371 97.1895 90.0684C97.5215 90.5775 97.9642 90.9759 98.5176 91.2637C99.071 91.5514 99.6908 91.6953 100.377 91.6953C101.617 91.6953 102.668 91.4629 103.531 90.998C104.417 90.5111 105.092 89.9245 105.557 89.2383C106.021 88.5521 106.254 87.9102 106.254 87.3125L108.711 91.8945C108.268 92.7799 107.759 93.6764 107.184 94.584C106.63 95.4915 105.933 96.3327 105.092 97.1074C104.273 97.86 103.266 98.4798 102.07 98.9668C100.875 99.4316 99.4251 99.6641 97.7207 99.6641C95.5072 99.6641 93.4707 99.2103 91.6113 98.3027C89.7741 97.3952 88.3021 96.1335 87.1953 94.5176C86.0885 92.8796 85.5352 90.998 85.5352 88.873C85.5352 87.0137 85.8672 85.3535 86.5312 83.8926C87.2174 82.4316 88.2467 81.1921 89.6191 80.1738C90.9915 79.1556 92.7402 78.3809 94.8652 77.8496C96.9902 77.3184 99.4915 77.0527 102.369 77.0527H107.184ZM143.541 78.4473H131.09L131.023 70.8105H141.117C142.932 70.8105 144.382 70.6113 145.467 70.2129C146.551 69.7923 147.337 69.1836 147.824 68.3867C148.333 67.5898 148.588 66.5938 148.588 65.3984C148.588 64.026 148.333 62.9193 147.824 62.0781C147.315 61.237 146.507 60.6283 145.4 60.252C144.316 59.8535 142.91 59.6543 141.184 59.6543H135.473V99H123.818V50.6562H141.184C144.172 50.6562 146.839 50.9329 149.186 51.4863C151.532 52.0176 153.524 52.8366 155.162 53.9434C156.822 55.0501 158.084 56.4447 158.947 58.127C159.811 59.7871 160.242 61.7461 160.242 64.0039C160.242 65.974 159.822 67.8223 158.98 69.5488C158.139 71.2754 156.734 72.681 154.764 73.7656C152.816 74.8281 150.148 75.3815 146.762 75.4258L143.541 78.4473ZM143.076 99H128.268L132.252 90.0352H143.076C144.67 90.0352 145.943 89.7917 146.895 89.3047C147.868 88.7956 148.566 88.1315 148.986 87.3125C149.429 86.4714 149.65 85.5417 149.65 84.5234C149.65 83.2839 149.44 82.2103 149.02 81.3027C148.621 80.3952 147.979 79.6979 147.094 79.2109C146.208 78.7018 145.024 78.4473 143.541 78.4473H133.746L133.812 70.8105H145.533L148.256 73.8652C151.488 73.7324 154.044 74.1862 155.926 75.2266C157.829 76.2669 159.191 77.6393 160.01 79.3438C160.829 81.0482 161.238 82.8301 161.238 84.6895C161.238 87.8548 160.552 90.5 159.18 92.625C157.829 94.75 155.804 96.3438 153.104 97.4062C150.403 98.4688 147.061 99 143.076 99ZM167.281 48H178.471V90.168L177.309 99H167.281V48ZM200.518 80.6387V81.3359C200.518 84.0586 200.241 86.5378 199.688 88.7734C199.134 91.0091 198.282 92.946 197.131 94.584C195.98 96.1999 194.53 97.4505 192.781 98.3359C191.033 99.2214 188.963 99.6641 186.572 99.6641C184.403 99.6641 182.544 99.1992 180.994 98.2695C179.445 97.3177 178.15 96.0117 177.109 94.3516C176.069 92.6693 175.228 90.7324 174.586 88.541C173.944 86.3275 173.435 83.959 173.059 81.4355V80.6055C173.435 78.1042 173.944 75.7578 174.586 73.5664C175.228 71.3529 176.069 69.416 177.109 67.7559C178.15 66.0736 179.434 64.7676 180.961 63.8379C182.51 62.8861 184.359 62.4102 186.506 62.4102C188.919 62.4102 190.999 62.8639 192.748 63.7715C194.519 64.679 195.98 65.9518 197.131 67.5898C198.282 69.2279 199.134 71.1536 199.688 73.3672C200.241 75.5807 200.518 78.0046 200.518 80.6387ZM189.328 81.3359V80.6387C189.328 79.3327 189.251 78.1042 189.096 76.9531C188.941 75.8021 188.664 74.7839 188.266 73.8984C187.867 73.013 187.303 72.3158 186.572 71.8066C185.842 71.2975 184.89 71.043 183.717 71.043C182.521 71.043 181.514 71.2422 180.695 71.6406C179.898 72.0391 179.257 72.6146 178.77 73.3672C178.305 74.0977 177.973 75.0052 177.773 76.0898C177.574 77.1523 177.486 78.3587 177.508 79.709V82.332C177.464 84.1693 177.63 85.7409 178.006 87.0469C178.382 88.3529 179.035 89.349 179.965 90.0352C180.895 90.7214 182.167 91.0645 183.783 91.0645C184.979 91.0645 185.941 90.832 186.672 90.3672C187.424 89.9023 187.989 89.2383 188.365 88.375C188.742 87.5117 188.996 86.4824 189.129 85.2871C189.262 84.0918 189.328 82.7747 189.328 81.3359Z" fill="#8F91A8"/>
<rect y="104" width="240" height="24" fill="#8F91A8"/>
<path d="M278.626 13.5645V4.5H279.897V15H278.735L278.626 13.5645ZM273.649 11.3838V11.2402C273.649 10.6751 273.718 10.1624 273.854 9.70215C273.996 9.2373 274.194 8.83854 274.449 8.50586C274.709 8.17318 275.017 7.91797 275.372 7.74023C275.732 7.55794 276.133 7.4668 276.575 7.4668C277.04 7.4668 277.446 7.54883 277.792 7.71289C278.143 7.8724 278.439 8.1071 278.681 8.41699C278.927 8.72233 279.12 9.09147 279.262 9.52441C279.403 9.95736 279.501 10.4473 279.556 10.9941V11.623C279.506 12.1654 279.408 12.653 279.262 13.0859C279.12 13.5189 278.927 13.888 278.681 14.1934C278.439 14.4987 278.143 14.7334 277.792 14.8975C277.441 15.057 277.031 15.1367 276.562 15.1367C276.129 15.1367 275.732 15.0433 275.372 14.8564C275.017 14.6696 274.709 14.4076 274.449 14.0703C274.194 13.7331 273.996 13.3366 273.854 12.8809C273.718 12.4206 273.649 11.9215 273.649 11.3838ZM274.921 11.2402V11.3838C274.921 11.7529 274.957 12.0993 275.03 12.4229C275.108 12.7464 275.226 13.0312 275.386 13.2773C275.545 13.5234 275.748 13.7171 275.994 13.8584C276.24 13.9951 276.534 14.0635 276.876 14.0635C277.295 14.0635 277.639 13.9746 277.908 13.7969C278.182 13.6191 278.4 13.3844 278.564 13.0928C278.729 12.8011 278.856 12.4844 278.947 12.1426V10.4951C278.893 10.2445 278.813 10.0029 278.708 9.77051C278.608 9.53353 278.476 9.32389 278.312 9.1416C278.152 8.95475 277.954 8.80664 277.717 8.69727C277.484 8.58789 277.209 8.5332 276.89 8.5332C276.543 8.5332 276.245 8.60612 275.994 8.75195C275.748 8.89323 275.545 9.08919 275.386 9.33984C275.226 9.58594 275.108 9.87305 275.03 10.2012C274.957 10.5247 274.921 10.8711 274.921 11.2402ZM283.24 7.60352V15H281.969V7.60352H283.24ZM281.873 5.6416C281.873 5.43652 281.935 5.26335 282.058 5.12207C282.185 4.98079 282.372 4.91016 282.618 4.91016C282.86 4.91016 283.044 4.98079 283.172 5.12207C283.304 5.26335 283.37 5.43652 283.37 5.6416C283.37 5.83757 283.304 6.00618 283.172 6.14746C283.044 6.28418 282.86 6.35254 282.618 6.35254C282.372 6.35254 282.185 6.28418 282.058 6.14746C281.935 6.00618 281.873 5.83757 281.873 5.6416ZM289.577 13.0381C289.577 12.8558 289.536 12.6872 289.454 12.5322C289.377 12.3727 289.215 12.2292 288.969 12.1016C288.727 11.9694 288.363 11.8555 287.875 11.7598C287.465 11.6732 287.093 11.5706 286.761 11.4521C286.433 11.3337 286.152 11.1901 285.92 11.0215C285.692 10.8529 285.517 10.6546 285.394 10.4268C285.271 10.1989 285.209 9.93229 285.209 9.62695C285.209 9.33529 285.273 9.05957 285.4 8.7998C285.533 8.54004 285.717 8.3099 285.954 8.10938C286.196 7.90885 286.485 7.75163 286.822 7.6377C287.16 7.52376 287.535 7.4668 287.95 7.4668C288.543 7.4668 289.049 7.57161 289.468 7.78125C289.887 7.99089 290.208 8.27116 290.432 8.62207C290.655 8.96842 290.767 9.35352 290.767 9.77734H289.502C289.502 9.57227 289.44 9.37402 289.317 9.18262C289.199 8.98665 289.023 8.82487 288.791 8.69727C288.563 8.56966 288.283 8.50586 287.95 8.50586C287.599 8.50586 287.314 8.56055 287.096 8.66992C286.882 8.77474 286.724 8.90918 286.624 9.07324C286.528 9.2373 286.48 9.41048 286.48 9.59277C286.48 9.72949 286.503 9.85254 286.549 9.96191C286.599 10.0667 286.686 10.1647 286.809 10.2559C286.932 10.3424 287.105 10.4245 287.328 10.502C287.551 10.5794 287.836 10.6569 288.183 10.7344C288.789 10.8711 289.288 11.0352 289.68 11.2266C290.072 11.418 290.363 11.6527 290.555 11.9307C290.746 12.2087 290.842 12.5459 290.842 12.9424C290.842 13.266 290.773 13.5622 290.637 13.8311C290.505 14.0999 290.311 14.3324 290.056 14.5283C289.805 14.7197 289.504 14.8701 289.153 14.9795C288.807 15.0843 288.417 15.1367 287.984 15.1367C287.333 15.1367 286.781 15.0205 286.33 14.7881C285.879 14.5557 285.537 14.2549 285.305 13.8857C285.072 13.5166 284.956 13.127 284.956 12.7168H286.228C286.246 13.0632 286.346 13.3389 286.528 13.5439C286.711 13.7445 286.934 13.888 287.198 13.9746C287.463 14.0566 287.725 14.0977 287.984 14.0977C288.331 14.0977 288.62 14.0521 288.853 13.9609C289.09 13.8698 289.27 13.7445 289.393 13.585C289.516 13.4255 289.577 13.2432 289.577 13.0381ZM296.864 13.7354V9.92773C296.864 9.63607 296.805 9.38314 296.687 9.16895C296.573 8.9502 296.399 8.78158 296.167 8.66309C295.935 8.5446 295.647 8.48535 295.306 8.48535C294.987 8.48535 294.706 8.54004 294.465 8.64941C294.228 8.75879 294.041 8.90234 293.904 9.08008C293.772 9.25781 293.706 9.44922 293.706 9.6543H292.441C292.441 9.38997 292.51 9.12793 292.646 8.86816C292.783 8.6084 292.979 8.3737 293.234 8.16406C293.494 7.94987 293.804 7.78125 294.164 7.6582C294.529 7.5306 294.934 7.4668 295.381 7.4668C295.919 7.4668 296.393 7.55794 296.803 7.74023C297.217 7.92253 297.541 8.19824 297.773 8.56738C298.01 8.93197 298.129 9.38997 298.129 9.94141V13.3867C298.129 13.6328 298.149 13.8949 298.19 14.1729C298.236 14.4508 298.302 14.6901 298.389 14.8906V15H297.069C297.006 14.8542 296.955 14.6605 296.919 14.4189C296.882 14.1729 296.864 13.945 296.864 13.7354ZM297.083 10.5156L297.097 11.4043H295.818C295.458 11.4043 295.137 11.4339 294.854 11.4932C294.572 11.5479 294.335 11.6322 294.144 11.7461C293.952 11.86 293.806 12.0036 293.706 12.1768C293.606 12.3454 293.556 12.5436 293.556 12.7715C293.556 13.0039 293.608 13.2158 293.713 13.4072C293.818 13.5986 293.975 13.7513 294.185 13.8652C294.399 13.9746 294.661 14.0293 294.971 14.0293C295.358 14.0293 295.7 13.9473 295.996 13.7832C296.292 13.6191 296.527 13.4186 296.7 13.1816C296.878 12.9447 296.974 12.7145 296.987 12.4912L297.527 13.0996C297.495 13.291 297.409 13.5029 297.268 13.7354C297.126 13.9678 296.937 14.1911 296.7 14.4053C296.468 14.6149 296.19 14.7904 295.866 14.9316C295.547 15.0684 295.187 15.1367 294.786 15.1367C294.285 15.1367 293.845 15.0387 293.467 14.8428C293.093 14.6468 292.801 14.3848 292.592 14.0566C292.387 13.724 292.284 13.3525 292.284 12.9424C292.284 12.5459 292.362 12.1973 292.517 11.8965C292.672 11.5911 292.895 11.3382 293.187 11.1377C293.478 10.9326 293.829 10.7777 294.239 10.6729C294.649 10.568 295.107 10.5156 295.613 10.5156H297.083ZM300.111 4.5H301.383V13.5645L301.273 15H300.111V4.5ZM306.38 11.2402V11.3838C306.38 11.9215 306.316 12.4206 306.188 12.8809C306.061 13.3366 305.874 13.7331 305.628 14.0703C305.382 14.4076 305.081 14.6696 304.726 14.8564C304.37 15.0433 303.962 15.1367 303.502 15.1367C303.033 15.1367 302.62 15.057 302.265 14.8975C301.914 14.7334 301.618 14.4987 301.376 14.1934C301.134 13.888 300.941 13.5189 300.795 13.0859C300.654 12.653 300.556 12.1654 300.501 11.623V10.9941C300.556 10.4473 300.654 9.95736 300.795 9.52441C300.941 9.09147 301.134 8.72233 301.376 8.41699C301.618 8.1071 301.914 7.8724 302.265 7.71289C302.616 7.54883 303.023 7.4668 303.488 7.4668C303.953 7.4668 304.366 7.55794 304.726 7.74023C305.086 7.91797 305.386 8.17318 305.628 8.50586C305.874 8.83854 306.061 9.2373 306.188 9.70215C306.316 10.1624 306.38 10.6751 306.38 11.2402ZM305.108 11.3838V11.2402C305.108 10.8711 305.074 10.5247 305.006 10.2012C304.938 9.87305 304.828 9.58594 304.678 9.33984C304.527 9.08919 304.329 8.89323 304.083 8.75195C303.837 8.60612 303.534 8.5332 303.174 8.5332C302.855 8.5332 302.577 8.58789 302.34 8.69727C302.107 8.80664 301.909 8.95475 301.745 9.1416C301.581 9.32389 301.447 9.53353 301.342 9.77051C301.242 10.0029 301.166 10.2445 301.116 10.4951V12.1426C301.189 12.4616 301.308 12.7692 301.472 13.0654C301.64 13.3571 301.864 13.5964 302.142 13.7832C302.424 13.9701 302.773 14.0635 303.188 14.0635C303.529 14.0635 303.821 13.9951 304.062 13.8584C304.309 13.7171 304.507 13.5234 304.657 13.2773C304.812 13.0312 304.926 12.7464 304.999 12.4229C305.072 12.0993 305.108 11.7529 305.108 11.3838ZM309.354 4.5V15H308.082V4.5H309.354ZM314.453 15.1367C313.938 15.1367 313.471 15.0501 313.052 14.877C312.637 14.6992 312.279 14.4508 311.979 14.1318C311.682 13.8128 311.454 13.4346 311.295 12.9971C311.135 12.5596 311.056 12.0811 311.056 11.5615V11.2744C311.056 10.6729 311.145 10.1374 311.322 9.66797C311.5 9.19401 311.742 8.79297 312.047 8.46484C312.352 8.13672 312.699 7.88835 313.086 7.71973C313.473 7.55111 313.874 7.4668 314.289 7.4668C314.818 7.4668 315.273 7.55794 315.656 7.74023C316.044 7.92253 316.36 8.17773 316.606 8.50586C316.853 8.82943 317.035 9.21224 317.153 9.6543C317.272 10.0918 317.331 10.5703 317.331 11.0898V11.6572H311.808V10.625H316.066V10.5293C316.048 10.2012 315.98 9.88216 315.861 9.57227C315.747 9.26237 315.565 9.00716 315.314 8.80664C315.064 8.60612 314.722 8.50586 314.289 8.50586C314.002 8.50586 313.738 8.56738 313.496 8.69043C313.255 8.80892 313.047 8.98665 312.874 9.22363C312.701 9.46061 312.566 9.75 312.471 10.0918C312.375 10.4336 312.327 10.8278 312.327 11.2744V11.5615C312.327 11.9124 312.375 12.2428 312.471 12.5527C312.571 12.8581 312.715 13.127 312.901 13.3594C313.093 13.5918 313.323 13.7741 313.592 13.9062C313.865 14.0384 314.175 14.1045 314.521 14.1045C314.968 14.1045 315.346 14.0133 315.656 13.8311C315.966 13.6488 316.237 13.4049 316.47 13.0996L317.235 13.708C317.076 13.9495 316.873 14.1797 316.627 14.3984C316.381 14.6172 316.078 14.7949 315.718 14.9316C315.362 15.0684 314.941 15.1367 314.453 15.1367ZM323.47 13.5645V4.5H324.741V15H323.579L323.47 13.5645ZM318.493 11.3838V11.2402C318.493 10.6751 318.562 10.1624 318.698 9.70215C318.84 9.2373 319.038 8.83854 319.293 8.50586C319.553 8.17318 319.86 7.91797 320.216 7.74023C320.576 7.55794 320.977 7.4668 321.419 7.4668C321.884 7.4668 322.289 7.54883 322.636 7.71289C322.987 7.8724 323.283 8.1071 323.524 8.41699C323.771 8.72233 323.964 9.09147 324.105 9.52441C324.247 9.95736 324.345 10.4473 324.399 10.9941V11.623C324.349 12.1654 324.251 12.653 324.105 13.0859C323.964 13.5189 323.771 13.888 323.524 14.1934C323.283 14.4987 322.987 14.7334 322.636 14.8975C322.285 15.057 321.875 15.1367 321.405 15.1367C320.972 15.1367 320.576 15.0433 320.216 14.8564C319.86 14.6696 319.553 14.4076 319.293 14.0703C319.038 13.7331 318.84 13.3366 318.698 12.8809C318.562 12.4206 318.493 11.9215 318.493 11.3838ZM319.765 11.2402V11.3838C319.765 11.7529 319.801 12.0993 319.874 12.4229C319.951 12.7464 320.07 13.0312 320.229 13.2773C320.389 13.5234 320.592 13.7171 320.838 13.8584C321.084 13.9951 321.378 14.0635 321.72 14.0635C322.139 14.0635 322.483 13.9746 322.752 13.7969C323.025 13.6191 323.244 13.3844 323.408 13.0928C323.572 12.8011 323.7 12.4844 323.791 12.1426V10.4951C323.736 10.2445 323.657 10.0029 323.552 9.77051C323.451 9.53353 323.319 9.32389 323.155 9.1416C322.996 8.95475 322.798 8.80664 322.561 8.69727C322.328 8.58789 322.052 8.5332 321.733 8.5332C321.387 8.5332 321.089 8.60612 320.838 8.75195C320.592 8.89323 320.389 9.08919 320.229 9.33984C320.07 9.58594 319.951 9.87305 319.874 10.2012C319.801 10.5247 319.765 10.8711 319.765 11.2402ZM330.176 4.5H331.447V13.5645L331.338 15H330.176V4.5ZM336.444 11.2402V11.3838C336.444 11.9215 336.381 12.4206 336.253 12.8809C336.125 13.3366 335.938 13.7331 335.692 14.0703C335.446 14.4076 335.146 14.6696 334.79 14.8564C334.435 15.0433 334.027 15.1367 333.566 15.1367C333.097 15.1367 332.685 15.057 332.329 14.8975C331.978 14.7334 331.682 14.4987 331.44 14.1934C331.199 13.888 331.005 13.5189 330.859 13.0859C330.718 12.653 330.62 12.1654 330.565 11.623V10.9941C330.62 10.4473 330.718 9.95736 330.859 9.52441C331.005 9.09147 331.199 8.72233 331.44 8.41699C331.682 8.1071 331.978 7.8724 332.329 7.71289C332.68 7.54883 333.088 7.4668 333.553 7.4668C334.018 7.4668 334.43 7.55794 334.79 7.74023C335.15 7.91797 335.451 8.17318 335.692 8.50586C335.938 8.83854 336.125 9.2373 336.253 9.70215C336.381 10.1624 336.444 10.6751 336.444 11.2402ZM335.173 11.3838V11.2402C335.173 10.8711 335.139 10.5247 335.07 10.2012C335.002 9.87305 334.893 9.58594 334.742 9.33984C334.592 9.08919 334.394 8.89323 334.147 8.75195C333.901 8.60612 333.598 8.5332 333.238 8.5332C332.919 8.5332 332.641 8.58789 332.404 8.69727C332.172 8.80664 331.974 8.95475 331.81 9.1416C331.646 9.32389 331.511 9.53353 331.406 9.77051C331.306 10.0029 331.231 10.2445 331.181 10.4951V12.1426C331.254 12.4616 331.372 12.7692 331.536 13.0654C331.705 13.3571 331.928 13.5964 332.206 13.7832C332.489 13.9701 332.837 14.0635 333.252 14.0635C333.594 14.0635 333.885 13.9951 334.127 13.8584C334.373 13.7171 334.571 13.5234 334.722 13.2773C334.877 13.0312 334.991 12.7464 335.063 12.4229C335.136 12.0993 335.173 11.7529 335.173 11.3838ZM342.405 13.7354V9.92773C342.405 9.63607 342.346 9.38314 342.228 9.16895C342.114 8.9502 341.94 8.78158 341.708 8.66309C341.476 8.5446 341.188 8.48535 340.847 8.48535C340.528 8.48535 340.247 8.54004 340.006 8.64941C339.769 8.75879 339.582 8.90234 339.445 9.08008C339.313 9.25781 339.247 9.44922 339.247 9.6543H337.982C337.982 9.38997 338.051 9.12793 338.188 8.86816C338.324 8.6084 338.52 8.3737 338.775 8.16406C339.035 7.94987 339.345 7.78125 339.705 7.6582C340.07 7.5306 340.475 7.4668 340.922 7.4668C341.46 7.4668 341.934 7.55794 342.344 7.74023C342.758 7.92253 343.082 8.19824 343.314 8.56738C343.551 8.93197 343.67 9.38997 343.67 9.94141V13.3867C343.67 13.6328 343.69 13.8949 343.731 14.1729C343.777 14.4508 343.843 14.6901 343.93 14.8906V15H342.61C342.547 14.8542 342.496 14.6605 342.46 14.4189C342.424 14.1729 342.405 13.945 342.405 13.7354ZM342.624 10.5156L342.638 11.4043H341.359C340.999 11.4043 340.678 11.4339 340.396 11.4932C340.113 11.5479 339.876 11.6322 339.685 11.7461C339.493 11.86 339.347 12.0036 339.247 12.1768C339.147 12.3454 339.097 12.5436 339.097 12.7715C339.097 13.0039 339.149 13.2158 339.254 13.4072C339.359 13.5986 339.516 13.7513 339.726 13.8652C339.94 13.9746 340.202 14.0293 340.512 14.0293C340.899 14.0293 341.241 13.9473 341.537 13.7832C341.833 13.6191 342.068 13.4186 342.241 13.1816C342.419 12.9447 342.515 12.7145 342.528 12.4912L343.068 13.0996C343.036 13.291 342.95 13.5029 342.809 13.7354C342.667 13.9678 342.478 14.1911 342.241 14.4053C342.009 14.6149 341.731 14.7904 341.407 14.9316C341.088 15.0684 340.728 15.1367 340.327 15.1367C339.826 15.1367 339.386 15.0387 339.008 14.8428C338.634 14.6468 338.342 14.3848 338.133 14.0566C337.928 13.724 337.825 13.3525 337.825 12.9424C337.825 12.5459 337.903 12.1973 338.058 11.8965C338.213 11.5911 338.436 11.3382 338.728 11.1377C339.019 10.9326 339.37 10.7777 339.78 10.6729C340.19 10.568 340.648 10.5156 341.154 10.5156H342.624ZM348.619 14.0977C348.92 14.0977 349.198 14.0361 349.453 13.9131C349.708 13.79 349.918 13.6214 350.082 13.4072C350.246 13.1885 350.34 12.9401 350.362 12.6621H351.565C351.543 13.0996 351.395 13.5075 351.121 13.8857C350.852 14.2594 350.499 14.5625 350.062 14.7949C349.624 15.0228 349.143 15.1367 348.619 15.1367C348.063 15.1367 347.578 15.0387 347.163 14.8428C346.753 14.6468 346.411 14.3779 346.138 14.0361C345.869 13.6943 345.666 13.3024 345.529 12.8604C345.397 12.4137 345.331 11.9421 345.331 11.4453V11.1582C345.331 10.6615 345.397 10.1921 345.529 9.75C345.666 9.30339 345.869 8.90918 346.138 8.56738C346.411 8.22559 346.753 7.95671 347.163 7.76074C347.578 7.56478 348.063 7.4668 348.619 7.4668C349.198 7.4668 349.704 7.58529 350.137 7.82227C350.57 8.05469 350.909 8.3737 351.155 8.7793C351.406 9.18034 351.543 9.63607 351.565 10.1465H350.362C350.34 9.84115 350.253 9.56543 350.103 9.31934C349.957 9.07324 349.756 8.87728 349.501 8.73145C349.25 8.58105 348.956 8.50586 348.619 8.50586C348.232 8.50586 347.906 8.58333 347.642 8.73828C347.382 8.88867 347.174 9.09375 347.02 9.35352C346.869 9.60872 346.76 9.89355 346.691 10.208C346.628 10.5179 346.596 10.8346 346.596 11.1582V11.4453C346.596 11.7689 346.628 12.0879 346.691 12.4023C346.755 12.7168 346.862 13.0016 347.013 13.2568C347.168 13.512 347.375 13.7171 347.635 13.8721C347.899 14.0225 348.227 14.0977 348.619 14.0977ZM354.259 4.5V15H352.987V4.5H354.259ZM358.777 7.60352L355.551 11.0557L353.746 12.9287L353.644 11.582L354.936 10.0371L357.232 7.60352H358.777ZM357.622 15L354.983 11.4727L355.64 10.3447L359.112 15H357.622ZM364.738 7.60352H365.887V14.8428C365.887 15.4945 365.755 16.0505 365.49 16.5107C365.226 16.971 364.857 17.3197 364.383 17.5566C363.913 17.7982 363.371 17.9189 362.756 17.9189C362.501 17.9189 362.2 17.8779 361.854 17.7959C361.512 17.7184 361.174 17.584 360.842 17.3926C360.514 17.2057 360.238 16.9528 360.015 16.6338L360.678 15.8818C360.988 16.2555 361.311 16.5153 361.648 16.6611C361.99 16.807 362.327 16.8799 362.66 16.8799C363.061 16.8799 363.408 16.8047 363.699 16.6543C363.991 16.5039 364.216 16.2806 364.376 15.9844C364.54 15.6927 364.622 15.3327 364.622 14.9043V9.23047L364.738 7.60352ZM359.646 11.3838V11.2402C359.646 10.6751 359.712 10.1624 359.844 9.70215C359.98 9.2373 360.174 8.83854 360.425 8.50586C360.68 8.17318 360.988 7.91797 361.348 7.74023C361.708 7.55794 362.113 7.4668 362.564 7.4668C363.029 7.4668 363.435 7.54883 363.781 7.71289C364.132 7.8724 364.428 8.1071 364.67 8.41699C364.916 8.72233 365.11 9.09147 365.251 9.52441C365.392 9.95736 365.49 10.4473 365.545 10.9941V11.623C365.495 12.1654 365.397 12.653 365.251 13.0859C365.11 13.5189 364.916 13.888 364.67 14.1934C364.428 14.4987 364.132 14.7334 363.781 14.8975C363.43 15.057 363.02 15.1367 362.551 15.1367C362.109 15.1367 361.708 15.0433 361.348 14.8564C360.992 14.6696 360.687 14.4076 360.432 14.0703C360.176 13.7331 359.98 13.3366 359.844 12.8809C359.712 12.4206 359.646 11.9215 359.646 11.3838ZM360.91 11.2402V11.3838C360.91 11.7529 360.947 12.0993 361.02 12.4229C361.097 12.7464 361.213 13.0312 361.368 13.2773C361.528 13.5234 361.73 13.7171 361.977 13.8584C362.223 13.9951 362.517 14.0635 362.858 14.0635C363.278 14.0635 363.624 13.9746 363.897 13.7969C364.171 13.6191 364.387 13.3844 364.547 13.0928C364.711 12.8011 364.839 12.4844 364.93 12.1426V10.4951C364.88 10.2445 364.802 10.0029 364.697 9.77051C364.597 9.53353 364.465 9.32389 364.301 9.1416C364.141 8.95475 363.943 8.80664 363.706 8.69727C363.469 8.58789 363.191 8.5332 362.872 8.5332C362.526 8.5332 362.227 8.60612 361.977 8.75195C361.73 8.89323 361.528 9.08919 361.368 9.33984C361.213 9.58594 361.097 9.87305 361.02 10.2012C360.947 10.5247 360.91 10.8711 360.91 11.2402ZM369.072 8.76562V15H367.808V7.60352H369.038L369.072 8.76562ZM371.383 7.5625L371.376 8.73828C371.271 8.71549 371.171 8.70182 371.075 8.69727C370.984 8.68815 370.879 8.68359 370.761 8.68359C370.469 8.68359 370.212 8.72917 369.988 8.82031C369.765 8.91146 369.576 9.03906 369.421 9.20312C369.266 9.36719 369.143 9.56315 369.052 9.79102C368.965 10.0143 368.908 10.2604 368.881 10.5293L368.525 10.7344C368.525 10.2878 368.569 9.86849 368.655 9.47656C368.746 9.08464 368.885 8.73828 369.072 8.4375C369.259 8.13216 369.496 7.89518 369.783 7.72656C370.075 7.55339 370.421 7.4668 370.822 7.4668C370.913 7.4668 371.018 7.47819 371.137 7.50098C371.255 7.51921 371.337 7.53971 371.383 7.5625ZM372.08 11.3838V11.2266C372.08 10.6934 372.158 10.1989 372.312 9.74316C372.467 9.28288 372.691 8.88411 372.982 8.54688C373.274 8.20508 373.627 7.94076 374.042 7.75391C374.457 7.5625 374.922 7.4668 375.437 7.4668C375.956 7.4668 376.423 7.5625 376.838 7.75391C377.257 7.94076 377.613 8.20508 377.904 8.54688C378.201 8.88411 378.426 9.28288 378.581 9.74316C378.736 10.1989 378.813 10.6934 378.813 11.2266V11.3838C378.813 11.917 378.736 12.4115 378.581 12.8672C378.426 13.3229 378.201 13.7217 377.904 14.0635C377.613 14.4007 377.259 14.665 376.845 14.8564C376.435 15.0433 375.97 15.1367 375.45 15.1367C374.931 15.1367 374.464 15.0433 374.049 14.8564C373.634 14.665 373.279 14.4007 372.982 14.0635C372.691 13.7217 372.467 13.3229 372.312 12.8672C372.158 12.4115 372.08 11.917 372.08 11.3838ZM373.345 11.2266V11.3838C373.345 11.7529 373.388 12.1016 373.475 12.4297C373.561 12.7533 373.691 13.0404 373.864 13.291C374.042 13.5417 374.263 13.7399 374.527 13.8857C374.792 14.027 375.099 14.0977 375.45 14.0977C375.797 14.0977 376.1 14.027 376.359 13.8857C376.624 13.7399 376.842 13.5417 377.016 13.291C377.189 13.0404 377.319 12.7533 377.405 12.4297C377.496 12.1016 377.542 11.7529 377.542 11.3838V11.2266C377.542 10.862 377.496 10.5179 377.405 10.1943C377.319 9.86621 377.187 9.57682 377.009 9.32617C376.836 9.07096 376.617 8.87044 376.353 8.72461C376.093 8.57878 375.787 8.50586 375.437 8.50586C375.09 8.50586 374.785 8.57878 374.521 8.72461C374.261 8.87044 374.042 9.07096 373.864 9.32617C373.691 9.57682 373.561 9.86621 373.475 10.1943C373.388 10.5179 373.345 10.862 373.345 11.2266ZM384.925 13.291V7.60352H386.196V15H384.986L384.925 13.291ZM385.164 11.7324L385.69 11.7188C385.69 12.2109 385.638 12.6667 385.533 13.0859C385.433 13.5007 385.269 13.8607 385.041 14.166C384.813 14.4714 384.515 14.7106 384.146 14.8838C383.776 15.0524 383.327 15.1367 382.799 15.1367C382.439 15.1367 382.108 15.0843 381.808 14.9795C381.511 14.8747 381.256 14.7129 381.042 14.4941C380.828 14.2754 380.661 13.9906 380.543 13.6396C380.429 13.2887 380.372 12.8672 380.372 12.375V7.60352H381.637V12.3887C381.637 12.7214 381.673 12.9971 381.746 13.2158C381.824 13.43 381.926 13.6009 382.054 13.7285C382.186 13.8516 382.332 13.9382 382.491 13.9883C382.655 14.0384 382.824 14.0635 382.997 14.0635C383.535 14.0635 383.961 13.9609 384.275 13.7559C384.59 13.5462 384.815 13.266 384.952 12.915C385.093 12.5596 385.164 12.1654 385.164 11.7324ZM389.389 9.18262V15H388.124V7.60352H389.32L389.389 9.18262ZM389.088 11.0215L388.562 11.001C388.566 10.4951 388.641 10.028 388.787 9.59961C388.933 9.16667 389.138 8.79069 389.402 8.47168C389.667 8.15267 389.981 7.90658 390.346 7.7334C390.715 7.55566 391.123 7.4668 391.569 7.4668C391.934 7.4668 392.262 7.51693 392.554 7.61719C392.845 7.71289 393.094 7.86784 393.299 8.08203C393.508 8.29622 393.668 8.57422 393.777 8.91602C393.887 9.25326 393.941 9.66569 393.941 10.1533V15H392.67V10.1396C392.67 9.75228 392.613 9.44238 392.499 9.20996C392.385 8.97298 392.219 8.80208 392 8.69727C391.781 8.58789 391.512 8.5332 391.193 8.5332C390.879 8.5332 390.592 8.59928 390.332 8.73145C390.077 8.86361 389.856 9.0459 389.669 9.27832C389.487 9.51074 389.343 9.77734 389.238 10.0781C389.138 10.3743 389.088 10.6888 389.088 11.0215ZM400.524 13.5645V4.5H401.796V15H400.634L400.524 13.5645ZM395.548 11.3838V11.2402C395.548 10.6751 395.616 10.1624 395.753 9.70215C395.894 9.2373 396.092 8.83854 396.348 8.50586C396.607 8.17318 396.915 7.91797 397.271 7.74023C397.631 7.55794 398.032 7.4668 398.474 7.4668C398.938 7.4668 399.344 7.54883 399.69 7.71289C400.041 7.8724 400.338 8.1071 400.579 8.41699C400.825 8.72233 401.019 9.09147 401.16 9.52441C401.301 9.95736 401.399 10.4473 401.454 10.9941V11.623C401.404 12.1654 401.306 12.653 401.16 13.0859C401.019 13.5189 400.825 13.888 400.579 14.1934C400.338 14.4987 400.041 14.7334 399.69 14.8975C399.34 15.057 398.929 15.1367 398.46 15.1367C398.027 15.1367 397.631 15.0433 397.271 14.8564C396.915 14.6696 396.607 14.4076 396.348 14.0703C396.092 13.7331 395.894 13.3366 395.753 12.8809C395.616 12.4206 395.548 11.9215 395.548 11.3838ZM396.819 11.2402V11.3838C396.819 11.7529 396.856 12.0993 396.929 12.4229C397.006 12.7464 397.125 13.0312 397.284 13.2773C397.444 13.5234 397.646 13.7171 397.893 13.8584C398.139 13.9951 398.433 14.0635 398.774 14.0635C399.194 14.0635 399.538 13.9746 399.807 13.7969C400.08 13.6191 400.299 13.3844 400.463 13.0928C400.627 12.8011 400.755 12.4844 400.846 12.1426V10.4951C400.791 10.2445 400.711 10.0029 400.606 9.77051C400.506 9.53353 400.374 9.32389 400.21 9.1416C400.05 8.95475 399.852 8.80664 399.615 8.69727C399.383 8.58789 399.107 8.5332 398.788 8.5332C398.442 8.5332 398.143 8.60612 397.893 8.75195C397.646 8.89323 397.444 9.08919 397.284 9.33984C397.125 9.58594 397.006 9.87305 396.929 10.2012C396.856 10.5247 396.819 10.8711 396.819 11.2402Z" fill="#4D4F5D"/>
<rect x="273" y="34" width="240" height="94" fill="#D2D3D8"/>
<path d="M550.033 15.1367C549.518 15.1367 549.051 15.0501 548.632 14.877C548.217 14.6992 547.859 14.4508 547.559 14.1318C547.262 13.8128 547.035 13.4346 546.875 12.9971C546.715 12.5596 546.636 12.0811 546.636 11.5615V11.2744C546.636 10.6729 546.725 10.1374 546.902 9.66797C547.08 9.19401 547.322 8.79297 547.627 8.46484C547.932 8.13672 548.279 7.88835 548.666 7.71973C549.053 7.55111 549.454 7.4668 549.869 7.4668C550.398 7.4668 550.854 7.55794 551.236 7.74023C551.624 7.92253 551.94 8.17773 552.187 8.50586C552.433 8.82943 552.615 9.21224 552.733 9.6543C552.852 10.0918 552.911 10.5703 552.911 11.0898V11.6572H547.388V10.625H551.646V10.5293C551.628 10.2012 551.56 9.88216 551.441 9.57227C551.327 9.26237 551.145 9.00716 550.895 8.80664C550.644 8.60612 550.302 8.50586 549.869 8.50586C549.582 8.50586 549.318 8.56738 549.076 8.69043C548.835 8.80892 548.627 8.98665 548.454 9.22363C548.281 9.46061 548.146 9.75 548.051 10.0918C547.955 10.4336 547.907 10.8278 547.907 11.2744V11.5615C547.907 11.9124 547.955 12.2428 548.051 12.5527C548.151 12.8581 548.295 13.127 548.481 13.3594C548.673 13.5918 548.903 13.7741 549.172 13.9062C549.445 14.0384 549.755 14.1045 550.102 14.1045C550.548 14.1045 550.926 14.0133 551.236 13.8311C551.546 13.6488 551.817 13.4049 552.05 13.0996L552.815 13.708C552.656 13.9495 552.453 14.1797 552.207 14.3984C551.961 14.6172 551.658 14.7949 551.298 14.9316C550.942 15.0684 550.521 15.1367 550.033 15.1367ZM555.242 7.60352L556.862 10.2969L558.503 7.60352H559.986L557.566 11.2539L560.062 15H558.599L556.89 12.2246L555.181 15H553.711L556.199 11.2539L553.786 7.60352H555.242ZM565.694 13.7354V9.92773C565.694 9.63607 565.635 9.38314 565.517 9.16895C565.403 8.9502 565.229 8.78158 564.997 8.66309C564.765 8.5446 564.478 8.48535 564.136 8.48535C563.817 8.48535 563.536 8.54004 563.295 8.64941C563.058 8.75879 562.871 8.90234 562.734 9.08008C562.602 9.25781 562.536 9.44922 562.536 9.6543H561.271C561.271 9.38997 561.34 9.12793 561.477 8.86816C561.613 8.6084 561.809 8.3737 562.064 8.16406C562.324 7.94987 562.634 7.78125 562.994 7.6582C563.359 7.5306 563.764 7.4668 564.211 7.4668C564.749 7.4668 565.223 7.55794 565.633 7.74023C566.048 7.92253 566.371 8.19824 566.604 8.56738C566.84 8.93197 566.959 9.38997 566.959 9.94141V13.3867C566.959 13.6328 566.979 13.8949 567.021 14.1729C567.066 14.4508 567.132 14.6901 567.219 14.8906V15H565.899C565.836 14.8542 565.785 14.6605 565.749 14.4189C565.713 14.1729 565.694 13.945 565.694 13.7354ZM565.913 10.5156L565.927 11.4043H564.648C564.288 11.4043 563.967 11.4339 563.685 11.4932C563.402 11.5479 563.165 11.6322 562.974 11.7461C562.782 11.86 562.636 12.0036 562.536 12.1768C562.436 12.3454 562.386 12.5436 562.386 12.7715C562.386 13.0039 562.438 13.2158 562.543 13.4072C562.648 13.5986 562.805 13.7513 563.015 13.8652C563.229 13.9746 563.491 14.0293 563.801 14.0293C564.188 14.0293 564.53 13.9473 564.826 13.7832C565.122 13.6191 565.357 13.4186 565.53 13.1816C565.708 12.9447 565.804 12.7145 565.817 12.4912L566.357 13.0996C566.326 13.291 566.239 13.5029 566.098 13.7354C565.956 13.9678 565.767 14.1911 565.53 14.4053C565.298 14.6149 565.02 14.7904 564.696 14.9316C564.377 15.0684 564.017 15.1367 563.616 15.1367C563.115 15.1367 562.675 15.0387 562.297 14.8428C561.923 14.6468 561.632 14.3848 561.422 14.0566C561.217 13.724 561.114 13.3525 561.114 12.9424C561.114 12.5459 561.192 12.1973 561.347 11.8965C561.502 11.5911 561.725 11.3382 562.017 11.1377C562.308 10.9326 562.659 10.7777 563.069 10.6729C563.479 10.568 563.938 10.5156 564.443 10.5156H565.913ZM570.206 9.07324V15H568.935V7.60352H570.138L570.206 9.07324ZM569.946 11.0215L569.358 11.001C569.363 10.4951 569.429 10.028 569.557 9.59961C569.684 9.16667 569.873 8.79069 570.124 8.47168C570.375 8.15267 570.687 7.90658 571.061 7.7334C571.434 7.55566 571.867 7.4668 572.359 7.4668C572.706 7.4668 573.025 7.51693 573.316 7.61719C573.608 7.71289 573.861 7.86556 574.075 8.0752C574.289 8.28483 574.456 8.55371 574.574 8.88184C574.693 9.20996 574.752 9.60645 574.752 10.0713V15H573.487V10.1328C573.487 9.74544 573.421 9.43555 573.289 9.20312C573.161 8.9707 572.979 8.80208 572.742 8.69727C572.505 8.58789 572.227 8.5332 571.908 8.5332C571.535 8.5332 571.222 8.59928 570.972 8.73145C570.721 8.86361 570.521 9.0459 570.37 9.27832C570.22 9.51074 570.11 9.77734 570.042 10.0781C569.978 10.3743 569.946 10.6888 569.946 11.0215ZM574.738 10.3242L573.891 10.584C573.895 10.1784 573.961 9.78874 574.089 9.41504C574.221 9.04134 574.41 8.70866 574.656 8.41699C574.907 8.12533 575.215 7.89518 575.579 7.72656C575.944 7.55339 576.361 7.4668 576.83 7.4668C577.227 7.4668 577.577 7.51921 577.883 7.62402C578.193 7.72884 578.452 7.89062 578.662 8.10938C578.876 8.32357 579.038 8.59928 579.147 8.93652C579.257 9.27376 579.312 9.6748 579.312 10.1396V15H578.04V10.126C578.04 9.71126 577.974 9.38997 577.842 9.16211C577.714 8.92969 577.532 8.7679 577.295 8.67676C577.062 8.58105 576.785 8.5332 576.461 8.5332C576.183 8.5332 575.937 8.58105 575.723 8.67676C575.508 8.77246 575.328 8.90462 575.183 9.07324C575.037 9.2373 574.925 9.42643 574.848 9.64062C574.775 9.85482 574.738 10.0827 574.738 10.3242ZM582.49 9.02539V17.8438H581.219V7.60352H582.381L582.49 9.02539ZM587.474 11.2402V11.3838C587.474 11.9215 587.41 12.4206 587.282 12.8809C587.155 13.3366 586.968 13.7331 586.722 14.0703C586.48 14.4076 586.182 14.6696 585.826 14.8564C585.471 15.0433 585.063 15.1367 584.603 15.1367C584.133 15.1367 583.718 15.0592 583.358 14.9043C582.998 14.7493 582.693 14.5238 582.442 14.2275C582.192 13.9313 581.991 13.5758 581.841 13.1611C581.695 12.7464 581.595 12.2793 581.54 11.7598V10.9941C581.595 10.4473 581.697 9.95736 581.848 9.52441C581.998 9.09147 582.196 8.72233 582.442 8.41699C582.693 8.1071 582.996 7.8724 583.352 7.71289C583.707 7.54883 584.117 7.4668 584.582 7.4668C585.047 7.4668 585.459 7.55794 585.819 7.74023C586.179 7.91797 586.482 8.17318 586.729 8.50586C586.975 8.83854 587.159 9.2373 587.282 9.70215C587.41 10.1624 587.474 10.6751 587.474 11.2402ZM586.202 11.3838V11.2402C586.202 10.8711 586.163 10.5247 586.086 10.2012C586.008 9.87305 585.888 9.58594 585.724 9.33984C585.564 9.08919 585.359 8.89323 585.108 8.75195C584.858 8.60612 584.559 8.5332 584.213 8.5332C583.894 8.5332 583.616 8.58789 583.379 8.69727C583.146 8.80664 582.948 8.95475 582.784 9.1416C582.62 9.32389 582.486 9.53353 582.381 9.77051C582.281 10.0029 582.205 10.2445 582.155 10.4951V12.2656C582.246 12.5846 582.374 12.8854 582.538 13.168C582.702 13.446 582.921 13.6715 583.194 13.8447C583.468 14.0133 583.812 14.0977 584.227 14.0977C584.568 14.0977 584.862 14.027 585.108 13.8857C585.359 13.7399 585.564 13.5417 585.724 13.291C585.888 13.0404 586.008 12.7533 586.086 12.4297C586.163 12.1016 586.202 11.7529 586.202 11.3838ZM590.461 4.5V15H589.189V4.5H590.461ZM595.561 15.1367C595.046 15.1367 594.578 15.0501 594.159 14.877C593.744 14.6992 593.387 14.4508 593.086 14.1318C592.79 13.8128 592.562 13.4346 592.402 12.9971C592.243 12.5596 592.163 12.0811 592.163 11.5615V11.2744C592.163 10.6729 592.252 10.1374 592.43 9.66797C592.607 9.19401 592.849 8.79297 593.154 8.46484C593.46 8.13672 593.806 7.88835 594.193 7.71973C594.581 7.55111 594.982 7.4668 595.396 7.4668C595.925 7.4668 596.381 7.55794 596.764 7.74023C597.151 7.92253 597.468 8.17773 597.714 8.50586C597.96 8.82943 598.142 9.21224 598.261 9.6543C598.379 10.0918 598.438 10.5703 598.438 11.0898V11.6572H592.915V10.625H597.174V10.5293C597.156 10.2012 597.087 9.88216 596.969 9.57227C596.855 9.26237 596.673 9.00716 596.422 8.80664C596.171 8.60612 595.829 8.50586 595.396 8.50586C595.109 8.50586 594.845 8.56738 594.604 8.69043C594.362 8.80892 594.155 8.98665 593.981 9.22363C593.808 9.46061 593.674 9.75 593.578 10.0918C593.482 10.4336 593.435 10.8278 593.435 11.2744V11.5615C593.435 11.9124 593.482 12.2428 593.578 12.5527C593.678 12.8581 593.822 13.127 594.009 13.3594C594.2 13.5918 594.43 13.7741 594.699 13.9062C594.973 14.0384 595.283 14.1045 595.629 14.1045C596.076 14.1045 596.454 14.0133 596.764 13.8311C597.074 13.6488 597.345 13.4049 597.577 13.0996L598.343 13.708C598.183 13.9495 597.98 14.1797 597.734 14.3984C597.488 14.6172 597.185 14.7949 596.825 14.9316C596.47 15.0684 596.048 15.1367 595.561 15.1367Z" fill="#4D4F5D"/>
<rect width="240" height="94" transform="translate(546 34)" fill="#F9F9F9"/>
<rect x="607" y="62.5" width="118" height="37" rx="18.5" fill="#D2D3D8"/>
<path d="M637.703 80.8447H635.181L635.167 79.7852H637.457C637.835 79.7852 638.166 79.7214 638.448 79.5938C638.731 79.4661 638.95 79.2839 639.104 79.0469C639.264 78.8053 639.344 78.5182 639.344 78.1855C639.344 77.821 639.273 77.5247 639.132 77.2969C638.995 77.0645 638.783 76.8958 638.496 76.791C638.214 76.6816 637.854 76.627 637.416 76.627H635.475V85.5H634.155V75.5469H637.416C637.926 75.5469 638.382 75.5993 638.783 75.7041C639.184 75.8044 639.524 75.9639 639.802 76.1826C640.084 76.3968 640.299 76.6702 640.444 77.0029C640.59 77.3356 640.663 77.7344 640.663 78.1992C640.663 78.6094 640.558 78.9808 640.349 79.3135C640.139 79.6416 639.847 79.9105 639.474 80.1201C639.104 80.3298 638.672 80.4642 638.175 80.5234L637.703 80.8447ZM637.642 85.5H634.661L635.406 84.4268H637.642C638.061 84.4268 638.416 84.3538 638.708 84.208C639.004 84.0622 639.23 83.8571 639.385 83.5928C639.54 83.3239 639.617 83.0072 639.617 82.6426C639.617 82.2734 639.551 81.9544 639.419 81.6855C639.287 81.4167 639.079 81.2093 638.797 81.0635C638.514 80.9176 638.15 80.8447 637.703 80.8447H635.823L635.837 79.7852H638.407L638.688 80.168C639.166 80.209 639.572 80.3457 639.904 80.5781C640.237 80.806 640.49 81.0977 640.663 81.4531C640.841 81.8086 640.93 82.2005 640.93 82.6289C640.93 83.2487 640.793 83.7728 640.52 84.2012C640.251 84.625 639.87 84.9486 639.378 85.1719C638.886 85.3906 638.307 85.5 637.642 85.5ZM647.212 83.791V78.1035H648.483V85.5H647.273L647.212 83.791ZM647.451 82.2324L647.978 82.2188C647.978 82.7109 647.925 83.1667 647.82 83.5859C647.72 84.0007 647.556 84.3607 647.328 84.666C647.1 84.9714 646.802 85.2106 646.433 85.3838C646.063 85.5524 645.615 85.6367 645.086 85.6367C644.726 85.6367 644.396 85.5843 644.095 85.4795C643.799 85.3747 643.543 85.2129 643.329 84.9941C643.115 84.7754 642.949 84.4906 642.83 84.1396C642.716 83.7887 642.659 83.3672 642.659 82.875V78.1035H643.924V82.8887C643.924 83.2214 643.96 83.4971 644.033 83.7158C644.111 83.93 644.213 84.1009 644.341 84.2285C644.473 84.3516 644.619 84.4382 644.778 84.4883C644.942 84.5384 645.111 84.5635 645.284 84.5635C645.822 84.5635 646.248 84.4609 646.562 84.2559C646.877 84.0462 647.103 83.766 647.239 83.415C647.381 83.0596 647.451 82.6654 647.451 82.2324ZM653.508 78.1035V79.0742H649.509V78.1035H653.508ZM650.862 76.3057H652.127V83.668C652.127 83.9186 652.166 84.1077 652.243 84.2354C652.321 84.363 652.421 84.4473 652.544 84.4883C652.667 84.5293 652.799 84.5498 652.94 84.5498C653.045 84.5498 653.155 84.5407 653.269 84.5225C653.387 84.4997 653.476 84.4814 653.535 84.4678L653.542 85.5C653.442 85.5319 653.31 85.5615 653.146 85.5889C652.986 85.6208 652.792 85.6367 652.564 85.6367C652.255 85.6367 651.97 85.5752 651.71 85.4521C651.45 85.3291 651.243 85.124 651.088 84.8369C650.938 84.5452 650.862 84.1533 650.862 83.6611V76.3057ZM658.088 78.1035V79.0742H654.089V78.1035H658.088ZM655.442 76.3057H656.707V83.668C656.707 83.9186 656.746 84.1077 656.823 84.2354C656.901 84.363 657.001 84.4473 657.124 84.4883C657.247 84.5293 657.379 84.5498 657.521 84.5498C657.625 84.5498 657.735 84.5407 657.849 84.5225C657.967 84.4997 658.056 84.4814 658.115 84.4678L658.122 85.5C658.022 85.5319 657.89 85.5615 657.726 85.5889C657.566 85.6208 657.372 85.6367 657.145 85.6367C656.835 85.6367 656.55 85.5752 656.29 85.4521C656.03 85.3291 655.823 85.124 655.668 84.8369C655.518 84.5452 655.442 84.1533 655.442 83.6611V76.3057ZM659.1 81.8838V81.7266C659.1 81.1934 659.177 80.6989 659.332 80.2432C659.487 79.7829 659.71 79.3841 660.002 79.0469C660.294 78.7051 660.647 78.4408 661.062 78.2539C661.476 78.0625 661.941 77.9668 662.456 77.9668C662.976 77.9668 663.443 78.0625 663.857 78.2539C664.277 78.4408 664.632 78.7051 664.924 79.0469C665.22 79.3841 665.446 79.7829 665.601 80.2432C665.756 80.6989 665.833 81.1934 665.833 81.7266V81.8838C665.833 82.417 665.756 82.9115 665.601 83.3672C665.446 83.8229 665.22 84.2217 664.924 84.5635C664.632 84.9007 664.279 85.165 663.864 85.3564C663.454 85.5433 662.989 85.6367 662.47 85.6367C661.95 85.6367 661.483 85.5433 661.068 85.3564C660.654 85.165 660.298 84.9007 660.002 84.5635C659.71 84.2217 659.487 83.8229 659.332 83.3672C659.177 82.9115 659.1 82.417 659.1 81.8838ZM660.364 81.7266V81.8838C660.364 82.2529 660.408 82.6016 660.494 82.9297C660.581 83.2533 660.711 83.5404 660.884 83.791C661.062 84.0417 661.283 84.2399 661.547 84.3857C661.811 84.527 662.119 84.5977 662.47 84.5977C662.816 84.5977 663.119 84.527 663.379 84.3857C663.643 84.2399 663.862 84.0417 664.035 83.791C664.208 83.5404 664.338 83.2533 664.425 82.9297C664.516 82.6016 664.562 82.2529 664.562 81.8838V81.7266C664.562 81.362 664.516 81.0179 664.425 80.6943C664.338 80.3662 664.206 80.0768 664.028 79.8262C663.855 79.571 663.636 79.3704 663.372 79.2246C663.112 79.0788 662.807 79.0059 662.456 79.0059C662.11 79.0059 661.804 79.0788 661.54 79.2246C661.28 79.3704 661.062 79.571 660.884 79.8262C660.711 80.0768 660.581 80.3662 660.494 80.6943C660.408 81.0179 660.364 81.362 660.364 81.7266ZM668.684 79.6826V85.5H667.419V78.1035H668.615L668.684 79.6826ZM668.383 81.5215L667.856 81.501C667.861 80.9951 667.936 80.528 668.082 80.0996C668.228 79.6667 668.433 79.2907 668.697 78.9717C668.962 78.6527 669.276 78.4066 669.641 78.2334C670.01 78.0557 670.418 77.9668 670.864 77.9668C671.229 77.9668 671.557 78.0169 671.849 78.1172C672.14 78.2129 672.389 78.3678 672.594 78.582C672.803 78.7962 672.963 79.0742 673.072 79.416C673.182 79.7533 673.236 80.1657 673.236 80.6533V85.5H671.965V80.6396C671.965 80.2523 671.908 79.9424 671.794 79.71C671.68 79.473 671.514 79.3021 671.295 79.1973C671.076 79.0879 670.807 79.0332 670.488 79.0332C670.174 79.0332 669.887 79.0993 669.627 79.2314C669.372 79.3636 669.151 79.5459 668.964 79.7783C668.782 80.0107 668.638 80.2773 668.533 80.5781C668.433 80.8743 668.383 81.1888 668.383 81.5215Z" fill="#8F91A8"/>
<path d="M686.367 86.5665L685.434 85.6332L693.584 77.4998H688.9V76.1665H695.834V83.0998H694.5V78.4165L686.367 86.5665Z" fill="#8F91A8"/>
</svg>
