<svg width="400" height="236" viewBox="0 0 400 236" fill="none" xmlns="http://www.w3.org/2000/svg">
<rect width="400" height="236" fill="#34394C"/>
<path d="M14.3379 19.6035V27H13.0664V19.6035H14.3379ZM12.9707 17.6416C12.9707 17.4365 13.0322 17.2633 13.1553 17.1221C13.2829 16.9808 13.4697 16.9102 13.7158 16.9102C13.9574 16.9102 14.1419 16.9808 14.2695 17.1221C14.4017 17.2633 14.4678 17.4365 14.4678 17.6416C14.4678 17.8376 14.4017 18.0062 14.2695 18.1475C14.1419 18.2842 13.9574 18.3525 13.7158 18.3525C13.4697 18.3525 13.2829 18.2842 13.1553 18.1475C13.0322 18.0062 12.9707 17.8376 12.9707 17.6416ZM17.6328 21.1826V27H16.3682V19.6035H17.5645L17.6328 21.1826ZM17.332 23.0215L16.8057 23.001C16.8102 22.4951 16.8854 22.028 17.0312 21.5996C17.1771 21.1667 17.3822 20.7907 17.6465 20.4717C17.9108 20.1527 18.2253 19.9066 18.5898 19.7334C18.959 19.5557 19.3669 19.4668 19.8135 19.4668C20.1781 19.4668 20.5062 19.5169 20.7979 19.6172C21.0895 19.7129 21.3379 19.8678 21.543 20.082C21.7526 20.2962 21.9121 20.5742 22.0215 20.916C22.1309 21.2533 22.1855 21.6657 22.1855 22.1533V27H20.9141V22.1396C20.9141 21.7523 20.8571 21.4424 20.7432 21.21C20.6292 20.973 20.4629 20.8021 20.2441 20.6973C20.0254 20.5879 19.7565 20.5332 19.4375 20.5332C19.123 20.5332 18.8359 20.5993 18.5762 20.7314C18.321 20.8636 18.0999 21.0459 17.9131 21.2783C17.7308 21.5107 17.5872 21.7773 17.4824 22.0781C17.3822 22.3743 17.332 22.6888 17.332 23.0215ZM26.3555 25.8584L28.3789 19.6035H29.6709L27.0117 27H26.1641L26.3555 25.8584ZM24.667 19.6035L26.752 25.8926L26.8955 27H26.0479L23.3682 19.6035H24.667ZM33.8613 27.1367C33.3464 27.1367 32.8792 27.0501 32.46 26.877C32.0452 26.6992 31.6875 26.4508 31.3867 26.1318C31.0905 25.8128 30.8626 25.4346 30.7031 24.9971C30.5436 24.5596 30.4639 24.0811 30.4639 23.5615V23.2744C30.4639 22.6729 30.5527 22.1374 30.7305 21.668C30.9082 21.194 31.1497 20.793 31.4551 20.4648C31.7604 20.1367 32.1068 19.8883 32.4941 19.7197C32.8815 19.5511 33.2826 19.4668 33.6973 19.4668C34.2259 19.4668 34.6816 19.5579 35.0645 19.7402C35.4518 19.9225 35.7686 20.1777 36.0146 20.5059C36.2607 20.8294 36.443 21.2122 36.5615 21.6543C36.68 22.0918 36.7393 22.5703 36.7393 23.0898V23.6572H31.2158V22.625H35.4746V22.5293C35.4564 22.2012 35.388 21.8822 35.2695 21.5723C35.1556 21.2624 34.9733 21.0072 34.7227 20.8066C34.472 20.6061 34.1302 20.5059 33.6973 20.5059C33.4102 20.5059 33.1458 20.5674 32.9043 20.6904C32.6628 20.8089 32.4554 20.9867 32.2822 21.2236C32.109 21.4606 31.9746 21.75 31.8789 22.0918C31.7832 22.4336 31.7354 22.8278 31.7354 23.2744V23.5615C31.7354 23.9124 31.7832 24.2428 31.8789 24.5527C31.9792 24.8581 32.1227 25.127 32.3096 25.3594C32.501 25.5918 32.7311 25.7741 33 25.9062C33.2734 26.0384 33.5833 26.1045 33.9297 26.1045C34.3763 26.1045 34.7546 26.0133 35.0645 25.8311C35.3743 25.6488 35.6455 25.4049 35.8779 25.0996L36.6436 25.708C36.484 25.9495 36.2812 26.1797 36.0352 26.3984C35.7891 26.6172 35.486 26.7949 35.126 26.9316C34.7705 27.0684 34.349 27.1367 33.8613 27.1367ZM39.4805 20.7656V27H38.2158V19.6035H39.4463L39.4805 20.7656ZM41.791 19.5625L41.7842 20.7383C41.6794 20.7155 41.5791 20.7018 41.4834 20.6973C41.3923 20.6882 41.2874 20.6836 41.1689 20.6836C40.8773 20.6836 40.6198 20.7292 40.3965 20.8203C40.1732 20.9115 39.984 21.0391 39.8291 21.2031C39.6742 21.3672 39.5511 21.5632 39.46 21.791C39.3734 22.0143 39.3164 22.2604 39.2891 22.5293L38.9336 22.7344C38.9336 22.2878 38.9769 21.8685 39.0635 21.4766C39.1546 21.0846 39.2936 20.7383 39.4805 20.4375C39.6673 20.1322 39.9043 19.8952 40.1914 19.7266C40.4831 19.5534 40.8294 19.4668 41.2305 19.4668C41.3216 19.4668 41.4264 19.4782 41.5449 19.501C41.6634 19.5192 41.7454 19.5397 41.791 19.5625ZM46.3984 19.6035V20.5742H42.3994V19.6035H46.3984ZM43.7529 17.8057H45.0176V25.168C45.0176 25.4186 45.0563 25.6077 45.1338 25.7354C45.2113 25.863 45.3115 25.9473 45.4346 25.9883C45.5576 26.0293 45.6898 26.0498 45.8311 26.0498C45.9359 26.0498 46.0452 26.0407 46.1592 26.0225C46.2777 25.9997 46.3665 25.9814 46.4258 25.9678L46.4326 27C46.3324 27.0319 46.2002 27.0615 46.0361 27.0889C45.8766 27.1208 45.6829 27.1367 45.4551 27.1367C45.1452 27.1367 44.8604 27.0752 44.6006 26.9521C44.3408 26.8291 44.1335 26.624 43.9785 26.3369C43.8281 26.0452 43.7529 25.6533 43.7529 25.1611V17.8057ZM50.9512 27.1367C50.4362 27.1367 49.9691 27.0501 49.5498 26.877C49.1351 26.6992 48.7773 26.4508 48.4766 26.1318C48.1803 25.8128 47.9525 25.4346 47.793 24.9971C47.6335 24.5596 47.5537 24.0811 47.5537 23.5615V23.2744C47.5537 22.6729 47.6426 22.1374 47.8203 21.668C47.998 21.194 48.2396 20.793 48.5449 20.4648C48.8503 20.1367 49.1966 19.8883 49.584 19.7197C49.9714 19.5511 50.3724 19.4668 50.7871 19.4668C51.3158 19.4668 51.7715 19.5579 52.1543 19.7402C52.5417 19.9225 52.8584 20.1777 53.1045 20.5059C53.3506 20.8294 53.5329 21.2122 53.6514 21.6543C53.7699 22.0918 53.8291 22.5703 53.8291 23.0898V23.6572H48.3057V22.625H52.5645V22.5293C52.5462 22.2012 52.4779 21.8822 52.3594 21.5723C52.2454 21.2624 52.0632 21.0072 51.8125 20.8066C51.5618 20.6061 51.2201 20.5059 50.7871 20.5059C50.5 20.5059 50.2357 20.5674 49.9941 20.6904C49.7526 20.8089 49.5452 20.9867 49.3721 21.2236C49.1989 21.4606 49.0645 21.75 48.9688 22.0918C48.873 22.4336 48.8252 22.8278 48.8252 23.2744V23.5615C48.8252 23.9124 48.873 24.2428 48.9688 24.5527C49.069 24.8581 49.2126 25.127 49.3994 25.3594C49.5908 25.5918 49.821 25.7741 50.0898 25.9062C50.3633 26.0384 50.6732 26.1045 51.0195 26.1045C51.4661 26.1045 51.8444 26.0133 52.1543 25.8311C52.4642 25.6488 52.7354 25.4049 52.9678 25.0996L53.7334 25.708C53.5739 25.9495 53.3711 26.1797 53.125 26.3984C52.8789 26.6172 52.5758 26.7949 52.2158 26.9316C51.8604 27.0684 51.4388 27.1367 50.9512 27.1367ZM59.9678 25.5645V16.5H61.2393V27H60.0771L59.9678 25.5645ZM54.9912 23.3838V23.2402C54.9912 22.6751 55.0596 22.1624 55.1963 21.7021C55.3376 21.2373 55.5358 20.8385 55.791 20.5059C56.0508 20.1732 56.3584 19.918 56.7139 19.7402C57.0739 19.5579 57.4749 19.4668 57.917 19.4668C58.3818 19.4668 58.7874 19.5488 59.1338 19.7129C59.4847 19.8724 59.7809 20.1071 60.0225 20.417C60.2686 20.7223 60.4622 21.0915 60.6035 21.5244C60.7448 21.9574 60.8428 22.4473 60.8975 22.9941V23.623C60.8473 24.1654 60.7493 24.653 60.6035 25.0859C60.4622 25.5189 60.2686 25.888 60.0225 26.1934C59.7809 26.4987 59.4847 26.7334 59.1338 26.8975C58.7829 27.057 58.3727 27.1367 57.9033 27.1367C57.4704 27.1367 57.0739 27.0433 56.7139 26.8564C56.3584 26.6696 56.0508 26.4076 55.791 26.0703C55.5358 25.7331 55.3376 25.3366 55.1963 24.8809C55.0596 24.4206 54.9912 23.9215 54.9912 23.3838ZM56.2627 23.2402V23.3838C56.2627 23.7529 56.2992 24.0993 56.3721 24.4229C56.4495 24.7464 56.568 25.0312 56.7275 25.2773C56.887 25.5234 57.0898 25.7171 57.3359 25.8584C57.582 25.9951 57.876 26.0635 58.2178 26.0635C58.637 26.0635 58.9811 25.9746 59.25 25.7969C59.5234 25.6191 59.7422 25.3844 59.9062 25.0928C60.0703 24.8011 60.1979 24.4844 60.2891 24.1426V22.4951C60.2344 22.2445 60.1546 22.0029 60.0498 21.7705C59.9495 21.5335 59.8174 21.3239 59.6533 21.1416C59.4938 20.9548 59.2956 20.8066 59.0586 20.6973C58.8262 20.5879 58.5505 20.5332 58.2314 20.5332C57.8851 20.5332 57.5866 20.6061 57.3359 20.752C57.0898 20.8932 56.887 21.0892 56.7275 21.3398C56.568 21.5859 56.4495 21.873 56.3721 22.2012C56.2992 22.5247 56.2627 22.8711 56.2627 23.2402ZM69.7773 19.6035V20.5742H65.7783V19.6035H69.7773ZM67.1318 17.8057H68.3965V25.168C68.3965 25.4186 68.4352 25.6077 68.5127 25.7354C68.5902 25.863 68.6904 25.9473 68.8135 25.9883C68.9365 26.0293 69.0687 26.0498 69.21 26.0498C69.3148 26.0498 69.4242 26.0407 69.5381 26.0225C69.6566 25.9997 69.7454 25.9814 69.8047 25.9678L69.8115 27C69.7113 27.0319 69.5791 27.0615 69.415 27.0889C69.2555 27.1208 69.0618 27.1367 68.834 27.1367C68.5241 27.1367 68.2393 27.0752 67.9795 26.9521C67.7197 26.8291 67.5124 26.624 67.3574 26.3369C67.207 26.0452 67.1318 25.6533 67.1318 25.1611V17.8057ZM74.3301 27.1367C73.8151 27.1367 73.348 27.0501 72.9287 26.877C72.514 26.6992 72.1562 26.4508 71.8555 26.1318C71.5592 25.8128 71.3314 25.4346 71.1719 24.9971C71.0124 24.5596 70.9326 24.0811 70.9326 23.5615V23.2744C70.9326 22.6729 71.0215 22.1374 71.1992 21.668C71.377 21.194 71.6185 20.793 71.9238 20.4648C72.2292 20.1367 72.5755 19.8883 72.9629 19.7197C73.3503 19.5511 73.7513 19.4668 74.166 19.4668C74.6947 19.4668 75.1504 19.5579 75.5332 19.7402C75.9206 19.9225 76.2373 20.1777 76.4834 20.5059C76.7295 20.8294 76.9118 21.2122 77.0303 21.6543C77.1488 22.0918 77.208 22.5703 77.208 23.0898V23.6572H71.6846V22.625H75.9434V22.5293C75.9251 22.2012 75.8568 21.8822 75.7383 21.5723C75.6243 21.2624 75.4421 21.0072 75.1914 20.8066C74.9408 20.6061 74.599 20.5059 74.166 20.5059C73.8789 20.5059 73.6146 20.5674 73.373 20.6904C73.1315 20.8089 72.9242 20.9867 72.751 21.2236C72.5778 21.4606 72.4434 21.75 72.3477 22.0918C72.252 22.4336 72.2041 22.8278 72.2041 23.2744V23.5615C72.2041 23.9124 72.252 24.2428 72.3477 24.5527C72.4479 24.8581 72.5915 25.127 72.7783 25.3594C72.9697 25.5918 73.1999 25.7741 73.4688 25.9062C73.7422 26.0384 74.0521 26.1045 74.3984 26.1045C74.8451 26.1045 75.2233 26.0133 75.5332 25.8311C75.8431 25.6488 76.1143 25.4049 76.3467 25.0996L77.1123 25.708C76.9528 25.9495 76.75 26.1797 76.5039 26.3984C76.2578 26.6172 75.9548 26.7949 75.5947 26.9316C75.2393 27.0684 74.8177 27.1367 74.3301 27.1367ZM79.5391 19.6035L81.1592 22.2969L82.7998 19.6035H84.2832L81.8633 23.2539L84.3584 27H82.8955L81.1865 24.2246L79.4775 27H78.0078L80.4961 23.2539L78.083 19.6035H79.5391ZM88.7266 19.6035V20.5742H84.7275V19.6035H88.7266ZM86.0811 17.8057H87.3457V25.168C87.3457 25.4186 87.3844 25.6077 87.4619 25.7354C87.5394 25.863 87.6396 25.9473 87.7627 25.9883C87.8857 26.0293 88.0179 26.0498 88.1592 26.0498C88.264 26.0498 88.3734 26.0407 88.4873 26.0225C88.6058 25.9997 88.6947 25.9814 88.7539 25.9678L88.7607 27C88.6605 27.0319 88.5283 27.0615 88.3643 27.0889C88.2048 27.1208 88.0111 27.1367 87.7832 27.1367C87.4733 27.1367 87.1885 27.0752 86.9287 26.9521C86.6689 26.8291 86.4616 26.624 86.3066 26.3369C86.1562 26.0452 86.0811 25.6533 86.0811 25.1611V17.8057ZM93.6348 23.0215V22.9531C93.6348 21.9596 93.7464 21.0618 93.9697 20.2598C94.193 19.4531 94.4779 18.7467 94.8242 18.1406C95.1706 17.5345 95.5352 17.0332 95.918 16.6367C96.3008 16.2357 96.654 15.9463 96.9775 15.7686L97.2441 16.6025C96.9753 16.8076 96.7018 17.0902 96.4238 17.4502C96.1504 17.8102 95.8975 18.2523 95.665 18.7764C95.4372 19.3005 95.2526 19.9089 95.1113 20.6016C94.9701 21.2943 94.8994 22.0736 94.8994 22.9395V23.0352C94.8994 23.901 94.9701 24.6826 95.1113 25.3799C95.2526 26.0726 95.4372 26.6833 95.665 27.2119C95.8975 27.7406 96.1504 28.1895 96.4238 28.5586C96.7018 28.9323 96.9753 29.2285 97.2441 29.4473L96.9775 30.2129C96.654 30.0352 96.3008 29.7458 95.918 29.3447C95.5352 28.9482 95.1706 28.4469 94.8242 27.8408C94.4779 27.2393 94.193 26.5352 93.9697 25.7285C93.7464 24.9219 93.6348 24.0195 93.6348 23.0215ZM100.368 27H99.1035V18.8242C99.1035 18.291 99.1992 17.8421 99.3906 17.4775C99.5866 17.1084 99.8669 16.8304 100.231 16.6436C100.596 16.4521 101.029 16.3564 101.53 16.3564C101.676 16.3564 101.822 16.3656 101.968 16.3838C102.118 16.402 102.264 16.4294 102.405 16.4658L102.337 17.498C102.241 17.4753 102.132 17.4593 102.009 17.4502C101.89 17.4411 101.772 17.4365 101.653 17.4365C101.384 17.4365 101.152 17.4912 100.956 17.6006C100.765 17.7054 100.619 17.8604 100.519 18.0654C100.418 18.2705 100.368 18.5234 100.368 18.8242V27ZM101.94 19.6035V20.5742H97.9346V19.6035H101.94ZM103.014 23.3838V23.2266C103.014 22.6934 103.091 22.1989 103.246 21.7432C103.401 21.2829 103.624 20.8841 103.916 20.5469C104.208 20.2051 104.561 19.9408 104.976 19.7539C105.39 19.5625 105.855 19.4668 106.37 19.4668C106.89 19.4668 107.357 19.5625 107.771 19.7539C108.191 19.9408 108.546 20.2051 108.838 20.5469C109.134 20.8841 109.36 21.2829 109.515 21.7432C109.67 22.1989 109.747 22.6934 109.747 23.2266V23.3838C109.747 23.917 109.67 24.4115 109.515 24.8672C109.36 25.3229 109.134 25.7217 108.838 26.0635C108.546 26.4007 108.193 26.665 107.778 26.8564C107.368 27.0433 106.903 27.1367 106.384 27.1367C105.864 27.1367 105.397 27.0433 104.982 26.8564C104.568 26.665 104.212 26.4007 103.916 26.0635C103.624 25.7217 103.401 25.3229 103.246 24.8672C103.091 24.4115 103.014 23.917 103.014 23.3838ZM104.278 23.2266V23.3838C104.278 23.7529 104.322 24.1016 104.408 24.4297C104.495 24.7533 104.625 25.0404 104.798 25.291C104.976 25.5417 105.197 25.7399 105.461 25.8857C105.725 26.027 106.033 26.0977 106.384 26.0977C106.73 26.0977 107.033 26.027 107.293 25.8857C107.557 25.7399 107.776 25.5417 107.949 25.291C108.122 25.0404 108.252 24.7533 108.339 24.4297C108.43 24.1016 108.476 23.7529 108.476 23.3838V23.2266C108.476 22.862 108.43 22.5179 108.339 22.1943C108.252 21.8662 108.12 21.5768 107.942 21.3262C107.769 21.071 107.55 20.8704 107.286 20.7246C107.026 20.5788 106.721 20.5059 106.37 20.5059C106.024 20.5059 105.718 20.5788 105.454 20.7246C105.194 20.8704 104.976 21.071 104.798 21.3262C104.625 21.5768 104.495 21.8662 104.408 22.1943C104.322 22.5179 104.278 22.862 104.278 23.2266ZM112.598 20.7656V27H111.333V19.6035H112.563L112.598 20.7656ZM114.908 19.5625L114.901 20.7383C114.797 20.7155 114.696 20.7018 114.601 20.6973C114.509 20.6882 114.405 20.6836 114.286 20.6836C113.994 20.6836 113.737 20.7292 113.514 20.8203C113.29 20.9115 113.101 21.0391 112.946 21.2031C112.791 21.3672 112.668 21.5632 112.577 21.791C112.491 22.0143 112.434 22.2604 112.406 22.5293L112.051 22.7344C112.051 22.2878 112.094 21.8685 112.181 21.4766C112.272 21.0846 112.411 20.7383 112.598 20.4375C112.785 20.1322 113.021 19.8952 113.309 19.7266C113.6 19.5534 113.947 19.4668 114.348 19.4668C114.439 19.4668 114.544 19.4782 114.662 19.501C114.781 19.5192 114.863 19.5397 114.908 19.5625ZM119.01 27.1367C118.495 27.1367 118.028 27.0501 117.608 26.877C117.194 26.6992 116.836 26.4508 116.535 26.1318C116.239 25.8128 116.011 25.4346 115.852 24.9971C115.692 24.5596 115.612 24.0811 115.612 23.5615V23.2744C115.612 22.6729 115.701 22.1374 115.879 21.668C116.057 21.194 116.298 20.793 116.604 20.4648C116.909 20.1367 117.255 19.8883 117.643 19.7197C118.03 19.5511 118.431 19.4668 118.846 19.4668C119.374 19.4668 119.83 19.5579 120.213 19.7402C120.6 19.9225 120.917 20.1777 121.163 20.5059C121.409 20.8294 121.591 21.2122 121.71 21.6543C121.828 22.0918 121.888 22.5703 121.888 23.0898V23.6572H116.364V22.625H120.623V22.5293C120.605 22.2012 120.536 21.8822 120.418 21.5723C120.304 21.2624 120.122 21.0072 119.871 20.8066C119.62 20.6061 119.279 20.5059 118.846 20.5059C118.559 20.5059 118.294 20.5674 118.053 20.6904C117.811 20.8089 117.604 20.9867 117.431 21.2236C117.257 21.4606 117.123 21.75 117.027 22.0918C116.932 22.4336 116.884 22.8278 116.884 23.2744V23.5615C116.884 23.9124 116.932 24.2428 117.027 24.5527C117.128 24.8581 117.271 25.127 117.458 25.3594C117.649 25.5918 117.88 25.7741 118.148 25.9062C118.422 26.0384 118.732 26.1045 119.078 26.1045C119.525 26.1045 119.903 26.0133 120.213 25.8311C120.523 25.6488 120.794 25.4049 121.026 25.0996L121.792 25.708C121.632 25.9495 121.43 26.1797 121.184 26.3984C120.938 26.6172 120.634 26.7949 120.274 26.9316C119.919 27.0684 119.497 27.1367 119.01 27.1367ZM128.156 19.6035H129.305V26.8428C129.305 27.4945 129.173 28.0505 128.908 28.5107C128.644 28.971 128.275 29.3197 127.801 29.5566C127.331 29.7982 126.789 29.9189 126.174 29.9189C125.919 29.9189 125.618 29.8779 125.271 29.7959C124.93 29.7184 124.592 29.584 124.26 29.3926C123.932 29.2057 123.656 28.9528 123.433 28.6338L124.096 27.8818C124.406 28.2555 124.729 28.5153 125.066 28.6611C125.408 28.807 125.745 28.8799 126.078 28.8799C126.479 28.8799 126.826 28.8047 127.117 28.6543C127.409 28.5039 127.634 28.2806 127.794 27.9844C127.958 27.6927 128.04 27.3327 128.04 26.9043V21.2305L128.156 19.6035ZM123.063 23.3838V23.2402C123.063 22.6751 123.13 22.1624 123.262 21.7021C123.398 21.2373 123.592 20.8385 123.843 20.5059C124.098 20.1732 124.406 19.918 124.766 19.7402C125.126 19.5579 125.531 19.4668 125.982 19.4668C126.447 19.4668 126.853 19.5488 127.199 19.7129C127.55 19.8724 127.846 20.1071 128.088 20.417C128.334 20.7223 128.528 21.0915 128.669 21.5244C128.81 21.9574 128.908 22.4473 128.963 22.9941V23.623C128.913 24.1654 128.815 24.653 128.669 25.0859C128.528 25.5189 128.334 25.888 128.088 26.1934C127.846 26.4987 127.55 26.7334 127.199 26.8975C126.848 27.057 126.438 27.1367 125.969 27.1367C125.527 27.1367 125.126 27.0433 124.766 26.8564C124.41 26.6696 124.105 26.4076 123.85 26.0703C123.594 25.7331 123.398 25.3366 123.262 24.8809C123.13 24.4206 123.063 23.9215 123.063 23.3838ZM124.328 23.2402V23.3838C124.328 23.7529 124.365 24.0993 124.438 24.4229C124.515 24.7464 124.631 25.0312 124.786 25.2773C124.946 25.5234 125.148 25.7171 125.395 25.8584C125.641 25.9951 125.935 26.0635 126.276 26.0635C126.696 26.0635 127.042 25.9746 127.315 25.7969C127.589 25.6191 127.805 25.3844 127.965 25.0928C128.129 24.8011 128.257 24.4844 128.348 24.1426V22.4951C128.298 22.2445 128.22 22.0029 128.115 21.7705C128.015 21.5335 127.883 21.3239 127.719 21.1416C127.559 20.9548 127.361 20.8066 127.124 20.6973C126.887 20.5879 126.609 20.5332 126.29 20.5332C125.944 20.5332 125.645 20.6061 125.395 20.752C125.148 20.8932 124.946 21.0892 124.786 21.3398C124.631 21.5859 124.515 21.873 124.438 22.2012C124.365 22.5247 124.328 22.8711 124.328 23.2402ZM132.49 20.7656V27H131.226V19.6035H132.456L132.49 20.7656ZM134.801 19.5625L134.794 20.7383C134.689 20.7155 134.589 20.7018 134.493 20.6973C134.402 20.6882 134.297 20.6836 134.179 20.6836C133.887 20.6836 133.63 20.7292 133.406 20.8203C133.183 20.9115 132.994 21.0391 132.839 21.2031C132.684 21.3672 132.561 21.5632 132.47 21.791C132.383 22.0143 132.326 22.2604 132.299 22.5293L131.943 22.7344C131.943 22.2878 131.987 21.8685 132.073 21.4766C132.164 21.0846 132.303 20.7383 132.49 20.4375C132.677 20.1322 132.914 19.8952 133.201 19.7266C133.493 19.5534 133.839 19.4668 134.24 19.4668C134.331 19.4668 134.436 19.4782 134.555 19.501C134.673 19.5192 134.755 19.5397 134.801 19.5625ZM135.498 23.3838V23.2266C135.498 22.6934 135.576 22.1989 135.73 21.7432C135.885 21.2829 136.109 20.8841 136.4 20.5469C136.692 20.2051 137.045 19.9408 137.46 19.7539C137.875 19.5625 138.34 19.4668 138.854 19.4668C139.374 19.4668 139.841 19.5625 140.256 19.7539C140.675 19.9408 141.031 20.2051 141.322 20.5469C141.618 20.8841 141.844 21.2829 141.999 21.7432C142.154 22.1989 142.231 22.6934 142.231 23.2266V23.3838C142.231 23.917 142.154 24.4115 141.999 24.8672C141.844 25.3229 141.618 25.7217 141.322 26.0635C141.031 26.4007 140.677 26.665 140.263 26.8564C139.853 27.0433 139.388 27.1367 138.868 27.1367C138.349 27.1367 137.882 27.0433 137.467 26.8564C137.052 26.665 136.697 26.4007 136.4 26.0635C136.109 25.7217 135.885 25.3229 135.73 24.8672C135.576 24.4115 135.498 23.917 135.498 23.3838ZM136.763 23.2266V23.3838C136.763 23.7529 136.806 24.1016 136.893 24.4297C136.979 24.7533 137.109 25.0404 137.282 25.291C137.46 25.5417 137.681 25.7399 137.945 25.8857C138.21 26.027 138.517 26.0977 138.868 26.0977C139.215 26.0977 139.518 26.027 139.777 25.8857C140.042 25.7399 140.26 25.5417 140.434 25.291C140.607 25.0404 140.737 24.7533 140.823 24.4297C140.914 24.1016 140.96 23.7529 140.96 23.3838V23.2266C140.96 22.862 140.914 22.5179 140.823 22.1943C140.737 21.8662 140.604 21.5768 140.427 21.3262C140.254 21.071 140.035 20.8704 139.771 20.7246C139.511 20.5788 139.205 20.5059 138.854 20.5059C138.508 20.5059 138.203 20.5788 137.938 20.7246C137.679 20.8704 137.46 21.071 137.282 21.3262C137.109 21.5768 136.979 21.8662 136.893 22.1943C136.806 22.5179 136.763 22.862 136.763 23.2266ZM148.343 25.291V19.6035H149.614V27H148.404L148.343 25.291ZM148.582 23.7324L149.108 23.7188C149.108 24.2109 149.056 24.6667 148.951 25.0859C148.851 25.5007 148.687 25.8607 148.459 26.166C148.231 26.4714 147.933 26.7106 147.563 26.8838C147.194 27.0524 146.745 27.1367 146.217 27.1367C145.857 27.1367 145.526 27.0843 145.226 26.9795C144.929 26.8747 144.674 26.7129 144.46 26.4941C144.246 26.2754 144.079 25.9906 143.961 25.6396C143.847 25.2887 143.79 24.8672 143.79 24.375V19.6035H145.055V24.3887C145.055 24.7214 145.091 24.9971 145.164 25.2158C145.242 25.43 145.344 25.6009 145.472 25.7285C145.604 25.8516 145.75 25.9382 145.909 25.9883C146.073 26.0384 146.242 26.0635 146.415 26.0635C146.953 26.0635 147.379 25.9609 147.693 25.7559C148.008 25.5462 148.233 25.266 148.37 24.915C148.511 24.5596 148.582 24.1654 148.582 23.7324ZM152.807 21.1826V27H151.542V19.6035H152.738L152.807 21.1826ZM152.506 23.0215L151.979 23.001C151.984 22.4951 152.059 22.028 152.205 21.5996C152.351 21.1667 152.556 20.7907 152.82 20.4717C153.085 20.1527 153.399 19.9066 153.764 19.7334C154.133 19.5557 154.541 19.4668 154.987 19.4668C155.352 19.4668 155.68 19.5169 155.972 19.6172C156.263 19.7129 156.512 19.8678 156.717 20.082C156.926 20.2962 157.086 20.5742 157.195 20.916C157.305 21.2533 157.359 21.6657 157.359 22.1533V27H156.088V22.1396C156.088 21.7523 156.031 21.4424 155.917 21.21C155.803 20.973 155.637 20.8021 155.418 20.6973C155.199 20.5879 154.93 20.5332 154.611 20.5332C154.297 20.5332 154.01 20.5993 153.75 20.7314C153.495 20.8636 153.274 21.0459 153.087 21.2783C152.905 21.5107 152.761 21.7773 152.656 22.0781C152.556 22.3743 152.506 22.6888 152.506 23.0215ZM163.942 25.5645V16.5H165.214V27H164.052L163.942 25.5645ZM158.966 23.3838V23.2402C158.966 22.6751 159.034 22.1624 159.171 21.7021C159.312 21.2373 159.51 20.8385 159.766 20.5059C160.025 20.1732 160.333 19.918 160.688 19.7402C161.049 19.5579 161.45 19.4668 161.892 19.4668C162.356 19.4668 162.762 19.5488 163.108 19.7129C163.459 19.8724 163.756 20.1071 163.997 20.417C164.243 20.7223 164.437 21.0915 164.578 21.5244C164.719 21.9574 164.817 22.4473 164.872 22.9941V23.623C164.822 24.1654 164.724 24.653 164.578 25.0859C164.437 25.5189 164.243 25.888 163.997 26.1934C163.756 26.4987 163.459 26.7334 163.108 26.8975C162.757 27.057 162.347 27.1367 161.878 27.1367C161.445 27.1367 161.049 27.0433 160.688 26.8564C160.333 26.6696 160.025 26.4076 159.766 26.0703C159.51 25.7331 159.312 25.3366 159.171 24.8809C159.034 24.4206 158.966 23.9215 158.966 23.3838ZM160.237 23.2402V23.3838C160.237 23.7529 160.274 24.0993 160.347 24.4229C160.424 24.7464 160.543 25.0312 160.702 25.2773C160.862 25.5234 161.064 25.7171 161.311 25.8584C161.557 25.9951 161.851 26.0635 162.192 26.0635C162.612 26.0635 162.956 25.9746 163.225 25.7969C163.498 25.6191 163.717 25.3844 163.881 25.0928C164.045 24.8011 164.173 24.4844 164.264 24.1426V22.4951C164.209 22.2445 164.129 22.0029 164.024 21.7705C163.924 21.5335 163.792 21.3239 163.628 21.1416C163.468 20.9548 163.27 20.8066 163.033 20.6973C162.801 20.5879 162.525 20.5332 162.206 20.5332C161.86 20.5332 161.561 20.6061 161.311 20.752C161.064 20.8932 160.862 21.0892 160.702 21.3398C160.543 21.5859 160.424 21.873 160.347 22.2012C160.274 22.5247 160.237 22.8711 160.237 23.2402ZM171.489 25.0381C171.489 24.8558 171.448 24.6872 171.366 24.5322C171.289 24.3727 171.127 24.2292 170.881 24.1016C170.639 23.9694 170.275 23.8555 169.787 23.7598C169.377 23.6732 169.006 23.5706 168.673 23.4521C168.345 23.3337 168.064 23.1901 167.832 23.0215C167.604 22.8529 167.429 22.6546 167.306 22.4268C167.183 22.1989 167.121 21.9323 167.121 21.627C167.121 21.3353 167.185 21.0596 167.312 20.7998C167.445 20.54 167.629 20.3099 167.866 20.1094C168.108 19.9089 168.397 19.7516 168.734 19.6377C169.072 19.5238 169.448 19.4668 169.862 19.4668C170.455 19.4668 170.961 19.5716 171.38 19.7812C171.799 19.9909 172.12 20.2712 172.344 20.6221C172.567 20.9684 172.679 21.3535 172.679 21.7773H171.414C171.414 21.5723 171.353 21.374 171.229 21.1826C171.111 20.9867 170.936 20.8249 170.703 20.6973C170.475 20.5697 170.195 20.5059 169.862 20.5059C169.511 20.5059 169.227 20.5605 169.008 20.6699C168.794 20.7747 168.636 20.9092 168.536 21.0732C168.44 21.2373 168.393 21.4105 168.393 21.5928C168.393 21.7295 168.415 21.8525 168.461 21.9619C168.511 22.0667 168.598 22.1647 168.721 22.2559C168.844 22.3424 169.017 22.4245 169.24 22.502C169.464 22.5794 169.748 22.6569 170.095 22.7344C170.701 22.8711 171.2 23.0352 171.592 23.2266C171.984 23.418 172.275 23.6527 172.467 23.9307C172.658 24.2087 172.754 24.5459 172.754 24.9424C172.754 25.266 172.686 25.5622 172.549 25.8311C172.417 26.0999 172.223 26.3324 171.968 26.5283C171.717 26.7197 171.416 26.8701 171.065 26.9795C170.719 27.0843 170.329 27.1367 169.896 27.1367C169.245 27.1367 168.693 27.0205 168.242 26.7881C167.791 26.5557 167.449 26.2549 167.217 25.8857C166.984 25.5166 166.868 25.127 166.868 24.7168H168.14C168.158 25.0632 168.258 25.3389 168.44 25.5439C168.623 25.7445 168.846 25.888 169.11 25.9746C169.375 26.0566 169.637 26.0977 169.896 26.0977C170.243 26.0977 170.532 26.0521 170.765 25.9609C171.002 25.8698 171.182 25.7445 171.305 25.585C171.428 25.4255 171.489 25.2432 171.489 25.0381ZM177.327 22.9531V23.0215C177.327 24.0195 177.215 24.9219 176.992 25.7285C176.769 26.5352 176.484 27.2393 176.138 27.8408C175.791 28.4469 175.427 28.9482 175.044 29.3447C174.661 29.7458 174.308 30.0352 173.984 30.2129L173.718 29.4473C173.987 29.2422 174.258 28.9551 174.531 28.5859C174.805 28.2214 175.058 27.7702 175.29 27.2324C175.522 26.6992 175.709 26.084 175.851 25.3867C175.992 24.6849 176.062 23.901 176.062 23.0352V22.9395C176.062 22.0736 175.987 21.292 175.837 20.5947C175.687 19.8929 175.491 19.2754 175.249 18.7422C175.012 18.209 174.757 17.7601 174.483 17.3955C174.215 17.0264 173.959 16.7415 173.718 16.541L173.984 15.7686C174.308 15.9463 174.661 16.2357 175.044 16.6367C175.427 17.0332 175.791 17.5345 176.138 18.1406C176.484 18.7467 176.769 19.4531 176.992 20.2598C177.215 21.0618 177.327 21.9596 177.327 22.9531Z" fill="white"/>
<path d="M41.9336 62.8164L30.1465 101H17.6289L35.3926 52.6562H43.3281L41.9336 62.8164ZM51.6953 101L39.875 62.8164L38.3477 52.6562H46.3828L64.2461 101H51.6953ZM51.2305 82.9707V91.9688H26.4277V82.9707H51.2305ZM85.9277 91.9688V77.1602C85.9277 76.1419 85.7839 75.2676 85.4961 74.5371C85.2083 73.8066 84.7546 73.2422 84.1348 72.8438C83.515 72.4232 82.6849 72.2129 81.6445 72.2129C80.8034 72.2129 80.084 72.3568 79.4863 72.6445C78.8887 72.9323 78.4349 73.3639 78.125 73.9395C77.8151 74.515 77.6602 75.2454 77.6602 76.1309H66.4707C66.4707 74.4707 66.8359 72.9323 67.5664 71.5156C68.319 70.0768 69.3815 68.8262 70.7539 67.7637C72.1484 66.7012 73.8086 65.8822 75.7344 65.3066C77.6823 64.709 79.8516 64.4102 82.2422 64.4102C85.0977 64.4102 87.6432 64.8861 89.8789 65.8379C92.1367 66.7897 93.9186 68.2174 95.2246 70.1211C96.5306 72.0026 97.1836 74.3711 97.1836 77.2266V91.9355C97.1836 94.2819 97.3164 96.0638 97.582 97.2812C97.8477 98.4766 98.224 99.528 98.7109 100.436V101H87.4883C86.957 99.8932 86.5586 98.543 86.293 96.9492C86.0495 95.3333 85.9277 93.6732 85.9277 91.9688ZM87.2891 79.0527L87.3555 85.0293H82.4082C81.3678 85.0293 80.4824 85.1732 79.752 85.4609C79.0436 85.7487 78.4681 86.1471 78.0254 86.6562C77.6048 87.1432 77.2949 87.6966 77.0957 88.3164C76.9186 88.9362 76.8301 89.5892 76.8301 90.2754C76.8301 90.9395 76.985 91.5371 77.2949 92.0684C77.627 92.5775 78.0697 92.9759 78.623 93.2637C79.1764 93.5514 79.7962 93.6953 80.4824 93.6953C81.722 93.6953 82.7734 93.4629 83.6367 92.998C84.5221 92.5111 85.1973 91.9245 85.6621 91.2383C86.127 90.5521 86.3594 89.9102 86.3594 89.3125L88.8164 93.8945C88.3737 94.7799 87.8646 95.6764 87.2891 96.584C86.7357 97.4915 86.0384 98.3327 85.1973 99.1074C84.3783 99.86 83.3711 100.48 82.1758 100.967C80.9805 101.432 79.5306 101.664 77.8262 101.664C75.6126 101.664 73.5762 101.21 71.7168 100.303C69.8796 99.3952 68.4076 98.1335 67.3008 96.5176C66.194 94.8796 65.6406 92.998 65.6406 90.873C65.6406 89.0137 65.9727 87.3535 66.6367 85.8926C67.3229 84.4316 68.3522 83.1921 69.7246 82.1738C71.097 81.1556 72.8457 80.3809 74.9707 79.8496C77.0957 79.3184 79.597 79.0527 82.4746 79.0527H87.2891Z" fill="white"/>
<rect x="12" y="106" width="94" height="24" fill="white"/>
<path d="M135.934 62.8164L124.146 101H111.629L129.393 52.6562H137.328L135.934 62.8164ZM145.695 101L133.875 62.8164L132.348 52.6562H140.383L158.246 101H145.695ZM145.23 82.9707V91.9688H120.428V82.9707H145.23ZM179.928 91.9688V77.1602C179.928 76.1419 179.784 75.2676 179.496 74.5371C179.208 73.8066 178.755 73.2422 178.135 72.8438C177.515 72.4232 176.685 72.2129 175.645 72.2129C174.803 72.2129 174.084 72.3568 173.486 72.6445C172.889 72.9323 172.435 73.3639 172.125 73.9395C171.815 74.515 171.66 75.2454 171.66 76.1309H160.471C160.471 74.4707 160.836 72.9323 161.566 71.5156C162.319 70.0768 163.382 68.8262 164.754 67.7637C166.148 66.7012 167.809 65.8822 169.734 65.3066C171.682 64.709 173.852 64.4102 176.242 64.4102C179.098 64.4102 181.643 64.8861 183.879 65.8379C186.137 66.7897 187.919 68.2174 189.225 70.1211C190.531 72.0026 191.184 74.3711 191.184 77.2266V91.9355C191.184 94.2819 191.316 96.0638 191.582 97.2812C191.848 98.4766 192.224 99.528 192.711 100.436V101H181.488C180.957 99.8932 180.559 98.543 180.293 96.9492C180.049 95.3333 179.928 93.6732 179.928 91.9688ZM181.289 79.0527L181.355 85.0293H176.408C175.368 85.0293 174.482 85.1732 173.752 85.4609C173.044 85.7487 172.468 86.1471 172.025 86.6562C171.605 87.1432 171.295 87.6966 171.096 88.3164C170.919 88.9362 170.83 89.5892 170.83 90.2754C170.83 90.9395 170.985 91.5371 171.295 92.0684C171.627 92.5775 172.07 92.9759 172.623 93.2637C173.176 93.5514 173.796 93.6953 174.482 93.6953C175.722 93.6953 176.773 93.4629 177.637 92.998C178.522 92.5111 179.197 91.9245 179.662 91.2383C180.127 90.5521 180.359 89.9102 180.359 89.3125L182.816 93.8945C182.374 94.7799 181.865 95.6764 181.289 96.584C180.736 97.4915 180.038 98.3327 179.197 99.1074C178.378 99.86 177.371 100.48 176.176 100.967C174.98 101.432 173.531 101.664 171.826 101.664C169.613 101.664 167.576 101.21 165.717 100.303C163.88 99.3952 162.408 98.1335 161.301 96.5176C160.194 94.8796 159.641 92.998 159.641 90.873C159.641 89.0137 159.973 87.3535 160.637 85.8926C161.323 84.4316 162.352 83.1921 163.725 82.1738C165.097 81.1556 166.846 80.3809 168.971 79.8496C171.096 79.3184 173.597 79.0527 176.475 79.0527H181.289Z" fill="#E7F0F6"/>
<rect x="106" y="106" width="94" height="24" fill="#E7F0F6"/>
<path d="M229.934 62.8164L218.146 101H205.629L223.393 52.6562H231.328L229.934 62.8164ZM239.695 101L227.875 62.8164L226.348 52.6562H234.383L252.246 101H239.695ZM239.23 82.9707V91.9688H214.428V82.9707H239.23ZM273.928 91.9688V77.1602C273.928 76.1419 273.784 75.2676 273.496 74.5371C273.208 73.8066 272.755 73.2422 272.135 72.8438C271.515 72.4232 270.685 72.2129 269.645 72.2129C268.803 72.2129 268.084 72.3568 267.486 72.6445C266.889 72.9323 266.435 73.3639 266.125 73.9395C265.815 74.515 265.66 75.2454 265.66 76.1309H254.471C254.471 74.4707 254.836 72.9323 255.566 71.5156C256.319 70.0768 257.382 68.8262 258.754 67.7637C260.148 66.7012 261.809 65.8822 263.734 65.3066C265.682 64.709 267.852 64.4102 270.242 64.4102C273.098 64.4102 275.643 64.8861 277.879 65.8379C280.137 66.7897 281.919 68.2174 283.225 70.1211C284.531 72.0026 285.184 74.3711 285.184 77.2266V91.9355C285.184 94.2819 285.316 96.0638 285.582 97.2812C285.848 98.4766 286.224 99.528 286.711 100.436V101H275.488C274.957 99.8932 274.559 98.543 274.293 96.9492C274.049 95.3333 273.928 93.6732 273.928 91.9688ZM275.289 79.0527L275.355 85.0293H270.408C269.368 85.0293 268.482 85.1732 267.752 85.4609C267.044 85.7487 266.468 86.1471 266.025 86.6562C265.605 87.1432 265.295 87.6966 265.096 88.3164C264.919 88.9362 264.83 89.5892 264.83 90.2754C264.83 90.9395 264.985 91.5371 265.295 92.0684C265.627 92.5775 266.07 92.9759 266.623 93.2637C267.176 93.5514 267.796 93.6953 268.482 93.6953C269.722 93.6953 270.773 93.4629 271.637 92.998C272.522 92.5111 273.197 91.9245 273.662 91.2383C274.127 90.5521 274.359 89.9102 274.359 89.3125L276.816 93.8945C276.374 94.7799 275.865 95.6764 275.289 96.584C274.736 97.4915 274.038 98.3327 273.197 99.1074C272.378 99.86 271.371 100.48 270.176 100.967C268.98 101.432 267.531 101.664 265.826 101.664C263.613 101.664 261.576 101.21 259.717 100.303C257.88 99.3952 256.408 98.1335 255.301 96.5176C254.194 94.8796 253.641 92.998 253.641 90.873C253.641 89.0137 253.973 87.3535 254.637 85.8926C255.323 84.4316 256.352 83.1921 257.725 82.1738C259.097 81.1556 260.846 80.3809 262.971 79.8496C265.096 79.3184 267.597 79.0527 270.475 79.0527H275.289Z" fill="#D0E1EE"/>
<rect x="200" y="106" width="94" height="24" fill="#D0E1EE"/>
<path d="M323.934 62.8164L312.146 101H299.629L317.393 52.6562H325.328L323.934 62.8164ZM333.695 101L321.875 62.8164L320.348 52.6562H328.383L346.246 101H333.695ZM333.23 82.9707V91.9688H308.428V82.9707H333.23ZM367.928 91.9688V77.1602C367.928 76.1419 367.784 75.2676 367.496 74.5371C367.208 73.8066 366.755 73.2422 366.135 72.8438C365.515 72.4232 364.685 72.2129 363.645 72.2129C362.803 72.2129 362.084 72.3568 361.486 72.6445C360.889 72.9323 360.435 73.3639 360.125 73.9395C359.815 74.515 359.66 75.2454 359.66 76.1309H348.471C348.471 74.4707 348.836 72.9323 349.566 71.5156C350.319 70.0768 351.382 68.8262 352.754 67.7637C354.148 66.7012 355.809 65.8822 357.734 65.3066C359.682 64.709 361.852 64.4102 364.242 64.4102C367.098 64.4102 369.643 64.8861 371.879 65.8379C374.137 66.7897 375.919 68.2174 377.225 70.1211C378.531 72.0026 379.184 74.3711 379.184 77.2266V91.9355C379.184 94.2819 379.316 96.0638 379.582 97.2812C379.848 98.4766 380.224 99.528 380.711 100.436V101H369.488C368.957 99.8932 368.559 98.543 368.293 96.9492C368.049 95.3333 367.928 93.6732 367.928 91.9688ZM369.289 79.0527L369.355 85.0293H364.408C363.368 85.0293 362.482 85.1732 361.752 85.4609C361.044 85.7487 360.468 86.1471 360.025 86.6562C359.605 87.1432 359.295 87.6966 359.096 88.3164C358.919 88.9362 358.83 89.5892 358.83 90.2754C358.83 90.9395 358.985 91.5371 359.295 92.0684C359.627 92.5775 360.07 92.9759 360.623 93.2637C361.176 93.5514 361.796 93.6953 362.482 93.6953C363.722 93.6953 364.773 93.4629 365.637 92.998C366.522 92.5111 367.197 91.9245 367.662 91.2383C368.127 90.5521 368.359 89.9102 368.359 89.3125L370.816 93.8945C370.374 94.7799 369.865 95.6764 369.289 96.584C368.736 97.4915 368.038 98.3327 367.197 99.1074C366.378 99.86 365.371 100.48 364.176 100.967C362.98 101.432 361.531 101.664 359.826 101.664C357.613 101.664 355.576 101.21 353.717 100.303C351.88 99.3952 350.408 98.1335 349.301 96.5176C348.194 94.8796 347.641 92.998 347.641 90.873C347.641 89.0137 347.973 87.3535 348.637 85.8926C349.323 84.4316 350.352 83.1921 351.725 82.1738C353.097 81.1556 354.846 80.3809 356.971 79.8496C359.096 79.3184 361.597 79.0527 364.475 79.0527H369.289Z" fill="#FFDCB8"/>
<rect x="294" y="106" width="94" height="24" fill="#FFDCB8"/>
<path d="M41.9336 156.816L30.1465 195H17.6289L35.3926 146.656H43.3281L41.9336 156.816ZM51.6953 195L39.875 156.816L38.3477 146.656H46.3828L64.2461 195H51.6953ZM51.2305 176.971V185.969H26.4277V176.971H51.2305ZM85.9277 185.969V171.16C85.9277 170.142 85.7839 169.268 85.4961 168.537C85.2083 167.807 84.7546 167.242 84.1348 166.844C83.515 166.423 82.6849 166.213 81.6445 166.213C80.8034 166.213 80.084 166.357 79.4863 166.645C78.8887 166.932 78.4349 167.364 78.125 167.939C77.8151 168.515 77.6602 169.245 77.6602 170.131H66.4707C66.4707 168.471 66.8359 166.932 67.5664 165.516C68.319 164.077 69.3815 162.826 70.7539 161.764C72.1484 160.701 73.8086 159.882 75.7344 159.307C77.6823 158.709 79.8516 158.41 82.2422 158.41C85.0977 158.41 87.6432 158.886 89.8789 159.838C92.1367 160.79 93.9186 162.217 95.2246 164.121C96.5306 166.003 97.1836 168.371 97.1836 171.227V185.936C97.1836 188.282 97.3164 190.064 97.582 191.281C97.8477 192.477 98.224 193.528 98.7109 194.436V195H87.4883C86.957 193.893 86.5586 192.543 86.293 190.949C86.0495 189.333 85.9277 187.673 85.9277 185.969ZM87.2891 173.053L87.3555 179.029H82.4082C81.3678 179.029 80.4824 179.173 79.752 179.461C79.0436 179.749 78.4681 180.147 78.0254 180.656C77.6048 181.143 77.2949 181.697 77.0957 182.316C76.9186 182.936 76.8301 183.589 76.8301 184.275C76.8301 184.939 76.985 185.537 77.2949 186.068C77.627 186.577 78.0697 186.976 78.623 187.264C79.1764 187.551 79.7962 187.695 80.4824 187.695C81.722 187.695 82.7734 187.463 83.6367 186.998C84.5221 186.511 85.1973 185.924 85.6621 185.238C86.127 184.552 86.3594 183.91 86.3594 183.312L88.8164 187.895C88.3737 188.78 87.8646 189.676 87.2891 190.584C86.7357 191.492 86.0384 192.333 85.1973 193.107C84.3783 193.86 83.3711 194.48 82.1758 194.967C80.9805 195.432 79.5306 195.664 77.8262 195.664C75.6126 195.664 73.5762 195.21 71.7168 194.303C69.8796 193.395 68.4076 192.133 67.3008 190.518C66.194 188.88 65.6406 186.998 65.6406 184.873C65.6406 183.014 65.9727 181.354 66.6367 179.893C67.3229 178.432 68.3522 177.192 69.7246 176.174C71.097 175.156 72.8457 174.381 74.9707 173.85C77.0957 173.318 79.597 173.053 82.4746 173.053H87.2891Z" fill="#ECF4EF"/>
<rect x="12" y="200" width="94" height="24" fill="#ECF4EF"/>
<path d="M135.934 156.816L124.146 195H111.629L129.393 146.656H137.328L135.934 156.816ZM145.695 195L133.875 156.816L132.348 146.656H140.383L158.246 195H145.695ZM145.23 176.971V185.969H120.428V176.971H145.23ZM179.928 185.969V171.16C179.928 170.142 179.784 169.268 179.496 168.537C179.208 167.807 178.755 167.242 178.135 166.844C177.515 166.423 176.685 166.213 175.645 166.213C174.803 166.213 174.084 166.357 173.486 166.645C172.889 166.932 172.435 167.364 172.125 167.939C171.815 168.515 171.66 169.245 171.66 170.131H160.471C160.471 168.471 160.836 166.932 161.566 165.516C162.319 164.077 163.382 162.826 164.754 161.764C166.148 160.701 167.809 159.882 169.734 159.307C171.682 158.709 173.852 158.41 176.242 158.41C179.098 158.41 181.643 158.886 183.879 159.838C186.137 160.79 187.919 162.217 189.225 164.121C190.531 166.003 191.184 168.371 191.184 171.227V185.936C191.184 188.282 191.316 190.064 191.582 191.281C191.848 192.477 192.224 193.528 192.711 194.436V195H181.488C180.957 193.893 180.559 192.543 180.293 190.949C180.049 189.333 179.928 187.673 179.928 185.969ZM181.289 173.053L181.355 179.029H176.408C175.368 179.029 174.482 179.173 173.752 179.461C173.044 179.749 172.468 180.147 172.025 180.656C171.605 181.143 171.295 181.697 171.096 182.316C170.919 182.936 170.83 183.589 170.83 184.275C170.83 184.939 170.985 185.537 171.295 186.068C171.627 186.577 172.07 186.976 172.623 187.264C173.176 187.551 173.796 187.695 174.482 187.695C175.722 187.695 176.773 187.463 177.637 186.998C178.522 186.511 179.197 185.924 179.662 185.238C180.127 184.552 180.359 183.91 180.359 183.312L182.816 187.895C182.374 188.78 181.865 189.676 181.289 190.584C180.736 191.492 180.038 192.333 179.197 193.107C178.378 193.86 177.371 194.48 176.176 194.967C174.98 195.432 173.531 195.664 171.826 195.664C169.613 195.664 167.576 195.21 165.717 194.303C163.88 193.395 162.408 192.133 161.301 190.518C160.194 188.88 159.641 186.998 159.641 184.873C159.641 183.014 159.973 181.354 160.637 179.893C161.323 178.432 162.352 177.192 163.725 176.174C165.097 175.156 166.846 174.381 168.971 173.85C171.096 173.318 173.597 173.053 176.475 173.053H181.289Z" fill="#FCEEEE"/>
<rect x="106" y="200" width="94" height="24" fill="#FCEEEE"/>
<path d="M229.934 156.816L218.146 195H205.629L223.393 146.656H231.328L229.934 156.816ZM239.695 195L227.875 156.816L226.348 146.656H234.383L252.246 195H239.695ZM239.23 176.971V185.969H214.428V176.971H239.23ZM273.928 185.969V171.16C273.928 170.142 273.784 169.268 273.496 168.537C273.208 167.807 272.755 167.242 272.135 166.844C271.515 166.423 270.685 166.213 269.645 166.213C268.803 166.213 268.084 166.357 267.486 166.645C266.889 166.932 266.435 167.364 266.125 167.939C265.815 168.515 265.66 169.245 265.66 170.131H254.471C254.471 168.471 254.836 166.932 255.566 165.516C256.319 164.077 257.382 162.826 258.754 161.764C260.148 160.701 261.809 159.882 263.734 159.307C265.682 158.709 267.852 158.41 270.242 158.41C273.098 158.41 275.643 158.886 277.879 159.838C280.137 160.79 281.919 162.217 283.225 164.121C284.531 166.003 285.184 168.371 285.184 171.227V185.936C285.184 188.282 285.316 190.064 285.582 191.281C285.848 192.477 286.224 193.528 286.711 194.436V195H275.488C274.957 193.893 274.559 192.543 274.293 190.949C274.049 189.333 273.928 187.673 273.928 185.969ZM275.289 173.053L275.355 179.029H270.408C269.368 179.029 268.482 179.173 267.752 179.461C267.044 179.749 266.468 180.147 266.025 180.656C265.605 181.143 265.295 181.697 265.096 182.316C264.919 182.936 264.83 183.589 264.83 184.275C264.83 184.939 264.985 185.537 265.295 186.068C265.627 186.577 266.07 186.976 266.623 187.264C267.176 187.551 267.796 187.695 268.482 187.695C269.722 187.695 270.773 187.463 271.637 186.998C272.522 186.511 273.197 185.924 273.662 185.238C274.127 184.552 274.359 183.91 274.359 183.312L276.816 187.895C276.374 188.78 275.865 189.676 275.289 190.584C274.736 191.492 274.038 192.333 273.197 193.107C272.378 193.86 271.371 194.48 270.176 194.967C268.98 195.432 267.531 195.664 265.826 195.664C263.613 195.664 261.576 195.21 259.717 194.303C257.88 193.395 256.408 192.133 255.301 190.518C254.194 188.88 253.641 186.998 253.641 184.873C253.641 183.014 253.973 181.354 254.637 179.893C255.323 178.432 256.352 177.192 257.725 176.174C259.097 175.156 260.846 174.381 262.971 173.85C265.096 173.318 267.597 173.053 270.475 173.053H275.289Z" fill="#E7F0F6"/>
<rect x="200" y="200" width="94" height="24" fill="#E7F0F6"/>
<path d="M323.934 156.816L312.146 195H299.629L317.393 146.656H325.328L323.934 156.816ZM333.695 195L321.875 156.816L320.348 146.656H328.383L346.246 195H333.695ZM333.23 176.971V185.969H308.428V176.971H333.23ZM367.928 185.969V171.16C367.928 170.142 367.784 169.268 367.496 168.537C367.208 167.807 366.755 167.242 366.135 166.844C365.515 166.423 364.685 166.213 363.645 166.213C362.803 166.213 362.084 166.357 361.486 166.645C360.889 166.932 360.435 167.364 360.125 167.939C359.815 168.515 359.66 169.245 359.66 170.131H348.471C348.471 168.471 348.836 166.932 349.566 165.516C350.319 164.077 351.382 162.826 352.754 161.764C354.148 160.701 355.809 159.882 357.734 159.307C359.682 158.709 361.852 158.41 364.242 158.41C367.098 158.41 369.643 158.886 371.879 159.838C374.137 160.79 375.919 162.217 377.225 164.121C378.531 166.003 379.184 168.371 379.184 171.227V185.936C379.184 188.282 379.316 190.064 379.582 191.281C379.848 192.477 380.224 193.528 380.711 194.436V195H369.488C368.957 193.893 368.559 192.543 368.293 190.949C368.049 189.333 367.928 187.673 367.928 185.969ZM369.289 173.053L369.355 179.029H364.408C363.368 179.029 362.482 179.173 361.752 179.461C361.044 179.749 360.468 180.147 360.025 180.656C359.605 181.143 359.295 181.697 359.096 182.316C358.919 182.936 358.83 183.589 358.83 184.275C358.83 184.939 358.985 185.537 359.295 186.068C359.627 186.577 360.07 186.976 360.623 187.264C361.176 187.551 361.796 187.695 362.482 187.695C363.722 187.695 364.773 187.463 365.637 186.998C366.522 186.511 367.197 185.924 367.662 185.238C368.127 184.552 368.359 183.91 368.359 183.312L370.816 187.895C370.374 188.78 369.865 189.676 369.289 190.584C368.736 191.492 368.038 192.333 367.197 193.107C366.378 193.86 365.371 194.48 364.176 194.967C362.98 195.432 361.531 195.664 359.826 195.664C357.613 195.664 355.576 195.21 353.717 194.303C351.88 193.395 350.408 192.133 349.301 190.518C348.194 188.88 347.641 186.998 347.641 184.873C347.641 183.014 347.973 181.354 348.637 179.893C349.323 178.432 350.352 177.192 351.725 176.174C353.097 175.156 354.846 174.381 356.971 173.85C359.096 173.318 361.597 173.053 364.475 173.053H369.289Z" fill="#FFF1D3"/>
<rect x="294" y="200" width="94" height="24" fill="#FFF1D3"/>
</svg>
