<svg width="806" height="128" viewBox="0 0 806 128" fill="none" xmlns="http://www.w3.org/2000/svg">
<path d="M4.50781 17H2.03125L2.04688 15.1719H4.50781C5.1224 15.1719 5.64062 15.0339 6.0625 14.7578C6.48438 14.4766 6.80208 14.0677 7.01562 13.5312C7.23438 12.9948 7.34375 12.3464 7.34375 11.5859V11.0312C7.34375 10.4479 7.28125 9.9349 7.15625 9.49219C7.03646 9.04948 6.85677 8.67708 6.61719 8.375C6.3776 8.07292 6.08333 7.84635 5.73438 7.69531C5.38542 7.53906 4.98438 7.46094 4.53125 7.46094H1.98438V5.625H4.53125C5.29167 5.625 5.98698 5.75521 6.61719 6.01562C7.2526 6.27083 7.80208 6.63802 8.26562 7.11719C8.72917 7.59635 9.08594 8.16927 9.33594 8.83594C9.59115 9.4974 9.71875 10.2344 9.71875 11.0469V11.5859C9.71875 12.3932 9.59115 13.1302 9.33594 13.7969C9.08594 14.4635 8.72917 15.0365 8.26562 15.5156C7.80729 15.9896 7.25781 16.3568 6.61719 16.6172C5.98177 16.8724 5.27865 17 4.50781 17ZM3.35938 5.625V17H1.01562V5.625H3.35938ZM15.1719 17.1562C14.5156 17.1562 13.9271 17.0521 13.4062 16.8438C12.8854 16.6302 12.4427 16.3359 12.0781 15.9609C11.7188 15.5859 11.4427 15.151 11.25 14.6562C11.0573 14.1562 10.9609 13.625 10.9609 13.0625V12.75C10.9609 12.1094 11.0521 11.5234 11.2344 10.9922C11.4167 10.4609 11.6771 10 12.0156 9.60938C12.3594 9.21875 12.776 8.91927 13.2656 8.71094C13.7552 8.4974 14.3073 8.39062 14.9219 8.39062C15.5208 8.39062 16.0521 8.48958 16.5156 8.6875C16.9792 8.88542 17.3672 9.16667 17.6797 9.53125C17.9974 9.89583 18.237 10.3333 18.3984 10.8438C18.5599 11.349 18.6406 11.9115 18.6406 12.5312V13.4688H11.9219V11.9688H16.4297V11.7969C16.4297 11.4844 16.3724 11.2057 16.2578 10.9609C16.1484 10.7109 15.9818 10.513 15.7578 10.3672C15.5339 10.2214 15.2474 10.1484 14.8984 10.1484C14.6016 10.1484 14.3464 10.2135 14.1328 10.3438C13.9193 10.474 13.7448 10.6562 13.6094 10.8906C13.4792 11.125 13.3802 11.401 13.3125 11.7188C13.25 12.0312 13.2188 12.375 13.2188 12.75V13.0625C13.2188 13.401 13.2656 13.7135 13.3594 14C13.4583 14.2865 13.5964 14.5339 13.7734 14.7422C13.9557 14.9505 14.1745 15.112 14.4297 15.2266C14.6901 15.3411 14.9844 15.3984 15.3125 15.3984C15.7188 15.3984 16.0964 15.3203 16.4453 15.1641C16.7995 15.0026 17.1042 14.7604 17.3594 14.4375L18.4531 15.625C18.276 15.8802 18.0339 16.125 17.7266 16.3594C17.4245 16.5938 17.0599 16.7865 16.6328 16.9375C16.2057 17.0833 15.7188 17.1562 15.1719 17.1562ZM24.4922 14.6641C24.4922 14.5026 24.4453 14.3568 24.3516 14.2266C24.2578 14.0964 24.0833 13.9766 23.8281 13.8672C23.5781 13.7526 23.2161 13.6484 22.7422 13.5547C22.3151 13.4609 21.9167 13.3438 21.5469 13.2031C21.1823 13.0573 20.8646 12.8828 20.5938 12.6797C20.3281 12.4766 20.1198 12.237 19.9688 11.9609C19.8177 11.6797 19.7422 11.3594 19.7422 11C19.7422 10.6458 19.8177 10.3125 19.9688 10C20.125 9.6875 20.3464 9.41146 20.6328 9.17188C20.9245 8.92708 21.2786 8.73698 21.6953 8.60156C22.1172 8.46094 22.5911 8.39062 23.1172 8.39062C23.8516 8.39062 24.4818 8.50781 25.0078 8.74219C25.5391 8.97656 25.9453 9.29948 26.2266 9.71094C26.513 10.1172 26.6562 10.5807 26.6562 11.1016H24.4062C24.4062 10.8828 24.3594 10.6875 24.2656 10.5156C24.1771 10.3385 24.0365 10.2005 23.8438 10.1016C23.6562 9.9974 23.4115 9.94531 23.1094 9.94531C22.8594 9.94531 22.6432 9.98958 22.4609 10.0781C22.2786 10.1615 22.138 10.276 22.0391 10.4219C21.9453 10.5625 21.8984 10.7188 21.8984 10.8906C21.8984 11.0208 21.9245 11.138 21.9766 11.2422C22.0339 11.3411 22.125 11.4323 22.25 11.5156C22.375 11.599 22.5365 11.6771 22.7344 11.75C22.9375 11.8177 23.1875 11.8802 23.4844 11.9375C24.0938 12.0625 24.638 12.2266 25.1172 12.4297C25.5964 12.6276 25.9766 12.8984 26.2578 13.2422C26.5391 13.5807 26.6797 14.026 26.6797 14.5781C26.6797 14.9531 26.5964 15.2969 26.4297 15.6094C26.263 15.9219 26.0234 16.1953 25.7109 16.4297C25.3984 16.6589 25.0234 16.8385 24.5859 16.9688C24.1536 17.0938 23.6667 17.1562 23.125 17.1562C22.3385 17.1562 21.6719 17.0156 21.125 16.7344C20.5833 16.4531 20.1719 16.0964 19.8906 15.6641C19.6146 15.2266 19.4766 14.7786 19.4766 14.3203H21.6094C21.6198 14.6276 21.6979 14.875 21.8438 15.0625C21.9948 15.25 22.1849 15.3854 22.4141 15.4688C22.6484 15.5521 22.901 15.5938 23.1719 15.5938C23.4635 15.5938 23.7057 15.5547 23.8984 15.4766C24.0911 15.3932 24.237 15.2839 24.3359 15.1484C24.4401 15.0078 24.4922 14.8464 24.4922 14.6641ZM30.3906 4.99219V17H28.1406V4.99219H30.3906ZM35.7188 8.54688L32.0469 12.7344L30.0781 14.7266L29.2578 13.1016L30.8203 11.1172L33.0156 8.54688H35.7188ZM33.3828 17L30.8828 13.0938L32.4375 11.7344L35.9766 17H33.3828ZM40.8281 8.54688V10.1406H35.9062V8.54688H40.8281ZM37.125 6.46094H39.375V14.4531C39.375 14.6979 39.4062 14.8854 39.4688 15.0156C39.5365 15.1458 39.6354 15.237 39.7656 15.2891C39.8958 15.3359 40.0599 15.3594 40.2578 15.3594C40.3984 15.3594 40.5234 15.3542 40.6328 15.3438C40.7474 15.3281 40.8438 15.3125 40.9219 15.2969L40.9297 16.9531C40.737 17.0156 40.5286 17.0651 40.3047 17.1016C40.0807 17.138 39.8333 17.1562 39.5625 17.1562C39.0677 17.1562 38.6354 17.0755 38.2656 16.9141C37.901 16.7474 37.6198 16.4818 37.4219 16.1172C37.224 15.7526 37.125 15.2734 37.125 14.6797V6.46094ZM41.5469 12.8594V12.6953C41.5469 12.0755 41.6354 11.5052 41.8125 10.9844C41.9896 10.4583 42.2474 10.0026 42.5859 9.61719C42.9245 9.23177 43.3411 8.93229 43.8359 8.71875C44.3307 8.5 44.8984 8.39062 45.5391 8.39062C46.1797 8.39062 46.75 8.5 47.25 8.71875C47.75 8.93229 48.1693 9.23177 48.5078 9.61719C48.8516 10.0026 49.112 10.4583 49.2891 10.9844C49.4661 11.5052 49.5547 12.0755 49.5547 12.6953V12.8594C49.5547 13.474 49.4661 14.0443 49.2891 14.5703C49.112 15.0911 48.8516 15.5469 48.5078 15.9375C48.1693 16.3229 47.7526 16.6224 47.2578 16.8359C46.763 17.0495 46.1953 17.1562 45.5547 17.1562C44.9141 17.1562 44.3438 17.0495 43.8438 16.8359C43.349 16.6224 42.9297 16.3229 42.5859 15.9375C42.2474 15.5469 41.9896 15.0911 41.8125 14.5703C41.6354 14.0443 41.5469 13.474 41.5469 12.8594ZM43.7969 12.6953V12.8594C43.7969 13.2135 43.8281 13.5443 43.8906 13.8516C43.9531 14.1589 44.0521 14.4297 44.1875 14.6641C44.3281 14.8932 44.5104 15.0729 44.7344 15.2031C44.9583 15.3333 45.2318 15.3984 45.5547 15.3984C45.8672 15.3984 46.1354 15.3333 46.3594 15.2031C46.5833 15.0729 46.763 14.8932 46.8984 14.6641C47.0339 14.4297 47.1328 14.1589 47.1953 13.8516C47.263 13.5443 47.2969 13.2135 47.2969 12.8594V12.6953C47.2969 12.3516 47.263 12.0286 47.1953 11.7266C47.1328 11.4193 47.0312 11.1484 46.8906 10.9141C46.7552 10.6745 46.5755 10.487 46.3516 10.3516C46.1276 10.2161 45.8568 10.1484 45.5391 10.1484C45.2214 10.1484 44.9505 10.2161 44.7266 10.3516C44.5078 10.487 44.3281 10.6745 44.1875 10.9141C44.0521 11.1484 43.9531 11.4193 43.8906 11.7266C43.8281 12.0286 43.7969 12.3516 43.7969 12.6953ZM53.1875 10.1719V20.25H50.9375V8.54688H53.0234L53.1875 10.1719ZM58.5391 12.6797V12.8438C58.5391 13.4583 58.4661 14.0286 58.3203 14.5547C58.1797 15.0807 57.9714 15.5391 57.6953 15.9297C57.4193 16.3151 57.0755 16.6172 56.6641 16.8359C56.2578 17.0495 55.7891 17.1562 55.2578 17.1562C54.7422 17.1562 54.2943 17.0521 53.9141 16.8438C53.5339 16.6354 53.2135 16.3438 52.9531 15.9688C52.6979 15.5885 52.4922 15.1484 52.3359 14.6484C52.1797 14.1484 52.0599 13.612 51.9766 13.0391V12.6094C52.0599 11.9948 52.1797 11.4323 52.3359 10.9219C52.4922 10.4062 52.6979 9.96094 52.9531 9.58594C53.2135 9.20573 53.5312 8.91146 53.9062 8.70312C54.2865 8.49479 54.7318 8.39062 55.2422 8.39062C55.7786 8.39062 56.25 8.49219 56.6562 8.69531C57.0677 8.89844 57.4115 9.1901 57.6875 9.57031C57.9688 9.95052 58.1797 10.4036 58.3203 10.9297C58.4661 11.4557 58.5391 12.0391 58.5391 12.6797ZM56.2812 12.8438V12.6797C56.2812 12.3203 56.25 11.9896 56.1875 11.6875C56.1302 11.3802 56.0365 11.112 55.9062 10.8828C55.7812 10.6536 55.6146 10.4766 55.4062 10.3516C55.2031 10.2214 54.9557 10.1562 54.6641 10.1562C54.3568 10.1562 54.0938 10.2057 53.875 10.3047C53.6615 10.4036 53.487 10.5469 53.3516 10.7344C53.2161 10.9219 53.1146 11.1458 53.0469 11.4062C52.9792 11.6667 52.9375 11.9609 52.9219 12.2891V13.375C52.9479 13.7604 53.0208 14.1068 53.1406 14.4141C53.2604 14.7161 53.4453 14.9557 53.6953 15.1328C53.9453 15.3099 54.2734 15.3984 54.6797 15.3984C54.9766 15.3984 55.2266 15.3333 55.4297 15.2031C55.6328 15.0677 55.7969 14.8828 55.9219 14.6484C56.0521 14.4141 56.1432 14.1432 56.1953 13.8359C56.2526 13.5286 56.2812 13.1979 56.2812 12.8438ZM64.7969 5.625L60.625 17.9766H58.9531L63.125 5.625H64.7969ZM68.125 10.2969V17H65.8672V8.54688H67.9844L68.125 10.2969ZM67.8125 12.4766H67.1875C67.1875 11.888 67.2578 11.3464 67.3984 10.8516C67.5443 10.3516 67.7552 9.91927 68.0312 9.55469C68.3125 9.1849 68.6589 8.89844 69.0703 8.69531C69.4818 8.49219 69.9583 8.39062 70.5 8.39062C70.875 8.39062 71.2188 8.44792 71.5312 8.5625C71.8438 8.67188 72.112 8.84635 72.3359 9.08594C72.5651 9.32031 72.7422 9.6276 72.8672 10.0078C72.9922 10.3828 73.0547 10.8333 73.0547 11.3594V17H70.8047V11.6094C70.8047 11.224 70.7526 10.9271 70.6484 10.7188C70.5443 10.5104 70.3958 10.3646 70.2031 10.2812C70.0156 10.1979 69.7891 10.1562 69.5234 10.1562C69.2318 10.1562 68.9766 10.2161 68.7578 10.3359C68.5443 10.4557 68.3672 10.6224 68.2266 10.8359C68.0859 11.0443 67.9818 11.2891 67.9141 11.5703C67.8464 11.8516 67.8125 12.1536 67.8125 12.4766ZM72.8438 12.2188L72.0391 12.3203C72.0391 11.7682 72.1068 11.2552 72.2422 10.7812C72.3828 10.3073 72.5885 9.89062 72.8594 9.53125C73.1354 9.17188 73.4766 8.89323 73.8828 8.69531C74.2891 8.49219 74.7578 8.39062 75.2891 8.39062C75.6953 8.39062 76.0651 8.45052 76.3984 8.57031C76.7318 8.6849 77.0156 8.86979 77.25 9.125C77.4896 9.375 77.6719 9.70312 77.7969 10.1094C77.9271 10.5156 77.9922 11.013 77.9922 11.6016V17H75.7344V11.6016C75.7344 11.2109 75.6823 10.9141 75.5781 10.7109C75.4792 10.5026 75.3333 10.3594 75.1406 10.2812C74.9531 10.1979 74.7292 10.1562 74.4688 10.1562C74.1979 10.1562 73.9609 10.2109 73.7578 10.3203C73.5547 10.4245 73.3854 10.5703 73.25 10.7578C73.1146 10.9453 73.013 11.1641 72.9453 11.4141C72.8776 11.6589 72.8438 11.9271 72.8438 12.2188ZM79.375 12.8594V12.6953C79.375 12.0755 79.4635 11.5052 79.6406 10.9844C79.8177 10.4583 80.0755 10.0026 80.4141 9.61719C80.7526 9.23177 81.1693 8.93229 81.6641 8.71875C82.1589 8.5 82.7266 8.39062 83.3672 8.39062C84.0078 8.39062 84.5781 8.5 85.0781 8.71875C85.5781 8.93229 85.9974 9.23177 86.3359 9.61719C86.6797 10.0026 86.9401 10.4583 87.1172 10.9844C87.2943 11.5052 87.3828 12.0755 87.3828 12.6953V12.8594C87.3828 13.474 87.2943 14.0443 87.1172 14.5703C86.9401 15.0911 86.6797 15.5469 86.3359 15.9375C85.9974 16.3229 85.5807 16.6224 85.0859 16.8359C84.5911 17.0495 84.0234 17.1562 83.3828 17.1562C82.7422 17.1562 82.1719 17.0495 81.6719 16.8359C81.1771 16.6224 80.7578 16.3229 80.4141 15.9375C80.0755 15.5469 79.8177 15.0911 79.6406 14.5703C79.4635 14.0443 79.375 13.474 79.375 12.8594ZM81.625 12.6953V12.8594C81.625 13.2135 81.6562 13.5443 81.7188 13.8516C81.7812 14.1589 81.8802 14.4297 82.0156 14.6641C82.1562 14.8932 82.3385 15.0729 82.5625 15.2031C82.7865 15.3333 83.0599 15.3984 83.3828 15.3984C83.6953 15.3984 83.9635 15.3333 84.1875 15.2031C84.4115 15.0729 84.5911 14.8932 84.7266 14.6641C84.862 14.4297 84.9609 14.1589 85.0234 13.8516C85.0911 13.5443 85.125 13.2135 85.125 12.8594V12.6953C85.125 12.3516 85.0911 12.0286 85.0234 11.7266C84.9609 11.4193 84.8594 11.1484 84.7188 10.9141C84.5833 10.6745 84.4036 10.487 84.1797 10.3516C83.9557 10.2161 83.6849 10.1484 83.3672 10.1484C83.0495 10.1484 82.7786 10.2161 82.5547 10.3516C82.3359 10.487 82.1562 10.6745 82.0156 10.9141C81.8802 11.1484 81.7812 11.4193 81.7188 11.7266C81.6562 12.0286 81.625 12.3516 81.625 12.6953ZM91.0156 10.3906V17H88.7656V8.54688H90.8828L91.0156 10.3906ZM93.5625 8.49219L93.5234 10.5781C93.4141 10.5625 93.2812 10.5495 93.125 10.5391C92.974 10.5234 92.8359 10.5156 92.7109 10.5156C92.3932 10.5156 92.1172 10.5573 91.8828 10.6406C91.6536 10.7188 91.4609 10.8359 91.3047 10.9922C91.1536 11.1484 91.0391 11.3385 90.9609 11.5625C90.888 11.7865 90.8464 12.0417 90.8359 12.3281L90.3828 12.1875C90.3828 11.6406 90.4375 11.138 90.5469 10.6797C90.6562 10.2161 90.8151 9.8125 91.0234 9.46875C91.237 9.125 91.4974 8.85938 91.8047 8.67188C92.112 8.48438 92.4635 8.39062 92.8594 8.39062C92.9844 8.39062 93.112 8.40104 93.2422 8.42188C93.3724 8.4375 93.4792 8.46094 93.5625 8.49219ZM98.3594 17.1562C97.7031 17.1562 97.1146 17.0521 96.5938 16.8438C96.0729 16.6302 95.6302 16.3359 95.2656 15.9609C94.9062 15.5859 94.6302 15.151 94.4375 14.6562C94.2448 14.1562 94.1484 13.625 94.1484 13.0625V12.75C94.1484 12.1094 94.2396 11.5234 94.4219 10.9922C94.6042 10.4609 94.8646 10 95.2031 9.60938C95.5469 9.21875 95.9635 8.91927 96.4531 8.71094C96.9427 8.4974 97.4948 8.39062 98.1094 8.39062C98.7083 8.39062 99.2396 8.48958 99.7031 8.6875C100.167 8.88542 100.555 9.16667 100.867 9.53125C101.185 9.89583 101.424 10.3333 101.586 10.8438C101.747 11.349 101.828 11.9115 101.828 12.5312V13.4688H95.1094V11.9688H99.6172V11.7969C99.6172 11.4844 99.5599 11.2057 99.4453 10.9609C99.3359 10.7109 99.1693 10.513 98.9453 10.3672C98.7214 10.2214 98.4349 10.1484 98.0859 10.1484C97.7891 10.1484 97.5339 10.2135 97.3203 10.3438C97.1068 10.474 96.9323 10.6562 96.7969 10.8906C96.6667 11.125 96.5677 11.401 96.5 11.7188C96.4375 12.0312 96.4062 12.375 96.4062 12.75V13.0625C96.4062 13.401 96.4531 13.7135 96.5469 14C96.6458 14.2865 96.7839 14.5339 96.9609 14.7422C97.1432 14.9505 97.362 15.112 97.6172 15.2266C97.8776 15.3411 98.1719 15.3984 98.5 15.3984C98.9062 15.3984 99.2839 15.3203 99.6328 15.1641C99.987 15.0026 100.292 14.7604 100.547 14.4375L101.641 15.625C101.464 15.8802 101.221 16.125 100.914 16.3594C100.612 16.5938 100.247 16.7865 99.8203 16.9375C99.3932 17.0833 98.9062 17.1562 98.3594 17.1562ZM111.664 14.6641C111.664 14.5026 111.617 14.3568 111.523 14.2266C111.43 14.0964 111.255 13.9766 111 13.8672C110.75 13.7526 110.388 13.6484 109.914 13.5547C109.487 13.4609 109.089 13.3438 108.719 13.2031C108.354 13.0573 108.036 12.8828 107.766 12.6797C107.5 12.4766 107.292 12.237 107.141 11.9609C106.99 11.6797 106.914 11.3594 106.914 11C106.914 10.6458 106.99 10.3125 107.141 10C107.297 9.6875 107.518 9.41146 107.805 9.17188C108.096 8.92708 108.451 8.73698 108.867 8.60156C109.289 8.46094 109.763 8.39062 110.289 8.39062C111.023 8.39062 111.654 8.50781 112.18 8.74219C112.711 8.97656 113.117 9.29948 113.398 9.71094C113.685 10.1172 113.828 10.5807 113.828 11.1016H111.578C111.578 10.8828 111.531 10.6875 111.438 10.5156C111.349 10.3385 111.208 10.2005 111.016 10.1016C110.828 9.9974 110.583 9.94531 110.281 9.94531C110.031 9.94531 109.815 9.98958 109.633 10.0781C109.451 10.1615 109.31 10.276 109.211 10.4219C109.117 10.5625 109.07 10.7188 109.07 10.8906C109.07 11.0208 109.096 11.138 109.148 11.2422C109.206 11.3411 109.297 11.4323 109.422 11.5156C109.547 11.599 109.708 11.6771 109.906 11.75C110.109 11.8177 110.359 11.8802 110.656 11.9375C111.266 12.0625 111.81 12.2266 112.289 12.4297C112.768 12.6276 113.148 12.8984 113.43 13.2422C113.711 13.5807 113.852 14.026 113.852 14.5781C113.852 14.9531 113.768 15.2969 113.602 15.6094C113.435 15.9219 113.195 16.1953 112.883 16.4297C112.57 16.6589 112.195 16.8385 111.758 16.9688C111.326 17.0938 110.839 17.1562 110.297 17.1562C109.51 17.1562 108.844 17.0156 108.297 16.7344C107.755 16.4531 107.344 16.0964 107.062 15.6641C106.786 15.2266 106.648 14.7786 106.648 14.3203H108.781C108.792 14.6276 108.87 14.875 109.016 15.0625C109.167 15.25 109.357 15.3854 109.586 15.4688C109.82 15.5521 110.073 15.5938 110.344 15.5938C110.635 15.5938 110.878 15.5547 111.07 15.4766C111.263 15.3932 111.409 15.2839 111.508 15.1484C111.612 15.0078 111.664 14.8464 111.664 14.6641ZM117.562 10.1719V20.25H115.312V8.54688H117.398L117.562 10.1719ZM122.914 12.6797V12.8438C122.914 13.4583 122.841 14.0286 122.695 14.5547C122.555 15.0807 122.346 15.5391 122.07 15.9297C121.794 16.3151 121.451 16.6172 121.039 16.8359C120.633 17.0495 120.164 17.1562 119.633 17.1562C119.117 17.1562 118.669 17.0521 118.289 16.8438C117.909 16.6354 117.589 16.3438 117.328 15.9688C117.073 15.5885 116.867 15.1484 116.711 14.6484C116.555 14.1484 116.435 13.612 116.352 13.0391V12.6094C116.435 11.9948 116.555 11.4323 116.711 10.9219C116.867 10.4062 117.073 9.96094 117.328 9.58594C117.589 9.20573 117.906 8.91146 118.281 8.70312C118.661 8.49479 119.107 8.39062 119.617 8.39062C120.154 8.39062 120.625 8.49219 121.031 8.69531C121.443 8.89844 121.786 9.1901 122.062 9.57031C122.344 9.95052 122.555 10.4036 122.695 10.9297C122.841 11.4557 122.914 12.0391 122.914 12.6797ZM120.656 12.8438V12.6797C120.656 12.3203 120.625 11.9896 120.562 11.6875C120.505 11.3802 120.411 11.112 120.281 10.8828C120.156 10.6536 119.99 10.4766 119.781 10.3516C119.578 10.2214 119.331 10.1562 119.039 10.1562C118.732 10.1562 118.469 10.2057 118.25 10.3047C118.036 10.4036 117.862 10.5469 117.727 10.7344C117.591 10.9219 117.49 11.1458 117.422 11.4062C117.354 11.6667 117.312 11.9609 117.297 12.2891V13.375C117.323 13.7604 117.396 14.1068 117.516 14.4141C117.635 14.7161 117.82 14.9557 118.07 15.1328C118.32 15.3099 118.648 15.3984 119.055 15.3984C119.352 15.3984 119.602 15.3333 119.805 15.2031C120.008 15.0677 120.172 14.8828 120.297 14.6484C120.427 14.4141 120.518 14.1432 120.57 13.8359C120.628 13.5286 120.656 13.1979 120.656 12.8438ZM128.875 15.0938V11.3281C128.875 11.0573 128.831 10.8255 128.742 10.6328C128.654 10.4349 128.516 10.2812 128.328 10.1719C128.146 10.0625 127.909 10.0078 127.617 10.0078C127.367 10.0078 127.151 10.0521 126.969 10.1406C126.786 10.224 126.646 10.3464 126.547 10.5078C126.448 10.6641 126.398 10.849 126.398 11.0625H124.148C124.148 10.7031 124.232 10.362 124.398 10.0391C124.565 9.71615 124.807 9.43229 125.125 9.1875C125.443 8.9375 125.82 8.74219 126.258 8.60156C126.701 8.46094 127.195 8.39062 127.742 8.39062C128.398 8.39062 128.982 8.5 129.492 8.71875C130.003 8.9375 130.404 9.26562 130.695 9.70312C130.992 10.1406 131.141 10.6875 131.141 11.3438V14.9609C131.141 15.4245 131.169 15.8047 131.227 16.1016C131.284 16.3932 131.367 16.6484 131.477 16.8672V17H129.203C129.094 16.7708 129.01 16.4844 128.953 16.1406C128.901 15.7917 128.875 15.4427 128.875 15.0938ZM129.172 11.8516L129.188 13.125H127.93C127.633 13.125 127.375 13.1589 127.156 13.2266C126.938 13.2943 126.758 13.3906 126.617 13.5156C126.477 13.6354 126.372 13.776 126.305 13.9375C126.242 14.099 126.211 14.276 126.211 14.4688C126.211 14.6615 126.255 14.8359 126.344 14.9922C126.432 15.1432 126.56 15.263 126.727 15.3516C126.893 15.4349 127.089 15.4766 127.312 15.4766C127.651 15.4766 127.945 15.4089 128.195 15.2734C128.445 15.138 128.638 14.9714 128.773 14.7734C128.914 14.5755 128.987 14.388 128.992 14.2109L129.586 15.1641C129.503 15.3776 129.388 15.599 129.242 15.8281C129.102 16.0573 128.922 16.2734 128.703 16.4766C128.484 16.6745 128.221 16.8385 127.914 16.9688C127.607 17.0938 127.242 17.1562 126.82 17.1562C126.284 17.1562 125.797 17.0495 125.359 16.8359C124.927 16.6172 124.583 16.3177 124.328 15.9375C124.078 15.5521 123.953 15.1146 123.953 14.625C123.953 14.1823 124.036 13.7891 124.203 13.4453C124.37 13.1016 124.615 12.8125 124.938 12.5781C125.266 12.3385 125.674 12.1589 126.164 12.0391C126.654 11.9141 127.221 11.8516 127.867 11.8516H129.172ZM136.367 15.3984C136.643 15.3984 136.888 15.3464 137.102 15.2422C137.315 15.1328 137.482 14.9818 137.602 14.7891C137.727 14.5911 137.792 14.3594 137.797 14.0938H139.914C139.909 14.6875 139.75 15.2161 139.438 15.6797C139.125 16.138 138.706 16.5 138.18 16.7656C137.654 17.026 137.065 17.1562 136.414 17.1562C135.758 17.1562 135.185 17.0469 134.695 16.8281C134.211 16.6094 133.807 16.3073 133.484 15.9219C133.161 15.5312 132.919 15.0781 132.758 14.5625C132.596 14.0417 132.516 13.4844 132.516 12.8906V12.6641C132.516 12.0651 132.596 11.5078 132.758 10.9922C132.919 10.4714 133.161 10.0182 133.484 9.63281C133.807 9.24219 134.211 8.9375 134.695 8.71875C135.18 8.5 135.747 8.39062 136.398 8.39062C137.091 8.39062 137.698 8.52344 138.219 8.78906C138.745 9.05469 139.156 9.4349 139.453 9.92969C139.755 10.4193 139.909 11 139.914 11.6719H137.797C137.792 11.3906 137.732 11.1354 137.617 10.9062C137.508 10.6771 137.346 10.4948 137.133 10.3594C136.924 10.2188 136.667 10.1484 136.359 10.1484C136.031 10.1484 135.763 10.2188 135.555 10.3594C135.346 10.4948 135.185 10.6823 135.07 10.9219C134.956 11.1562 134.875 11.4245 134.828 11.7266C134.786 12.0234 134.766 12.3359 134.766 12.6641V12.8906C134.766 13.2188 134.786 13.5339 134.828 13.8359C134.87 14.138 134.948 14.4062 135.062 14.6406C135.182 14.875 135.346 15.0599 135.555 15.1953C135.763 15.3307 136.034 15.3984 136.367 15.3984ZM145.109 17.1562C144.453 17.1562 143.865 17.0521 143.344 16.8438C142.823 16.6302 142.38 16.3359 142.016 15.9609C141.656 15.5859 141.38 15.151 141.188 14.6562C140.995 14.1562 140.898 13.625 140.898 13.0625V12.75C140.898 12.1094 140.99 11.5234 141.172 10.9922C141.354 10.4609 141.615 10 141.953 9.60938C142.297 9.21875 142.714 8.91927 143.203 8.71094C143.693 8.4974 144.245 8.39062 144.859 8.39062C145.458 8.39062 145.99 8.48958 146.453 8.6875C146.917 8.88542 147.305 9.16667 147.617 9.53125C147.935 9.89583 148.174 10.3333 148.336 10.8438C148.497 11.349 148.578 11.9115 148.578 12.5312V13.4688H141.859V11.9688H146.367V11.7969C146.367 11.4844 146.31 11.2057 146.195 10.9609C146.086 10.7109 145.919 10.513 145.695 10.3672C145.471 10.2214 145.185 10.1484 144.836 10.1484C144.539 10.1484 144.284 10.2135 144.07 10.3438C143.857 10.474 143.682 10.6562 143.547 10.8906C143.417 11.125 143.318 11.401 143.25 11.7188C143.188 12.0312 143.156 12.375 143.156 12.75V13.0625C143.156 13.401 143.203 13.7135 143.297 14C143.396 14.2865 143.534 14.5339 143.711 14.7422C143.893 14.9505 144.112 15.112 144.367 15.2266C144.628 15.3411 144.922 15.3984 145.25 15.3984C145.656 15.3984 146.034 15.3203 146.383 15.1641C146.737 15.0026 147.042 14.7604 147.297 14.4375L148.391 15.625C148.214 15.8802 147.971 16.125 147.664 16.3594C147.362 16.5938 146.997 16.7865 146.57 16.9375C146.143 17.0833 145.656 17.1562 145.109 17.1562Z" fill="#1F1F1F"/>
<path d="M533.086 5.625H535.07L537.992 13.9766L540.914 5.625H542.898L538.789 17H537.195L533.086 5.625ZM532.016 5.625H533.992L534.352 13.7656V17H532.016V5.625ZM541.992 5.625H543.977V17H541.633V13.7656L541.992 5.625ZM545.531 12.8594V12.6953C545.531 12.0755 545.62 11.5052 545.797 10.9844C545.974 10.4583 546.232 10.0026 546.57 9.61719C546.909 9.23177 547.326 8.93229 547.82 8.71875C548.315 8.5 548.883 8.39062 549.523 8.39062C550.164 8.39062 550.734 8.5 551.234 8.71875C551.734 8.93229 552.154 9.23177 552.492 9.61719C552.836 10.0026 553.096 10.4583 553.273 10.9844C553.451 11.5052 553.539 12.0755 553.539 12.6953V12.8594C553.539 13.474 553.451 14.0443 553.273 14.5703C553.096 15.0911 552.836 15.5469 552.492 15.9375C552.154 16.3229 551.737 16.6224 551.242 16.8359C550.747 17.0495 550.18 17.1562 549.539 17.1562C548.898 17.1562 548.328 17.0495 547.828 16.8359C547.333 16.6224 546.914 16.3229 546.57 15.9375C546.232 15.5469 545.974 15.0911 545.797 14.5703C545.62 14.0443 545.531 13.474 545.531 12.8594ZM547.781 12.6953V12.8594C547.781 13.2135 547.812 13.5443 547.875 13.8516C547.938 14.1589 548.036 14.4297 548.172 14.6641C548.312 14.8932 548.495 15.0729 548.719 15.2031C548.943 15.3333 549.216 15.3984 549.539 15.3984C549.852 15.3984 550.12 15.3333 550.344 15.2031C550.568 15.0729 550.747 14.8932 550.883 14.6641C551.018 14.4297 551.117 14.1589 551.18 13.8516C551.247 13.5443 551.281 13.2135 551.281 12.8594V12.6953C551.281 12.3516 551.247 12.0286 551.18 11.7266C551.117 11.4193 551.016 11.1484 550.875 10.9141C550.74 10.6745 550.56 10.487 550.336 10.3516C550.112 10.2161 549.841 10.1484 549.523 10.1484C549.206 10.1484 548.935 10.2161 548.711 10.3516C548.492 10.487 548.312 10.6745 548.172 10.9141C548.036 11.1484 547.938 11.4193 547.875 11.7266C547.812 12.0286 547.781 12.3516 547.781 12.6953ZM554.922 5H557.172V15.0625L556.945 17H554.922V5ZM562.523 12.6875V12.8516C562.523 13.4818 562.456 14.0599 562.32 14.5859C562.19 15.112 561.987 15.5677 561.711 15.9531C561.435 16.3333 561.091 16.6302 560.68 16.8438C560.273 17.0521 559.794 17.1562 559.242 17.1562C558.727 17.1562 558.279 17.0521 557.898 16.8438C557.523 16.6354 557.208 16.3411 556.953 15.9609C556.698 15.5807 556.492 15.1354 556.336 14.625C556.18 14.1146 556.062 13.5573 555.984 12.9531V12.5938C556.062 11.9896 556.18 11.4323 556.336 10.9219C556.492 10.4115 556.698 9.96615 556.953 9.58594C557.208 9.20573 557.523 8.91146 557.898 8.70312C558.273 8.49479 558.716 8.39062 559.227 8.39062C559.784 8.39062 560.268 8.4974 560.68 8.71094C561.096 8.91927 561.44 9.21615 561.711 9.60156C561.987 9.98177 562.19 10.4349 562.32 10.9609C562.456 11.4818 562.523 12.0573 562.523 12.6875ZM560.273 12.8516V12.6875C560.273 12.3438 560.247 12.0208 560.195 11.7188C560.148 11.4115 560.065 11.1432 559.945 10.9141C559.826 10.6797 559.661 10.4948 559.453 10.3594C559.25 10.224 558.987 10.1562 558.664 10.1562C558.357 10.1562 558.096 10.2083 557.883 10.3125C557.669 10.4167 557.492 10.5625 557.352 10.75C557.216 10.9375 557.115 11.1615 557.047 11.4219C556.979 11.6771 556.938 11.9583 556.922 12.2656V13.2891C556.938 13.7005 557.005 14.0651 557.125 14.3828C557.25 14.6953 557.438 14.9427 557.688 15.125C557.943 15.3021 558.273 15.3906 558.68 15.3906C558.997 15.3906 559.26 15.3281 559.469 15.2031C559.677 15.0781 559.839 14.901 559.953 14.6719C560.073 14.4427 560.156 14.1745 560.203 13.8672C560.25 13.5547 560.273 13.2161 560.273 12.8516ZM566.297 8.54688V17H564.039V8.54688H566.297ZM563.898 6.34375C563.898 6.01562 564.013 5.74479 564.242 5.53125C564.471 5.31771 564.779 5.21094 565.164 5.21094C565.544 5.21094 565.849 5.31771 566.078 5.53125C566.312 5.74479 566.43 6.01562 566.43 6.34375C566.43 6.67188 566.312 6.94271 566.078 7.15625C565.849 7.36979 565.544 7.47656 565.164 7.47656C564.779 7.47656 564.471 7.36979 564.242 7.15625C564.013 6.94271 563.898 6.67188 563.898 6.34375ZM570.531 5V17H568.273V5H570.531ZM576.281 17.1562C575.625 17.1562 575.036 17.0521 574.516 16.8438C573.995 16.6302 573.552 16.3359 573.188 15.9609C572.828 15.5859 572.552 15.151 572.359 14.6562C572.167 14.1562 572.07 13.625 572.07 13.0625V12.75C572.07 12.1094 572.161 11.5234 572.344 10.9922C572.526 10.4609 572.786 10 573.125 9.60938C573.469 9.21875 573.885 8.91927 574.375 8.71094C574.865 8.4974 575.417 8.39062 576.031 8.39062C576.63 8.39062 577.161 8.48958 577.625 8.6875C578.089 8.88542 578.477 9.16667 578.789 9.53125C579.107 9.89583 579.346 10.3333 579.508 10.8438C579.669 11.349 579.75 11.9115 579.75 12.5312V13.4688H573.031V11.9688H577.539V11.7969C577.539 11.4844 577.482 11.2057 577.367 10.9609C577.258 10.7109 577.091 10.513 576.867 10.3672C576.643 10.2214 576.357 10.1484 576.008 10.1484C575.711 10.1484 575.456 10.2135 575.242 10.3438C575.029 10.474 574.854 10.6562 574.719 10.8906C574.589 11.125 574.49 11.401 574.422 11.7188C574.359 12.0312 574.328 12.375 574.328 12.75V13.0625C574.328 13.401 574.375 13.7135 574.469 14C574.568 14.2865 574.706 14.5339 574.883 14.7422C575.065 14.9505 575.284 15.112 575.539 15.2266C575.799 15.3411 576.094 15.3984 576.422 15.3984C576.828 15.3984 577.206 15.3203 577.555 15.1641C577.909 15.0026 578.214 14.7604 578.469 14.4375L579.562 15.625C579.385 15.8802 579.143 16.125 578.836 16.3594C578.534 16.5938 578.169 16.7865 577.742 16.9375C577.315 17.0833 576.828 17.1562 576.281 17.1562ZM585.891 5.625L581.719 17.9766H580.047L584.219 5.625H585.891ZM589.344 5V17H587.086V5H589.344ZM595.094 17.1562C594.438 17.1562 593.849 17.0521 593.328 16.8438C592.807 16.6302 592.365 16.3359 592 15.9609C591.641 15.5859 591.365 15.151 591.172 14.6562C590.979 14.1562 590.883 13.625 590.883 13.0625V12.75C590.883 12.1094 590.974 11.5234 591.156 10.9922C591.339 10.4609 591.599 10 591.938 9.60938C592.281 9.21875 592.698 8.91927 593.188 8.71094C593.677 8.4974 594.229 8.39062 594.844 8.39062C595.443 8.39062 595.974 8.48958 596.438 8.6875C596.901 8.88542 597.289 9.16667 597.602 9.53125C597.919 9.89583 598.159 10.3333 598.32 10.8438C598.482 11.349 598.562 11.9115 598.562 12.5312V13.4688H591.844V11.9688H596.352V11.7969C596.352 11.4844 596.294 11.2057 596.18 10.9609C596.07 10.7109 595.904 10.513 595.68 10.3672C595.456 10.2214 595.169 10.1484 594.82 10.1484C594.523 10.1484 594.268 10.2135 594.055 10.3438C593.841 10.474 593.667 10.6562 593.531 10.8906C593.401 11.125 593.302 11.401 593.234 11.7188C593.172 12.0312 593.141 12.375 593.141 12.75V13.0625C593.141 13.401 593.188 13.7135 593.281 14C593.38 14.2865 593.518 14.5339 593.695 14.7422C593.878 14.9505 594.096 15.112 594.352 15.2266C594.612 15.3411 594.906 15.3984 595.234 15.3984C595.641 15.3984 596.018 15.3203 596.367 15.1641C596.721 15.0026 597.026 14.7604 597.281 14.4375L598.375 15.625C598.198 15.8802 597.956 16.125 597.648 16.3594C597.346 16.5938 596.982 16.7865 596.555 16.9375C596.128 17.0833 595.641 17.1562 595.094 17.1562ZM604.414 14.6641C604.414 14.5026 604.367 14.3568 604.273 14.2266C604.18 14.0964 604.005 13.9766 603.75 13.8672C603.5 13.7526 603.138 13.6484 602.664 13.5547C602.237 13.4609 601.839 13.3438 601.469 13.2031C601.104 13.0573 600.786 12.8828 600.516 12.6797C600.25 12.4766 600.042 12.237 599.891 11.9609C599.74 11.6797 599.664 11.3594 599.664 11C599.664 10.6458 599.74 10.3125 599.891 10C600.047 9.6875 600.268 9.41146 600.555 9.17188C600.846 8.92708 601.201 8.73698 601.617 8.60156C602.039 8.46094 602.513 8.39062 603.039 8.39062C603.773 8.39062 604.404 8.50781 604.93 8.74219C605.461 8.97656 605.867 9.29948 606.148 9.71094C606.435 10.1172 606.578 10.5807 606.578 11.1016H604.328C604.328 10.8828 604.281 10.6875 604.188 10.5156C604.099 10.3385 603.958 10.2005 603.766 10.1016C603.578 9.9974 603.333 9.94531 603.031 9.94531C602.781 9.94531 602.565 9.98958 602.383 10.0781C602.201 10.1615 602.06 10.276 601.961 10.4219C601.867 10.5625 601.82 10.7188 601.82 10.8906C601.82 11.0208 601.846 11.138 601.898 11.2422C601.956 11.3411 602.047 11.4323 602.172 11.5156C602.297 11.599 602.458 11.6771 602.656 11.75C602.859 11.8177 603.109 11.8802 603.406 11.9375C604.016 12.0625 604.56 12.2266 605.039 12.4297C605.518 12.6276 605.898 12.8984 606.18 13.2422C606.461 13.5807 606.602 14.026 606.602 14.5781C606.602 14.9531 606.518 15.2969 606.352 15.6094C606.185 15.9219 605.945 16.1953 605.633 16.4297C605.32 16.6589 604.945 16.8385 604.508 16.9688C604.076 17.0938 603.589 17.1562 603.047 17.1562C602.26 17.1562 601.594 17.0156 601.047 16.7344C600.505 16.4531 600.094 16.0964 599.812 15.6641C599.536 15.2266 599.398 14.7786 599.398 14.3203H601.531C601.542 14.6276 601.62 14.875 601.766 15.0625C601.917 15.25 602.107 15.3854 602.336 15.4688C602.57 15.5521 602.823 15.5938 603.094 15.5938C603.385 15.5938 603.628 15.5547 603.82 15.4766C604.013 15.3932 604.159 15.2839 604.258 15.1484C604.362 15.0078 604.414 14.8464 604.414 14.6641ZM612.633 14.6641C612.633 14.5026 612.586 14.3568 612.492 14.2266C612.398 14.0964 612.224 13.9766 611.969 13.8672C611.719 13.7526 611.357 13.6484 610.883 13.5547C610.456 13.4609 610.057 13.3438 609.688 13.2031C609.323 13.0573 609.005 12.8828 608.734 12.6797C608.469 12.4766 608.26 12.237 608.109 11.9609C607.958 11.6797 607.883 11.3594 607.883 11C607.883 10.6458 607.958 10.3125 608.109 10C608.266 9.6875 608.487 9.41146 608.773 9.17188C609.065 8.92708 609.419 8.73698 609.836 8.60156C610.258 8.46094 610.732 8.39062 611.258 8.39062C611.992 8.39062 612.622 8.50781 613.148 8.74219C613.68 8.97656 614.086 9.29948 614.367 9.71094C614.654 10.1172 614.797 10.5807 614.797 11.1016H612.547C612.547 10.8828 612.5 10.6875 612.406 10.5156C612.318 10.3385 612.177 10.2005 611.984 10.1016C611.797 9.9974 611.552 9.94531 611.25 9.94531C611 9.94531 610.784 9.98958 610.602 10.0781C610.419 10.1615 610.279 10.276 610.18 10.4219C610.086 10.5625 610.039 10.7188 610.039 10.8906C610.039 11.0208 610.065 11.138 610.117 11.2422C610.174 11.3411 610.266 11.4323 610.391 11.5156C610.516 11.599 610.677 11.6771 610.875 11.75C611.078 11.8177 611.328 11.8802 611.625 11.9375C612.234 12.0625 612.779 12.2266 613.258 12.4297C613.737 12.6276 614.117 12.8984 614.398 13.2422C614.68 13.5807 614.82 14.026 614.82 14.5781C614.82 14.9531 614.737 15.2969 614.57 15.6094C614.404 15.9219 614.164 16.1953 613.852 16.4297C613.539 16.6589 613.164 16.8385 612.727 16.9688C612.294 17.0938 611.807 17.1562 611.266 17.1562C610.479 17.1562 609.812 17.0156 609.266 16.7344C608.724 16.4531 608.312 16.0964 608.031 15.6641C607.755 15.2266 607.617 14.7786 607.617 14.3203H609.75C609.76 14.6276 609.839 14.875 609.984 15.0625C610.135 15.25 610.326 15.3854 610.555 15.4688C610.789 15.5521 611.042 15.5938 611.312 15.5938C611.604 15.5938 611.846 15.5547 612.039 15.4766C612.232 15.3932 612.378 15.2839 612.477 15.1484C612.581 15.0078 612.633 14.8464 612.633 14.6641ZM624.836 14.6641C624.836 14.5026 624.789 14.3568 624.695 14.2266C624.602 14.0964 624.427 13.9766 624.172 13.8672C623.922 13.7526 623.56 13.6484 623.086 13.5547C622.659 13.4609 622.26 13.3438 621.891 13.2031C621.526 13.0573 621.208 12.8828 620.938 12.6797C620.672 12.4766 620.464 12.237 620.312 11.9609C620.161 11.6797 620.086 11.3594 620.086 11C620.086 10.6458 620.161 10.3125 620.312 10C620.469 9.6875 620.69 9.41146 620.977 9.17188C621.268 8.92708 621.622 8.73698 622.039 8.60156C622.461 8.46094 622.935 8.39062 623.461 8.39062C624.195 8.39062 624.826 8.50781 625.352 8.74219C625.883 8.97656 626.289 9.29948 626.57 9.71094C626.857 10.1172 627 10.5807 627 11.1016H624.75C624.75 10.8828 624.703 10.6875 624.609 10.5156C624.521 10.3385 624.38 10.2005 624.188 10.1016C624 9.9974 623.755 9.94531 623.453 9.94531C623.203 9.94531 622.987 9.98958 622.805 10.0781C622.622 10.1615 622.482 10.276 622.383 10.4219C622.289 10.5625 622.242 10.7188 622.242 10.8906C622.242 11.0208 622.268 11.138 622.32 11.2422C622.378 11.3411 622.469 11.4323 622.594 11.5156C622.719 11.599 622.88 11.6771 623.078 11.75C623.281 11.8177 623.531 11.8802 623.828 11.9375C624.438 12.0625 624.982 12.2266 625.461 12.4297C625.94 12.6276 626.32 12.8984 626.602 13.2422C626.883 13.5807 627.023 14.026 627.023 14.5781C627.023 14.9531 626.94 15.2969 626.773 15.6094C626.607 15.9219 626.367 16.1953 626.055 16.4297C625.742 16.6589 625.367 16.8385 624.93 16.9688C624.497 17.0938 624.01 17.1562 623.469 17.1562C622.682 17.1562 622.016 17.0156 621.469 16.7344C620.927 16.4531 620.516 16.0964 620.234 15.6641C619.958 15.2266 619.82 14.7786 619.82 14.3203H621.953C621.964 14.6276 622.042 14.875 622.188 15.0625C622.339 15.25 622.529 15.3854 622.758 15.4688C622.992 15.5521 623.245 15.5938 623.516 15.5938C623.807 15.5938 624.049 15.5547 624.242 15.4766C624.435 15.3932 624.581 15.2839 624.68 15.1484C624.784 15.0078 624.836 14.8464 624.836 14.6641ZM630.734 10.1719V20.25H628.484V8.54688H630.57L630.734 10.1719ZM636.086 12.6797V12.8438C636.086 13.4583 636.013 14.0286 635.867 14.5547C635.727 15.0807 635.518 15.5391 635.242 15.9297C634.966 16.3151 634.622 16.6172 634.211 16.8359C633.805 17.0495 633.336 17.1562 632.805 17.1562C632.289 17.1562 631.841 17.0521 631.461 16.8438C631.081 16.6354 630.76 16.3438 630.5 15.9688C630.245 15.5885 630.039 15.1484 629.883 14.6484C629.727 14.1484 629.607 13.612 629.523 13.0391V12.6094C629.607 11.9948 629.727 11.4323 629.883 10.9219C630.039 10.4062 630.245 9.96094 630.5 9.58594C630.76 9.20573 631.078 8.91146 631.453 8.70312C631.833 8.49479 632.279 8.39062 632.789 8.39062C633.326 8.39062 633.797 8.49219 634.203 8.69531C634.615 8.89844 634.958 9.1901 635.234 9.57031C635.516 9.95052 635.727 10.4036 635.867 10.9297C636.013 11.4557 636.086 12.0391 636.086 12.6797ZM633.828 12.8438V12.6797C633.828 12.3203 633.797 11.9896 633.734 11.6875C633.677 11.3802 633.583 11.112 633.453 10.8828C633.328 10.6536 633.161 10.4766 632.953 10.3516C632.75 10.2214 632.503 10.1562 632.211 10.1562C631.904 10.1562 631.641 10.2057 631.422 10.3047C631.208 10.4036 631.034 10.5469 630.898 10.7344C630.763 10.9219 630.661 11.1458 630.594 11.4062C630.526 11.6667 630.484 11.9609 630.469 12.2891V13.375C630.495 13.7604 630.568 14.1068 630.688 14.4141C630.807 14.7161 630.992 14.9557 631.242 15.1328C631.492 15.3099 631.82 15.3984 632.227 15.3984C632.523 15.3984 632.773 15.3333 632.977 15.2031C633.18 15.0677 633.344 14.8828 633.469 14.6484C633.599 14.4141 633.69 14.1432 633.742 13.8359C633.799 13.5286 633.828 13.1979 633.828 12.8438ZM642.047 15.0938V11.3281C642.047 11.0573 642.003 10.8255 641.914 10.6328C641.826 10.4349 641.688 10.2812 641.5 10.1719C641.318 10.0625 641.081 10.0078 640.789 10.0078C640.539 10.0078 640.323 10.0521 640.141 10.1406C639.958 10.224 639.818 10.3464 639.719 10.5078C639.62 10.6641 639.57 10.849 639.57 11.0625H637.32C637.32 10.7031 637.404 10.362 637.57 10.0391C637.737 9.71615 637.979 9.43229 638.297 9.1875C638.615 8.9375 638.992 8.74219 639.43 8.60156C639.872 8.46094 640.367 8.39062 640.914 8.39062C641.57 8.39062 642.154 8.5 642.664 8.71875C643.174 8.9375 643.576 9.26562 643.867 9.70312C644.164 10.1406 644.312 10.6875 644.312 11.3438V14.9609C644.312 15.4245 644.341 15.8047 644.398 16.1016C644.456 16.3932 644.539 16.6484 644.648 16.8672V17H642.375C642.266 16.7708 642.182 16.4844 642.125 16.1406C642.073 15.7917 642.047 15.4427 642.047 15.0938ZM642.344 11.8516L642.359 13.125H641.102C640.805 13.125 640.547 13.1589 640.328 13.2266C640.109 13.2943 639.93 13.3906 639.789 13.5156C639.648 13.6354 639.544 13.776 639.477 13.9375C639.414 14.099 639.383 14.276 639.383 14.4688C639.383 14.6615 639.427 14.8359 639.516 14.9922C639.604 15.1432 639.732 15.263 639.898 15.3516C640.065 15.4349 640.26 15.4766 640.484 15.4766C640.823 15.4766 641.117 15.4089 641.367 15.2734C641.617 15.138 641.81 14.9714 641.945 14.7734C642.086 14.5755 642.159 14.388 642.164 14.2109L642.758 15.1641C642.674 15.3776 642.56 15.599 642.414 15.8281C642.273 16.0573 642.094 16.2734 641.875 16.4766C641.656 16.6745 641.393 16.8385 641.086 16.9688C640.779 17.0938 640.414 17.1562 639.992 17.1562C639.456 17.1562 638.969 17.0495 638.531 16.8359C638.099 16.6172 637.755 16.3177 637.5 15.9375C637.25 15.5521 637.125 15.1146 637.125 14.625C637.125 14.1823 637.208 13.7891 637.375 13.4453C637.542 13.1016 637.786 12.8125 638.109 12.5781C638.438 12.3385 638.846 12.1589 639.336 12.0391C639.826 11.9141 640.393 11.8516 641.039 11.8516H642.344ZM649.539 15.3984C649.815 15.3984 650.06 15.3464 650.273 15.2422C650.487 15.1328 650.654 14.9818 650.773 14.7891C650.898 14.5911 650.964 14.3594 650.969 14.0938H653.086C653.081 14.6875 652.922 15.2161 652.609 15.6797C652.297 16.138 651.878 16.5 651.352 16.7656C650.826 17.026 650.237 17.1562 649.586 17.1562C648.93 17.1562 648.357 17.0469 647.867 16.8281C647.383 16.6094 646.979 16.3073 646.656 15.9219C646.333 15.5312 646.091 15.0781 645.93 14.5625C645.768 14.0417 645.688 13.4844 645.688 12.8906V12.6641C645.688 12.0651 645.768 11.5078 645.93 10.9922C646.091 10.4714 646.333 10.0182 646.656 9.63281C646.979 9.24219 647.383 8.9375 647.867 8.71875C648.352 8.5 648.919 8.39062 649.57 8.39062C650.263 8.39062 650.87 8.52344 651.391 8.78906C651.917 9.05469 652.328 9.4349 652.625 9.92969C652.927 10.4193 653.081 11 653.086 11.6719H650.969C650.964 11.3906 650.904 11.1354 650.789 10.9062C650.68 10.6771 650.518 10.4948 650.305 10.3594C650.096 10.2188 649.839 10.1484 649.531 10.1484C649.203 10.1484 648.935 10.2188 648.727 10.3594C648.518 10.4948 648.357 10.6823 648.242 10.9219C648.128 11.1562 648.047 11.4245 648 11.7266C647.958 12.0234 647.938 12.3359 647.938 12.6641V12.8906C647.938 13.2188 647.958 13.5339 648 13.8359C648.042 14.138 648.12 14.4062 648.234 14.6406C648.354 14.875 648.518 15.0599 648.727 15.1953C648.935 15.3307 649.206 15.3984 649.539 15.3984ZM658.281 17.1562C657.625 17.1562 657.036 17.0521 656.516 16.8438C655.995 16.6302 655.552 16.3359 655.188 15.9609C654.828 15.5859 654.552 15.151 654.359 14.6562C654.167 14.1562 654.07 13.625 654.07 13.0625V12.75C654.07 12.1094 654.161 11.5234 654.344 10.9922C654.526 10.4609 654.786 10 655.125 9.60938C655.469 9.21875 655.885 8.91927 656.375 8.71094C656.865 8.4974 657.417 8.39062 658.031 8.39062C658.63 8.39062 659.161 8.48958 659.625 8.6875C660.089 8.88542 660.477 9.16667 660.789 9.53125C661.107 9.89583 661.346 10.3333 661.508 10.8438C661.669 11.349 661.75 11.9115 661.75 12.5312V13.4688H655.031V11.9688H659.539V11.7969C659.539 11.4844 659.482 11.2057 659.367 10.9609C659.258 10.7109 659.091 10.513 658.867 10.3672C658.643 10.2214 658.357 10.1484 658.008 10.1484C657.711 10.1484 657.456 10.2135 657.242 10.3438C657.029 10.474 656.854 10.6562 656.719 10.8906C656.589 11.125 656.49 11.401 656.422 11.7188C656.359 12.0312 656.328 12.375 656.328 12.75V13.0625C656.328 13.401 656.375 13.7135 656.469 14C656.568 14.2865 656.706 14.5339 656.883 14.7422C657.065 14.9505 657.284 15.112 657.539 15.2266C657.799 15.3411 658.094 15.3984 658.422 15.3984C658.828 15.3984 659.206 15.3203 659.555 15.1641C659.909 15.0026 660.214 14.7604 660.469 14.4375L661.562 15.625C661.385 15.8802 661.143 16.125 660.836 16.3594C660.534 16.5938 660.169 16.7865 659.742 16.9375C659.315 17.0833 658.828 17.1562 658.281 17.1562Z" fill="#1F1F1F"/>
<rect y="40" width="508" height="88" fill="white"/>
<rect x="188.5" y="64.5" width="132" height="39" rx="19.5" fill="white"/>
<path d="M221.711 86.125C221.711 85.8594 221.669 85.625 221.586 85.4219C221.508 85.2135 221.367 85.026 221.164 84.8594C220.966 84.6927 220.69 84.5339 220.336 84.3828C219.987 84.2318 219.544 84.0781 219.008 83.9219C218.445 83.7552 217.938 83.5703 217.484 83.3672C217.031 83.1589 216.643 82.9219 216.32 82.6562C215.997 82.3906 215.75 82.0859 215.578 81.7422C215.406 81.3984 215.32 81.0052 215.32 80.5625C215.32 80.1198 215.411 79.7109 215.594 79.3359C215.776 78.9609 216.036 78.6354 216.375 78.3594C216.719 78.0781 217.128 77.8594 217.602 77.7031C218.076 77.5469 218.604 77.4688 219.188 77.4688C220.042 77.4688 220.766 77.6328 221.359 77.9609C221.958 78.2839 222.414 78.7083 222.727 79.2344C223.039 79.7552 223.195 80.3125 223.195 80.9062H221.695C221.695 80.4792 221.604 80.1016 221.422 79.7734C221.24 79.4401 220.964 79.1797 220.594 78.9922C220.224 78.7995 219.755 78.7031 219.188 78.7031C218.651 78.7031 218.208 78.7839 217.859 78.9453C217.51 79.1068 217.25 79.3255 217.078 79.6016C216.911 79.8776 216.828 80.1927 216.828 80.5469C216.828 80.7865 216.878 81.0052 216.977 81.2031C217.081 81.3958 217.24 81.5755 217.453 81.7422C217.672 81.9089 217.948 82.0625 218.281 82.2031C218.62 82.3438 219.023 82.4792 219.492 82.6094C220.138 82.7917 220.695 82.9948 221.164 83.2188C221.633 83.4427 222.018 83.6953 222.32 83.9766C222.628 84.2526 222.854 84.5677 223 84.9219C223.151 85.2708 223.227 85.6667 223.227 86.1094C223.227 86.5729 223.133 86.9922 222.945 87.3672C222.758 87.7422 222.49 88.0625 222.141 88.3281C221.792 88.5938 221.372 88.7995 220.883 88.9453C220.398 89.0859 219.857 89.1562 219.258 89.1562C218.732 89.1562 218.214 89.0833 217.703 88.9375C217.198 88.7917 216.737 88.5729 216.32 88.2812C215.909 87.9896 215.578 87.6302 215.328 87.2031C215.083 86.7708 214.961 86.2708 214.961 85.7031H216.461C216.461 86.0938 216.536 86.4297 216.688 86.7109C216.839 86.987 217.044 87.2161 217.305 87.3984C217.57 87.5807 217.87 87.7161 218.203 87.8047C218.542 87.888 218.893 87.9297 219.258 87.9297C219.784 87.9297 220.229 87.8568 220.594 87.7109C220.958 87.5651 221.234 87.3568 221.422 87.0859C221.615 86.8151 221.711 86.4948 221.711 86.125ZM226.375 77V89H224.93V77H226.375ZM226.031 84.4531L225.43 84.4297C225.435 83.8516 225.521 83.3177 225.688 82.8281C225.854 82.3333 226.089 81.9036 226.391 81.5391C226.693 81.1745 227.052 80.8932 227.469 80.6953C227.891 80.4922 228.357 80.3906 228.867 80.3906C229.284 80.3906 229.659 80.4479 229.992 80.5625C230.326 80.6719 230.609 80.849 230.844 81.0938C231.083 81.3385 231.266 81.6562 231.391 82.0469C231.516 82.4323 231.578 82.9036 231.578 83.4609V89H230.125V83.4453C230.125 83.0026 230.06 82.6484 229.93 82.3828C229.799 82.112 229.609 81.9167 229.359 81.7969C229.109 81.6719 228.802 81.6094 228.438 81.6094C228.078 81.6094 227.75 81.6849 227.453 81.8359C227.161 81.987 226.909 82.1953 226.695 82.4609C226.487 82.7266 226.323 83.0312 226.203 83.375C226.089 83.7135 226.031 84.0729 226.031 84.4531ZM233.359 84.8672V84.6875C233.359 84.0781 233.448 83.513 233.625 82.9922C233.802 82.4661 234.057 82.0104 234.391 81.625C234.724 81.2344 235.128 80.9323 235.602 80.7188C236.076 80.5 236.607 80.3906 237.195 80.3906C237.789 80.3906 238.323 80.5 238.797 80.7188C239.276 80.9323 239.682 81.2344 240.016 81.625C240.354 82.0104 240.612 82.4661 240.789 82.9922C240.966 83.513 241.055 84.0781 241.055 84.6875V84.8672C241.055 85.4766 240.966 86.0417 240.789 86.5625C240.612 87.0833 240.354 87.5391 240.016 87.9297C239.682 88.3151 239.279 88.6172 238.805 88.8359C238.336 89.0495 237.805 89.1562 237.211 89.1562C236.617 89.1562 236.083 89.0495 235.609 88.8359C235.135 88.6172 234.729 88.3151 234.391 87.9297C234.057 87.5391 233.802 87.0833 233.625 86.5625C233.448 86.0417 233.359 85.4766 233.359 84.8672ZM234.805 84.6875V84.8672C234.805 85.2891 234.854 85.6875 234.953 86.0625C235.052 86.4323 235.201 86.7604 235.398 87.0469C235.602 87.3333 235.854 87.5599 236.156 87.7266C236.458 87.888 236.81 87.9688 237.211 87.9688C237.607 87.9688 237.953 87.888 238.25 87.7266C238.552 87.5599 238.802 87.3333 239 87.0469C239.198 86.7604 239.346 86.4323 239.445 86.0625C239.549 85.6875 239.602 85.2891 239.602 84.8672V84.6875C239.602 84.2708 239.549 83.8776 239.445 83.5078C239.346 83.1328 239.195 82.8021 238.992 82.5156C238.794 82.224 238.544 81.9948 238.242 81.8281C237.945 81.6615 237.596 81.5781 237.195 81.5781C236.799 81.5781 236.451 81.6615 236.148 81.8281C235.852 81.9948 235.602 82.224 235.398 82.5156C235.201 82.8021 235.052 83.1328 234.953 83.5078C234.854 83.8776 234.805 84.2708 234.805 84.6875ZM245.008 87.5L247.18 80.5469H248.133L247.945 81.9297L245.734 89H244.805L245.008 87.5ZM243.547 80.5469L245.398 87.5781L245.531 89H244.555L242.102 80.5469H243.547ZM250.211 87.5234L251.977 80.5469H253.414L250.961 89H249.992L250.211 87.5234ZM248.344 80.5469L250.469 87.3828L250.711 89H249.789L247.516 81.9141L247.328 80.5469H248.344ZM260.305 82.2266V89H258.852V80.5469H260.227L260.305 82.2266ZM260.008 84.4531L259.336 84.4297C259.341 83.8516 259.417 83.3177 259.562 82.8281C259.708 82.3333 259.924 81.9036 260.211 81.5391C260.497 81.1745 260.854 80.8932 261.281 80.6953C261.708 80.4922 262.203 80.3906 262.766 80.3906C263.161 80.3906 263.526 80.4479 263.859 80.5625C264.193 80.6719 264.482 80.8464 264.727 81.0859C264.971 81.3255 265.161 81.6328 265.297 82.0078C265.432 82.3828 265.5 82.8359 265.5 83.3672V89H264.055V83.4375C264.055 82.9948 263.979 82.6406 263.828 82.375C263.682 82.1094 263.474 81.9167 263.203 81.7969C262.932 81.6719 262.615 81.6094 262.25 81.6094C261.823 81.6094 261.466 81.6849 261.18 81.8359C260.893 81.987 260.664 82.1953 260.492 82.4609C260.32 82.7266 260.195 83.0312 260.117 83.375C260.044 83.7135 260.008 84.0729 260.008 84.4531ZM265.484 83.6562L264.516 83.9531C264.521 83.4896 264.596 83.0443 264.742 82.6172C264.893 82.1901 265.109 81.8099 265.391 81.4766C265.677 81.1432 266.029 80.8802 266.445 80.6875C266.862 80.4896 267.339 80.3906 267.875 80.3906C268.328 80.3906 268.729 80.4505 269.078 80.5703C269.432 80.6901 269.729 80.875 269.969 81.125C270.214 81.3698 270.398 81.6849 270.523 82.0703C270.648 82.4557 270.711 82.9141 270.711 83.4453V89H269.258V83.4297C269.258 82.9557 269.182 82.5885 269.031 82.3281C268.885 82.0625 268.677 81.8776 268.406 81.7734C268.141 81.6641 267.823 81.6094 267.453 81.6094C267.135 81.6094 266.854 81.6641 266.609 81.7734C266.365 81.8828 266.159 82.0339 265.992 82.2266C265.826 82.4141 265.698 82.6302 265.609 82.875C265.526 83.1198 265.484 83.3802 265.484 83.6562ZM272.516 84.8672V84.6875C272.516 84.0781 272.604 83.513 272.781 82.9922C272.958 82.4661 273.214 82.0104 273.547 81.625C273.88 81.2344 274.284 80.9323 274.758 80.7188C275.232 80.5 275.763 80.3906 276.352 80.3906C276.945 80.3906 277.479 80.5 277.953 80.7188C278.432 80.9323 278.839 81.2344 279.172 81.625C279.51 82.0104 279.768 82.4661 279.945 82.9922C280.122 83.513 280.211 84.0781 280.211 84.6875V84.8672C280.211 85.4766 280.122 86.0417 279.945 86.5625C279.768 87.0833 279.51 87.5391 279.172 87.9297C278.839 88.3151 278.435 88.6172 277.961 88.8359C277.492 89.0495 276.961 89.1562 276.367 89.1562C275.773 89.1562 275.24 89.0495 274.766 88.8359C274.292 88.6172 273.885 88.3151 273.547 87.9297C273.214 87.5391 272.958 87.0833 272.781 86.5625C272.604 86.0417 272.516 85.4766 272.516 84.8672ZM273.961 84.6875V84.8672C273.961 85.2891 274.01 85.6875 274.109 86.0625C274.208 86.4323 274.357 86.7604 274.555 87.0469C274.758 87.3333 275.01 87.5599 275.312 87.7266C275.615 87.888 275.966 87.9688 276.367 87.9688C276.763 87.9688 277.109 87.888 277.406 87.7266C277.708 87.5599 277.958 87.3333 278.156 87.0469C278.354 86.7604 278.503 86.4323 278.602 86.0625C278.706 85.6875 278.758 85.2891 278.758 84.8672V84.6875C278.758 84.2708 278.706 83.8776 278.602 83.5078C278.503 83.1328 278.352 82.8021 278.148 82.5156C277.951 82.224 277.701 81.9948 277.398 81.8281C277.102 81.6615 276.753 81.5781 276.352 81.5781C275.956 81.5781 275.607 81.6615 275.305 81.8281C275.008 81.9948 274.758 82.224 274.555 82.5156C274.357 82.8021 274.208 83.1328 274.109 83.5078C274.01 83.8776 273.961 84.2708 273.961 84.6875ZM283.469 81.875V89H282.023V80.5469H283.43L283.469 81.875ZM286.109 80.5L286.102 81.8438C285.982 81.8177 285.867 81.8021 285.758 81.7969C285.654 81.7865 285.534 81.7812 285.398 81.7812C285.065 81.7812 284.771 81.8333 284.516 81.9375C284.26 82.0417 284.044 82.1875 283.867 82.375C283.69 82.5625 283.549 82.7865 283.445 83.0469C283.346 83.3021 283.281 83.5833 283.25 83.8906L282.844 84.125C282.844 83.6146 282.893 83.1354 282.992 82.6875C283.096 82.2396 283.255 81.8438 283.469 81.5C283.682 81.151 283.953 80.8802 284.281 80.6875C284.615 80.4896 285.01 80.3906 285.469 80.3906C285.573 80.3906 285.693 80.4036 285.828 80.4297C285.964 80.4505 286.057 80.474 286.109 80.5ZM290.797 89.1562C290.208 89.1562 289.674 89.0573 289.195 88.8594C288.721 88.6562 288.312 88.3724 287.969 88.0078C287.63 87.6432 287.37 87.2109 287.188 86.7109C287.005 86.2109 286.914 85.6641 286.914 85.0703V84.7422C286.914 84.0547 287.016 83.4427 287.219 82.9062C287.422 82.3646 287.698 81.9062 288.047 81.5312C288.396 81.1562 288.792 80.8724 289.234 80.6797C289.677 80.487 290.135 80.3906 290.609 80.3906C291.214 80.3906 291.734 80.4948 292.172 80.7031C292.615 80.9115 292.977 81.2031 293.258 81.5781C293.539 81.9479 293.747 82.3854 293.883 82.8906C294.018 83.3906 294.086 83.9375 294.086 84.5312V85.1797H287.773V84H292.641V83.8906C292.62 83.5156 292.542 83.151 292.406 82.7969C292.276 82.4427 292.068 82.151 291.781 81.9219C291.495 81.6927 291.104 81.5781 290.609 81.5781C290.281 81.5781 289.979 81.6484 289.703 81.7891C289.427 81.9245 289.19 82.1276 288.992 82.3984C288.794 82.6693 288.641 83 288.531 83.3906C288.422 83.7812 288.367 84.2318 288.367 84.7422V85.0703C288.367 85.4714 288.422 85.849 288.531 86.2031C288.646 86.5521 288.81 86.8594 289.023 87.125C289.242 87.3906 289.505 87.599 289.812 87.75C290.125 87.901 290.479 87.9766 290.875 87.9766C291.385 87.9766 291.818 87.8724 292.172 87.6641C292.526 87.4557 292.836 87.1771 293.102 86.8281L293.977 87.5234C293.794 87.7995 293.562 88.0625 293.281 88.3125C293 88.5625 292.654 88.7656 292.242 88.9219C291.836 89.0781 291.354 89.1562 290.797 89.1562Z" fill="#005AA3"/>
<rect x="188.5" y="64.5" width="132" height="39" rx="19.5" stroke="#8F91A8"/>
<path d="M235.354 116.354C235.549 116.158 235.549 115.842 235.354 115.646L232.172 112.464C231.976 112.269 231.66 112.269 231.464 112.464C231.269 112.66 231.269 112.976 231.464 113.172L234.293 116L231.464 118.828C231.269 119.024 231.269 119.34 231.464 119.536C231.66 119.731 231.976 119.731 232.172 119.536L235.354 116.354ZM153.976 116.5C154.252 116.5 154.476 116.276 154.476 116C154.476 115.724 154.252 115.5 153.976 115.5L153.976 116.5ZM155.929 115.5C155.652 115.5 155.429 115.724 155.429 116C155.429 116.276 155.652 116.5 155.929 116.5L155.929 115.5ZM157.881 116.5C158.157 116.5 158.381 116.276 158.381 116C158.381 115.724 158.157 115.5 157.881 115.5L157.881 116.5ZM159.833 115.5C159.557 115.5 159.333 115.724 159.333 116C159.333 116.276 159.557 116.5 159.833 116.5L159.833 115.5ZM161.786 116.5C162.062 116.5 162.286 116.276 162.286 116C162.286 115.724 162.062 115.5 161.786 115.5L161.786 116.5ZM163.738 115.5C163.462 115.5 163.238 115.724 163.238 116C163.238 116.276 163.462 116.5 163.738 116.5L163.738 115.5ZM165.69 116.5C165.967 116.5 166.19 116.276 166.19 116C166.19 115.724 165.967 115.5 165.69 115.5L165.69 116.5ZM167.643 115.5C167.367 115.5 167.143 115.724 167.143 116C167.143 116.276 167.367 116.5 167.643 116.5L167.643 115.5ZM169.595 116.5C169.871 116.5 170.095 116.276 170.095 116C170.095 115.724 169.871 115.5 169.595 115.5L169.595 116.5ZM171.548 115.5C171.271 115.5 171.048 115.724 171.048 116C171.048 116.276 171.271 116.5 171.548 116.5L171.548 115.5ZM173.5 116.5C173.776 116.5 174 116.276 174 116C174 115.724 173.776 115.5 173.5 115.5L173.5 116.5ZM175.452 115.5C175.176 115.5 174.952 115.724 174.952 116C174.952 116.276 175.176 116.5 175.452 116.5L175.452 115.5ZM177.405 116.5C177.681 116.5 177.905 116.276 177.905 116C177.905 115.724 177.681 115.5 177.405 115.5L177.405 116.5ZM179.357 115.5C179.081 115.5 178.857 115.724 178.857 116C178.857 116.276 179.081 116.5 179.357 116.5L179.357 115.5ZM181.31 116.5C181.586 116.5 181.81 116.276 181.81 116C181.81 115.724 181.586 115.5 181.31 115.5L181.31 116.5ZM183.262 115.5C182.986 115.5 182.762 115.724 182.762 116C182.762 116.276 182.986 116.5 183.262 116.5L183.262 115.5ZM185.214 116.5C185.49 116.5 185.714 116.276 185.714 116C185.714 115.724 185.49 115.5 185.214 115.5L185.214 116.5ZM187.167 115.5C186.891 115.5 186.667 115.724 186.667 116C186.667 116.276 186.891 116.5 187.167 116.5L187.167 115.5ZM189.119 116.5C189.395 116.5 189.619 116.276 189.619 116C189.619 115.724 189.395 115.5 189.119 115.5L189.119 116.5ZM191.071 115.5C190.795 115.5 190.571 115.724 190.571 116C190.571 116.276 190.795 116.5 191.071 116.5L191.071 115.5ZM193.024 116.5C193.3 116.5 193.524 116.276 193.524 116C193.524 115.724 193.3 115.5 193.024 115.5L193.024 116.5ZM194.976 115.5C194.7 115.5 194.476 115.724 194.476 116C194.476 116.276 194.7 116.5 194.976 116.5L194.976 115.5ZM196.929 116.5C197.205 116.5 197.429 116.276 197.429 116C197.429 115.724 197.205 115.5 196.929 115.5L196.929 116.5ZM198.881 115.5C198.605 115.5 198.381 115.724 198.381 116C198.381 116.276 198.605 116.5 198.881 116.5L198.881 115.5ZM200.833 116.5C201.109 116.5 201.333 116.276 201.333 116C201.333 115.724 201.109 115.5 200.833 115.5L200.833 116.5ZM202.786 115.5C202.51 115.5 202.286 115.724 202.286 116C202.286 116.276 202.51 116.5 202.786 116.5L202.786 115.5ZM204.738 116.5C205.014 116.5 205.238 116.276 205.238 116C205.238 115.724 205.014 115.5 204.738 115.5L204.738 116.5ZM206.69 115.5C206.414 115.5 206.19 115.724 206.19 116C206.19 116.276 206.414 116.5 206.69 116.5L206.69 115.5ZM208.643 116.5C208.919 116.5 209.143 116.276 209.143 116C209.143 115.724 208.919 115.5 208.643 115.5L208.643 116.5ZM210.595 115.5C210.319 115.5 210.095 115.724 210.095 116C210.095 116.276 210.319 116.5 210.595 116.5L210.595 115.5ZM212.548 116.5C212.824 116.5 213.048 116.276 213.048 116C213.048 115.724 212.824 115.5 212.548 115.5L212.548 116.5ZM214.5 115.5C214.224 115.5 214 115.724 214 116C214 116.276 214.224 116.5 214.5 116.5L214.5 115.5ZM216.452 116.5C216.729 116.5 216.952 116.276 216.952 116C216.952 115.724 216.729 115.5 216.452 115.5L216.452 116.5ZM218.405 115.5C218.129 115.5 217.905 115.724 217.905 116C217.905 116.276 218.129 116.5 218.405 116.5L218.405 115.5ZM220.357 116.5C220.633 116.5 220.857 116.276 220.857 116C220.857 115.724 220.633 115.5 220.357 115.5L220.357 116.5ZM222.31 115.5C222.033 115.5 221.81 115.724 221.81 116C221.81 116.276 222.033 116.5 222.31 116.5L222.31 115.5ZM224.262 116.5C224.538 116.5 224.762 116.276 224.762 116C224.762 115.724 224.538 115.5 224.262 115.5L224.262 116.5ZM226.214 115.5C225.938 115.5 225.714 115.724 225.714 116C225.714 116.276 225.938 116.5 226.214 116.5L226.214 115.5ZM228.167 116.5C228.443 116.5 228.667 116.276 228.667 116C228.667 115.724 228.443 115.5 228.167 115.5L228.167 116.5ZM230.119 115.5C229.843 115.5 229.619 115.724 229.619 116C229.619 116.276 229.843 116.5 230.119 116.5L230.119 115.5ZM232.071 116.5C232.348 116.5 232.571 116.276 232.571 116C232.571 115.724 232.348 115.5 232.071 115.5L232.071 116.5ZM234.024 115.5C233.748 115.5 233.524 115.724 233.524 116C233.524 116.276 233.748 116.5 234.024 116.5L234.024 115.5ZM153 116.5L153.976 116.5L153.976 115.5L153 115.5L153 116.5ZM155.929 116.5L157.881 116.5L157.881 115.5L155.929 115.5L155.929 116.5ZM159.833 116.5L161.786 116.5L161.786 115.5L159.833 115.5L159.833 116.5ZM163.738 116.5L165.69 116.5L165.69 115.5L163.738 115.5L163.738 116.5ZM167.643 116.5L169.595 116.5L169.595 115.5L167.643 115.5L167.643 116.5ZM171.548 116.5L173.5 116.5L173.5 115.5L171.548 115.5L171.548 116.5ZM175.452 116.5L177.405 116.5L177.405 115.5L175.452 115.5L175.452 116.5ZM179.357 116.5L181.31 116.5L181.31 115.5L179.357 115.5L179.357 116.5ZM183.262 116.5L185.214 116.5L185.214 115.5L183.262 115.5L183.262 116.5ZM187.167 116.5L189.119 116.5L189.119 115.5L187.167 115.5L187.167 116.5ZM191.071 116.5L193.024 116.5L193.024 115.5L191.071 115.5L191.071 116.5ZM194.976 116.5L196.929 116.5L196.929 115.5L194.976 115.5L194.976 116.5ZM198.881 116.5L200.833 116.5L200.833 115.5L198.881 115.5L198.881 116.5ZM202.786 116.5L204.738 116.5L204.738 115.5L202.786 115.5L202.786 116.5ZM206.69 116.5L208.643 116.5L208.643 115.5L206.69 115.5L206.69 116.5ZM210.595 116.5L212.548 116.5L212.548 115.5L210.595 115.5L210.595 116.5ZM214.5 116.5L216.452 116.5L216.452 115.5L214.5 115.5L214.5 116.5ZM218.405 116.5L220.357 116.5L220.357 115.5L218.405 115.5L218.405 116.5ZM222.31 116.5L224.262 116.5L224.262 115.5L222.31 115.5L222.31 116.5ZM226.214 116.5L228.167 116.5L228.167 115.5L226.214 115.5L226.214 116.5ZM230.119 116.5L232.071 116.5L232.071 115.5L230.119 115.5L230.119 116.5ZM234.024 116.5L235 116.5L235 115.5L234.024 115.5L234.024 116.5Z" fill="#7B61FF"/>
<path d="M272.646 115.646C272.451 115.842 272.451 116.158 272.646 116.354L275.828 119.536C276.024 119.731 276.34 119.731 276.536 119.536C276.731 119.34 276.731 119.024 276.536 118.828L273.707 116L276.536 113.172C276.731 112.976 276.731 112.66 276.536 112.464C276.34 112.269 276.024 112.269 275.828 112.464L272.646 115.646ZM354.024 115.5C353.748 115.5 353.524 115.724 353.524 116C353.524 116.276 353.748 116.5 354.024 116.5V115.5ZM352.071 116.5C352.348 116.5 352.571 116.276 352.571 116C352.571 115.724 352.348 115.5 352.071 115.5V116.5ZM350.119 115.5C349.843 115.5 349.619 115.724 349.619 116C349.619 116.276 349.843 116.5 350.119 116.5V115.5ZM348.167 116.5C348.443 116.5 348.667 116.276 348.667 116C348.667 115.724 348.443 115.5 348.167 115.5V116.5ZM346.214 115.5C345.938 115.5 345.714 115.724 345.714 116C345.714 116.276 345.938 116.5 346.214 116.5V115.5ZM344.262 116.5C344.538 116.5 344.762 116.276 344.762 116C344.762 115.724 344.538 115.5 344.262 115.5V116.5ZM342.31 115.5C342.033 115.5 341.81 115.724 341.81 116C341.81 116.276 342.033 116.5 342.31 116.5V115.5ZM340.357 116.5C340.633 116.5 340.857 116.276 340.857 116C340.857 115.724 340.633 115.5 340.357 115.5V116.5ZM338.405 115.5C338.129 115.5 337.905 115.724 337.905 116C337.905 116.276 338.129 116.5 338.405 116.5V115.5ZM336.452 116.5C336.729 116.5 336.952 116.276 336.952 116C336.952 115.724 336.729 115.5 336.452 115.5V116.5ZM334.5 115.5C334.224 115.5 334 115.724 334 116C334 116.276 334.224 116.5 334.5 116.5V115.5ZM332.548 116.5C332.824 116.5 333.048 116.276 333.048 116C333.048 115.724 332.824 115.5 332.548 115.5V116.5ZM330.595 115.5C330.319 115.5 330.095 115.724 330.095 116C330.095 116.276 330.319 116.5 330.595 116.5V115.5ZM328.643 116.5C328.919 116.5 329.143 116.276 329.143 116C329.143 115.724 328.919 115.5 328.643 115.5V116.5ZM326.69 115.5C326.414 115.5 326.19 115.724 326.19 116C326.19 116.276 326.414 116.5 326.69 116.5V115.5ZM324.738 116.5C325.014 116.5 325.238 116.276 325.238 116C325.238 115.724 325.014 115.5 324.738 115.5V116.5ZM322.786 115.5C322.51 115.5 322.286 115.724 322.286 116C322.286 116.276 322.51 116.5 322.786 116.5V115.5ZM320.833 116.5C321.109 116.5 321.333 116.276 321.333 116C321.333 115.724 321.109 115.5 320.833 115.5V116.5ZM318.881 115.5C318.605 115.5 318.381 115.724 318.381 116C318.381 116.276 318.605 116.5 318.881 116.5V115.5ZM316.929 116.5C317.205 116.5 317.429 116.276 317.429 116C317.429 115.724 317.205 115.5 316.929 115.5V116.5ZM314.976 115.5C314.7 115.5 314.476 115.724 314.476 116C314.476 116.276 314.7 116.5 314.976 116.5V115.5ZM313.024 116.5C313.3 116.5 313.524 116.276 313.524 116C313.524 115.724 313.3 115.5 313.024 115.5V116.5ZM311.071 115.5C310.795 115.5 310.571 115.724 310.571 116C310.571 116.276 310.795 116.5 311.071 116.5V115.5ZM309.119 116.5C309.395 116.5 309.619 116.276 309.619 116C309.619 115.724 309.395 115.5 309.119 115.5V116.5ZM307.167 115.5C306.891 115.5 306.667 115.724 306.667 116C306.667 116.276 306.891 116.5 307.167 116.5V115.5ZM305.214 116.5C305.49 116.5 305.714 116.276 305.714 116C305.714 115.724 305.49 115.5 305.214 115.5V116.5ZM303.262 115.5C302.986 115.5 302.762 115.724 302.762 116C302.762 116.276 302.986 116.5 303.262 116.5V115.5ZM301.31 116.5C301.586 116.5 301.81 116.276 301.81 116C301.81 115.724 301.586 115.5 301.31 115.5V116.5ZM299.357 115.5C299.081 115.5 298.857 115.724 298.857 116C298.857 116.276 299.081 116.5 299.357 116.5V115.5ZM297.405 116.5C297.681 116.5 297.905 116.276 297.905 116C297.905 115.724 297.681 115.5 297.405 115.5V116.5ZM295.452 115.5C295.176 115.5 294.952 115.724 294.952 116C294.952 116.276 295.176 116.5 295.452 116.5V115.5ZM293.5 116.5C293.776 116.5 294 116.276 294 116C294 115.724 293.776 115.5 293.5 115.5V116.5ZM291.548 115.5C291.271 115.5 291.048 115.724 291.048 116C291.048 116.276 291.271 116.5 291.548 116.5V115.5ZM289.595 116.5C289.871 116.5 290.095 116.276 290.095 116C290.095 115.724 289.871 115.5 289.595 115.5V116.5ZM287.643 115.5C287.367 115.5 287.143 115.724 287.143 116C287.143 116.276 287.367 116.5 287.643 116.5V115.5ZM285.69 116.5C285.967 116.5 286.19 116.276 286.19 116C286.19 115.724 285.967 115.5 285.69 115.5V116.5ZM283.738 115.5C283.462 115.5 283.238 115.724 283.238 116C283.238 116.276 283.462 116.5 283.738 116.5V115.5ZM281.786 116.5C282.062 116.5 282.286 116.276 282.286 116C282.286 115.724 282.062 115.5 281.786 115.5V116.5ZM279.833 115.5C279.557 115.5 279.333 115.724 279.333 116C279.333 116.276 279.557 116.5 279.833 116.5V115.5ZM277.881 116.5C278.157 116.5 278.381 116.276 278.381 116C278.381 115.724 278.157 115.5 277.881 115.5V116.5ZM275.929 115.5C275.652 115.5 275.429 115.724 275.429 116C275.429 116.276 275.652 116.5 275.929 116.5V115.5ZM273.976 116.5C274.252 116.5 274.476 116.276 274.476 116C274.476 115.724 274.252 115.5 273.976 115.5V116.5ZM355 115.5H354.024V116.5H355V115.5ZM352.071 115.5H350.119V116.5H352.071V115.5ZM348.167 115.5H346.214V116.5H348.167V115.5ZM344.262 115.5H342.31V116.5H344.262V115.5ZM340.357 115.5H338.405V116.5H340.357V115.5ZM336.452 115.5H334.5V116.5H336.452V115.5ZM332.548 115.5H330.595V116.5H332.548V115.5ZM328.643 115.5H326.69V116.5H328.643V115.5ZM324.738 115.5H322.786V116.5H324.738V115.5ZM320.833 115.5H318.881V116.5H320.833V115.5ZM316.929 115.5H314.976V116.5H316.929V115.5ZM313.024 115.5H311.071V116.5H313.024V115.5ZM309.119 115.5H307.167V116.5H309.119V115.5ZM305.214 115.5H303.262V116.5H305.214V115.5ZM301.31 115.5H299.357V116.5H301.31V115.5ZM297.405 115.5L295.452 115.5V116.5L297.405 116.5V115.5ZM293.5 115.5H291.548V116.5H293.5V115.5ZM289.595 115.5H287.643V116.5H289.595V115.5ZM285.69 115.5H283.738V116.5H285.69V115.5ZM281.786 115.5H279.833V116.5H281.786V115.5ZM277.881 115.5H275.929V116.5H277.881V115.5ZM273.976 115.5H273V116.5H273.976V115.5Z" fill="#7B61FF"/>
<line opacity="0.5" x1="254.5" y1="110.5" x2="254.5" y2="121.5" stroke="#7B61FF" stroke-linecap="round" stroke-dasharray="4 4"/>
<rect x="532" y="40" width="274" height="88" fill="white"/>
<rect x="602.5" y="64.5" width="132" height="39" rx="19.5" fill="white"/>
<path d="M635.711 86.125C635.711 85.8594 635.669 85.625 635.586 85.4219C635.508 85.2135 635.367 85.026 635.164 84.8594C634.966 84.6927 634.69 84.5339 634.336 84.3828C633.987 84.2318 633.544 84.0781 633.008 83.9219C632.445 83.7552 631.938 83.5703 631.484 83.3672C631.031 83.1589 630.643 82.9219 630.32 82.6562C629.997 82.3906 629.75 82.0859 629.578 81.7422C629.406 81.3984 629.32 81.0052 629.32 80.5625C629.32 80.1198 629.411 79.7109 629.594 79.3359C629.776 78.9609 630.036 78.6354 630.375 78.3594C630.719 78.0781 631.128 77.8594 631.602 77.7031C632.076 77.5469 632.604 77.4688 633.188 77.4688C634.042 77.4688 634.766 77.6328 635.359 77.9609C635.958 78.2839 636.414 78.7083 636.727 79.2344C637.039 79.7552 637.195 80.3125 637.195 80.9062H635.695C635.695 80.4792 635.604 80.1016 635.422 79.7734C635.24 79.4401 634.964 79.1797 634.594 78.9922C634.224 78.7995 633.755 78.7031 633.188 78.7031C632.651 78.7031 632.208 78.7839 631.859 78.9453C631.51 79.1068 631.25 79.3255 631.078 79.6016C630.911 79.8776 630.828 80.1927 630.828 80.5469C630.828 80.7865 630.878 81.0052 630.977 81.2031C631.081 81.3958 631.24 81.5755 631.453 81.7422C631.672 81.9089 631.948 82.0625 632.281 82.2031C632.62 82.3438 633.023 82.4792 633.492 82.6094C634.138 82.7917 634.695 82.9948 635.164 83.2188C635.633 83.4427 636.018 83.6953 636.32 83.9766C636.628 84.2526 636.854 84.5677 637 84.9219C637.151 85.2708 637.227 85.6667 637.227 86.1094C637.227 86.5729 637.133 86.9922 636.945 87.3672C636.758 87.7422 636.49 88.0625 636.141 88.3281C635.792 88.5938 635.372 88.7995 634.883 88.9453C634.398 89.0859 633.857 89.1562 633.258 89.1562C632.732 89.1562 632.214 89.0833 631.703 88.9375C631.198 88.7917 630.737 88.5729 630.32 88.2812C629.909 87.9896 629.578 87.6302 629.328 87.2031C629.083 86.7708 628.961 86.2708 628.961 85.7031H630.461C630.461 86.0938 630.536 86.4297 630.688 86.7109C630.839 86.987 631.044 87.2161 631.305 87.3984C631.57 87.5807 631.87 87.7161 632.203 87.8047C632.542 87.888 632.893 87.9297 633.258 87.9297C633.784 87.9297 634.229 87.8568 634.594 87.7109C634.958 87.5651 635.234 87.3568 635.422 87.0859C635.615 86.8151 635.711 86.4948 635.711 86.125ZM640.375 77V89H638.93V77H640.375ZM640.031 84.4531L639.43 84.4297C639.435 83.8516 639.521 83.3177 639.688 82.8281C639.854 82.3333 640.089 81.9036 640.391 81.5391C640.693 81.1745 641.052 80.8932 641.469 80.6953C641.891 80.4922 642.357 80.3906 642.867 80.3906C643.284 80.3906 643.659 80.4479 643.992 80.5625C644.326 80.6719 644.609 80.849 644.844 81.0938C645.083 81.3385 645.266 81.6562 645.391 82.0469C645.516 82.4323 645.578 82.9036 645.578 83.4609V89H644.125V83.4453C644.125 83.0026 644.06 82.6484 643.93 82.3828C643.799 82.112 643.609 81.9167 643.359 81.7969C643.109 81.6719 642.802 81.6094 642.438 81.6094C642.078 81.6094 641.75 81.6849 641.453 81.8359C641.161 81.987 640.909 82.1953 640.695 82.4609C640.487 82.7266 640.323 83.0312 640.203 83.375C640.089 83.7135 640.031 84.0729 640.031 84.4531ZM647.359 84.8672V84.6875C647.359 84.0781 647.448 83.513 647.625 82.9922C647.802 82.4661 648.057 82.0104 648.391 81.625C648.724 81.2344 649.128 80.9323 649.602 80.7188C650.076 80.5 650.607 80.3906 651.195 80.3906C651.789 80.3906 652.323 80.5 652.797 80.7188C653.276 80.9323 653.682 81.2344 654.016 81.625C654.354 82.0104 654.612 82.4661 654.789 82.9922C654.966 83.513 655.055 84.0781 655.055 84.6875V84.8672C655.055 85.4766 654.966 86.0417 654.789 86.5625C654.612 87.0833 654.354 87.5391 654.016 87.9297C653.682 88.3151 653.279 88.6172 652.805 88.8359C652.336 89.0495 651.805 89.1562 651.211 89.1562C650.617 89.1562 650.083 89.0495 649.609 88.8359C649.135 88.6172 648.729 88.3151 648.391 87.9297C648.057 87.5391 647.802 87.0833 647.625 86.5625C647.448 86.0417 647.359 85.4766 647.359 84.8672ZM648.805 84.6875V84.8672C648.805 85.2891 648.854 85.6875 648.953 86.0625C649.052 86.4323 649.201 86.7604 649.398 87.0469C649.602 87.3333 649.854 87.5599 650.156 87.7266C650.458 87.888 650.81 87.9688 651.211 87.9688C651.607 87.9688 651.953 87.888 652.25 87.7266C652.552 87.5599 652.802 87.3333 653 87.0469C653.198 86.7604 653.346 86.4323 653.445 86.0625C653.549 85.6875 653.602 85.2891 653.602 84.8672V84.6875C653.602 84.2708 653.549 83.8776 653.445 83.5078C653.346 83.1328 653.195 82.8021 652.992 82.5156C652.794 82.224 652.544 81.9948 652.242 81.8281C651.945 81.6615 651.596 81.5781 651.195 81.5781C650.799 81.5781 650.451 81.6615 650.148 81.8281C649.852 81.9948 649.602 82.224 649.398 82.5156C649.201 82.8021 649.052 83.1328 648.953 83.5078C648.854 83.8776 648.805 84.2708 648.805 84.6875ZM659.008 87.5L661.18 80.5469H662.133L661.945 81.9297L659.734 89H658.805L659.008 87.5ZM657.547 80.5469L659.398 87.5781L659.531 89H658.555L656.102 80.5469H657.547ZM664.211 87.5234L665.977 80.5469H667.414L664.961 89H663.992L664.211 87.5234ZM662.344 80.5469L664.469 87.3828L664.711 89H663.789L661.516 81.9141L661.328 80.5469H662.344ZM674.305 82.2266V89H672.852V80.5469H674.227L674.305 82.2266ZM674.008 84.4531L673.336 84.4297C673.341 83.8516 673.417 83.3177 673.562 82.8281C673.708 82.3333 673.924 81.9036 674.211 81.5391C674.497 81.1745 674.854 80.8932 675.281 80.6953C675.708 80.4922 676.203 80.3906 676.766 80.3906C677.161 80.3906 677.526 80.4479 677.859 80.5625C678.193 80.6719 678.482 80.8464 678.727 81.0859C678.971 81.3255 679.161 81.6328 679.297 82.0078C679.432 82.3828 679.5 82.8359 679.5 83.3672V89H678.055V83.4375C678.055 82.9948 677.979 82.6406 677.828 82.375C677.682 82.1094 677.474 81.9167 677.203 81.7969C676.932 81.6719 676.615 81.6094 676.25 81.6094C675.823 81.6094 675.466 81.6849 675.18 81.8359C674.893 81.987 674.664 82.1953 674.492 82.4609C674.32 82.7266 674.195 83.0312 674.117 83.375C674.044 83.7135 674.008 84.0729 674.008 84.4531ZM679.484 83.6562L678.516 83.9531C678.521 83.4896 678.596 83.0443 678.742 82.6172C678.893 82.1901 679.109 81.8099 679.391 81.4766C679.677 81.1432 680.029 80.8802 680.445 80.6875C680.862 80.4896 681.339 80.3906 681.875 80.3906C682.328 80.3906 682.729 80.4505 683.078 80.5703C683.432 80.6901 683.729 80.875 683.969 81.125C684.214 81.3698 684.398 81.6849 684.523 82.0703C684.648 82.4557 684.711 82.9141 684.711 83.4453V89H683.258V83.4297C683.258 82.9557 683.182 82.5885 683.031 82.3281C682.885 82.0625 682.677 81.8776 682.406 81.7734C682.141 81.6641 681.823 81.6094 681.453 81.6094C681.135 81.6094 680.854 81.6641 680.609 81.7734C680.365 81.8828 680.159 82.0339 679.992 82.2266C679.826 82.4141 679.698 82.6302 679.609 82.875C679.526 83.1198 679.484 83.3802 679.484 83.6562ZM686.516 84.8672V84.6875C686.516 84.0781 686.604 83.513 686.781 82.9922C686.958 82.4661 687.214 82.0104 687.547 81.625C687.88 81.2344 688.284 80.9323 688.758 80.7188C689.232 80.5 689.763 80.3906 690.352 80.3906C690.945 80.3906 691.479 80.5 691.953 80.7188C692.432 80.9323 692.839 81.2344 693.172 81.625C693.51 82.0104 693.768 82.4661 693.945 82.9922C694.122 83.513 694.211 84.0781 694.211 84.6875V84.8672C694.211 85.4766 694.122 86.0417 693.945 86.5625C693.768 87.0833 693.51 87.5391 693.172 87.9297C692.839 88.3151 692.435 88.6172 691.961 88.8359C691.492 89.0495 690.961 89.1562 690.367 89.1562C689.773 89.1562 689.24 89.0495 688.766 88.8359C688.292 88.6172 687.885 88.3151 687.547 87.9297C687.214 87.5391 686.958 87.0833 686.781 86.5625C686.604 86.0417 686.516 85.4766 686.516 84.8672ZM687.961 84.6875V84.8672C687.961 85.2891 688.01 85.6875 688.109 86.0625C688.208 86.4323 688.357 86.7604 688.555 87.0469C688.758 87.3333 689.01 87.5599 689.312 87.7266C689.615 87.888 689.966 87.9688 690.367 87.9688C690.763 87.9688 691.109 87.888 691.406 87.7266C691.708 87.5599 691.958 87.3333 692.156 87.0469C692.354 86.7604 692.503 86.4323 692.602 86.0625C692.706 85.6875 692.758 85.2891 692.758 84.8672V84.6875C692.758 84.2708 692.706 83.8776 692.602 83.5078C692.503 83.1328 692.352 82.8021 692.148 82.5156C691.951 82.224 691.701 81.9948 691.398 81.8281C691.102 81.6615 690.753 81.5781 690.352 81.5781C689.956 81.5781 689.607 81.6615 689.305 81.8281C689.008 81.9948 688.758 82.224 688.555 82.5156C688.357 82.8021 688.208 83.1328 688.109 83.5078C688.01 83.8776 687.961 84.2708 687.961 84.6875ZM697.469 81.875V89H696.023V80.5469H697.43L697.469 81.875ZM700.109 80.5L700.102 81.8438C699.982 81.8177 699.867 81.8021 699.758 81.7969C699.654 81.7865 699.534 81.7812 699.398 81.7812C699.065 81.7812 698.771 81.8333 698.516 81.9375C698.26 82.0417 698.044 82.1875 697.867 82.375C697.69 82.5625 697.549 82.7865 697.445 83.0469C697.346 83.3021 697.281 83.5833 697.25 83.8906L696.844 84.125C696.844 83.6146 696.893 83.1354 696.992 82.6875C697.096 82.2396 697.255 81.8438 697.469 81.5C697.682 81.151 697.953 80.8802 698.281 80.6875C698.615 80.4896 699.01 80.3906 699.469 80.3906C699.573 80.3906 699.693 80.4036 699.828 80.4297C699.964 80.4505 700.057 80.474 700.109 80.5ZM704.797 89.1562C704.208 89.1562 703.674 89.0573 703.195 88.8594C702.721 88.6562 702.312 88.3724 701.969 88.0078C701.63 87.6432 701.37 87.2109 701.188 86.7109C701.005 86.2109 700.914 85.6641 700.914 85.0703V84.7422C700.914 84.0547 701.016 83.4427 701.219 82.9062C701.422 82.3646 701.698 81.9062 702.047 81.5312C702.396 81.1562 702.792 80.8724 703.234 80.6797C703.677 80.487 704.135 80.3906 704.609 80.3906C705.214 80.3906 705.734 80.4948 706.172 80.7031C706.615 80.9115 706.977 81.2031 707.258 81.5781C707.539 81.9479 707.747 82.3854 707.883 82.8906C708.018 83.3906 708.086 83.9375 708.086 84.5312V85.1797H701.773V84H706.641V83.8906C706.62 83.5156 706.542 83.151 706.406 82.7969C706.276 82.4427 706.068 82.151 705.781 81.9219C705.495 81.6927 705.104 81.5781 704.609 81.5781C704.281 81.5781 703.979 81.6484 703.703 81.7891C703.427 81.9245 703.19 82.1276 702.992 82.3984C702.794 82.6693 702.641 83 702.531 83.3906C702.422 83.7812 702.367 84.2318 702.367 84.7422V85.0703C702.367 85.4714 702.422 85.849 702.531 86.2031C702.646 86.5521 702.81 86.8594 703.023 87.125C703.242 87.3906 703.505 87.599 703.812 87.75C704.125 87.901 704.479 87.9766 704.875 87.9766C705.385 87.9766 705.818 87.8724 706.172 87.6641C706.526 87.4557 706.836 87.1771 707.102 86.8281L707.977 87.5234C707.794 87.7995 707.562 88.0625 707.281 88.3125C707 88.5625 706.654 88.7656 706.242 88.9219C705.836 89.0781 705.354 89.1562 704.797 89.1562Z" fill="#005AA3"/>
<rect x="602.5" y="64.5" width="132" height="39" rx="19.5" stroke="#8F91A8"/>
<path d="M650.354 116.354C650.549 116.158 650.549 115.842 650.354 115.646L647.172 112.464C646.976 112.269 646.66 112.269 646.464 112.464C646.269 112.66 646.269 112.976 646.464 113.172L649.293 116L646.464 118.828C646.269 119.024 646.269 119.34 646.464 119.536C646.66 119.731 646.976 119.731 647.172 119.536L650.354 116.354ZM568.976 116.5C569.252 116.5 569.476 116.276 569.476 116C569.476 115.724 569.252 115.5 568.976 115.5L568.976 116.5ZM570.929 115.5C570.652 115.5 570.429 115.724 570.429 116C570.429 116.276 570.652 116.5 570.929 116.5L570.929 115.5ZM572.881 116.5C573.157 116.5 573.381 116.276 573.381 116C573.381 115.724 573.157 115.5 572.881 115.5L572.881 116.5ZM574.833 115.5C574.557 115.5 574.333 115.724 574.333 116C574.333 116.276 574.557 116.5 574.833 116.5L574.833 115.5ZM576.786 116.5C577.062 116.5 577.286 116.276 577.286 116C577.286 115.724 577.062 115.5 576.786 115.5L576.786 116.5ZM578.738 115.5C578.462 115.5 578.238 115.724 578.238 116C578.238 116.276 578.462 116.5 578.738 116.5L578.738 115.5ZM580.69 116.5C580.967 116.5 581.19 116.276 581.19 116C581.19 115.724 580.967 115.5 580.69 115.5L580.69 116.5ZM582.643 115.5C582.367 115.5 582.143 115.724 582.143 116C582.143 116.276 582.367 116.5 582.643 116.5L582.643 115.5ZM584.595 116.5C584.871 116.5 585.095 116.276 585.095 116C585.095 115.724 584.871 115.5 584.595 115.5L584.595 116.5ZM586.548 115.5C586.271 115.5 586.048 115.724 586.048 116C586.048 116.276 586.271 116.5 586.548 116.5L586.548 115.5ZM588.5 116.5C588.776 116.5 589 116.276 589 116C589 115.724 588.776 115.5 588.5 115.5L588.5 116.5ZM590.452 115.5C590.176 115.5 589.952 115.724 589.952 116C589.952 116.276 590.176 116.5 590.452 116.5L590.452 115.5ZM592.405 116.5C592.681 116.5 592.905 116.276 592.905 116C592.905 115.724 592.681 115.5 592.405 115.5L592.405 116.5ZM594.357 115.5C594.081 115.5 593.857 115.724 593.857 116C593.857 116.276 594.081 116.5 594.357 116.5L594.357 115.5ZM596.31 116.5C596.586 116.5 596.81 116.276 596.81 116C596.81 115.724 596.586 115.5 596.31 115.5L596.31 116.5ZM598.262 115.5C597.986 115.5 597.762 115.724 597.762 116C597.762 116.276 597.986 116.5 598.262 116.5L598.262 115.5ZM600.214 116.5C600.49 116.5 600.714 116.276 600.714 116C600.714 115.724 600.49 115.5 600.214 115.5L600.214 116.5ZM602.167 115.5C601.891 115.5 601.667 115.724 601.667 116C601.667 116.276 601.891 116.5 602.167 116.5L602.167 115.5ZM604.119 116.5C604.395 116.5 604.619 116.276 604.619 116C604.619 115.724 604.395 115.5 604.119 115.5L604.119 116.5ZM606.071 115.5C605.795 115.5 605.571 115.724 605.571 116C605.571 116.276 605.795 116.5 606.071 116.5L606.071 115.5ZM608.024 116.5C608.3 116.5 608.524 116.276 608.524 116C608.524 115.724 608.3 115.5 608.024 115.5L608.024 116.5ZM609.976 115.5C609.7 115.5 609.476 115.724 609.476 116C609.476 116.276 609.7 116.5 609.976 116.5L609.976 115.5ZM611.929 116.5C612.205 116.5 612.429 116.276 612.429 116C612.429 115.724 612.205 115.5 611.929 115.5L611.929 116.5ZM613.881 115.5C613.605 115.5 613.381 115.724 613.381 116C613.381 116.276 613.605 116.5 613.881 116.5L613.881 115.5ZM615.833 116.5C616.109 116.5 616.333 116.276 616.333 116C616.333 115.724 616.109 115.5 615.833 115.5L615.833 116.5ZM617.786 115.5C617.51 115.5 617.286 115.724 617.286 116C617.286 116.276 617.51 116.5 617.786 116.5L617.786 115.5ZM619.738 116.5C620.014 116.5 620.238 116.276 620.238 116C620.238 115.724 620.014 115.5 619.738 115.5L619.738 116.5ZM621.69 115.5C621.414 115.5 621.19 115.724 621.19 116C621.19 116.276 621.414 116.5 621.69 116.5L621.69 115.5ZM623.643 116.5C623.919 116.5 624.143 116.276 624.143 116C624.143 115.724 623.919 115.5 623.643 115.5L623.643 116.5ZM625.595 115.5C625.319 115.5 625.095 115.724 625.095 116C625.095 116.276 625.319 116.5 625.595 116.5L625.595 115.5ZM627.548 116.5C627.824 116.5 628.048 116.276 628.048 116C628.048 115.724 627.824 115.5 627.548 115.5L627.548 116.5ZM629.5 115.5C629.224 115.5 629 115.724 629 116C629 116.276 629.224 116.5 629.5 116.5L629.5 115.5ZM631.452 116.5C631.729 116.5 631.952 116.276 631.952 116C631.952 115.724 631.729 115.5 631.452 115.5L631.452 116.5ZM633.405 115.5C633.129 115.5 632.905 115.724 632.905 116C632.905 116.276 633.129 116.5 633.405 116.5L633.405 115.5ZM635.357 116.5C635.633 116.5 635.857 116.276 635.857 116C635.857 115.724 635.633 115.5 635.357 115.5L635.357 116.5ZM637.31 115.5C637.033 115.5 636.81 115.724 636.81 116C636.81 116.276 637.033 116.5 637.31 116.5L637.31 115.5ZM639.262 116.5C639.538 116.5 639.762 116.276 639.762 116C639.762 115.724 639.538 115.5 639.262 115.5L639.262 116.5ZM641.214 115.5C640.938 115.5 640.714 115.724 640.714 116C640.714 116.276 640.938 116.5 641.214 116.5L641.214 115.5ZM643.167 116.5C643.443 116.5 643.667 116.276 643.667 116C643.667 115.724 643.443 115.5 643.167 115.5L643.167 116.5ZM645.119 115.5C644.843 115.5 644.619 115.724 644.619 116C644.619 116.276 644.843 116.5 645.119 116.5L645.119 115.5ZM647.071 116.5C647.348 116.5 647.571 116.276 647.571 116C647.571 115.724 647.348 115.5 647.071 115.5L647.071 116.5ZM649.024 115.5C648.748 115.5 648.524 115.724 648.524 116C648.524 116.276 648.748 116.5 649.024 116.5L649.024 115.5ZM568 116.5L568.976 116.5L568.976 115.5L568 115.5L568 116.5ZM570.929 116.5L572.881 116.5L572.881 115.5L570.929 115.5L570.929 116.5ZM574.833 116.5L576.786 116.5L576.786 115.5L574.833 115.5L574.833 116.5ZM578.738 116.5L580.69 116.5L580.69 115.5L578.738 115.5L578.738 116.5ZM582.643 116.5L584.595 116.5L584.595 115.5L582.643 115.5L582.643 116.5ZM586.548 116.5L588.5 116.5L588.5 115.5L586.548 115.5L586.548 116.5ZM590.452 116.5L592.405 116.5L592.405 115.5L590.452 115.5L590.452 116.5ZM594.357 116.5L596.31 116.5L596.31 115.5L594.357 115.5L594.357 116.5ZM598.262 116.5L600.214 116.5L600.214 115.5L598.262 115.5L598.262 116.5ZM602.167 116.5L604.119 116.5L604.119 115.5L602.167 115.5L602.167 116.5ZM606.071 116.5L608.024 116.5L608.024 115.5L606.071 115.5L606.071 116.5ZM609.976 116.5L611.929 116.5L611.929 115.5L609.976 115.5L609.976 116.5ZM613.881 116.5L615.833 116.5L615.833 115.5L613.881 115.5L613.881 116.5ZM617.786 116.5L619.738 116.5L619.738 115.5L617.786 115.5L617.786 116.5ZM621.69 116.5L623.643 116.5L623.643 115.5L621.69 115.5L621.69 116.5ZM625.595 116.5L627.548 116.5L627.548 115.5L625.595 115.5L625.595 116.5ZM629.5 116.5L631.452 116.5L631.452 115.5L629.5 115.5L629.5 116.5ZM633.405 116.5L635.357 116.5L635.357 115.5L633.405 115.5L633.405 116.5ZM637.31 116.5L639.262 116.5L639.262 115.5L637.31 115.5L637.31 116.5ZM641.214 116.5L643.167 116.5L643.167 115.5L641.214 115.5L641.214 116.5ZM645.119 116.5L647.071 116.5L647.071 115.5L645.119 115.5L645.119 116.5ZM649.024 116.5L650 116.5L650 115.5L649.024 115.5L649.024 116.5Z" fill="#7B61FF"/>
<path d="M687.646 115.646C687.451 115.842 687.451 116.158 687.646 116.354L690.828 119.536C691.024 119.731 691.34 119.731 691.536 119.536C691.731 119.34 691.731 119.024 691.536 118.828L688.707 116L691.536 113.172C691.731 112.976 691.731 112.66 691.536 112.464C691.34 112.269 691.024 112.269 690.828 112.464L687.646 115.646ZM769.024 115.5C768.748 115.5 768.524 115.724 768.524 116C768.524 116.276 768.748 116.5 769.024 116.5V115.5ZM767.071 116.5C767.348 116.5 767.571 116.276 767.571 116C767.571 115.724 767.348 115.5 767.071 115.5V116.5ZM765.119 115.5C764.843 115.5 764.619 115.724 764.619 116C764.619 116.276 764.843 116.5 765.119 116.5V115.5ZM763.167 116.5C763.443 116.5 763.667 116.276 763.667 116C763.667 115.724 763.443 115.5 763.167 115.5V116.5ZM761.214 115.5C760.938 115.5 760.714 115.724 760.714 116C760.714 116.276 760.938 116.5 761.214 116.5V115.5ZM759.262 116.5C759.538 116.5 759.762 116.276 759.762 116C759.762 115.724 759.538 115.5 759.262 115.5V116.5ZM757.31 115.5C757.033 115.5 756.81 115.724 756.81 116C756.81 116.276 757.033 116.5 757.31 116.5V115.5ZM755.357 116.5C755.633 116.5 755.857 116.276 755.857 116C755.857 115.724 755.633 115.5 755.357 115.5V116.5ZM753.405 115.5C753.129 115.5 752.905 115.724 752.905 116C752.905 116.276 753.129 116.5 753.405 116.5V115.5ZM751.452 116.5C751.729 116.5 751.952 116.276 751.952 116C751.952 115.724 751.729 115.5 751.452 115.5V116.5ZM749.5 115.5C749.224 115.5 749 115.724 749 116C749 116.276 749.224 116.5 749.5 116.5V115.5ZM747.548 116.5C747.824 116.5 748.048 116.276 748.048 116C748.048 115.724 747.824 115.5 747.548 115.5V116.5ZM745.595 115.5C745.319 115.5 745.095 115.724 745.095 116C745.095 116.276 745.319 116.5 745.595 116.5V115.5ZM743.643 116.5C743.919 116.5 744.143 116.276 744.143 116C744.143 115.724 743.919 115.5 743.643 115.5V116.5ZM741.69 115.5C741.414 115.5 741.19 115.724 741.19 116C741.19 116.276 741.414 116.5 741.69 116.5V115.5ZM739.738 116.5C740.014 116.5 740.238 116.276 740.238 116C740.238 115.724 740.014 115.5 739.738 115.5V116.5ZM737.786 115.5C737.51 115.5 737.286 115.724 737.286 116C737.286 116.276 737.51 116.5 737.786 116.5V115.5ZM735.833 116.5C736.109 116.5 736.333 116.276 736.333 116C736.333 115.724 736.109 115.5 735.833 115.5V116.5ZM733.881 115.5C733.605 115.5 733.381 115.724 733.381 116C733.381 116.276 733.605 116.5 733.881 116.5V115.5ZM731.929 116.5C732.205 116.5 732.429 116.276 732.429 116C732.429 115.724 732.205 115.5 731.929 115.5V116.5ZM729.976 115.5C729.7 115.5 729.476 115.724 729.476 116C729.476 116.276 729.7 116.5 729.976 116.5V115.5ZM728.024 116.5C728.3 116.5 728.524 116.276 728.524 116C728.524 115.724 728.3 115.5 728.024 115.5V116.5ZM726.071 115.5C725.795 115.5 725.571 115.724 725.571 116C725.571 116.276 725.795 116.5 726.071 116.5V115.5ZM724.119 116.5C724.395 116.5 724.619 116.276 724.619 116C724.619 115.724 724.395 115.5 724.119 115.5V116.5ZM722.167 115.5C721.891 115.5 721.667 115.724 721.667 116C721.667 116.276 721.891 116.5 722.167 116.5V115.5ZM720.214 116.5C720.49 116.5 720.714 116.276 720.714 116C720.714 115.724 720.49 115.5 720.214 115.5V116.5ZM718.262 115.5C717.986 115.5 717.762 115.724 717.762 116C717.762 116.276 717.986 116.5 718.262 116.5V115.5ZM716.31 116.5C716.586 116.5 716.81 116.276 716.81 116C716.81 115.724 716.586 115.5 716.31 115.5V116.5ZM714.357 115.5C714.081 115.5 713.857 115.724 713.857 116C713.857 116.276 714.081 116.5 714.357 116.5V115.5ZM712.405 116.5C712.681 116.5 712.905 116.276 712.905 116C712.905 115.724 712.681 115.5 712.405 115.5V116.5ZM710.452 115.5C710.176 115.5 709.952 115.724 709.952 116C709.952 116.276 710.176 116.5 710.452 116.5V115.5ZM708.5 116.5C708.776 116.5 709 116.276 709 116C709 115.724 708.776 115.5 708.5 115.5V116.5ZM706.548 115.5C706.271 115.5 706.048 115.724 706.048 116C706.048 116.276 706.271 116.5 706.548 116.5V115.5ZM704.595 116.5C704.871 116.5 705.095 116.276 705.095 116C705.095 115.724 704.871 115.5 704.595 115.5V116.5ZM702.643 115.5C702.367 115.5 702.143 115.724 702.143 116C702.143 116.276 702.367 116.5 702.643 116.5V115.5ZM700.69 116.5C700.967 116.5 701.19 116.276 701.19 116C701.19 115.724 700.967 115.5 700.69 115.5V116.5ZM698.738 115.5C698.462 115.5 698.238 115.724 698.238 116C698.238 116.276 698.462 116.5 698.738 116.5V115.5ZM696.786 116.5C697.062 116.5 697.286 116.276 697.286 116C697.286 115.724 697.062 115.5 696.786 115.5V116.5ZM694.833 115.5C694.557 115.5 694.333 115.724 694.333 116C694.333 116.276 694.557 116.5 694.833 116.5V115.5ZM692.881 116.5C693.157 116.5 693.381 116.276 693.381 116C693.381 115.724 693.157 115.5 692.881 115.5V116.5ZM690.929 115.5C690.652 115.5 690.429 115.724 690.429 116C690.429 116.276 690.652 116.5 690.929 116.5V115.5ZM688.976 116.5C689.252 116.5 689.476 116.276 689.476 116C689.476 115.724 689.252 115.5 688.976 115.5V116.5ZM770 115.5H769.024V116.5H770V115.5ZM767.071 115.5H765.119V116.5H767.071V115.5ZM763.167 115.5H761.214V116.5H763.167V115.5ZM759.262 115.5H757.31V116.5H759.262V115.5ZM755.357 115.5H753.405V116.5H755.357V115.5ZM751.452 115.5H749.5V116.5H751.452V115.5ZM747.548 115.5H745.595V116.5H747.548V115.5ZM743.643 115.5H741.69V116.5H743.643V115.5ZM739.738 115.5H737.786V116.5H739.738V115.5ZM735.833 115.5H733.881V116.5H735.833V115.5ZM731.929 115.5H729.976V116.5H731.929V115.5ZM728.024 115.5H726.071V116.5H728.024V115.5ZM724.119 115.5H722.167V116.5H724.119V115.5ZM720.214 115.5H718.262V116.5H720.214V115.5ZM716.31 115.5H714.357V116.5H716.31V115.5ZM712.405 115.5L710.452 115.5V116.5L712.405 116.5V115.5ZM708.5 115.5H706.548V116.5H708.5V115.5ZM704.595 115.5H702.643V116.5H704.595V115.5ZM700.69 115.5H698.738V116.5H700.69V115.5ZM696.786 115.5H694.833V116.5H696.786V115.5ZM692.881 115.5H690.929V116.5H692.881V115.5ZM688.976 115.5H688V116.5H688.976V115.5Z" fill="#7B61FF"/>
<line opacity="0.5" x1="669.5" y1="110.5" x2="669.5" y2="121.5" stroke="#7B61FF" stroke-linecap="round" stroke-dasharray="4 4"/>
<path d="M543.117 53.7393H544.055C544.006 54.1885 543.877 54.5905 543.669 54.9453C543.461 55.3001 543.166 55.5817 542.785 55.79C542.404 55.9951 541.929 56.0977 541.359 56.0977C540.943 56.0977 540.563 56.0195 540.222 55.8633C539.883 55.707 539.592 55.4857 539.348 55.1992C539.104 54.9095 538.915 54.5628 538.781 54.1592C538.651 53.7523 538.586 53.2998 538.586 52.8018V52.0938C538.586 51.5957 538.651 51.1449 538.781 50.7412C538.915 50.3343 539.105 49.986 539.353 49.6963C539.603 49.4066 539.904 49.1836 540.256 49.0273C540.607 48.8711 541.003 48.793 541.442 48.793C541.979 48.793 542.434 48.8939 542.805 49.0957C543.176 49.2975 543.464 49.5775 543.669 49.9355C543.877 50.2904 544.006 50.7021 544.055 51.1709H543.117C543.072 50.8389 542.987 50.554 542.863 50.3164C542.74 50.0755 542.564 49.89 542.336 49.7598C542.108 49.6296 541.81 49.5645 541.442 49.5645C541.127 49.5645 540.848 49.6247 540.607 49.7451C540.37 49.8656 540.17 50.0365 540.007 50.2578C539.847 50.4792 539.727 50.7445 539.646 51.0537C539.564 51.363 539.523 51.7064 539.523 52.084V52.8018C539.523 53.1501 539.559 53.4772 539.631 53.7832C539.706 54.0892 539.818 54.3577 539.968 54.5889C540.118 54.82 540.308 55.0023 540.539 55.1357C540.77 55.266 541.044 55.3311 541.359 55.3311C541.76 55.3311 542.079 55.2676 542.316 55.1406C542.554 55.0137 542.733 54.8314 542.854 54.5938C542.977 54.3561 543.065 54.0713 543.117 53.7393ZM549.855 55.2334V56H546.091V55.2334H549.855ZM546.281 48.8906V56H545.339V48.8906H546.281ZM549.357 51.9473V52.7139H546.091V51.9473H549.357ZM549.807 48.8906V49.6621H546.091V48.8906H549.807ZM556.491 48.8906V56H555.544L551.965 50.5166V56H551.022V48.8906H551.965L555.559 54.3887V48.8906H556.491ZM560.642 48.8906V56H559.714V48.8906H560.642ZM562.927 48.8906V49.6621H557.434V48.8906H562.927ZM563.981 48.8906H566.335C566.869 48.8906 567.32 48.972 567.688 49.1348C568.059 49.2975 568.34 49.5384 568.532 49.8574C568.728 50.1732 568.825 50.5622 568.825 51.0244C568.825 51.3499 568.758 51.6478 568.625 51.918C568.495 52.1849 568.306 52.4128 568.059 52.6016C567.814 52.7871 567.521 52.9255 567.18 53.0166L566.916 53.1191H564.704L564.694 52.3525H566.364C566.703 52.3525 566.984 52.2939 567.209 52.1768C567.434 52.0563 567.603 51.8952 567.717 51.6934C567.831 51.4915 567.888 51.2686 567.888 51.0244C567.888 50.751 567.834 50.5117 567.727 50.3066C567.619 50.1016 567.45 49.9437 567.219 49.833C566.991 49.7191 566.696 49.6621 566.335 49.6621H564.924V56H563.981V48.8906ZM568.137 56L566.408 52.7773L567.39 52.7725L569.143 55.9414V56H568.137ZM574.66 55.2334V56H570.896V55.2334H574.66ZM571.086 48.8906V56H570.144V48.8906H571.086ZM574.162 51.9473V52.7139H570.896V51.9473H574.162ZM574.611 48.8906V49.6621H570.896V48.8906H574.611Z" fill="#5D6071"/>
</svg>
